<svg width="281" height="37" viewBox="0 0 281 37" fill="none" xmlns="http://www.w3.org/2000/svg">
<path d="M128.446 6.34277L128.446 31.4073" stroke="#D1D1D1" stroke-miterlimit="10"/>
<path d="M270.822 22.1333H273.053C273.375 23.3523 274.272 24.0653 275.79 24.0653C277.423 24.0653 278.044 23.3753 278.044 22.3863C278.044 21.3513 277.515 20.8913 275.376 20.3853C271.949 19.5343 271.259 18.4763 271.259 16.8893C271.259 15.2103 272.478 13.5312 275.583 13.5312C278.711 13.5312 279.953 15.3253 280.091 16.9583H277.906C277.768 16.2453 277.239 15.2563 275.491 15.2563C273.973 15.2563 273.513 15.9693 273.513 16.7053C273.513 17.5103 273.95 17.9243 276.066 18.4073C279.677 19.2812 280.367 20.4773 280.367 22.2253C280.367 24.2493 278.757 25.7902 275.721 25.7902C272.593 25.7902 271.098 24.2263 270.822 22.1333Z" fill="#7F6346"/>
<path d="M265.958 9.55225H268.327V25.5142H265.958V9.55225Z" fill="#7F6346"/>
<path d="M251.56 25.5142V9.55225H257.724C260.898 9.55225 263.06 11.3232 263.06 14.2442C263.06 17.4412 260.737 19.0742 257.609 19.0742H253.952V25.5142H251.56ZM253.952 11.5072V17.1192H257.448C259.518 17.1192 260.622 16.1302 260.622 14.3132C260.622 12.4272 259.334 11.5072 257.54 11.5072H253.952Z" fill="#7F6346"/>
<path d="M244.957 20.9372H238.678L237.045 25.5142H234.699L240.334 9.55225H243.278L249.143 25.5142H246.636L244.957 20.9372ZM239.253 18.9362H244.359C242.91 14.8882 242.105 12.6802 241.737 11.4152H241.714C241.323 12.8182 240.426 15.4862 239.253 18.9362Z" fill="#7F6346"/>
<path d="M226.1 14.8653H224.26C224.881 12.8413 225.272 10.1963 225.318 8.65527H227.664C227.526 10.6333 226.859 13.3243 226.1 14.8653Z" fill="#7F6346"/>
<path d="M212.985 22.1333H215.216C215.538 23.3523 216.435 24.0653 217.953 24.0653C219.586 24.0653 220.207 23.3753 220.207 22.3863C220.207 21.3513 219.678 20.8913 217.539 20.3853C214.112 19.5343 213.422 18.4763 213.422 16.8893C213.422 15.2103 214.641 13.5312 217.746 13.5312C220.874 13.5312 222.116 15.3253 222.254 16.9583H220.069C219.931 16.2453 219.402 15.2563 217.654 15.2563C216.136 15.2563 215.676 15.9693 215.676 16.7053C215.676 17.5103 216.113 17.9243 218.229 18.4073C221.84 19.2812 222.53 20.4773 222.53 22.2253C222.53 24.2493 220.92 25.7902 217.884 25.7902C214.756 25.7902 213.261 24.2263 212.985 22.1333Z" fill="#7F6346"/>
<path d="M204.866 15.6243V13.8073H206.844V10.4263H209.098V13.8073H211.628V15.6243H209.098V22.2713C209.098 23.3523 209.374 23.9043 210.432 23.9043C210.685 23.9043 211.076 23.8813 211.398 23.8123V25.4683C210.869 25.6523 210.133 25.6753 209.558 25.6753C207.649 25.6753 206.844 24.6863 206.844 22.7313V15.6243H204.866Z" fill="#7F6346"/>
<path d="M203.666 20.1093H195.524C195.524 22.3173 196.628 23.9503 198.56 23.9503C200.308 23.9503 200.86 23.0763 201.228 22.2483H203.505C203.045 23.7433 201.78 25.7902 198.491 25.7902C194.765 25.7902 193.224 22.8232 193.224 19.8103C193.224 16.2912 195.018 13.5312 198.606 13.5312C202.424 13.5312 203.689 16.5443 203.689 19.1202C203.689 19.4882 203.689 19.7873 203.666 20.1093ZM195.593 18.5683H201.412C201.389 16.7513 200.515 15.2793 198.583 15.2793C196.628 15.2793 195.777 16.6363 195.593 18.5683Z" fill="#7F6346"/>
<path d="M184.715 8.65527V19.2813C185.658 18.1313 188.05 15.5783 189.637 13.8073H192.305L187.958 18.3613L192.788 25.5143H190.166L186.417 19.7873L184.715 21.4433V25.5143H182.438V8.65527H184.715Z" fill="#7F6346"/>
<path d="M174.195 25.5143V17.0043C174.195 15.4403 174.195 14.4972 174.172 13.8073H176.403C176.426 14.1292 176.472 15.0953 176.472 16.1533C177.047 14.6122 178.427 13.6003 180.359 13.5312V15.7622C177.967 15.8082 176.472 16.9353 176.472 19.9483V25.5143H174.195Z" fill="#7F6346"/>
<path d="M170.833 17.4183V22.8923C170.833 23.9503 170.925 25.1923 170.994 25.5143H168.832C168.74 25.2613 168.671 24.7093 168.648 24.0653C168.234 24.8243 167.337 25.7902 165.106 25.7902C162.323 25.7902 161.15 23.9963 161.15 22.2023C161.15 19.5803 163.22 18.3843 166.693 18.3843C167.452 18.3843 168.188 18.3843 168.625 18.3843V17.4413C168.625 16.4523 168.303 15.2563 166.233 15.2563C164.393 15.2563 164.071 16.1533 163.864 17.0733H161.702C161.863 15.3713 162.898 13.5312 166.302 13.5312C169.223 13.5542 170.833 14.7273 170.833 17.4183ZM168.625 20.2473V19.8793C168.28 19.8793 167.429 19.8793 166.854 19.8793C164.577 19.8793 163.427 20.5233 163.427 22.0873C163.427 23.2143 164.209 24.0653 165.589 24.0653C168.28 24.0653 168.625 22.2713 168.625 20.2473Z" fill="#7F6346"/>
<path d="M156.263 25.5142V18.8672C156.263 15.9462 156.286 12.9332 156.355 11.2312H156.263C155.573 13.9452 153.181 20.5002 151.41 25.5142H149.294C147.96 21.3742 145.476 14.0142 144.763 11.1852H144.694C144.809 13.0482 144.878 16.5442 144.878 19.2812V25.5142H142.647V9.55225H146.189C147.891 14.3592 149.961 20.5462 150.49 22.6392H150.536C150.904 20.9832 153.365 14.2442 155.136 9.55225H158.563V25.5142H156.263Z" fill="#7F6346"/>
<path d="M18.5996 2.10693C27.6894 2.10693 35.0825 9.46135 35.0825 18.4999C35.0825 27.5384 27.6869 34.8928 18.5996 34.8928C9.51235 34.8928 2.1167 27.5384 2.1167 18.4999C2.1167 9.46135 9.50981 2.10693 18.5996 2.10693ZM18.5996 34.3129C27.3684 34.3129 34.5017 27.2193 34.5017 18.4999C34.5017 9.78044 27.3684 2.68688 18.5996 2.68688C9.8308 2.68688 2.69755 9.78044 2.69755 18.4999C2.69755 27.2193 9.8308 34.3129 18.5996 34.3129Z" fill="#DB8F21"/>
<path d="M20.7961 19.1124L21.8788 17.5625H20.1362L20.7961 19.1124Z" fill="#DB8F21"/>
<path d="M18.5999 20.2144H18.1897H18.0674H17.1758L18.2891 21.8098L18.5999 22.2556V22.253V22.2556L20.0265 20.2144H19.01H18.5999Z" fill="#DB8F21"/>
<path d="M8.7334 26.0369H13.4515L10.6925 22.2559L8.7334 26.0369Z" fill="#DB8F21"/>
<path d="M4.64648 13.9619L7.64755 18.0798L10.8091 13.9619H4.64648Z" fill="#DB8F21"/>
<path d="M10.9468 7.00195L13.1836 10.864L16.149 7.00195H10.9468Z" fill="#DB8F21"/>
<path d="M4.44531 22.2557H10.692L7.64763 18.0796L4.44531 22.2557Z" fill="#DB8F21"/>
<path d="M9.2168 10.8647L10.809 13.962L13.1834 10.8647H9.2168Z" fill="#DB8F21"/>
<path d="M18.6003 20.214L18.8117 19.8468L20.1339 17.5625H17.0615L18.5977 20.214H18.6003ZM18.0984 18.4387C18.0984 18.1627 18.3226 17.9373 18.6003 17.9373C18.878 17.9373 19.1021 18.1627 19.1021 18.4387C19.1021 18.7148 18.878 18.9402 18.6003 18.9402C18.3226 18.9402 18.0984 18.7148 18.0984 18.4387Z" fill="#DB8F21"/>
<path d="M20.1359 17.5625L21.0811 15.9341H19.4404L20.1359 17.5625Z" fill="#DB8F21"/>
<path d="M12.1367 29.1211H15.6982L13.4513 26.0391L12.1367 29.1211Z" fill="#DB8F21"/>
<path d="M25.063 29.1211L23.7484 26.0391L21.5015 29.1211H25.063Z" fill="#DB8F21"/>
<path d="M15.3213 17.5625L16.404 19.1124L17.0638 17.5625H15.3213Z" fill="#DB8F21"/>
<path d="M26.253 7.00195H21.0508L24.0162 10.864L26.253 7.00195Z" fill="#DB8F21"/>
<path d="M18.4497 15.9347H18.6H18.7503H18.9286H19.4407L18.6 13.9619L17.7593 15.9347H18.3325H18.4497Z" fill="#DB8F21"/>
<path d="M22.1923 18.2007L23.2343 15.9341H21.0815L21.8789 17.5625L22.1923 18.2007Z" fill="#DB8F21"/>
<path d="M27.9853 10.8647H24.0161L26.393 13.962L27.9853 10.8647Z" fill="#DB8F21"/>
<path d="M32.5531 13.9619H26.3931L29.5521 18.0798L32.5531 13.9619Z" fill="#DB8F21"/>
<path d="M32.754 22.2557L29.5517 18.0796L26.5073 22.2557H32.754Z" fill="#DB8F21"/>
<path d="M16.4039 19.1128L15.9326 20.217H17.1758L16.4039 19.1128Z" fill="#DB8F21"/>
<path d="M20.335 22.2556H22.1285H22.1336L21.2674 20.2144L20.335 22.2556Z" fill="#DB8F21"/>
<path d="M17.9302 7.00258H18.6002H19.2728H19.795H21.051L18.6002 3.80908L16.1494 7.00258H17.6245H17.9302Z" fill="#DB8F21"/>
<path d="M14.9851 13.9619H10.8096L12.891 18.0139L14.9851 13.9619Z" fill="#DB8F21"/>
<path d="M16.5974 10.8647H13.1836L14.9847 13.962L16.5974 10.8647Z" fill="#DB8F21"/>
<path d="M23.1778 20.2144L22.1333 22.2556H22.1358H26.5075L24.3089 18.0137L23.1778 20.2144Z" fill="#DB8F21"/>
<path d="M24.309 18.0139L26.3929 13.9619H22.2148L24.309 18.0139Z" fill="#DB8F21"/>
<path d="M18.5998 13.962H18.9845H20.1156L19.201 12.093L18.5998 10.8647L17.084 13.962H18.2992H18.5998Z" fill="#DB8F21"/>
<path d="M26.5076 22.2559L23.7485 26.0369H28.4692L26.5076 22.2559Z" fill="#DB8F21"/>
<path d="M15.0666 22.2556L14.0221 20.2144L12.891 18.0137L10.6924 22.2556H15.064H15.0666Z" fill="#DB8F21"/>
<path d="M20.1841 26.0369H23.7482L22.133 22.2559L20.1841 26.0369Z" fill="#DB8F21"/>
<path d="M18.9617 29.1216H18.5999H18.3681H17.6752H15.6982L18.5999 33.1002L21.5017 29.1216H19.5247H18.9617Z" fill="#DB8F21"/>
<path d="M15.0663 22.2559L13.4512 26.0369H17.0153L15.0663 22.2559Z" fill="#DB8F21"/>
<path d="M22.2152 13.962L24.0163 10.8647H20.6025L22.2152 13.962Z" fill="#DB8F21"/>
<path d="M19.1142 22.2559H18.5995H18.1155H17.9983H16.8672L18.2047 25.1733L18.5995 26.0369L20.3345 22.2559H19.2008H19.1142Z" fill="#DB8F21"/>
<path d="M21.0813 15.9347L22.2149 13.9619H20.1157L21.0813 15.9347Z" fill="#DB8F21"/>
<path d="M19.0945 26.0366H18.6002H18.1595H18.0321H17.0156L18.6002 29.1187L19.0104 28.3235L20.1848 26.0366H19.1683H19.0945Z" fill="#DB8F21"/>
<path d="M20.0269 20.2144H21.2675L20.7962 19.1128L20.0269 20.2144Z" fill="#DB8F21"/>
<path d="M15.3211 17.5625L16.1185 15.9341H13.9658L15.0103 18.2007L15.3211 17.5625Z" fill="#DB8F21"/>
<path d="M17.7593 15.9341H16.1187L17.0638 17.5625L17.7593 15.9341Z" fill="#DB8F21"/>
<path d="M21.2671 20.2145H23.1778L22.1919 18.2012L21.2671 20.2145Z" fill="#DB8F21"/>
<path d="M16.8676 22.2556L15.9326 20.2144L15.0664 22.2556H15.0715H16.8676Z" fill="#DB8F21"/>
<path d="M15.0104 18.2012L14.022 20.2145H15.9327L15.0104 18.2012Z" fill="#DB8F21"/>
<path d="M18.2862 10.864H18.5996H18.8467H18.9944H20.602L18.5996 7.00195L16.5972 10.864H18.2047H18.2862Z" fill="#DB8F21"/>
<path d="M17.0841 13.9619H14.9849L16.1185 15.9347L17.0841 13.9619Z" fill="#DB8F21"/>
<path d="M18.6 37C8.34336 37 0 28.701 0 18.5C0 8.29904 8.34336 0 18.6 0C28.8566 0 37.1999 8.29904 37.1999 18.5C37.1999 28.701 28.8566 37 18.6 37ZM18.6 0.597673C8.67455 0.597673 0.598684 8.62827 0.598684 18.5C0.598684 28.3717 8.67455 36.4023 18.6 36.4023C28.5254 36.4023 36.6012 28.3717 36.6012 18.5C36.6012 8.62827 28.5254 0.597673 18.6 0.597673Z" fill="#DB8F21"/>
<path d="M62.003 22.0607H61.7762L61.7813 22.0557H58.5077L58.9611 22.5571L54.834 30.2711L53.8838 31.2765H57.1574L56.7906 30.8713L57.6364 29.2885H63.5774L64.4334 30.8865L64.0665 31.274H67.3402L66.3135 30.142L62.0004 22.0582L62.003 22.0607ZM58.5586 27.5335L60.5941 23.755L62.6297 27.5335H58.5586Z" fill="#DB8F21"/>
<path d="M77.9665 22.8939C77.6633 22.628 77.2965 22.4203 76.8659 22.276C76.4354 22.1316 75.9539 22.0607 75.4265 22.0607H70.5938L70.5989 22.0557H67.3252L67.8347 22.6179V30.7346L67.3252 31.274H70.5989L70.0893 30.7093V28.0147H75.3374C76.5245 28.0147 77.4188 27.7639 78.02 27.265C78.6212 26.7636 78.9218 26.0342 78.9218 25.077C78.9218 24.6287 78.8378 24.2184 78.6722 23.8487C78.5066 23.4789 78.2696 23.1624 77.969 22.8939M76.2978 25.938C76.0329 26.1533 75.6609 26.2596 75.1845 26.2596H70.0893V23.8158H75.1718C75.666 23.8158 76.043 23.9221 76.3055 24.1374C76.5653 24.3527 76.6952 24.6616 76.6952 25.0643C76.6952 25.434 76.5628 25.7253 76.2978 25.938Z" fill="#DB8F21"/>
<path d="M90.1641 23.8183H93.7562L94.5816 24.3805V23.8183V22.0607V21.4731L93.769 22.0607H84.2741L83.4971 21.4731V22.0607V23.8183V24.3805L84.3582 23.8183H87.912V30.7345L87.4025 31.2765H90.6762L90.1641 30.7117V23.8183Z" fill="#DB8F21"/>
<path d="M82.7429 22.0557H79.4692L79.9788 22.6204V30.7346L79.4692 31.2765H82.7429L82.2334 30.7118V22.5976L82.7429 22.0557Z" fill="#DB8F21"/>
<path d="M99.96 22.0607H99.7333L99.7383 22.0557H96.4647L96.9182 22.5571L92.7911 30.2711L91.8408 31.2765H95.1145L94.7476 30.8713L95.5934 29.2885H101.534L102.39 30.8865L102.024 31.274H105.297L104.271 30.142L99.9574 22.0582L99.96 22.0607ZM96.5156 27.5335L98.5512 23.755L100.587 27.5335H96.5156Z" fill="#DB8F21"/>
<path d="M114.713 29.519H108.181V22.6052L108.701 22.0557H105.424L105.926 22.6103V30.7447L105.424 31.2765H105.926H108.701H114.72L115.317 31.7932V31.2765V29.519V29.0201L114.713 29.519Z" fill="#DB8F21"/>
<path d="M54.3582 29.8203L52.1545 27.6424L52.0526 28.4173C51.6195 28.8099 51.1635 29.1138 50.682 29.329C50.0502 29.6101 49.342 29.7494 48.5573 29.7494C47.9433 29.7494 47.3854 29.6734 46.8861 29.5215C46.3868 29.3695 45.9613 29.1543 45.6123 28.8782C45.2633 28.6022 44.9907 28.2755 44.7996 27.8982C44.6085 27.5208 44.5117 27.1029 44.5117 26.6446C44.5117 26.1862 44.606 25.7936 44.7945 25.4163C44.983 25.0389 45.2454 24.7123 45.5817 24.4362C45.918 24.1602 46.3231 23.9474 46.7969 23.7929C47.2708 23.641 47.7981 23.565 48.379 23.565C49.2146 23.565 49.9687 23.717 50.6387 24.0158C51.0845 24.2159 51.4947 24.4641 51.8743 24.7553L51.9915 25.6442L54.1824 23.4536L53.3162 23.3422C52.8729 22.98 52.3991 22.6837 51.8946 22.4533C50.9266 22.0075 49.8158 21.7847 48.5598 21.7847C47.63 21.7847 46.7638 21.9164 45.9613 22.1797C45.1588 22.4431 44.4633 22.8154 43.8723 23.2991C43.3398 23.7322 42.9399 24.2311 42.6673 24.8009C42.3972 25.3682 42.2622 25.9836 42.2622 26.6471C42.2622 27.4271 42.4456 28.1438 42.815 28.7972C43.1844 29.4506 43.6812 29.9672 44.3079 30.3496C44.9754 30.7574 45.6607 31.0562 46.3638 31.2461C47.067 31.4361 47.8338 31.5323 48.6618 31.5323C49.2681 31.5323 49.8336 31.4867 50.3584 31.393C50.8833 31.2993 51.3775 31.1499 51.8437 30.9473C52.3099 30.7447 52.7481 30.4838 53.1633 30.1698C53.2576 30.0964 53.3519 30.0204 53.4461 29.9419L54.3633 29.8229L54.3582 29.8203Z" fill="#DB8F21"/>
<path d="M58.6706 5.90298H55.025H54.355L55.025 6.64248V17.3499L54.355 18.059H55.025H57.998H58.6706L57.998 17.317V13.0548H64.3874L65.1644 13.731V13.3384V10.4514V10.074L64.3619 10.7376H57.998V8.22023H67.5464L68.2852 8.86096V8.22023V5.90298V5.20654L67.442 5.90298H58.6706Z" fill="#DB8F21"/>
<path d="M46.5749 5.90283H45.9049H42.9318H42.2593L42.9318 6.64486V17.3473L42.2593 18.0589H42.9318H45.9049H46.5749L45.9049 17.3169V6.61447L46.5749 5.90283Z" fill="#DB8F21"/>
<path d="M52.6229 5.90283H51.9503H48.9773H48.3047L48.9773 6.64486V17.3473L48.3047 18.0589H48.9773H51.9503H52.6229L51.9503 17.3169V6.61447L52.6229 5.90283Z" fill="#DB8F21"/>
<path d="M81.5788 15.7416H72.9654V6.6246L73.6481 5.90283H69.3325L69.9923 6.6322V17.3599L69.3325 18.0589H69.9923H73.6481H81.589L82.3736 18.7427V18.0589V15.7416V15.0857L81.5788 15.7416Z" fill="#DB8F21"/>
</svg>
