<svg width="44" height="41" viewBox="0 0 44 41" fill="none" xmlns="http://www.w3.org/2000/svg">
<rect width="37.4857" height="37.4857" transform="matrix(1 0 0 -1 5.85742 41)" fill="#FDA50D"/>
<path opacity="0.2" d="M0 37.4854H37.4857V-0.000362396H0V37.4854Z" fill="#FDA50D"/>
<path d="M32.7579 15.4103C32.7579 15.4495 32.7555 15.4886 32.7509 15.5275C32.7602 15.4572 32.7684 15.3904 32.7778 15.3201C32.7665 15.4094 32.7437 15.4968 32.7099 15.5802L32.7825 15.3928C32.7567 15.4576 32.7257 15.5203 32.6899 15.5802C32.6735 15.6083 32.6536 15.6353 32.6361 15.6634C32.5798 15.7512 32.7696 15.49 32.7017 15.572L32.67 15.613C32.6222 15.6722 32.571 15.7285 32.5166 15.7817C32.4873 15.8098 32.4557 15.8414 32.424 15.8672L32.3807 15.9059C32.2975 15.9808 32.5435 15.7758 32.4533 15.8461C32.1277 16.0925 31.7738 16.299 31.399 16.4611L31.5747 16.3838C30.4247 16.8631 29.2142 17.182 27.9773 17.3315L28.1717 17.3034C26.3683 17.5532 24.543 17.6062 22.7281 17.4615C22.2385 17.4225 21.7504 17.3697 21.2638 17.3034L21.4583 17.3315C20.2218 17.183 19.0117 16.8649 17.862 16.3861L18.0377 16.4635C17.6645 16.2982 17.3109 16.092 16.9834 15.8485C16.9003 15.7864 17.1275 15.9656 17.0666 15.9164L17.0268 15.8789C16.9951 15.8508 16.9635 15.8215 16.9342 15.7934C16.8803 15.7383 16.8276 15.6845 16.7784 15.6247L16.7398 15.5755C16.6789 15.5005 16.8569 15.7442 16.8124 15.6763C16.7925 15.6446 16.7714 15.6165 16.7538 15.5849C16.719 15.5244 16.6881 15.4618 16.6613 15.3975L16.7339 15.5849C16.7012 15.5011 16.6784 15.4139 16.666 15.3248C16.6753 15.3951 16.6835 15.4619 16.6929 15.5322C16.682 15.447 16.682 15.3608 16.6929 15.2756C16.6835 15.3459 16.6753 15.4127 16.666 15.483C16.6796 15.3932 16.7031 15.3052 16.7363 15.2206L16.6636 15.408C16.6934 15.3373 16.7283 15.2687 16.7679 15.203C16.8557 15.0624 16.6894 15.2967 16.7316 15.2475C16.7562 15.2194 16.7773 15.1901 16.7995 15.162C16.8581 15.0943 16.9207 15.0301 16.9869 14.9699L17.0678 14.8996C16.8921 15.0706 17.0139 14.9441 17.0678 14.8996C17.3714 14.6783 17.6992 14.492 18.0447 14.3443L17.869 14.4217C19.0134 13.9456 20.2181 13.6303 21.4489 13.4845L21.2591 13.5126C23.0679 13.2608 24.8987 13.207 26.7192 13.3521C27.2112 13.3908 27.7008 13.4435 28.1881 13.5126L27.9937 13.4845C29.2245 13.6302 30.4292 13.9456 31.5736 14.4217L31.3979 14.3443C31.7429 14.4931 32.0705 14.6793 32.3748 14.8996C32.4217 14.9359 32.5576 15.0636 32.3748 14.8996L32.4557 14.9699C32.5219 15.0302 32.5845 15.0943 32.6431 15.162C32.663 15.1854 32.6817 15.2112 32.704 15.2346C32.7813 15.3307 32.5869 15.0531 32.6771 15.2007C32.7181 15.2656 32.753 15.3342 32.7813 15.4057L32.7087 15.2182C32.7418 15.3028 32.7653 15.3908 32.779 15.4806C32.7696 15.4103 32.7626 15.3436 32.752 15.2733C32.7606 15.3177 32.7645 15.3628 32.7637 15.408C32.7568 15.5082 32.7705 15.6087 32.8041 15.7034C32.8376 15.798 32.8903 15.8847 32.9588 15.9581C33.0273 16.0316 33.1102 16.0901 33.2023 16.1301C33.2944 16.1702 33.3937 16.1908 33.4941 16.1908C33.5945 16.1908 33.6939 16.1702 33.786 16.1301C33.8781 16.0901 33.961 16.0316 34.0295 15.9581C34.098 15.8847 34.1506 15.798 34.1842 15.7034C34.2177 15.6087 34.2315 15.5082 34.2245 15.408C34.192 15.0149 34.0654 14.6353 33.8554 14.3014C33.6454 13.9674 33.3582 13.6889 33.0179 13.4892C32.4621 13.1223 31.8582 12.8341 31.2233 12.6329C29.8532 12.1917 28.4349 11.9172 26.9991 11.8152C25.3661 11.6695 23.7229 11.6809 22.092 11.8492C20.6902 11.965 19.3084 12.2562 17.9791 12.7161C16.7445 13.1776 15.0119 14.0527 15.2556 15.7372C15.3479 16.2075 15.5954 16.6332 15.9584 16.9461C16.4196 17.3477 16.9441 17.6703 17.5106 17.9008C18.8953 18.4606 20.3565 18.8089 21.8449 18.934C23.4865 19.1218 25.1426 19.1489 26.7895 19.0148C28.3446 18.9236 29.8807 18.627 31.358 18.1327C31.9388 17.9396 32.4921 17.6718 33.0039 17.3362C33.4404 17.0647 33.7954 16.6801 34.0312 16.2233C34.1526 15.9667 34.2181 15.6872 34.2233 15.4033C34.2272 15.2038 34.1529 15.0106 34.0164 14.8651C33.8798 14.7195 33.6918 14.6331 33.4924 14.6243C33.2931 14.6352 33.1056 14.7224 32.9691 14.868C32.8325 15.0135 32.7573 15.2061 32.7591 15.4057L32.7579 15.4103Z" fill="white" stroke="white" stroke-width="0.5"/>
<path d="M32.7559 15.631V20.2464C32.767 20.4693 32.7647 20.6927 32.7489 20.9153C32.7583 20.8474 32.7665 20.7818 32.7759 20.7138C32.7646 20.8004 32.7417 20.8851 32.7079 20.9657L32.7805 20.7841C32.7547 20.847 32.7237 20.9078 32.688 20.9657C32.6716 20.9938 32.6517 21.0184 32.6341 21.0465C32.5779 21.132 32.7677 20.8778 32.6997 20.9586L32.6681 20.9985C32.6202 21.0561 32.5689 21.1108 32.5146 21.1625C32.4853 21.1906 32.4537 21.2199 32.4221 21.2456L32.3787 21.2831C32.2956 21.3558 32.5416 21.1578 32.4514 21.2257C32.1247 21.4653 31.7708 21.6654 31.3971 21.822L31.5728 21.747C30.4207 22.2118 29.2116 22.5203 27.9777 22.6642L28.1721 22.6361C26.37 22.8784 24.5474 22.9303 22.7344 22.7908C22.2455 22.7533 21.7578 22.7021 21.2713 22.6373L21.4657 22.6654C20.2317 22.5217 19.0226 22.2132 17.8706 21.7482L18.0463 21.8232C17.6737 21.6645 17.32 21.4645 16.992 21.2269C16.9089 21.166 17.1361 21.344 17.0752 21.2925L17.0319 21.255C17.0002 21.2269 16.9686 21.2 16.9393 21.1718C16.8854 21.1191 16.8327 21.0664 16.7835 21.009L16.7449 20.961C16.6839 20.8884 16.862 21.125 16.8175 21.0594C16.7976 21.0289 16.7765 21.002 16.7589 20.9715C16.7242 20.9131 16.6932 20.8524 16.6664 20.7899L16.739 20.9715C16.7064 20.8906 16.6836 20.806 16.6711 20.7197C16.6804 20.7876 16.6886 20.8532 16.698 20.9212C16.6847 20.7379 16.6824 20.5541 16.691 20.3706V15.6357H15.2337C15.2431 16.7977 16.3313 17.5287 17.2521 17.9387C18.7223 18.5466 20.2775 18.9239 21.8628 19.0574C23.5632 19.2445 25.2777 19.2645 26.982 19.1171C28.5679 19.0235 30.133 18.7081 31.6314 18.18C32.1953 17.9853 32.7278 17.7091 33.2116 17.36C33.6676 17.0497 34.0039 16.593 34.1652 16.0656C34.1978 15.9281 34.2158 15.7875 34.2191 15.6462C34.2234 15.5479 34.2079 15.4497 34.1734 15.3575C34.1389 15.2653 34.0862 15.181 34.0183 15.1097C33.9504 15.0384 33.8688 14.9815 33.7785 14.9425C33.6881 14.9035 33.5908 14.8832 33.4923 14.8827C33.3939 14.8822 33.2964 14.9016 33.2056 14.9398C33.1149 14.9779 33.0328 15.034 32.9642 15.1046C32.8957 15.1753 32.8421 15.259 32.8067 15.3509C32.7713 15.4427 32.7548 15.5408 32.7583 15.6392C32.7584 15.6783 32.7561 15.7175 32.7513 15.7563C32.7606 15.6884 32.7688 15.6228 32.7782 15.5548C32.7668 15.6414 32.744 15.7261 32.7103 15.8067L32.7829 15.6251C32.757 15.688 32.726 15.7488 32.6903 15.8067C32.6728 15.8348 32.654 15.8594 32.6365 15.8875C32.5802 15.973 32.77 15.7188 32.7021 15.7997L32.6704 15.8395C32.6225 15.8967 32.5712 15.9511 32.517 16.0023C32.4877 16.0304 32.4561 16.0597 32.4244 16.0855L32.3811 16.123C32.2979 16.1956 32.5439 15.9976 32.4537 16.0656C32.127 16.3052 31.7731 16.5053 31.3994 16.6618L31.5751 16.5869C30.4231 17.0516 29.214 17.3601 27.98 17.5041L28.1745 17.476C26.3715 17.7181 24.5481 17.7695 22.7344 17.6294C22.2455 17.592 21.7578 17.5408 21.2713 17.476L21.4657 17.5041C20.2319 17.3588 19.0232 17.0487 17.8718 16.5822L18.0475 16.6572C17.6753 16.4975 17.3218 16.2976 16.9932 16.0609C16.91 16 17.1373 16.178 17.0764 16.1265L17.033 16.089C17.0014 16.0609 16.9698 16.034 16.9405 16.0058C16.8866 15.9531 16.8339 15.9004 16.7847 15.8418L16.746 15.7938C16.6851 15.7212 16.8632 15.9578 16.8187 15.8922C16.7987 15.8618 16.7777 15.8348 16.7601 15.8044C16.7253 15.7459 16.6944 15.6852 16.6675 15.6228L16.7402 15.8044C16.7075 15.7234 16.6847 15.6389 16.6722 15.5525C16.6816 15.6204 16.6898 15.686 16.6992 15.754C16.6945 15.7151 16.6922 15.676 16.6921 15.6368C16.6931 15.4407 16.6173 15.2519 16.4809 15.1109C16.3446 14.97 16.1584 14.8879 15.9623 14.8824C15.7666 14.8888 15.5809 14.9711 15.4447 15.1119C15.3085 15.2527 15.2324 15.4409 15.2325 15.6368V20.749C15.2282 21.1269 15.3394 21.4972 15.5512 21.8103C15.8983 22.2821 16.3539 22.6635 16.8796 22.922C17.517 23.2468 18.1879 23.5013 18.8804 23.681C20.5743 24.1155 22.3142 24.3452 24.0628 24.3652C25.8602 24.418 27.6582 24.2774 29.4256 23.9458C30.1718 23.8095 30.9048 23.6084 31.6161 23.3448C32.2229 23.132 32.7931 22.8266 33.3065 22.4393C33.7405 22.1303 34.0503 21.6768 34.1804 21.1601C34.2158 20.93 34.2296 20.697 34.2214 20.4643V15.6357C34.2253 15.537 34.2093 15.4385 34.1743 15.3462C34.1392 15.2538 34.0859 15.1695 34.0175 15.0983C33.949 15.0271 33.8669 14.9704 33.7761 14.9317C33.6852 14.893 33.5874 14.873 33.4887 14.873C33.3899 14.873 33.2922 14.893 33.2013 14.9317C33.1104 14.9704 33.0283 15.0271 32.9599 15.0983C32.8915 15.1695 32.8381 15.2538 32.8031 15.3462C32.768 15.4385 32.752 15.537 32.7559 15.6357V15.631Z" fill="white" stroke="white" stroke-width="0.5"/>
<path d="M32.7566 20.8225V24.9225C32.7677 25.1208 32.7654 25.3196 32.7496 25.5176C32.759 25.4567 32.7672 25.4004 32.7766 25.3383C32.7651 25.4159 32.7422 25.4913 32.7086 25.5621L32.7812 25.4016C32.7551 25.4577 32.7241 25.5114 32.6887 25.5621C32.6723 25.5867 32.6524 25.6089 32.6348 25.6335C32.5786 25.7097 32.7684 25.4836 32.7004 25.5551L32.6688 25.5914C32.6205 25.6427 32.5693 25.6912 32.5153 25.7366C32.486 25.7612 32.4544 25.7882 32.4228 25.8104L32.3794 25.8444C32.2963 25.9088 32.5423 25.7273 32.4521 25.7929C32.1213 26.0077 31.7677 26.1853 31.3978 26.3223L31.5735 26.2556C30.4124 26.6724 29.2054 26.9477 27.9784 27.0756L28.1728 27.051C26.3677 27.2661 24.5464 27.3116 22.7327 27.1869C22.2438 27.1533 21.7561 27.108 21.2696 27.051L21.4641 27.0756C20.2371 26.948 19.0299 26.6726 17.869 26.2556L18.0447 26.3223C17.676 26.1825 17.3227 26.005 16.9904 25.7929C16.9072 25.739 17.1345 25.8983 17.0736 25.8514L17.0302 25.8175C16.9986 25.7929 16.967 25.7683 16.9377 25.7437C16.8838 25.6968 16.8311 25.6499 16.7819 25.5984L16.7432 25.5562C16.6823 25.4918 16.8604 25.7015 16.8158 25.6441C16.7959 25.6171 16.7748 25.5925 16.7573 25.5656C16.7228 25.5143 16.6918 25.4607 16.6647 25.4051L16.7374 25.5656C16.705 25.4943 16.6821 25.4191 16.6694 25.3419C16.6788 25.4028 16.687 25.459 16.6964 25.5211C16.6831 25.3582 16.6807 25.1946 16.6893 25.0314V20.8272H15.2344C15.2438 21.8604 16.332 22.5105 17.2528 22.8748C18.7363 23.4181 20.288 23.7528 21.8635 23.8694C23.5651 24.0359 25.278 24.0539 26.9827 23.9233C28.5614 23.8403 30.1234 23.5593 31.6321 23.0869C32.1885 22.9152 32.719 22.6685 33.2088 22.3535C33.6518 22.0933 33.9893 21.6858 34.1624 21.202C34.1949 21.08 34.213 20.9546 34.2162 20.8283C34.2008 20.6458 34.1176 20.4757 33.983 20.3514C33.8484 20.2272 33.6722 20.1578 33.4891 20.1569C33.3059 20.156 33.129 20.2237 32.9933 20.3467C32.8575 20.4696 32.7727 20.639 32.7555 20.8213C32.7557 20.8566 32.7533 20.8918 32.7484 20.9267C32.7578 20.8658 32.766 20.8096 32.7754 20.7475C32.7638 20.825 32.7409 20.9004 32.7074 20.9713L32.7801 20.8108C32.7539 20.8668 32.7229 20.9205 32.6875 20.9713C32.67 20.9959 32.6512 21.0181 32.6336 21.0427C32.5774 21.1189 32.7672 20.8928 32.6992 20.9642L32.6676 21.0005C32.6193 21.0519 32.5681 21.1004 32.5142 21.1458C32.4849 21.1704 32.4532 21.1973 32.4216 21.2196L32.3783 21.2536C32.2951 21.318 32.5411 21.1364 32.4509 21.202C32.1201 21.4169 31.7665 21.5945 31.3966 21.7315L31.5723 21.6647C30.4113 22.0816 29.2042 22.3569 27.9772 22.4847L28.1717 22.4601C26.3665 22.6753 24.5452 22.7207 22.7316 22.596C22.2427 22.5624 21.755 22.5172 21.2684 22.4601L21.4629 22.4847C20.2359 22.3572 19.0288 22.0818 17.8678 21.6647L18.0435 21.7315C17.6745 21.5925 17.3211 21.415 16.9892 21.202C16.906 21.1481 17.1333 21.3075 17.0724 21.2606L17.029 21.2266C16.9974 21.202 16.9658 21.1774 16.9365 21.1528C16.8826 21.106 16.8299 21.0591 16.7807 21.0076L16.742 20.9654C16.6811 20.901 16.8592 21.1107 16.8147 21.0521C16.7948 21.0251 16.7737 21.0005 16.7561 20.9736C16.7216 20.9223 16.6907 20.8687 16.6636 20.8131L16.7362 20.9736C16.7038 20.9023 16.6809 20.8271 16.6682 20.7499C16.6776 20.8108 16.6858 20.867 16.6952 20.9291C16.6905 20.8941 16.6881 20.8589 16.6882 20.8237C16.6776 20.639 16.5954 20.4657 16.4592 20.3406C16.3229 20.2155 16.1433 20.1484 15.9584 20.1536C15.7736 20.149 15.5943 20.2163 15.4582 20.3413C15.322 20.4663 15.2397 20.6392 15.2286 20.8237V25.3676C15.2261 25.7088 15.3383 26.0409 15.5472 26.3106C15.9068 26.7391 16.3617 27.0773 16.8756 27.2981C17.5185 27.5888 18.1887 27.8148 18.8764 27.9729C20.5772 28.3599 22.3146 28.5637 24.0588 28.5809C25.8542 28.6277 27.65 28.5025 29.4216 28.2072C30.1646 28.0867 30.8971 27.9081 31.6122 27.673C32.211 27.4873 32.7799 27.2163 33.3014 26.8682C33.7229 26.6098 34.0341 26.2047 34.1752 25.7308C34.2107 25.5262 34.2245 25.3185 34.2162 25.1111V20.8248C34.1999 20.6418 34.1156 20.4715 33.98 20.3475C33.8444 20.2235 33.6673 20.1547 33.4835 20.1547C33.2998 20.1547 33.1227 20.2235 32.987 20.3475C32.8514 20.4715 32.7672 20.6418 32.7508 20.8248L32.7566 20.8225Z" fill="white" stroke="white" stroke-width="0.5"/>
<path d="M32.7609 25.1245V29.747C32.7719 29.966 32.7695 30.1854 32.7539 30.4041C32.7632 30.3362 32.7714 30.2706 32.7808 30.2027C32.7687 30.2877 32.7467 30.3711 32.7152 30.451L32.7878 30.2706C32.7627 30.3323 32.7325 30.3919 32.6976 30.4487C32.6777 30.4791 32.659 30.5096 32.6367 30.5389C32.5828 30.6173 32.7726 30.3655 32.7094 30.4405C32.6976 30.4533 32.6871 30.4686 32.6754 30.4803C32.6262 30.5377 32.5758 30.5904 32.5219 30.6431L32.4341 30.7239C32.42 30.7368 32.4024 30.7485 32.3872 30.7638C32.283 30.8516 32.5184 30.663 32.4622 30.704C32.1358 30.9448 31.7819 31.1457 31.4079 31.3026L31.5836 31.2277C30.4392 31.6907 29.238 31.9984 28.0119 32.1425L28.2064 32.1144C26.3897 32.3605 24.552 32.4135 22.7241 32.2726C22.2298 32.2351 21.7366 32.1824 21.2446 32.1144L21.439 32.1425C20.2134 31.9983 19.0125 31.6906 17.8685 31.2277L18.0442 31.3026C17.6712 31.1438 17.3175 30.943 16.99 30.704C16.9267 30.656 17.1657 30.8469 17.0731 30.7696C17.0591 30.7567 17.0415 30.745 17.0274 30.7298L16.9326 30.6443C16.8787 30.5916 16.8283 30.5389 16.7791 30.4815C16.7674 30.4686 16.7568 30.4533 16.7451 30.4416C16.6819 30.3667 16.8716 30.6197 16.8178 30.54C16.7978 30.5119 16.7791 30.485 16.7615 30.4569C16.7251 30.3974 16.6933 30.3351 16.6666 30.2706L16.7393 30.451C16.7078 30.3711 16.6858 30.2877 16.6737 30.2027C16.683 30.2706 16.6912 30.3362 16.7006 30.4041C16.6873 30.2252 16.685 30.0457 16.6936 29.8665V25.1245H15.2398C15.2492 26.2854 16.3375 27.0175 17.2582 27.4275C18.7284 28.0354 20.2836 28.4128 21.869 28.5463C23.5693 28.7337 25.2838 28.7541 26.9881 28.6072C28.5741 28.5135 30.1391 28.198 31.6375 27.67C32.2015 27.4753 32.7339 27.199 33.2178 26.85C33.6741 26.5399 34.0109 26.0832 34.1725 25.5556C34.205 25.4181 34.2231 25.2775 34.2264 25.1362C34.2303 25.0377 34.2143 24.9394 34.1793 24.8472C34.1443 24.755 34.0911 24.6708 34.0228 24.5997C33.9544 24.5286 33.8725 24.472 33.7817 24.4334C33.691 24.3947 33.5934 24.3748 33.4948 24.3748C33.3962 24.3748 33.2986 24.3947 33.2079 24.4334C33.1171 24.472 33.0352 24.5286 32.9668 24.5997C32.8985 24.6708 32.8453 24.755 32.8103 24.8472C32.7753 24.9394 32.7593 25.0377 32.7632 25.1362C32.7633 25.1754 32.761 25.2145 32.7562 25.2534C32.7656 25.1854 32.7738 25.1198 32.7832 25.0519C32.7718 25.1385 32.749 25.2232 32.7152 25.3037L32.7878 25.1222C32.7619 25.1851 32.731 25.2458 32.6953 25.3037C32.6789 25.3319 32.659 25.3565 32.6414 25.3846C32.5852 25.4701 32.775 25.2159 32.707 25.2967L32.6754 25.3365C32.6274 25.3937 32.5762 25.4481 32.5219 25.4994C32.4926 25.5275 32.461 25.5568 32.4294 25.5825L32.386 25.62C32.3029 25.6927 32.5489 25.4947 32.4587 25.5626C32.1319 25.8021 31.778 26.0023 31.4044 26.1589L31.5801 26.0839C30.428 26.5486 29.2189 26.8571 27.985 27.0011L28.1794 26.973C26.3761 27.2152 24.5523 27.2666 22.7382 27.1265C22.2485 27.089 21.7608 27.0379 21.275 26.973L21.4695 27.0011C20.2353 26.8528 19.0265 26.5395 17.8756 26.0699L18.0513 26.1448C17.6791 25.9852 17.3256 25.7853 16.997 25.5486C16.9138 25.4888 17.1411 25.6657 17.0802 25.6142L17.0368 25.5767C17.0052 25.5486 16.9736 25.5216 16.9443 25.4935C16.8904 25.4408 16.8377 25.3881 16.7885 25.3295L16.7498 25.2815C16.6889 25.2089 16.867 25.4455 16.8224 25.3799C16.8025 25.3494 16.7814 25.3225 16.7639 25.292C16.7291 25.2336 16.6982 25.1729 16.6713 25.1105L16.744 25.292C16.7113 25.2111 16.6885 25.1265 16.676 25.0402C16.6854 25.1081 16.6936 25.1737 16.703 25.2417C16.6983 25.2028 16.696 25.1637 16.6959 25.1245C16.6969 24.9284 16.6211 24.7396 16.4847 24.5986C16.3483 24.4576 16.1622 24.3756 15.9661 24.3701C15.7703 24.3765 15.5847 24.4588 15.4485 24.5996C15.3123 24.7404 15.2362 24.9286 15.2363 25.1245V29.7142C15.2363 29.9051 15.2363 30.0961 15.2363 30.2847C15.2548 30.7864 15.4594 31.2633 15.8103 31.6224C16.1688 31.9906 16.5932 32.2882 17.0614 32.4998C17.6759 32.7912 18.3163 33.0241 18.9744 33.1957C20.6316 33.6104 22.3314 33.8314 24.0396 33.854C25.8457 33.9096 27.6525 33.769 29.4282 33.4346C30.1183 33.3063 30.7978 33.1258 31.4606 32.8946C32.0229 32.7076 32.5587 32.4489 33.0549 32.125C33.4784 31.8619 33.822 31.488 34.0483 31.0437C34.1591 30.8065 34.2189 30.5488 34.224 30.287V25.1327C34.228 25.0342 34.212 24.9359 34.177 24.8437C34.142 24.7515 34.0887 24.6673 34.0204 24.5962C33.9521 24.5251 33.8701 24.4685 33.7794 24.4299C33.6887 24.3912 33.5911 24.3713 33.4925 24.3713C33.3938 24.3713 33.2963 24.3912 33.2055 24.4299C33.1148 24.4685 33.0328 24.5251 32.9645 24.5962C32.8962 24.6673 32.8429 24.7515 32.8079 24.8437C32.773 24.9359 32.757 25.0342 32.7609 25.1327V25.1245Z" fill="white" stroke="white" stroke-width="0.5"/>
</svg>
