<svg xmlns="http://www.w3.org/2000/svg" width="321" height="36" viewBox="0 0 321 36" fill="none">
<path d="M88 4L88 31" stroke="#D8D8D8" stroke-width="0.5" stroke-miterlimit="10"/>
<path d="M317.271 24.8149C317.271 24.3332 317.163 23.8875 316.946 23.478C316.741 23.0565 316.313 22.6771 315.663 22.3398C315.025 21.9906 314.061 21.6895 312.772 21.4365C311.688 21.2077 310.707 20.9367 309.828 20.6235C308.96 20.3104 308.22 19.931 307.605 19.4854C307.003 19.0397 306.54 18.5158 306.214 17.9136C305.889 17.3114 305.727 16.6068 305.727 15.7998C305.727 15.029 305.895 14.3003 306.232 13.6138C306.582 12.9272 307.069 12.319 307.696 11.7891C308.334 11.2591 309.099 10.8436 309.99 10.5425C310.882 10.2414 311.875 10.0908 312.971 10.0908C314.537 10.0908 315.874 10.3678 316.982 10.9219C318.09 11.4759 318.939 12.2166 319.529 13.144C320.119 14.0594 320.415 15.0771 320.415 16.1973H317.072C317.072 15.6553 316.91 15.1313 316.584 14.6255C316.271 14.1076 315.808 13.68 315.193 13.3428C314.591 13.0055 313.85 12.8369 312.971 12.8369C312.044 12.8369 311.291 12.9814 310.713 13.2705C310.147 13.5475 309.731 13.9028 309.466 14.3364C309.213 14.77 309.087 15.2277 309.087 15.7095C309.087 16.0708 309.147 16.396 309.268 16.6851C309.4 16.9621 309.629 17.221 309.954 17.4619C310.279 17.6908 310.737 17.9076 311.327 18.1123C311.917 18.3171 312.67 18.5218 313.585 18.7266C315.187 19.0879 316.506 19.5215 317.542 20.0273C318.578 20.5332 319.349 21.1535 319.854 21.8882C320.36 22.6229 320.613 23.5142 320.613 24.562C320.613 25.4172 320.433 26.2 320.071 26.9106C319.722 27.6213 319.21 28.2355 318.536 28.7534C317.873 29.2593 317.078 29.6567 316.151 29.9458C315.236 30.2228 314.206 30.3613 313.062 30.3613C311.339 30.3613 309.882 30.0542 308.689 29.4399C307.497 28.8257 306.594 28.0308 305.979 27.0552C305.365 26.0796 305.058 25.0498 305.058 23.9658H308.418C308.467 24.8812 308.732 25.6099 309.213 26.1519C309.695 26.6818 310.285 27.0612 310.984 27.29C311.682 27.5068 312.375 27.6152 313.062 27.6152C313.977 27.6152 314.742 27.4948 315.356 27.2539C315.982 27.013 316.458 26.6818 316.783 26.2603C317.108 25.8387 317.271 25.3569 317.271 24.8149Z" fill="#F37021"/>
<path d="M300.054 3.69531V30H296.567V3.69531H300.054Z" fill="#F37021"/>
<path d="M282.674 19.6841H275.646V16.8477H282.674C284.035 16.8477 285.137 16.6309 285.98 16.1973C286.823 15.7637 287.437 15.1615 287.823 14.3906C288.22 13.6198 288.419 12.7406 288.419 11.7529C288.419 10.8496 288.22 10.0005 287.823 9.20557C287.437 8.41064 286.823 7.7723 285.98 7.29053C285.137 6.79671 284.035 6.5498 282.674 6.5498H276.459V30H272.972V3.69531H282.674C284.661 3.69531 286.341 4.03857 287.714 4.7251C289.087 5.41162 290.129 6.36312 290.84 7.57959C291.55 8.78402 291.906 10.1631 291.906 11.7168C291.906 13.403 291.55 14.8423 290.84 16.0347C290.129 17.2271 289.087 18.1364 287.714 18.7627C286.341 19.377 284.661 19.6841 282.674 19.6841Z" fill="#F37021"/>
<path d="M258.573 6.02588L249.865 30H246.306L256.333 3.69531H258.627L258.573 6.02588ZM265.872 30L257.146 6.02588L257.092 3.69531H259.386L269.449 30H265.872ZM265.42 20.2622V23.1167H250.642V20.2622H265.42Z" fill="#F37021"/>
<path d="M235.123 2.25V4.5625C235.123 5.28516 234.997 6.04997 234.744 6.85693C234.503 7.65186 234.147 8.42269 233.678 9.16943C233.208 9.90413 232.642 10.5485 231.979 11.1025L230.064 9.78369C230.631 8.98877 231.058 8.17578 231.347 7.34473C231.648 6.50163 231.799 5.59229 231.799 4.6167V2.25H235.123Z" fill="#F37021"/>
<path d="M224.012 24.8149C224.012 24.3332 223.904 23.8875 223.687 23.478C223.482 23.0565 223.055 22.6771 222.404 22.3398C221.766 21.9906 220.802 21.6895 219.514 21.4365C218.43 21.2077 217.448 20.9367 216.569 20.6235C215.702 20.3104 214.961 19.931 214.347 19.4854C213.744 19.0397 213.281 18.5158 212.956 17.9136C212.63 17.3114 212.468 16.6068 212.468 15.7998C212.468 15.029 212.636 14.3003 212.974 13.6138C213.323 12.9272 213.811 12.319 214.437 11.7891C215.075 11.2591 215.84 10.8436 216.731 10.5425C217.623 10.2414 218.616 10.0908 219.712 10.0908C221.278 10.0908 222.615 10.3678 223.723 10.9219C224.831 11.4759 225.68 12.2166 226.271 13.144C226.861 14.0594 227.156 15.0771 227.156 16.1973H223.813C223.813 15.6553 223.651 15.1313 223.326 14.6255C223.013 14.1076 222.549 13.68 221.935 13.3428C221.332 13.0055 220.592 12.8369 219.712 12.8369C218.785 12.8369 218.032 12.9814 217.454 13.2705C216.888 13.5475 216.472 13.9028 216.208 14.3364C215.955 14.77 215.828 15.2277 215.828 15.7095C215.828 16.0708 215.888 16.396 216.009 16.6851C216.141 16.9621 216.37 17.221 216.695 17.4619C217.021 17.6908 217.478 17.9076 218.068 18.1123C218.659 18.3171 219.411 18.5218 220.327 18.7266C221.929 19.0879 223.247 19.5215 224.283 20.0273C225.319 20.5332 226.09 21.1535 226.596 21.8882C227.102 22.6229 227.354 23.5142 227.354 24.562C227.354 25.4172 227.174 26.2 226.812 26.9106C226.463 27.6213 225.951 28.2355 225.277 28.7534C224.614 29.2593 223.819 29.6567 222.892 29.9458C221.977 30.2228 220.947 30.3613 219.803 30.3613C218.08 30.3613 216.623 30.0542 215.431 29.4399C214.238 28.8257 213.335 28.0308 212.721 27.0552C212.106 26.0796 211.799 25.0498 211.799 23.9658H215.16C215.208 24.8812 215.473 25.6099 215.955 26.1519C216.436 26.6818 217.027 27.0612 217.725 27.29C218.424 27.5068 219.116 27.6152 219.803 27.6152C220.718 27.6152 221.483 27.4948 222.097 27.2539C222.723 27.013 223.199 26.6818 223.524 26.2603C223.85 25.8387 224.012 25.3569 224.012 24.8149Z" fill="#F37021"/>
<path d="M208.71 10.4521V13.0176H198.141V10.4521H208.71ZM201.718 5.70068H205.061V25.1582C205.061 25.8206 205.163 26.3205 205.368 26.6577C205.572 26.995 205.837 27.2178 206.163 27.3262C206.488 27.4346 206.837 27.4888 207.21 27.4888C207.487 27.4888 207.777 27.4647 208.078 27.4165C208.391 27.3563 208.626 27.3081 208.782 27.272L208.8 30C208.535 30.0843 208.186 30.1626 207.752 30.2349C207.331 30.3192 206.819 30.3613 206.217 30.3613C205.398 30.3613 204.645 30.1987 203.958 29.8735C203.272 29.5483 202.724 29.0063 202.314 28.2476C201.917 27.4767 201.718 26.4409 201.718 25.1401V5.70068Z" fill="#F37021"/>
<path d="M189.018 30.3613C187.657 30.3613 186.422 30.1325 185.314 29.6748C184.218 29.2051 183.272 28.5487 182.478 27.7056C181.695 26.8625 181.092 25.8628 180.671 24.7065C180.249 23.5503 180.039 22.2856 180.039 20.9126V20.1538C180.039 18.564 180.273 17.1488 180.743 15.9082C181.213 14.6556 181.851 13.5957 182.658 12.7285C183.465 11.8613 184.381 11.2049 185.404 10.7593C186.428 10.3136 187.488 10.0908 188.584 10.0908C189.981 10.0908 191.186 10.3317 192.197 10.8135C193.221 11.2952 194.058 11.9697 194.708 12.8369C195.359 13.6921 195.841 14.7038 196.154 15.8721C196.467 17.0283 196.624 18.293 196.624 19.666V21.1655H182.026V18.4375H193.281V18.1846C193.233 17.3174 193.052 16.4743 192.739 15.6553C192.438 14.8363 191.956 14.1618 191.294 13.6318C190.632 13.1019 189.728 12.8369 188.584 12.8369C187.825 12.8369 187.127 12.9995 186.488 13.3247C185.85 13.6379 185.302 14.1076 184.844 14.7339C184.387 15.3602 184.031 16.125 183.778 17.0283C183.525 17.9316 183.399 18.9735 183.399 20.1538V20.9126C183.399 21.84 183.525 22.7132 183.778 23.5322C184.043 24.3392 184.423 25.0498 184.917 25.6641C185.422 26.2783 186.031 26.7601 186.741 27.1094C187.464 27.4587 188.283 27.6333 189.198 27.6333C190.379 27.6333 191.378 27.3924 192.197 26.9106C193.016 26.4289 193.733 25.7845 194.347 24.9775L196.371 26.5854C195.949 27.2238 195.413 27.832 194.763 28.4102C194.112 28.9883 193.311 29.458 192.36 29.8193C191.42 30.1807 190.306 30.3613 189.018 30.3613Z" fill="#F37021"/>
<path d="M165.875 2.25V30H162.514V2.25H165.875ZM177.816 10.4521L169.289 19.5757L164.52 24.5259L164.249 20.9668L167.663 16.8838L173.733 10.4521H177.816ZM174.763 30L167.79 20.6777L169.524 17.6968L178.702 30H174.763Z" fill="#F37021"/>
<path d="M153.318 13.5234V30H149.976V10.4521H153.228L153.318 13.5234ZM159.425 10.3438L159.407 13.4512C159.13 13.391 158.865 13.3548 158.612 13.3428C158.371 13.3187 158.094 13.3066 157.781 13.3066C157.01 13.3066 156.329 13.4271 155.739 13.668C155.149 13.9089 154.649 14.2461 154.24 14.6797C153.83 15.1133 153.505 15.6312 153.264 16.2334C153.035 16.8236 152.885 17.474 152.812 18.1846L151.873 18.7266C151.873 17.5462 151.987 16.4382 152.216 15.4023C152.457 14.3665 152.825 13.4512 153.318 12.6562C153.812 11.8493 154.438 11.223 155.197 10.7773C155.968 10.3197 156.883 10.0908 157.943 10.0908C158.184 10.0908 158.461 10.1209 158.774 10.1812C159.088 10.2293 159.304 10.2835 159.425 10.3438Z" fill="#F37021"/>
<path d="M141.376 26.6577V16.5947C141.376 15.8239 141.22 15.1554 140.907 14.5894C140.606 14.0112 140.148 13.5656 139.534 13.2524C138.919 12.9393 138.161 12.7827 137.257 12.7827C136.414 12.7827 135.674 12.9272 135.035 13.2163C134.409 13.5054 133.915 13.8848 133.554 14.3545C133.204 14.8242 133.03 15.3301 133.03 15.8721H129.688C129.688 15.1735 129.868 14.481 130.229 13.7944C130.591 13.1079 131.109 12.4876 131.783 11.9336C132.47 11.3675 133.289 10.9219 134.24 10.5967C135.204 10.2594 136.276 10.0908 137.456 10.0908C138.877 10.0908 140.13 10.3317 141.214 10.8135C142.31 11.2952 143.165 12.0239 143.779 12.9995C144.406 13.9631 144.719 15.1735 144.719 16.6309V25.7363C144.719 26.3867 144.773 27.0793 144.881 27.814C145.002 28.5487 145.176 29.181 145.405 29.7109V30H141.918C141.75 29.6146 141.617 29.1027 141.521 28.4644C141.425 27.814 141.376 27.2118 141.376 26.6577ZM141.955 18.1484L141.991 20.4971H138.612C137.661 20.4971 136.812 20.5754 136.065 20.7319C135.318 20.8765 134.692 21.0993 134.186 21.4004C133.68 21.7015 133.295 22.0809 133.03 22.5386C132.765 22.9842 132.632 23.5081 132.632 24.1104C132.632 24.7246 132.771 25.2847 133.048 25.7905C133.325 26.2964 133.74 26.6999 134.294 27.001C134.861 27.29 135.553 27.4346 136.372 27.4346C137.396 27.4346 138.299 27.2178 139.082 26.7842C139.865 26.3506 140.485 25.8206 140.943 25.1943C141.413 24.568 141.666 23.9598 141.702 23.3696L143.129 24.9775C143.045 25.4834 142.816 26.0435 142.442 26.6577C142.069 27.272 141.569 27.8621 140.943 28.4282C140.329 28.9823 139.594 29.446 138.739 29.8193C137.896 30.1807 136.944 30.3613 135.884 30.3613C134.559 30.3613 133.397 30.1024 132.397 29.5845C131.41 29.0666 130.639 28.374 130.085 27.5068C129.543 26.6276 129.272 25.646 129.272 24.562C129.272 23.5142 129.477 22.5928 129.886 21.7979C130.296 20.9909 130.886 20.3224 131.657 19.7925C132.428 19.2505 133.355 18.841 134.439 18.564C135.523 18.2869 136.733 18.1484 138.07 18.1484H141.955Z" fill="#F37021"/>
<path d="M99.1553 3.69531H102.534L111.151 25.1401L119.751 3.69531H123.147L112.452 30H109.814L99.1553 3.69531ZM98.0532 3.69531H101.034L101.522 19.7383V30H98.0532V3.69531ZM121.25 3.69531H124.231V30H120.763V19.7383L121.25 3.69531Z" fill="#F37021"/>
<path d="M43.0146 30.435L43.1363 31.488C42.6447 31.622 42.0691 31.6894 41.4094 31.6894C41.0426 31.6894 40.7208 31.6603 40.4441 31.6029C40.1674 31.5455 39.9271 31.4534 39.7239 31.3281C39.5207 31.2027 39.3521 31.0507 39.2175 30.8735C39.0834 30.6962 38.9754 30.4751 38.8945 30.2102C38.8135 29.9452 38.7561 29.6586 38.7228 29.3498C38.6894 29.041 38.6733 28.6803 38.6733 28.2677C38.6733 27.9608 38.6826 27.6834 38.7005 27.4364C38.7184 27.1887 38.7493 26.9534 38.7925 26.7298C38.8358 26.5062 38.892 26.3086 38.9612 26.1369C39.0303 25.9652 39.1162 25.8077 39.2193 25.6638C39.3225 25.5199 39.4429 25.3988 39.5806 25.3C39.7184 25.2012 39.8777 25.1172 40.0568 25.048C40.2366 24.9789 40.4379 24.9282 40.6621 24.8955C40.8863 24.8627 41.1352 24.8467 41.4094 24.8467C42.0635 24.8467 42.6391 24.9146 43.1363 25.0511L43.0171 26.1017C42.5539 26.0251 42.0999 25.9868 41.6559 25.9868C41.499 25.9868 41.3551 25.9955 41.2248 26.0128C41.0944 26.0301 40.9783 26.0591 40.8777 26.1005C40.7764 26.1418 40.6862 26.1845 40.6071 26.2283C40.5281 26.2722 40.4589 26.3339 40.4015 26.4124C40.344 26.4908 40.294 26.5637 40.2526 26.6298C40.2112 26.6959 40.1773 26.7854 40.1519 26.8972C40.1266 27.0096 40.1056 27.1072 40.0896 27.1906C40.0735 27.274 40.0624 27.3864 40.0556 27.5272C40.0488 27.668 40.0445 27.786 40.0426 27.8811C40.0408 27.9762 40.0395 28.1053 40.0395 28.2683C40.0395 28.5061 40.0414 28.6896 40.0451 28.818C40.0488 28.9465 40.0611 29.1052 40.0821 29.2942C40.1031 29.4832 40.1334 29.6277 40.1742 29.729C40.2149 29.8297 40.2736 29.9409 40.3514 30.0625C40.4286 30.1842 40.5244 30.275 40.638 30.3343C40.7517 30.3936 40.8937 30.4449 41.0648 30.4868C41.2359 30.5288 41.4329 30.5505 41.6559 30.5505C42.1073 30.5505 42.5607 30.5122 43.014 30.4356L43.0146 30.435Z" fill="#242056"/>
<path d="M45.2853 31.6202H43.9019L45.8671 25.7818C45.9771 25.4594 46.1204 25.2228 46.2982 25.0727C46.4761 24.9226 46.6941 24.8467 46.9535 24.8467C47.4637 24.8467 47.8232 25.1586 48.0313 25.7818L49.9626 31.6202H48.539L48.0344 29.96H45.7801L45.2866 31.6202H45.2853ZM46.0876 28.9156H47.7182L46.8961 26.2048L46.0883 28.9156H46.0876Z" fill="#242056"/>
<path d="M52.1646 29.1118V31.6212H50.8262V25.0317C51.4858 24.9088 52.2022 24.8477 52.9755 24.8477C53.2022 24.8477 53.4066 24.8551 53.5882 24.8693C53.7698 24.8835 53.9551 24.9107 54.1441 24.9496C54.3331 24.9891 54.4986 25.0416 54.64 25.1077C54.7821 25.1738 54.9167 25.2615 55.0458 25.3696C55.1743 25.4776 55.2799 25.6055 55.362 25.7525C55.4442 25.8995 55.5096 26.0755 55.5578 26.2818C55.606 26.4881 55.6301 26.7197 55.6301 26.9766C55.6301 27.2336 55.6085 27.4547 55.5646 27.6572C55.5214 27.8598 55.4608 28.0358 55.3843 28.1853C55.3077 28.3348 55.2095 28.4657 55.0897 28.5769C54.9698 28.6881 54.8401 28.7795 54.7012 28.8517C54.5622 28.924 54.4022 28.9814 54.2207 29.0259C54.0391 29.0698 53.855 29.1006 53.6679 29.1179C53.4807 29.1352 53.2738 29.1439 53.0472 29.1439C52.7711 29.1439 52.4771 29.1334 52.1652 29.1124L52.1646 29.1118ZM52.1646 25.9693V28.0352C52.361 28.0599 52.6333 28.0729 52.9811 28.0729C53.204 28.0729 53.3924 28.0568 53.5468 28.0241C53.7006 27.9914 53.8365 27.9352 53.9538 27.8543C54.0712 27.7734 54.1583 27.6609 54.2145 27.5164C54.2713 27.3719 54.2997 27.1916 54.2997 26.9766C54.2997 26.5894 54.2046 26.3145 54.015 26.1533C53.8248 25.9921 53.49 25.9118 53.0095 25.9118C52.726 25.9118 52.4444 25.931 52.1646 25.9693Z" fill="#242056"/>
<path d="M56.6675 31.6204V24.916H58.0114V31.6204H56.6675Z" fill="#242056"/>
<path d="M63.54 24.916V26.0154H61.915V31.621H60.568V26.0154H58.9517V24.916H63.5394H63.54Z" fill="#242056"/>
<path d="M64.7795 31.6202H63.396L65.3613 25.7818C65.4712 25.4594 65.6145 25.2228 65.7924 25.0727C65.9703 24.9226 66.1883 24.8467 66.4477 24.8467C66.9579 24.8467 67.3173 25.1586 67.5255 25.7818L69.4568 31.6202H68.0331L67.5285 29.96H65.2742L64.7807 31.6202H64.7795ZM65.5818 28.9156H67.2123L66.3903 26.2048L65.5824 28.9156H65.5818Z" fill="#242056"/>
<path d="M74.2868 30.5327V31.5919C73.574 31.6228 73.0108 31.6383 72.597 31.6383C72.3925 31.6383 72.2239 31.6358 72.0911 31.6309C71.9577 31.6259 71.8021 31.6117 71.6248 31.5876C71.4469 31.5635 71.3018 31.5308 71.1881 31.4882C71.0745 31.4462 70.9565 31.3844 70.8336 31.3041C70.7107 31.2238 70.6144 31.1263 70.5446 31.012C70.4748 30.8977 70.4167 30.7557 70.3716 30.5846C70.3266 30.4141 70.3037 30.219 70.3037 30.0003V24.916H71.6477V29.6205C71.6477 29.8181 71.6582 29.9713 71.6785 30.0806C71.6989 30.1899 71.7446 30.2813 71.8144 30.3542C71.8842 30.4271 71.9769 30.4753 72.0924 30.4981C72.2079 30.521 72.3672 30.5327 72.5716 30.5327H74.2874H74.2868Z" fill="#242056"/>
<path fill-rule="evenodd" clip-rule="evenodd" d="M17.5493 0C27.2429 0 35.1065 7.85313 35.1065 17.5474C35.1065 27.2417 27.2429 35.0985 17.5493 35.0985C7.8556 35.0985 0 27.2404 0 17.5474C0 7.85436 7.86548 0 17.5493 0Z" fill="#F26F21"/>
<path fill-rule="evenodd" clip-rule="evenodd" d="M15.1832 18.2608L15.899 16.5908H14.0184L15.1826 18.2608H15.1832ZM14.8738 14.8268L15.8997 16.5914L16.642 14.8268H14.8738ZM14.8738 14.8268L15.9169 12.7059H13.6533L14.8738 14.8268ZM9.14899 12.7059L11.4009 17.0775L13.6533 12.7059H9.14899ZM11.4009 17.0775L9.0304 21.6442H13.7367L12.6163 19.4498L11.4002 17.0775H11.4009ZM12.5614 14.8268L13.6805 17.2695L14.019 16.5908L14.8738 14.8262H12.5614V14.8268ZM13.6805 17.2695L12.617 19.4492H14.6842L13.6811 17.2695H13.6805ZM15.1832 18.2608L14.6835 19.4492H16.0176L15.1832 18.2608ZM13.7429 21.6436H15.686L14.6835 19.4492L13.7367 21.6436H13.7429ZM15.8441 25.7323L13.7367 21.6436L12.0024 25.7323H15.8434H15.8441ZM17.55 21.6436L17.2096 21.1655L16.0176 19.4492H19.0922L17.55 21.6436ZM11.7109 9.36577L14.9077 5.19679H9.30092L11.7109 9.36577ZM15.3988 9.36577H11.7109L13.6533 12.7053L15.3988 9.36577ZM9.14899 12.7053L11.7109 9.36577H7.43816L9.14899 12.7053ZM9.14899 12.7053H2.51259L5.74401 17.1423L9.14899 12.7053ZM9.0304 21.6436L6.90885 25.7323H12.003L9.0304 21.6436ZM2.29395 21.6436H9.0304L5.74401 17.1423L2.29395 21.6436ZM10.585 29.0551H14.426L12.003 25.7323L10.585 29.0551ZM19.9186 18.2608L19.2089 16.5908H21.0902L19.9186 18.2608ZM20.2224 14.8268L19.2089 16.5914L18.4554 14.8268H20.2224ZM20.2224 14.8268L19.1817 12.7059H21.4503L20.2224 14.8268ZM25.9478 12.7059L23.7015 17.0775L21.4503 12.7059H25.9478ZM23.7015 17.0775L26.072 21.6442H21.3589L22.486 19.4498L23.7021 17.0775H23.7015ZM22.5428 14.8268L21.4249 17.2695L21.0902 16.5908L20.2224 14.8262H22.5422L22.5428 14.8268ZM21.4249 17.2695L22.486 19.4492H20.425L21.4249 17.2695ZM19.9186 18.2608L20.425 19.4492H19.0922L19.9186 18.2608ZM21.3552 21.6436H19.4251L20.4256 19.4492L21.3595 21.6436H21.3558H21.3552ZM19.2608 25.7323L21.3589 21.6436L23.0993 25.7323H19.2602H19.2608ZM17.5506 14.8262H18.456L17.5506 12.7053L16.6427 14.8262H17.5506ZM17.5506 19.4485L17.7797 19.0495L19.2089 16.5908H15.8997L17.55 19.4492L17.5506 19.4485ZM17.5506 25.7323L19.4251 21.6436H15.6866L17.1281 24.7978L17.5506 25.7323ZM23.3878 9.36515L20.1946 5.19617H25.8027L23.3878 9.36515ZM19.711 9.36515H23.3878L21.4509 12.7047L19.711 9.36515ZM25.9484 12.7047L23.3878 9.36515H27.6667L25.9484 12.7047ZM25.9484 12.7047H32.5916L29.3547 17.1417L25.9484 12.7047ZM26.072 21.643L28.1824 25.7317H23.0993L26.072 21.643ZM32.8047 21.643H26.072L29.354 17.1417L32.8041 21.643H32.8047ZM24.5242 29.0545H20.6789L23.0993 25.7317L24.5236 29.0545H24.5242ZM17.5506 5.19555H20.1946L17.5506 1.75537L14.9084 5.19555H17.5506ZM17.5506 9.36454H19.711L17.5506 5.19555L15.3994 9.36454H17.5506ZM17.5506 12.704H19.1823L18.2028 10.6819L17.5506 9.36454L15.9176 12.704H17.5506ZM17.5506 29.0539L17.9885 28.1904L19.2608 25.7317H15.8447L17.5506 29.0545V29.0539ZM17.5506 33.3427L20.6789 29.0539H14.426L17.55 33.3427H17.5506Z" fill="white"/>
<path fill-rule="evenodd" clip-rule="evenodd" d="M50.8246 4.18115H47.9588C47.041 4.18115 46.293 4.93095 46.293 5.84381V21.7347H49.1576C50.0692 21.7347 50.8246 20.9979 50.8246 20.0746V4.18115ZM55.5976 4.18115H65.2851V7.12106C65.2851 7.98944 64.5649 8.70836 63.6928 8.70836H58.5042V10.9541H64.1425V13.8865C64.1425 14.766 63.4353 15.4751 62.5564 15.4751H58.5042V20.1184C58.5042 21.0164 57.7772 21.7354 56.8934 21.7354H53.9769V5.79254C53.9769 4.90872 54.7027 4.18115 55.5976 4.18115ZM43.1345 4.18115H40.2737C39.362 4.18115 38.6079 4.93095 38.6079 5.84381V21.7347H41.4681C42.3798 21.7347 43.1339 20.9979 43.1339 20.0746V4.18115H43.1345ZM72.3069 4.18115H69.4016C68.5128 4.18115 67.7846 4.90872 67.7846 5.79254V21.7347H76.2072C77.0848 21.7347 77.8013 21.0257 77.8013 20.1474V17.2137H72.3069V4.18115Z" fill="#242056"/>
</svg>