<svg xmlns="http://www.w3.org/2000/svg" width="158" height="23" viewBox="0 0 158 23" fill="none">
<path d="M57.6606 2.76465L57.6606 20.6085" stroke="#D8D8D8" stroke-width="0.309375" stroke-miterlimit="10"/>
<path d="M155.624 14.8968C155.624 14.6956 155.579 14.5095 155.489 14.3385C155.403 14.1625 155.225 14.0041 154.953 13.8633C154.686 13.7174 154.284 13.5917 153.746 13.486C153.293 13.3905 152.883 13.2773 152.516 13.1466C152.154 13.0158 151.845 12.8574 151.588 12.6713C151.337 12.4852 151.143 12.2664 151.007 12.0149C150.872 11.7635 150.804 11.4692 150.804 11.1323C150.804 10.8104 150.874 10.5061 151.015 10.2194C151.161 9.93273 151.364 9.67874 151.626 9.45745C151.893 9.23615 152.212 9.06263 152.584 8.9369C152.956 8.81116 153.371 8.74829 153.829 8.74829C154.483 8.74829 155.041 8.86397 155.504 9.09532C155.966 9.32668 156.321 9.63599 156.568 10.0233C156.814 10.4055 156.937 10.8305 156.937 11.2982H155.541C155.541 11.0719 155.474 10.8531 155.338 10.6419C155.207 10.4256 155.013 10.2471 154.757 10.1062C154.505 9.96542 154.196 9.89501 153.829 9.89501C153.442 9.89501 153.127 9.95536 152.886 10.0761C152.65 10.1917 152.476 10.3401 152.365 10.5212C152.26 10.7022 152.207 10.8934 152.207 11.0945C152.207 11.2454 152.232 11.3812 152.282 11.5019C152.338 11.6176 152.433 11.7257 152.569 11.8263C152.705 11.9219 152.896 12.0124 153.142 12.0979C153.389 12.1834 153.703 12.2689 154.085 12.3544C154.754 12.5053 155.305 12.6864 155.738 12.8976C156.17 13.1088 156.492 13.3679 156.703 13.6747C156.915 13.9814 157.02 14.3536 157.02 14.7912C157.02 15.1483 156.945 15.4752 156.794 15.7719C156.648 16.0687 156.434 16.3252 156.153 16.5414C155.876 16.7527 155.544 16.9187 155.157 17.0394C154.774 17.155 154.344 17.2129 153.867 17.2129C153.147 17.2129 152.539 17.0846 152.041 16.8281C151.543 16.5716 151.166 16.2397 150.909 15.8323C150.653 15.4249 150.525 14.9949 150.525 14.5422H151.928C151.948 14.9245 152.059 15.2288 152.26 15.4551C152.461 15.6764 152.707 15.8348 152.999 15.9304C153.291 16.0209 153.58 16.0662 153.867 16.0662C154.249 16.0662 154.568 16.0159 154.825 15.9153C155.086 15.8147 155.285 15.6764 155.421 15.5003C155.557 15.3243 155.624 15.1231 155.624 14.8968Z" fill="#F37021"/>
<path d="M148.435 6.07788V17.0622H146.979V6.07788H148.435Z" fill="#F37021"/>
<path d="M141.176 12.7545H138.242V11.5701H141.176C141.745 11.5701 142.205 11.4795 142.557 11.2985C142.909 11.1174 143.165 10.8659 143.326 10.544C143.492 10.2222 143.575 9.85501 143.575 9.44259C143.575 9.06538 143.492 8.7108 143.326 8.37886C143.165 8.04692 142.909 7.78035 142.557 7.57918C142.205 7.37297 141.745 7.26986 141.176 7.26986H138.581V17.0622H137.125V6.07788H141.176C142.006 6.07788 142.708 6.22122 143.281 6.5079C143.855 6.79458 144.29 7.19191 144.586 7.69988C144.883 8.20283 145.031 8.7787 145.031 9.4275C145.031 10.1316 144.883 10.7326 144.586 11.2306C144.29 11.7285 143.855 12.1082 143.281 12.3697C142.708 12.6262 142.006 12.7545 141.176 12.7545Z" fill="#F37021"/>
<path d="M131.113 7.05035L127.477 17.0615H125.991L130.178 6.07715H131.136L131.113 7.05035ZM134.161 17.0615L130.517 7.05035L130.495 6.07715H131.453L135.655 17.0615H134.161ZM133.973 12.9952V14.1872H127.801V12.9952H133.973Z" fill="#F37021"/>
<path d="M121.32 5.47412V6.43978C121.32 6.74155 121.267 7.06092 121.162 7.39789C121.061 7.72984 120.913 8.05172 120.717 8.36355C120.52 8.67035 120.284 8.93942 120.007 9.17078L119.208 8.62005C119.444 8.28811 119.623 7.94862 119.743 7.60158C119.869 7.24952 119.932 6.8698 119.932 6.46241V5.47412H121.32Z" fill="#F37021"/>
<path d="M116.681 14.8968C116.681 14.6956 116.635 14.5095 116.545 14.3385C116.459 14.1625 116.281 14.0041 116.009 13.8633C115.743 13.7174 115.34 13.5917 114.802 13.486C114.35 13.3905 113.94 13.2773 113.573 13.1466C113.21 13.0158 112.901 12.8574 112.645 12.6713C112.393 12.4852 112.199 12.2664 112.064 12.0149C111.928 11.7635 111.86 11.4692 111.86 11.1323C111.86 10.8104 111.93 10.5061 112.071 10.2194C112.217 9.93273 112.421 9.67874 112.682 9.45745C112.949 9.23615 113.268 9.06263 113.64 8.9369C114.013 8.81116 114.428 8.74829 114.885 8.74829C115.539 8.74829 116.097 8.86397 116.56 9.09532C117.023 9.32668 117.377 9.63599 117.624 10.0233C117.87 10.4055 117.993 10.8305 117.993 11.2982H116.598C116.598 11.0719 116.53 10.8531 116.394 10.6419C116.263 10.4256 116.07 10.2471 115.813 10.1062C115.562 9.96542 115.252 9.89501 114.885 9.89501C114.498 9.89501 114.184 9.95536 113.942 10.0761C113.706 10.1917 113.532 10.3401 113.422 10.5212C113.316 10.7022 113.263 10.8934 113.263 11.0945C113.263 11.2454 113.288 11.3812 113.339 11.5019C113.394 11.6176 113.49 11.7257 113.625 11.8263C113.761 11.9219 113.952 12.0124 114.199 12.0979C114.445 12.1834 114.759 12.2689 115.142 12.3544C115.811 12.5053 116.361 12.6864 116.794 12.8976C117.226 13.1088 117.548 13.3679 117.76 13.6747C117.971 13.9814 118.076 14.3536 118.076 14.7912C118.076 15.1483 118.001 15.4752 117.85 15.7719C117.704 16.0687 117.491 16.3252 117.209 16.5414C116.932 16.7527 116.6 16.9187 116.213 17.0394C115.831 17.155 115.401 17.2129 114.923 17.2129C114.204 17.2129 113.595 17.0846 113.097 16.8281C112.599 16.5716 112.222 16.2397 111.966 15.8323C111.709 15.4249 111.581 14.9949 111.581 14.5422H112.984C113.004 14.9245 113.115 15.2288 113.316 15.4551C113.517 15.6764 113.764 15.8348 114.055 15.9304C114.347 16.0209 114.636 16.0662 114.923 16.0662C115.305 16.0662 115.625 16.0159 115.881 15.9153C116.143 15.8147 116.341 15.6764 116.477 15.5003C116.613 15.3243 116.681 15.1231 116.681 14.8968Z" fill="#F37021"/>
<path d="M110.289 8.89965V9.97093H105.876V8.89965H110.289ZM107.37 6.91553H108.765V15.0406C108.765 15.3172 108.808 15.526 108.893 15.6668C108.979 15.8076 109.09 15.9007 109.225 15.9459C109.361 15.9912 109.507 16.0138 109.663 16.0138C109.779 16.0138 109.899 16.0038 110.025 15.9837C110.156 15.9585 110.254 15.9384 110.319 15.9233L110.327 17.0625C110.216 17.0977 110.07 17.1304 109.889 17.1605C109.713 17.1958 109.5 17.2134 109.248 17.2134C108.906 17.2134 108.592 17.1455 108.305 17.0097C108.018 16.8739 107.789 16.6475 107.618 16.3307C107.452 16.0088 107.37 15.5763 107.37 15.0331V6.91553Z" fill="#F37021"/>
<path d="M102.067 17.2129C101.499 17.2129 100.983 17.1173 100.521 16.9262C100.063 16.73 99.6681 16.4559 99.3361 16.1039C99.0092 15.7518 98.7577 15.3344 98.5817 14.8515C98.4056 14.3687 98.3176 13.8406 98.3176 13.2673V12.9504C98.3176 12.2865 98.4157 11.6956 98.6119 11.1775C98.808 10.6545 99.0746 10.2119 99.4115 9.84974C99.7485 9.48762 100.131 9.21352 100.558 9.02743C100.986 8.84134 101.428 8.74829 101.886 8.74829C102.47 8.74829 102.972 8.84888 103.395 9.05006C103.822 9.25124 104.172 9.53289 104.444 9.89501C104.715 10.2521 104.916 10.6746 105.047 11.1624C105.178 11.6453 105.243 12.1734 105.243 12.7467V13.3729H99.1475V12.2337H103.848V12.1281C103.827 11.766 103.752 11.4139 103.621 11.0719C103.496 10.7299 103.294 10.4482 103.018 10.227C102.741 10.0057 102.364 9.89501 101.886 9.89501C101.569 9.89501 101.278 9.96291 101.011 10.0987C100.744 10.2295 100.516 10.4256 100.324 10.6871C100.133 10.9487 99.9849 11.2681 99.8793 11.6453C99.7737 12.0225 99.7209 12.4575 99.7209 12.9504V13.2673C99.7209 13.6545 99.7737 14.0192 99.8793 14.3612C99.9899 14.6981 100.148 14.9949 100.355 15.2514C100.566 15.5079 100.82 15.7091 101.117 15.8549C101.418 16.0008 101.76 16.0737 102.143 16.0737C102.635 16.0737 103.053 15.9731 103.395 15.7719C103.737 15.5708 104.036 15.3017 104.293 14.9647L105.138 15.6361C104.962 15.9027 104.738 16.1567 104.466 16.3981C104.195 16.6395 103.86 16.8357 103.463 16.9866C103.071 17.1374 102.605 17.2129 102.067 17.2129Z" fill="#F37021"/>
<path d="M92.402 5.47412V17.062H90.9988V5.47412H92.402ZM97.3888 8.89919L93.8279 12.709L91.8362 14.7761L91.723 13.2899L93.1489 11.5849L95.6838 8.89919H97.3888ZM96.1138 17.062L93.2017 13.1692L93.926 11.9244L97.7585 17.062H96.1138Z" fill="#F37021"/>
<path d="M87.1599 10.1817V17.062H85.7642V8.89917H87.1221L87.1599 10.1817ZM89.7098 8.85391L89.7023 10.1515C89.5866 10.1264 89.476 10.1113 89.3703 10.1062C89.2697 10.0962 89.1541 10.0912 89.0233 10.0912C88.7014 10.0912 88.4172 10.1415 88.1708 10.242C87.9243 10.3426 87.7156 10.4835 87.5446 10.6645C87.3736 10.8456 87.2378 11.0618 87.1372 11.3133C87.0417 11.5598 86.9788 11.8314 86.9486 12.1281L86.5563 12.3544C86.5563 11.8615 86.6041 11.3988 86.6997 10.9663C86.8002 10.5338 86.9536 10.1515 87.1599 9.81957C87.3661 9.48259 87.6276 9.22106 87.9445 9.03497C88.2664 8.84385 88.6486 8.74829 89.0912 8.74829C89.1918 8.74829 89.3075 8.76086 89.4382 8.78601C89.569 8.80613 89.6595 8.82876 89.7098 8.85391Z" fill="#F37021"/>
<path d="M82.1731 15.6663V11.4642C82.1731 11.1423 82.1077 10.8632 81.9769 10.6268C81.8512 10.3854 81.6601 10.1993 81.4036 10.0685C81.1471 9.93776 80.8302 9.87238 80.453 9.87238C80.1009 9.87238 79.7916 9.93273 79.525 10.0534C79.2635 10.1741 79.0573 10.3326 78.9064 10.5287C78.7605 10.7249 78.6876 10.9361 78.6876 11.1624H77.2919C77.2919 10.8707 77.3674 10.5815 77.5183 10.2949C77.6691 10.0082 77.8854 9.74915 78.1671 9.5178C78.4537 9.28141 78.7958 9.09532 79.1931 8.95953C79.5955 8.8187 80.0431 8.74829 80.536 8.74829C81.1295 8.74829 81.6525 8.84888 82.1052 9.05006C82.5629 9.25124 82.92 9.55552 83.1765 9.96291C83.438 10.3653 83.5688 10.8707 83.5688 11.4793V15.2816C83.5688 15.5532 83.5914 15.8423 83.6367 16.1491C83.687 16.4559 83.7599 16.72 83.8555 16.9413V17.062H82.3994C82.329 16.9011 82.2737 16.6873 82.2334 16.4207C82.1932 16.1491 82.1731 15.8977 82.1731 15.6663ZM82.4145 12.113L82.4296 13.0937H81.0188C80.6215 13.0937 80.2669 13.1264 79.9551 13.1918C79.6432 13.2522 79.3817 13.3452 79.1705 13.471C78.9592 13.5967 78.7983 13.7551 78.6876 13.9462C78.577 14.1323 78.5216 14.3511 78.5216 14.6026C78.5216 14.8591 78.5795 15.093 78.6952 15.3042C78.8108 15.5154 78.9844 15.6839 79.2157 15.8097C79.4521 15.9304 79.7413 15.9907 80.0833 15.9907C80.5108 15.9907 80.888 15.9002 81.215 15.7191C81.5419 15.5381 81.8009 15.3168 81.992 15.0552C82.1882 14.7937 82.2938 14.5397 82.3089 14.2933L82.9049 14.9647C82.8697 15.1759 82.7741 15.4098 82.6182 15.6663C82.4623 15.9228 82.2536 16.1693 81.992 16.4056C81.7355 16.637 81.4287 16.8306 81.0716 16.9866C80.7195 17.1374 80.3222 17.2129 79.8796 17.2129C79.3264 17.2129 78.841 17.1047 78.4236 16.8885C78.0111 16.6722 77.6893 16.383 77.4579 16.0209C77.2316 15.6537 77.1184 15.2438 77.1184 14.7912C77.1184 14.3536 77.2039 13.9689 77.3749 13.6369C77.5459 13.3 77.7924 13.0208 78.1143 12.7995C78.4361 12.5732 78.8234 12.4022 79.2761 12.2865C79.7287 12.1708 80.2342 12.113 80.7925 12.113H82.4145Z" fill="#F37021"/>
<path d="M64.5417 6.07788H65.9525L69.5512 15.0328L73.1422 6.07788H74.5606L70.0943 17.0622H68.9929L64.5417 6.07788ZM64.0815 6.07788H65.3264L65.53 12.7771V17.0622H64.0815V6.07788ZM73.7684 6.07788H75.0132V17.0622H73.5647V12.7771L73.7684 6.07788Z" fill="#F37021"/>
<path d="M28.1871 19.9437L28.2669 20.6338C27.9447 20.7216 27.5675 20.7657 27.1352 20.7657C26.8948 20.7657 26.684 20.7467 26.5026 20.7091C26.3213 20.6714 26.1639 20.6111 26.0307 20.529C25.8976 20.4468 25.7871 20.3472 25.6989 20.2311C25.611 20.1149 25.5402 19.97 25.4872 19.7964C25.4342 19.6228 25.3965 19.435 25.3747 19.2326C25.3528 19.0303 25.3423 18.7939 25.3423 18.5235C25.3423 18.3224 25.3484 18.1407 25.3601 17.9788C25.3718 17.8165 25.3921 17.6623 25.4204 17.5158C25.4487 17.3692 25.4856 17.2397 25.5309 17.1272C25.5762 17.0147 25.6325 16.9115 25.7001 16.8172C25.7677 16.7229 25.8466 16.6436 25.9368 16.5788C26.0271 16.5141 26.1315 16.459 26.2489 16.4137C26.3667 16.3683 26.4986 16.3352 26.6455 16.3137C26.7924 16.2923 26.9555 16.2817 27.1352 16.2817C27.5639 16.2817 27.9411 16.3263 28.2669 16.4157L28.1888 17.1041C27.8852 17.054 27.5877 17.0289 27.2967 17.0289C27.1939 17.0289 27.0996 17.0345 27.0142 17.0459C26.9288 17.0572 26.8527 17.0762 26.7868 17.1033C26.7204 17.1305 26.6613 17.1584 26.6095 17.1871C26.5577 17.2159 26.5124 17.2563 26.4747 17.3077C26.4371 17.3591 26.4043 17.4069 26.3772 17.4502C26.3501 17.4935 26.3278 17.5522 26.3112 17.6254C26.2946 17.6991 26.2809 17.763 26.2703 17.8177C26.2598 17.8723 26.2525 17.946 26.2481 18.0383C26.2436 18.1305 26.2408 18.2078 26.2396 18.2702C26.2384 18.3325 26.2376 18.4171 26.2376 18.5239C26.2376 18.6798 26.2388 18.8 26.2412 18.8842C26.2436 18.9683 26.2517 19.0724 26.2655 19.1962C26.2792 19.32 26.2991 19.4148 26.3258 19.4811C26.3525 19.5471 26.3909 19.62 26.4419 19.6997C26.4925 19.7794 26.5553 19.8389 26.6297 19.8778C26.7042 19.9166 26.7973 19.9502 26.9094 19.9777C27.0215 20.0053 27.1506 20.0194 27.2967 20.0194C27.5926 20.0194 27.8897 19.9943 28.1867 19.9441L28.1871 19.9437Z" fill="#242056"/>
<path d="M29.6751 20.7204H28.7686L30.0564 16.8945C30.1284 16.6832 30.2223 16.5282 30.3389 16.4299C30.4555 16.3315 30.5983 16.2817 30.7683 16.2817C31.1026 16.2817 31.3382 16.4861 31.4746 16.8945L32.7402 20.7204H31.8073L31.4766 19.6325H29.9993L29.676 20.7204H29.6751ZM30.2009 18.9481H31.2694L30.7307 17.1717L30.2013 18.9481H30.2009Z" fill="#242056"/>
<path d="M34.1832 19.0767V20.7211H33.3062V16.4031C33.7384 16.3225 34.2079 16.2825 34.7146 16.2825C34.8631 16.2825 34.9971 16.2873 35.1161 16.2966C35.2351 16.3059 35.3565 16.3238 35.4804 16.3493C35.6042 16.3752 35.7127 16.4096 35.8054 16.4529C35.8984 16.4962 35.9867 16.5536 36.0713 16.6245C36.1555 16.6953 36.2247 16.7791 36.2785 16.8754C36.3323 16.9717 36.3752 17.0871 36.4068 17.2223C36.4384 17.3574 36.4541 17.5092 36.4541 17.6776C36.4541 17.8459 36.44 17.9908 36.4112 18.1236C36.3829 18.2563 36.3432 18.3717 36.2931 18.4696C36.2429 18.5676 36.1785 18.6534 36.1 18.7262C36.0215 18.7991 35.9365 18.859 35.8454 18.9063C35.7544 18.9537 35.6495 18.9913 35.5305 19.0205C35.4116 19.0492 35.2909 19.0694 35.1683 19.0808C35.0457 19.0921 34.9101 19.0978 34.7616 19.0978C34.5806 19.0978 34.388 19.0909 34.1836 19.0771L34.1832 19.0767ZM34.1832 17.0175V18.3713C34.3119 18.3875 34.4904 18.396 34.7183 18.396C34.8644 18.396 34.9878 18.3854 35.089 18.364C35.1898 18.3425 35.2788 18.3057 35.3557 18.2527C35.4326 18.1997 35.4897 18.126 35.5265 18.0313C35.5637 17.9366 35.5824 17.8184 35.5824 17.6776C35.5824 17.4238 35.52 17.2437 35.3958 17.1381C35.2711 17.0324 35.0518 16.9798 34.7369 16.9798C34.5511 16.9798 34.3665 16.9924 34.1832 17.0175Z" fill="#242056"/>
<path d="M37.134 20.7205V16.3271H38.0147V20.7205H37.134Z" fill="#242056"/>
<path d="M41.6374 16.3271V17.0476H40.5725V20.7209H39.6898V17.0476H38.6306V16.3271H41.637H41.6374Z" fill="#242056"/>
<path d="M42.4498 20.7204H41.5432L42.8311 16.8945C42.9031 16.6832 42.997 16.5282 43.1136 16.4299C43.2301 16.3315 43.373 16.2817 43.543 16.2817C43.8773 16.2817 44.1128 16.4861 44.2492 16.8945L45.5148 20.7204H44.5819L44.2513 19.6325H42.774L42.4506 20.7204H42.4498ZM42.9756 18.9481H44.044L43.5053 17.1717L42.976 18.9481H42.9756Z" fill="#242056"/>
<path d="M48.6799 20.0078V20.7019C48.2129 20.7221 47.8438 20.7322 47.5726 20.7322C47.4386 20.7322 47.3281 20.7306 47.2411 20.7274C47.1537 20.7241 47.0517 20.7148 46.9355 20.699C46.819 20.6833 46.7239 20.6618 46.6494 20.6339C46.5749 20.6064 46.4976 20.5659 46.4171 20.5133C46.3365 20.4607 46.2734 20.3967 46.2277 20.3218C46.1819 20.247 46.1439 20.1539 46.1143 20.0418C46.0848 19.9301 46.0698 19.8022 46.0698 19.6589V16.3271H46.9505V19.41C46.9505 19.5395 46.9574 19.6399 46.9708 19.7115C46.9841 19.7831 47.0141 19.843 47.0598 19.8908C47.1055 19.9386 47.1662 19.9701 47.2419 19.9851C47.3176 20.0001 47.422 20.0078 47.556 20.0078H48.6803H48.6799Z" fill="#242056"/>
<path fill-rule="evenodd" clip-rule="evenodd" d="M11.5 0C17.8522 0 23.0053 5.14614 23.0053 11.4988C23.0053 17.8514 17.8522 23 11.5 23C5.14776 23 0 17.8506 0 11.4988C0 5.14695 5.15424 0 11.5 0Z" fill="#F26F21"/>
<path fill-rule="evenodd" clip-rule="evenodd" d="M9.94948 11.9666L10.4186 10.8722H9.18616L9.94908 11.9666H9.94948ZM9.74671 9.71634L10.419 10.8727L10.9055 9.71634H9.74671ZM9.74671 9.71634L10.4303 8.3265H8.94697L9.74671 9.71634ZM5.99527 8.3265L7.47092 11.1912L8.94697 8.3265H5.99527ZM7.47092 11.1912L5.91756 14.1837H9.00161L8.26743 12.7457L7.47051 11.1912H7.47092ZM8.2314 9.71634L8.96478 11.317L9.18657 10.8722L9.74671 9.71593H8.2314V9.71634ZM8.96478 11.317L8.26783 12.7453H9.62246L8.96518 11.317H8.96478ZM9.94948 11.9666L9.62206 12.7453H10.4963L9.94948 11.9666ZM9.00565 14.1833H10.2789L9.62206 12.7453L9.00161 14.1833H9.00565ZM10.3825 16.8627L9.00161 14.1833L7.86512 16.8627H10.3821H10.3825ZM11.5004 14.1833L11.2774 13.8701L10.4963 12.7453H12.511L11.5004 14.1833ZM7.67409 6.13772L9.76897 3.40579H6.09483L7.67409 6.13772ZM10.0907 6.13772H7.67409L8.94697 8.32609L10.0907 6.13772ZM5.99527 8.32609L7.67409 6.13772H4.87417L5.99527 8.32609ZM5.99527 8.32609H1.64645L3.764 11.2337L5.99527 8.32609ZM5.91756 14.1833L4.52732 16.8627H7.86553L5.91756 14.1833ZM1.50317 14.1833H5.91756L3.764 11.2337L1.50317 14.1833ZM6.93627 19.0401H9.45328L7.86553 16.8627L6.93627 19.0401ZM13.0525 11.9666L12.5875 10.8722H13.8203L13.0525 11.9666ZM13.2517 9.71634L12.5875 10.8727L12.0937 9.71634H13.2517ZM13.2517 9.71634L12.5697 8.3265H14.0563L13.2517 9.71634ZM17.0035 8.3265L15.5315 11.1912L14.0563 8.3265H17.0035ZM15.5315 11.1912L17.0849 14.1837H13.9964L14.735 12.7457L15.5319 11.1912H15.5315ZM14.7722 9.71634L14.0397 11.317L13.8203 10.8722L13.2517 9.71593H14.7718L14.7722 9.71634ZM14.0397 11.317L14.735 12.7453H13.3844L14.0397 11.317ZM13.0525 11.9666L13.3844 12.7453H12.511L13.0525 11.9666ZM13.9939 14.1833H12.7292L13.3848 12.7453L13.9968 14.1833H13.9944H13.9939ZM12.6215 16.8627L13.9964 14.1833L15.1369 16.8627H12.6211H12.6215ZM11.5008 9.71593H12.0941L11.5008 8.32609L10.9059 9.71593H11.5008ZM11.5008 12.7449L11.651 12.4835L12.5875 10.8722H10.419L11.5004 12.7453L11.5008 12.7449ZM11.5008 16.8627L12.7292 14.1833H10.2793L11.224 16.2503L11.5008 16.8627ZM15.3259 6.13731L13.2335 3.40539H16.9084L15.3259 6.13731ZM12.9166 6.13731H15.3259L14.0567 8.32569L12.9166 6.13731ZM17.0039 8.32569L15.3259 6.13731H18.1299L17.0039 8.32569ZM17.0039 8.32569H21.3572L19.236 11.2333L17.0039 8.32569ZM17.0849 14.1829L18.4678 16.8623H15.1369L17.0849 14.1829ZM21.4968 14.1829H17.0849L19.2356 11.2333L21.4964 14.1829H21.4968ZM16.0706 19.0397H13.5508L15.1369 16.8623L16.0702 19.0397H16.0706ZM11.5008 3.40498H13.2335L11.5008 1.15063L9.76938 3.40498H11.5008ZM11.5008 6.13691H12.9166L11.5008 3.40498L10.0911 6.13691H11.5008ZM11.5008 8.32528H12.5701L11.9282 7.0002L11.5008 6.13691L10.4307 8.32528H11.5008ZM11.5008 19.0393L11.7878 18.4735L12.6215 16.8623H10.3829L11.5008 19.0397V19.0393ZM11.5008 21.8497L13.5508 19.0393H9.45328L11.5004 21.8497H11.5008Z" fill="white"/>
<path fill-rule="evenodd" clip-rule="evenodd" d="M33.3051 2.73999H31.4272C30.8257 2.73999 30.3356 3.23133 30.3356 3.82952V14.2428H32.2128C32.8101 14.2428 33.3051 13.76 33.3051 13.1549V2.73999ZM36.4329 2.73999H42.7811V4.66651C42.7811 5.23556 42.3092 5.70666 41.7377 5.70666H38.3375V7.17826H42.0323V9.09992C42.0323 9.67625 41.5689 10.1409 40.993 10.1409H38.3375V13.1836C38.3375 13.7721 37.8612 14.2432 37.282 14.2432H35.3709V3.79593C35.3709 3.21676 35.8464 2.73999 36.4329 2.73999ZM28.2658 2.73999H26.3911C25.7937 2.73999 25.2996 3.23133 25.2996 3.82952V14.2428H27.1739C27.7712 14.2428 28.2654 13.76 28.2654 13.1549V2.73999H28.2658ZM47.3824 2.73999H45.4786C44.8962 2.73999 44.419 3.21676 44.419 3.79593V14.2428H49.9383C50.5134 14.2428 50.9829 13.7782 50.9829 13.2027V11.2802H47.3824V2.73999Z" fill="#242056"/>
</svg>