<svg width="44" height="41" viewBox="0 0 44 41" fill="none" xmlns="http://www.w3.org/2000/svg">
<rect opacity="0.2" width="37.4857" height="37.4857" transform="matrix(1 0 0 -1 0 37.4854)" fill="#F56B8C"/>
<rect width="37.4857" height="37.4857" transform="matrix(1 0 0 -1 5.85742 41)" fill="#F56B8C"/>
<path d="M25.3632 30.3205C25.0664 30.19 24.7696 30.0595 24.4728 29.929C23.7614 29.6154 23.0499 29.3017 22.3363 28.9881C21.4796 28.6092 20.6209 28.2325 19.7642 27.8536C19.019 27.5252 18.276 27.1968 17.5309 26.8706C17.1709 26.7127 16.811 26.5464 16.4489 26.3928C16.4426 26.3907 16.4384 26.3885 16.4342 26.3864C16.6089 26.6895 16.7815 26.9927 16.9562 27.2958V26.3149V23.9616V21.1263V18.6741C16.9562 18.2741 16.9625 17.8742 16.9562 17.4764V17.4595C16.4279 17.7626 15.8996 18.0657 15.3733 18.3688C15.6701 18.4993 15.9669 18.6299 16.2637 18.7604C16.9751 19.074 17.6866 19.3876 18.4002 19.7012C19.2569 20.0801 20.1157 20.4569 20.9724 20.8358C21.7175 21.1642 22.4606 21.4925 23.2057 21.8188C23.5656 21.9767 23.9256 22.143 24.2876 22.2966C24.2939 22.2987 24.2981 22.3008 24.3023 22.3029C24.1276 21.9998 23.955 21.6967 23.7803 21.3936V22.3745V24.7278V27.5631V30.0153C23.7803 30.4153 23.7761 30.8152 23.7803 31.213V31.2298C23.7803 31.4993 23.8982 31.7834 24.0876 31.975C24.2708 32.1581 24.5697 32.2949 24.8328 32.2823C25.1043 32.2697 25.3864 32.1813 25.5779 31.975C25.7673 31.7687 25.8852 31.5161 25.8852 31.2298V30.249V27.8957V25.0604V22.6081C25.8852 22.2082 25.8894 21.8083 25.8852 21.4104V21.3936C25.8852 21.2042 25.8368 21.0274 25.7421 20.8632C25.6495 20.7053 25.5232 20.579 25.3653 20.4864C25.0685 20.3559 24.7717 20.2254 24.4749 20.0949C23.7635 19.7812 23.052 19.4676 22.3384 19.154C21.4817 18.7751 20.6229 18.3983 19.7662 18.0194C19.0211 17.6911 18.2781 17.3627 17.5329 17.0364C17.173 16.8765 16.8109 16.7186 16.451 16.5586C16.4468 16.5565 16.4405 16.5544 16.4363 16.5523C16.2721 16.4576 16.0953 16.4092 15.9059 16.4092C15.7164 16.4092 15.5396 16.4576 15.3754 16.5523C15.0555 16.7397 14.8534 17.0891 14.8534 17.4616V18.4425V20.7958V23.6311V26.0834C14.8534 26.4833 14.8492 26.8832 14.8534 27.281V27.2979C14.8534 27.4873 14.9018 27.6641 14.9966 27.8283C15.0892 27.9862 15.2155 28.1125 15.3733 28.2051C15.6701 28.3356 15.9669 28.4661 16.2637 28.5966C16.9752 28.9102 17.6867 29.2239 18.4002 29.5375C19.2569 29.9164 20.1157 30.2932 20.9724 30.6721C21.7175 31.0004 22.4606 31.3288 23.2057 31.655C23.5657 31.815 23.9277 31.9729 24.2876 32.1329C24.2918 32.135 24.2982 32.1371 24.3024 32.1392C24.4223 32.2171 24.5528 32.257 24.6939 32.2634C24.8328 32.2949 24.9738 32.2886 25.1128 32.2444C25.3569 32.1771 25.6221 31.9876 25.7421 31.7603C25.8705 31.5161 25.9358 31.2193 25.8474 30.9499C25.7695 30.7057 25.6095 30.4279 25.3633 30.3205L25.3632 30.3205Z" fill="white"/>
<path d="M33.232 26.3866C32.9352 26.5171 32.6384 26.6476 32.3416 26.7781C31.6302 27.0918 30.9187 27.4054 30.2051 27.719C29.3484 28.0979 28.4897 28.4747 27.6329 28.8536C26.8878 29.1819 26.1448 29.5103 25.3997 29.8366C25.0397 29.9965 24.6756 30.1502 24.3177 30.3144C24.3135 30.3165 24.3072 30.3186 24.303 30.3207C24.8314 30.6238 25.3597 30.9269 25.8859 31.23V30.2491V27.8958V25.0605V22.6083C25.8859 22.2083 25.8922 21.8084 25.8859 21.4106V21.3938C25.7112 21.6969 25.5386 22 25.3639 22.3031C25.6607 22.1726 25.9575 22.0421 26.2543 21.9116C26.9657 21.5979 27.6772 21.2843 28.3908 20.9707C29.2475 20.5918 30.1063 20.215 30.963 19.8361C31.7081 19.5078 32.4511 19.1794 33.1963 18.8531C33.5562 18.6932 33.9203 18.5395 34.2782 18.3753C34.2824 18.3732 34.2887 18.3711 34.2929 18.369C33.7646 18.0659 33.2363 17.7628 32.71 17.4597V18.4406V20.7939V23.6292V26.0814C32.71 26.4813 32.7058 26.8813 32.71 27.2791V27.2959C32.71 27.5654 32.8279 27.8495 33.0173 28.041C33.2005 28.2242 33.4993 28.361 33.7625 28.3484C34.034 28.3357 34.3161 28.2473 34.5076 28.041C34.697 27.8348 34.8149 27.5822 34.8149 27.2959V26.3151V23.9617V21.1264V18.6742C34.8149 18.2743 34.8191 17.8744 34.8149 17.4765V17.4597C34.8149 17.0892 34.6128 16.7377 34.2929 16.5504C34.1287 16.4556 33.9519 16.4072 33.7625 16.4072C33.573 16.4072 33.3962 16.4556 33.232 16.5504C32.9353 16.6809 32.6385 16.8114 32.3417 16.9419C31.6302 17.2555 30.9187 17.5691 30.2052 17.8828C29.3485 18.2616 28.4897 18.6384 27.633 19.0173C26.8879 19.3457 26.1448 19.674 25.3997 20.0003C25.0397 20.1582 24.6735 20.3097 24.3178 20.4781C24.3136 20.4802 24.3072 20.4823 24.303 20.4844C24.1452 20.5771 24.0189 20.7034 23.9263 20.8612C23.8315 21.0254 23.7831 21.2022 23.7831 21.3917V22.3725V24.7258V27.5611V30.0134C23.7831 30.4133 23.7789 30.8132 23.7831 31.2111V31.2279C23.7831 31.5984 23.9852 31.9499 24.3051 32.1372C24.4693 32.2319 24.6461 32.2804 24.8355 32.2804C25.025 32.2804 25.2018 32.2319 25.366 32.1372C25.6628 32.0067 25.9596 31.8762 26.2564 31.7457C26.9678 31.4321 27.6793 31.1184 28.3929 30.8048C29.2496 30.4259 30.1083 30.0491 30.965 29.6703C31.7102 29.3419 32.4532 29.0135 33.1983 28.6873C33.5583 28.5294 33.9245 28.3778 34.2803 28.2094C34.2845 28.2073 34.2908 28.2052 34.295 28.2031C34.5202 28.1042 34.716 27.8011 34.7791 27.5737C34.8486 27.3212 34.817 26.9865 34.6739 26.7633C34.5286 26.5381 34.3139 26.3403 34.0445 26.2792C33.9519 26.2666 33.8571 26.254 33.7645 26.2413C33.573 26.2434 33.3962 26.2919 33.232 26.3866L33.232 26.3866Z" fill="white"/>
<path d="M33.2323 16.5499C32.9355 16.6804 32.6387 16.8109 32.3419 16.9414C31.6304 17.2551 30.919 17.5687 30.2054 17.8823C29.3487 18.2612 28.4899 18.638 27.6332 19.0169C26.8881 19.3452 26.145 19.6736 25.3999 19.9999C25.04 20.1598 24.6758 20.3135 24.318 20.4777C24.3138 20.4798 24.3075 20.4819 24.3033 20.484H25.3662C25.0694 20.3535 24.7726 20.223 24.4758 20.0925C23.7644 19.7788 23.0529 19.4652 22.3394 19.1516C21.4826 18.7727 20.6239 18.3959 19.7672 18.017C19.022 17.6887 18.279 17.3603 17.5339 17.034C17.1739 16.8762 16.814 16.7099 16.452 16.5562C16.4456 16.5541 16.4414 16.552 16.4372 16.5499C16.353 17.1919 16.2688 17.8318 16.1867 18.4738C16.4835 18.3559 16.7803 18.2401 17.0771 18.1223C17.7865 17.8423 18.4979 17.5623 19.2073 17.2803C20.0661 16.9414 20.9249 16.6025 21.7837 16.2636C22.5289 15.9689 23.274 15.6743 24.0191 15.3817C24.3791 15.2385 24.7432 15.1059 25.101 14.9544C25.1053 14.9522 25.1116 14.9501 25.1158 14.948H24.5559C24.8527 15.0659 25.1495 15.1817 25.4463 15.2996C26.1556 15.5795 26.8671 15.8595 27.5764 16.1415C28.4352 16.4804 29.294 16.8193 30.1529 17.1582C30.898 17.4529 31.6432 17.7475 32.3883 18.0401C32.7482 18.1833 33.106 18.3348 33.4702 18.4675C33.4744 18.4696 33.4807 18.4717 33.4849 18.4738C33.7228 18.5685 34.0848 18.4906 34.2953 18.3685C34.5142 18.2401 34.7226 17.9896 34.7794 17.7391C34.8405 17.4697 34.8279 17.1666 34.6742 16.9287C34.6195 16.8572 34.5647 16.7877 34.51 16.7161C34.3795 16.5856 34.2238 16.4951 34.0448 16.4446C33.748 16.3267 33.4512 16.211 33.1544 16.0931C32.4409 15.811 31.7273 15.529 31.0159 15.249C30.155 14.908 29.292 14.5691 28.4311 14.2281C27.688 13.9356 26.945 13.6409 26.202 13.3483C25.8462 13.2073 25.4905 13.0557 25.1306 12.9252C24.9895 12.8726 24.8443 12.881 24.699 12.9021C24.5412 12.9231 24.6043 12.9063 24.5454 12.9273C24.5054 12.9421 24.4633 12.9589 24.4233 12.9757C24.2381 13.0494 24.0528 13.1231 23.8676 13.1947C23.1961 13.4599 22.5226 13.7251 21.8511 13.9903C20.9944 14.3292 20.1356 14.6681 19.2789 15.007C18.5043 15.3122 17.7318 15.6174 16.9572 15.9247C16.5341 16.091 16.111 16.2594 15.69 16.4257C15.6711 16.4341 15.6521 16.4405 15.6311 16.4489C15.4606 16.5162 15.2985 16.5878 15.1659 16.7204C15.0017 16.8846 14.907 17.0972 14.8754 17.3245C14.8501 17.5161 14.8712 17.6908 14.947 17.8697C15.027 18.0612 15.1806 18.2864 15.3785 18.3727C15.6774 18.5032 15.9763 18.6358 16.2731 18.7664L18.4201 19.7136C19.281 20.0925 20.1419 20.4714 21.0028 20.8523C21.7437 21.1786 22.4847 21.5048 23.2277 21.8332C23.5834 21.989 23.9391 22.1468 24.2949 22.3026C24.2991 22.3047 24.3012 22.3047 24.3054 22.3068H24.3075C24.3917 22.3426 24.4759 22.3784 24.558 22.412C24.6969 22.4562 24.838 22.4626 24.9769 22.431C25.1664 22.4057 25.1516 22.4015 25.3705 22.3047C25.3748 22.3026 25.3769 22.3026 25.3811 22.3005C25.419 22.2836 25.4589 22.2668 25.4968 22.25C25.6821 22.1679 25.8652 22.0879 26.0504 22.0058C26.7219 21.709 27.3955 21.4143 28.067 21.1175C28.9237 20.7407 29.7804 20.3619 30.637 19.9851C31.4138 19.642 32.1904 19.301 32.9672 18.9579C33.3924 18.7705 33.8154 18.5832 34.2406 18.398C34.2596 18.3895 34.2785 18.3811 34.2996 18.3727C34.5248 18.2738 34.7206 17.9707 34.7837 17.7433C34.8532 17.4907 34.8216 17.156 34.6785 16.9329C34.5332 16.7077 34.3185 16.5098 34.0491 16.4488C33.9565 16.4362 33.8617 16.4235 33.7691 16.4109C33.5734 16.4067 33.3965 16.4551 33.2324 16.5498L33.2323 16.5499Z" fill="white"/>
<path d="M28.459 19.312V21.7158V22.0547C28.459 22.3242 28.5769 22.6083 28.7663 22.7999C28.9494 22.983 29.2483 23.1198 29.5114 23.1072C29.783 23.0945 30.065 23.0061 30.2565 22.7999C30.446 22.5936 30.5639 22.341 30.5639 22.0547V19.6509V19.312C30.5639 19.0426 30.446 18.7584 30.2565 18.5669C30.0734 18.3838 29.7745 18.247 29.5114 18.2596C29.2399 18.2722 28.9578 18.3606 28.7663 18.5669C28.579 18.7732 28.459 19.0258 28.459 19.312Z" fill="white"/>
<path d="M20.302 16.6514C20.5988 16.7734 20.8934 16.8955 21.1902 17.0176C21.9017 17.3102 22.611 17.6028 23.3225 17.8954C24.1834 18.249 25.0422 18.6026 25.9031 18.9562C26.6462 19.2614 27.3892 19.5687 28.1343 19.874C28.4943 20.0234 28.8542 20.1813 29.2184 20.3202C29.2226 20.3223 29.2289 20.3244 29.2331 20.3265C29.4688 20.4234 29.8351 20.3434 30.0435 20.2213C30.2624 20.0929 30.4708 19.8424 30.5276 19.5919C30.5887 19.3225 30.576 19.0194 30.4224 18.7815C30.3676 18.7099 30.3129 18.6405 30.2582 18.5689C30.1277 18.4384 29.9719 18.3479 29.793 18.2974C29.4962 18.1753 29.2015 18.0532 28.9047 17.9311C28.1933 17.6385 27.4839 17.346 26.7725 17.0534C25.9116 16.6997 25.0528 16.3461 24.1918 15.9925C23.4488 15.6873 22.7058 15.38 21.9606 15.0748C21.6007 14.9253 21.2408 14.7674 20.8766 14.6285C20.8724 14.6264 20.8661 14.6243 20.8619 14.6222C20.6261 14.5254 20.2599 14.6053 20.0515 14.7274C19.8326 14.8558 19.6242 15.1063 19.5673 15.3568C19.5063 15.6262 19.5189 15.9294 19.6726 16.1672C19.7273 16.2388 19.782 16.3083 19.8368 16.3798C19.9694 16.5124 20.123 16.6029 20.302 16.6514Z" fill="white"/>
<path d="M14.1275 33.6697C14.1238 33.6718 14.1199 33.6731 14.116 33.6739C14.1124 33.6746 14.1084 33.6751 14.104 33.6751C14.0911 33.6751 14.0808 33.6718 14.0733 33.6649C14.0661 33.6576 14.0625 33.6479 14.0625 33.6354C14.0625 33.6234 14.0661 33.6137 14.0733 33.6065C14.0808 33.5993 14.0911 33.5957 14.104 33.5957C14.1084 33.5957 14.1124 33.5963 14.116 33.5975C14.1199 33.5984 14.1238 33.5998 14.1275 33.6017V33.6174C14.1238 33.6149 14.1202 33.6131 14.1166 33.6119C14.113 33.6107 14.1091 33.6101 14.1052 33.6101C14.0983 33.6101 14.0929 33.6125 14.089 33.6174C14.0849 33.6219 14.0829 33.6279 14.0829 33.6354C14.0829 33.6435 14.0849 33.6498 14.089 33.6546C14.0929 33.6592 14.0983 33.6613 14.1052 33.6613C14.1091 33.6613 14.113 33.6607 14.1166 33.6595C14.1202 33.6582 14.1238 33.6564 14.1275 33.654V33.6697Z" fill="white"/>
<path d="M14.1853 33.6311C14.1836 33.6303 14.182 33.6299 14.1805 33.6299C14.1788 33.6296 14.1772 33.6293 14.1757 33.6293C14.1708 33.6293 14.1669 33.6309 14.1642 33.6341C14.1618 33.637 14.1606 33.6412 14.1606 33.6467V33.6732H14.1426V33.6155H14.1606V33.6251C14.163 33.6215 14.1656 33.6189 14.1684 33.6173C14.1716 33.6153 14.1754 33.6143 14.1799 33.6143H14.1817C14.1824 33.6143 14.1836 33.6146 14.1853 33.6149L14.1853 33.6311Z" fill="white"/>
<path d="M14.2528 33.6443V33.6497H14.21C14.2104 33.6538 14.2119 33.657 14.2143 33.6594C14.217 33.6615 14.2209 33.6624 14.2257 33.6624C14.2296 33.6624 14.2337 33.6618 14.2377 33.6606C14.2416 33.6594 14.2458 33.6579 14.2503 33.6558V33.6696C14.2458 33.6712 14.2415 33.6724 14.2371 33.6732C14.2326 33.6739 14.2282 33.6744 14.2239 33.6744C14.2134 33.6744 14.2054 33.6718 14.1998 33.6666C14.1941 33.6615 14.1914 33.654 14.1914 33.6443C14.1914 33.6352 14.1941 33.6279 14.1998 33.6227C14.2054 33.6171 14.2132 33.6143 14.2233 33.6143C14.232 33.6143 14.2391 33.6171 14.2443 33.6227C14.2499 33.6279 14.2527 33.6352 14.2527 33.6443L14.2528 33.6443ZM14.2341 33.6383C14.2341 33.6347 14.2331 33.632 14.2311 33.6299C14.229 33.6275 14.2263 33.6263 14.2227 33.6263C14.2194 33.6263 14.2167 33.6273 14.2143 33.6293C14.2119 33.6314 14.2104 33.6344 14.2101 33.6383L14.2341 33.6383Z" fill="white"/>
<path d="M14.2918 33.6473C14.2877 33.6473 14.2847 33.6479 14.2828 33.6491C14.2807 33.6503 14.2798 33.6524 14.2798 33.6552C14.2798 33.6576 14.2805 33.6594 14.2822 33.6606C14.2837 33.6618 14.2859 33.6624 14.2888 33.6624C14.2924 33.6624 14.2951 33.6612 14.2972 33.6588C14.2996 33.6564 14.3008 33.6532 14.3008 33.6491V33.6473L14.2918 33.6473ZM14.3195 33.6401V33.6732H14.3008V33.6648C14.2984 33.6684 14.2955 33.6711 14.2924 33.6726C14.2895 33.6738 14.2859 33.6744 14.2816 33.6744C14.2756 33.6744 14.2707 33.6729 14.2671 33.6696C14.2635 33.666 14.2617 33.6615 14.2617 33.6558C14.2617 33.649 14.2638 33.6442 14.2683 33.6413C14.2731 33.6382 14.2804 33.6365 14.29 33.6365H14.3008V33.6347C14.3008 33.632 14.2996 33.6299 14.2972 33.6287C14.2951 33.6272 14.2918 33.6263 14.287 33.6263C14.2829 33.6263 14.2792 33.6267 14.2756 33.6275C14.2722 33.6284 14.2692 33.6296 14.2665 33.6311V33.6173C14.2704 33.6161 14.2745 33.6153 14.2786 33.6149C14.2825 33.6146 14.2864 33.6143 14.29 33.6143C14.3004 33.6143 14.3077 33.6164 14.3122 33.6203C14.317 33.6243 14.3195 33.6309 14.3195 33.6401V33.6401Z" fill="white"/>
<path d="M14.3558 33.5996V33.6158H14.375V33.6291H14.3558V33.6537C14.3558 33.6561 14.3561 33.6579 14.357 33.6591C14.3582 33.6601 14.3603 33.6604 14.3636 33.6604H14.3732V33.6736H14.3576C14.3504 33.6736 14.3451 33.6722 14.342 33.6694C14.3391 33.6662 14.3377 33.661 14.3377 33.6537V33.6291H14.3281V33.6158H14.3377V33.5996L14.3558 33.5996Z" fill="white"/>
<path d="M14.4442 33.6443V33.6497H14.4015C14.4018 33.6538 14.4033 33.657 14.4057 33.6594C14.4084 33.6615 14.4123 33.6624 14.4171 33.6624C14.421 33.6624 14.4251 33.6618 14.4291 33.6606C14.433 33.6594 14.4372 33.6579 14.4418 33.6558V33.6696C14.4372 33.6712 14.4329 33.6724 14.4285 33.6732C14.424 33.6739 14.4196 33.6744 14.4153 33.6744C14.4048 33.6744 14.3968 33.6718 14.3912 33.6666C14.3855 33.6615 14.3828 33.654 14.3828 33.6443C14.3828 33.6352 14.3855 33.6279 14.3912 33.6227C14.3968 33.6171 14.4046 33.6143 14.4147 33.6143C14.4234 33.6143 14.4305 33.6171 14.4357 33.6227C14.4413 33.6279 14.4442 33.6352 14.4442 33.6443L14.4442 33.6443ZM14.4255 33.6383C14.4255 33.6347 14.4245 33.632 14.4225 33.6299C14.4204 33.6275 14.4177 33.6263 14.4141 33.6263C14.4108 33.6263 14.4081 33.6273 14.4057 33.6293C14.4033 33.6314 14.4018 33.6344 14.4015 33.6383L14.4255 33.6383Z" fill="white"/>
<path d="M14.4964 33.6244V33.5938H14.5151V33.6737H14.4964V33.6653C14.4936 33.6689 14.4906 33.6716 14.4874 33.6731C14.4845 33.6743 14.4811 33.6749 14.4772 33.6749C14.4703 33.6749 14.4646 33.6722 14.4597 33.6665C14.4552 33.661 14.4531 33.6537 14.4531 33.6449C14.4531 33.6361 14.4552 33.6289 14.4597 33.6232C14.4646 33.6177 14.4703 33.6148 14.4772 33.6148C14.4811 33.6148 14.4845 33.6157 14.4874 33.6172C14.4906 33.6189 14.4936 33.6213 14.4964 33.6244V33.6244ZM14.4844 33.6617C14.488 33.6617 14.4907 33.6604 14.4928 33.6575C14.4952 33.6548 14.4964 33.6506 14.4964 33.6449C14.4964 33.6398 14.4952 33.6357 14.4928 33.6328C14.4907 33.6297 14.488 33.628 14.4844 33.628C14.4803 33.628 14.4773 33.6297 14.4754 33.6328C14.4733 33.6357 14.4724 33.6398 14.4724 33.6449C14.4724 33.6506 14.4733 33.6548 14.4754 33.6575C14.4773 33.6604 14.4803 33.6617 14.4844 33.6617Z" fill="white"/>
<path d="M14.601 33.6617C14.6046 33.6617 14.6073 33.6604 14.6094 33.6575C14.6118 33.6548 14.613 33.6506 14.613 33.6449C14.613 33.6398 14.6118 33.6357 14.6094 33.6328C14.6073 33.6297 14.6046 33.628 14.601 33.628C14.5969 33.628 14.5938 33.6297 14.5914 33.6328C14.5893 33.6357 14.5884 33.6398 14.5884 33.6449C14.5884 33.6506 14.5893 33.6548 14.5914 33.6575C14.5938 33.6604 14.5969 33.6617 14.601 33.6617ZM14.5884 33.6244C14.5911 33.6213 14.5939 33.6189 14.5968 33.6172C14.5999 33.6157 14.6035 33.6148 14.6076 33.6148C14.6148 33.6148 14.6205 33.6177 14.625 33.6232C14.6294 33.6289 14.6317 33.6361 14.6317 33.6449C14.6317 33.6537 14.6294 33.661 14.625 33.6665C14.6205 33.6722 14.6148 33.6749 14.6076 33.6749C14.6035 33.6749 14.5999 33.6743 14.5968 33.6731C14.5939 33.6716 14.5911 33.6689 14.5884 33.6653V33.6737H14.5703V33.5938H14.5884V33.6244Z" fill="white"/>
<path d="M14.6367 33.6152H14.6554L14.6704 33.6543L14.6836 33.6152H14.7023L14.6782 33.6784C14.6758 33.6847 14.6728 33.6892 14.6692 33.6916C14.6659 33.6943 14.6617 33.6958 14.6566 33.6958H14.6463V33.6838H14.6518C14.6549 33.6838 14.6572 33.6832 14.6584 33.682C14.6599 33.6811 14.6611 33.6793 14.662 33.6766L14.6626 33.6754L14.6367 33.6152Z" fill="white"/>
<path d="M14.7942 33.6173V33.6317C14.7906 33.6297 14.7867 33.6284 14.7828 33.6275C14.7792 33.6267 14.7757 33.6263 14.7726 33.6263C14.7692 33.6263 14.7667 33.6269 14.7647 33.6281C14.7631 33.629 14.7623 33.6302 14.7623 33.6317C14.7623 33.6334 14.7629 33.6346 14.7641 33.6353C14.7653 33.6362 14.7677 33.6368 14.7714 33.6371L14.7744 33.6377C14.784 33.6389 14.7903 33.641 14.7936 33.6437C14.7968 33.6461 14.7984 33.6503 14.7984 33.6564C14.7984 33.6624 14.796 33.667 14.7912 33.6702C14.7867 33.673 14.7801 33.6744 14.7714 33.6744C14.7673 33.6744 14.7632 33.6739 14.7593 33.6732C14.7553 33.6729 14.7512 33.672 14.7473 33.6708V33.657C14.7509 33.6591 14.7545 33.6604 14.7581 33.6612C14.762 33.6621 14.7661 33.6624 14.7701 33.6624C14.7738 33.6624 14.7763 33.6621 14.778 33.6612C14.7799 33.66 14.781 33.6585 14.781 33.6564C14.781 33.6549 14.7804 33.6536 14.7792 33.6527C14.778 33.652 14.7753 33.6514 14.7714 33.6509L14.7683 33.6503C14.7599 33.6496 14.7541 33.6478 14.7509 33.6449C14.7476 33.6422 14.7461 33.638 14.7461 33.6323C14.7461 33.6263 14.748 33.6219 14.7521 33.6191C14.7565 33.6159 14.7629 33.6143 14.7714 33.6143C14.775 33.6143 14.7786 33.6147 14.7822 33.6155C14.7861 33.6159 14.7901 33.6165 14.7942 33.6173L14.7942 33.6173Z" fill="white"/>
<path d="M14.8702 33.6389V33.6737H14.8516V33.6473C14.8516 33.6422 14.8513 33.6387 14.851 33.637C14.851 33.6351 14.8507 33.6334 14.8504 33.6322C14.8495 33.631 14.8486 33.6303 14.8474 33.6298C14.8462 33.6291 14.8447 33.6286 14.8432 33.6286C14.8391 33.6286 14.836 33.6303 14.8335 33.6334C14.8314 33.6363 14.8305 33.6404 14.8305 33.6455V33.6737H14.8125V33.5938H14.8305V33.6244C14.8332 33.6213 14.8363 33.6189 14.8396 33.6172C14.8427 33.6157 14.8462 33.6148 14.8498 33.6148C14.8566 33.6148 14.8615 33.6169 14.8648 33.6208C14.8684 33.6249 14.8702 33.6309 14.8702 33.6389L14.8702 33.6389Z" fill="white"/>
<path d="M14.9148 33.6473C14.9108 33.6473 14.9078 33.6479 14.9058 33.6491C14.9037 33.6503 14.9028 33.6524 14.9028 33.6552C14.9028 33.6576 14.9036 33.6594 14.9052 33.6606C14.9067 33.6618 14.909 33.6624 14.9118 33.6624C14.9154 33.6624 14.9181 33.6612 14.9202 33.6588C14.9227 33.6564 14.9239 33.6532 14.9239 33.6491V33.6473L14.9148 33.6473ZM14.9425 33.6401V33.6732H14.9239V33.6648C14.9215 33.6684 14.9186 33.6711 14.9154 33.6726C14.9126 33.6738 14.909 33.6744 14.9046 33.6744C14.8986 33.6744 14.8938 33.6729 14.8902 33.6696C14.8866 33.666 14.8848 33.6615 14.8848 33.6558C14.8848 33.649 14.8869 33.6442 14.8914 33.6413C14.8962 33.6382 14.9034 33.6365 14.913 33.6365H14.9239V33.6347C14.9239 33.632 14.9227 33.6299 14.9202 33.6287C14.9181 33.6272 14.9148 33.6263 14.91 33.6263C14.906 33.6263 14.9022 33.6267 14.8986 33.6275C14.8953 33.6284 14.8923 33.6296 14.8896 33.6311V33.6173C14.8935 33.6161 14.8975 33.6153 14.9016 33.6149C14.9055 33.6146 14.9094 33.6143 14.913 33.6143C14.9234 33.6143 14.9308 33.6164 14.9353 33.6203C14.9401 33.6243 14.9425 33.6309 14.9425 33.6401V33.6401Z" fill="white"/>
<path d="M15.0051 33.6173V33.6317C15.0015 33.6297 14.9976 33.6284 14.9937 33.6275C14.9901 33.6267 14.9866 33.6263 14.9835 33.6263C14.9802 33.6263 14.9776 33.6269 14.9757 33.6281C14.974 33.629 14.9733 33.6302 14.9733 33.6317C14.9733 33.6334 14.9739 33.6346 14.9751 33.6353C14.9763 33.6362 14.9787 33.6368 14.9823 33.6371L14.9853 33.6377C14.9949 33.6389 15.0012 33.641 15.0045 33.6437C15.0077 33.6461 15.0094 33.6503 15.0094 33.6564C15.0094 33.6624 15.0069 33.667 15.0021 33.6702C14.9976 33.673 14.991 33.6744 14.9823 33.6744C14.9782 33.6744 14.9742 33.6739 14.9703 33.6732C14.9662 33.6729 14.9621 33.672 14.9582 33.6708V33.657C14.9618 33.6591 14.9655 33.6604 14.9691 33.6612C14.973 33.6621 14.977 33.6624 14.9811 33.6624C14.9847 33.6624 14.9873 33.6621 14.9889 33.6612C14.9909 33.66 14.9919 33.6585 14.9919 33.6564C14.9919 33.6549 14.9913 33.6536 14.9901 33.6527C14.9889 33.652 14.9862 33.6514 14.9823 33.6509L14.9793 33.6503C14.9709 33.6496 14.965 33.6478 14.9618 33.6449C14.9585 33.6422 14.957 33.638 14.957 33.6323C14.957 33.6263 14.959 33.6219 14.963 33.6191C14.9674 33.6159 14.9739 33.6143 14.9823 33.6143C14.9859 33.6143 14.9895 33.6147 14.9931 33.6155C14.997 33.6159 15.0011 33.6165 15.0051 33.6173L15.0051 33.6173Z" fill="white"/>
<path d="M15.0792 33.6389V33.6737H15.0606V33.6473C15.0606 33.6422 15.0603 33.6387 15.06 33.637C15.06 33.6351 15.0597 33.6334 15.0594 33.6322C15.0585 33.631 15.0576 33.6303 15.0564 33.6298C15.0552 33.6291 15.0537 33.6286 15.0522 33.6286C15.0481 33.6286 15.0449 33.6303 15.0425 33.6334C15.0404 33.6363 15.0395 33.6404 15.0395 33.6455V33.6737H15.0215V33.5938H15.0395V33.6244C15.0422 33.6213 15.0452 33.6189 15.0485 33.6172C15.0517 33.6157 15.0552 33.6148 15.0588 33.6148C15.0655 33.6148 15.0705 33.6169 15.0738 33.6208C15.0774 33.6249 15.0792 33.6309 15.0792 33.6389L15.0792 33.6389Z" fill="white"/>
<path d="M15.1219 33.6473C15.1178 33.6473 15.1148 33.6479 15.1128 33.6491C15.1107 33.6503 15.1098 33.6524 15.1098 33.6552C15.1098 33.6576 15.1106 33.6594 15.1122 33.6606C15.1137 33.6618 15.116 33.6624 15.1189 33.6624C15.1225 33.6624 15.1252 33.6612 15.1273 33.6588C15.1297 33.6564 15.1309 33.6532 15.1309 33.6491V33.6473L15.1219 33.6473ZM15.1495 33.6401V33.6732H15.1309V33.6648C15.1285 33.6684 15.1256 33.6711 15.1225 33.6726C15.1196 33.6738 15.116 33.6744 15.1116 33.6744C15.1056 33.6744 15.1008 33.6729 15.0972 33.6696C15.0936 33.666 15.0918 33.6615 15.0918 33.6558C15.0918 33.649 15.0939 33.6442 15.0984 33.6413C15.1032 33.6382 15.1104 33.6365 15.1201 33.6365H15.1309V33.6347C15.1309 33.632 15.1297 33.6299 15.1273 33.6287C15.1252 33.6272 15.1219 33.6263 15.1171 33.6263C15.113 33.6263 15.1092 33.6267 15.1056 33.6275C15.1023 33.6284 15.0993 33.6296 15.0966 33.6311V33.6173C15.1005 33.6161 15.1046 33.6153 15.1086 33.6149C15.1125 33.6146 15.1165 33.6143 15.1201 33.6143C15.1304 33.6143 15.1378 33.6164 15.1423 33.6203C15.1471 33.6243 15.1495 33.6309 15.1495 33.6401V33.6401Z" fill="white"/>
<path d="M15.2257 33.6383V33.6732H15.2071V33.6461C15.2071 33.6413 15.2068 33.6382 15.2065 33.6365C15.2065 33.6346 15.2062 33.6329 15.2059 33.6317C15.205 33.6305 15.2041 33.6297 15.2029 33.6293C15.2016 33.6285 15.2001 33.6281 15.1986 33.6281C15.1946 33.6281 15.1914 33.6297 15.189 33.6329C15.1869 33.6358 15.186 33.6398 15.186 33.6449V33.6732H15.168V33.6155H15.186V33.6239C15.1887 33.6207 15.1917 33.6183 15.195 33.6167C15.1982 33.6152 15.2016 33.6143 15.2053 33.6143C15.212 33.6143 15.217 33.6164 15.2203 33.6203C15.2239 33.6243 15.2257 33.6303 15.2257 33.6383L15.2257 33.6383Z" fill="white"/>
<path d="M15.2441 33.5938H15.2622V33.6371L15.2832 33.616H15.3049L15.2766 33.6425L15.3073 33.6737H15.285L15.2622 33.6497V33.6737H15.2441L15.2441 33.5938Z" fill="white"/>
<path d="M15.3938 33.6173V33.6317C15.3902 33.6297 15.3863 33.6284 15.3824 33.6275C15.3788 33.6267 15.3753 33.6263 15.3722 33.6263C15.3689 33.6263 15.3663 33.6269 15.3643 33.6281C15.3627 33.629 15.3619 33.6302 15.3619 33.6317C15.3619 33.6334 15.3625 33.6346 15.3637 33.6353C15.3649 33.6362 15.3674 33.6368 15.371 33.6371L15.374 33.6377C15.3836 33.6389 15.3899 33.641 15.3932 33.6437C15.3964 33.6461 15.398 33.6503 15.398 33.6564C15.398 33.6624 15.3956 33.667 15.3908 33.6702C15.3863 33.673 15.3797 33.6744 15.371 33.6744C15.3669 33.6744 15.3628 33.6739 15.3589 33.6732C15.3549 33.6729 15.3508 33.672 15.3469 33.6708V33.657C15.3505 33.6591 15.3541 33.6604 15.3577 33.6612C15.3616 33.6621 15.3657 33.6624 15.3698 33.6624C15.3734 33.6624 15.3759 33.6621 15.3776 33.6612C15.3795 33.66 15.3806 33.6585 15.3806 33.6564C15.3806 33.6549 15.38 33.6536 15.3788 33.6527C15.3776 33.652 15.3749 33.6514 15.371 33.6509L15.368 33.6503C15.3595 33.6496 15.3537 33.6478 15.3505 33.6449C15.3472 33.6422 15.3457 33.638 15.3457 33.6323C15.3457 33.6263 15.3477 33.6219 15.3517 33.6191C15.3561 33.6159 15.3625 33.6143 15.371 33.6143C15.3746 33.6143 15.3782 33.6147 15.3818 33.6155C15.3857 33.6159 15.3898 33.6165 15.3938 33.6173L15.3938 33.6173Z" fill="white"/>
<path d="M15.4121 33.616H15.4302V33.6737H15.4121V33.616ZM15.4121 33.5938H15.4302V33.6088H15.4121V33.5938Z" fill="white"/>
<path d="M15.507 33.6383V33.6732H15.4883V33.6461C15.4883 33.6413 15.488 33.6382 15.4877 33.6365C15.4877 33.6346 15.4874 33.6329 15.4871 33.6317C15.4862 33.6305 15.4853 33.6297 15.4841 33.6293C15.4829 33.6285 15.4814 33.6281 15.4799 33.6281C15.4758 33.6281 15.4727 33.6297 15.4703 33.6329C15.4682 33.6358 15.4673 33.6398 15.4673 33.6449V33.6732H15.4492V33.6155H15.4673V33.6239C15.47 33.6207 15.473 33.6183 15.4763 33.6167C15.4794 33.6152 15.4829 33.6143 15.4865 33.6143C15.4933 33.6143 15.4982 33.6164 15.5015 33.6203C15.5051 33.6243 15.507 33.6303 15.507 33.6383L15.507 33.6383Z" fill="white"/>
<path d="M15.5628 33.6636C15.56 33.6669 15.557 33.6693 15.5538 33.6708C15.551 33.6724 15.5475 33.6732 15.5436 33.6732C15.5367 33.6732 15.531 33.6705 15.5261 33.6648C15.5216 33.6592 15.5195 33.6521 15.5195 33.6437C15.5195 33.6353 15.5216 33.6284 15.5261 33.6227C15.531 33.6171 15.5367 33.6143 15.5436 33.6143C15.5475 33.6143 15.551 33.6152 15.5538 33.6167C15.557 33.6183 15.56 33.6207 15.5628 33.6239V33.6155H15.5815V33.6672C15.5815 33.6764 15.5785 33.6834 15.5725 33.6882C15.5664 33.6933 15.558 33.6961 15.5472 33.6961C15.5436 33.6961 15.54 33.6956 15.5364 33.6948C15.5331 33.6944 15.5299 33.6936 15.5267 33.6924V33.678C15.5299 33.68 15.5329 33.6813 15.5358 33.6822C15.5389 33.6834 15.5421 33.684 15.5454 33.684C15.5514 33.684 15.5558 33.6825 15.5586 33.6798C15.5613 33.677 15.5628 33.6729 15.5628 33.6672L15.5628 33.6636ZM15.5508 33.6275C15.5467 33.6275 15.5437 33.629 15.5418 33.6317C15.5397 33.6346 15.5388 33.6386 15.5388 33.6437C15.5388 33.649 15.5397 33.653 15.5418 33.6558C15.5437 33.6586 15.5467 33.66 15.5508 33.66C15.5544 33.66 15.5571 33.6586 15.5592 33.6558C15.5616 33.653 15.5628 33.649 15.5628 33.6437C15.5628 33.6386 15.5616 33.6346 15.5592 33.6317C15.5571 33.629 15.5544 33.6275 15.5508 33.6275Z" fill="white"/>
<path d="M15.6554 33.6389V33.6737H15.6367V33.6473C15.6367 33.6422 15.6364 33.6387 15.6361 33.637C15.6361 33.6351 15.6358 33.6334 15.6355 33.6322C15.6346 33.631 15.6337 33.6303 15.6325 33.6298C15.6313 33.6291 15.6298 33.6286 15.6283 33.6286C15.6243 33.6286 15.6211 33.6303 15.6187 33.6334C15.6166 33.6363 15.6157 33.6404 15.6157 33.6455V33.6737H15.5977V33.5938H15.6157V33.6244C15.6184 33.6213 15.6214 33.6189 15.6247 33.6172C15.6279 33.6157 15.6313 33.6148 15.6349 33.6148C15.6417 33.6148 15.6467 33.6169 15.65 33.6208C15.6536 33.6249 15.6554 33.6309 15.6554 33.6389L15.6554 33.6389Z" fill="white"/>
<path d="M14.1037 33.6982V33.7103H14.0935C14.0906 33.7103 14.0887 33.7109 14.0875 33.7121C14.0866 33.713 14.0863 33.7145 14.0863 33.7169V33.7205H14.1019V33.7337H14.0863V33.7782H14.0682V33.7337H14.0586V33.7205H14.0682V33.7169C14.0682 33.7106 14.0697 33.7059 14.073 33.7031C14.0766 33.6999 14.082 33.6982 14.0893 33.6982L14.1037 33.6982Z" fill="white"/>
<path d="M14.154 33.7366C14.1524 33.7358 14.1507 33.7354 14.1492 33.7354C14.1476 33.7351 14.1459 33.7348 14.1444 33.7348C14.1396 33.7348 14.1357 33.7364 14.133 33.7396C14.1306 33.7424 14.1294 33.7466 14.1294 33.7522V33.7787H14.1113V33.7209H14.1294V33.7306C14.1318 33.7269 14.1343 33.7244 14.1372 33.7227C14.1403 33.7208 14.1441 33.7197 14.1486 33.7197H14.1504C14.1512 33.7197 14.1524 33.72 14.154 33.7203L14.154 33.7366Z" fill="white"/>
<path d="M14.1895 33.733C14.1854 33.733 14.1823 33.7345 14.1799 33.7372C14.1777 33.74 14.1768 33.7442 14.1768 33.7498C14.1768 33.7555 14.1777 33.7599 14.1799 33.763C14.1823 33.7659 14.1854 33.7672 14.1895 33.7672C14.1934 33.7672 14.1964 33.7659 14.1985 33.763C14.2009 33.7599 14.2021 33.7555 14.2021 33.7498C14.2021 33.7442 14.2009 33.74 14.1985 33.7372C14.1964 33.7345 14.1934 33.733 14.1895 33.733ZM14.1895 33.7197C14.1994 33.7197 14.2072 33.7226 14.2129 33.7281C14.2185 33.7334 14.2214 33.7406 14.2214 33.7498C14.2214 33.7594 14.2185 33.7669 14.2129 33.772C14.2072 33.7773 14.1994 33.7799 14.1895 33.7799C14.1794 33.7799 14.1716 33.7773 14.166 33.772C14.1608 33.7669 14.1582 33.7594 14.1582 33.7498C14.1582 33.7406 14.1608 33.7334 14.166 33.7281C14.1716 33.7226 14.1794 33.7197 14.1895 33.7197Z" fill="white"/>
<path d="M14.2873 33.7306C14.2897 33.7269 14.2924 33.7244 14.2957 33.7227C14.2989 33.7208 14.3025 33.7197 14.3065 33.7197C14.3129 33.7197 14.318 33.7218 14.3216 33.7257C14.3252 33.7298 14.327 33.7358 14.327 33.7438V33.7787H14.3083V33.7486V33.7474V33.745C14.3083 33.7411 14.3077 33.7382 14.3065 33.7366C14.3053 33.7346 14.3032 33.7336 14.3005 33.7336C14.2972 33.7336 14.2947 33.7351 14.2927 33.7378C14.2906 33.7406 14.2897 33.7448 14.2897 33.7504V33.7787H14.2711V33.7486C14.2711 33.7423 14.2705 33.7382 14.2693 33.7366C14.2684 33.7346 14.2665 33.7336 14.2638 33.7336C14.2602 33.7336 14.2574 33.7352 14.2554 33.7384C14.2533 33.7412 14.2524 33.7453 14.2524 33.7504V33.7787H14.2344V33.7209H14.2524V33.7293C14.2548 33.7262 14.2574 33.7238 14.2602 33.7221C14.2634 33.7206 14.2665 33.7197 14.2699 33.7197C14.2738 33.7197 14.2772 33.7208 14.2801 33.7227C14.2832 33.7248 14.2856 33.7274 14.2873 33.7306L14.2873 33.7306Z" fill="white"/>
<path d="M14.4007 33.7051V33.7213H14.42V33.7345H14.4007V33.7592C14.4007 33.7616 14.401 33.7634 14.4019 33.7646C14.4031 33.7655 14.4052 33.7658 14.4085 33.7658H14.4182V33.7791H14.4025C14.3953 33.7791 14.39 33.7777 14.3869 33.7748C14.384 33.7717 14.3827 33.7664 14.3827 33.7592V33.7345H14.373V33.7213H14.3827V33.7051L14.4007 33.7051Z" fill="white"/>
<path d="M14.4894 33.7433V33.7782H14.4707V33.7518C14.4707 33.7467 14.4704 33.7432 14.4701 33.7415C14.4701 33.7396 14.4698 33.7379 14.4695 33.7367C14.4686 33.7355 14.4677 33.7348 14.4665 33.7343C14.4653 33.7336 14.4638 33.7331 14.4623 33.7331C14.4583 33.7331 14.4551 33.7348 14.4527 33.7379C14.4506 33.7408 14.4497 33.7448 14.4497 33.75V33.7782H14.4316V33.6982H14.4497V33.7289C14.4524 33.7258 14.4554 33.7234 14.4587 33.7217C14.4619 33.7202 14.4653 33.7193 14.4689 33.7193C14.4757 33.7193 14.4807 33.7214 14.484 33.7253C14.4876 33.7294 14.4894 33.7354 14.4894 33.7433L14.4894 33.7433Z" fill="white"/>
<path d="M14.5633 33.7498V33.7552H14.5206C14.5209 33.7593 14.5224 33.7624 14.5248 33.7648C14.5275 33.7669 14.5314 33.7678 14.5362 33.7678C14.5401 33.7678 14.5442 33.7672 14.5483 33.766C14.5522 33.7648 14.5564 33.7633 14.5609 33.7612V33.7751C14.5564 33.7767 14.552 33.7779 14.5477 33.7787C14.5431 33.7794 14.5388 33.7799 14.5344 33.7799C14.5239 33.7799 14.5159 33.7773 14.5104 33.772C14.5047 33.7669 14.502 33.7594 14.502 33.7498C14.502 33.7406 14.5047 33.7334 14.5104 33.7281C14.5159 33.7226 14.5238 33.7197 14.5338 33.7197C14.5425 33.7197 14.5496 33.7226 14.5549 33.7281C14.5604 33.7334 14.5633 33.7406 14.5633 33.7498L14.5633 33.7498ZM14.5447 33.7438C14.5447 33.7402 14.5436 33.7375 14.5416 33.7354C14.5395 33.733 14.5368 33.7318 14.5332 33.7318C14.5299 33.7318 14.5272 33.7328 14.5248 33.7348C14.5224 33.7369 14.5209 33.7399 14.5206 33.7438L14.5447 33.7438Z" fill="white"/>
<path d="M14.6172 33.7012H14.6394L14.6671 33.7541V33.7012H14.6857V33.7782H14.6641L14.6358 33.7252V33.7782H14.6172L14.6172 33.7012Z" fill="white"/>
<path d="M14.7305 33.733C14.7264 33.733 14.7233 33.7345 14.7209 33.7372C14.7188 33.74 14.7179 33.7442 14.7179 33.7498C14.7179 33.7555 14.7188 33.7599 14.7209 33.763C14.7233 33.7659 14.7264 33.7672 14.7305 33.7672C14.7344 33.7672 14.7374 33.7659 14.7395 33.763C14.7419 33.7599 14.7431 33.7555 14.7431 33.7498C14.7431 33.7442 14.7419 33.74 14.7395 33.7372C14.7374 33.7345 14.7344 33.733 14.7305 33.733ZM14.7305 33.7197C14.7404 33.7197 14.7482 33.7226 14.7539 33.7281C14.7595 33.7334 14.7624 33.7406 14.7624 33.7498C14.7624 33.7594 14.7595 33.7669 14.7539 33.772C14.7482 33.7773 14.7404 33.7799 14.7305 33.7799C14.7204 33.7799 14.7126 33.7773 14.707 33.772C14.7018 33.7669 14.6992 33.7594 14.6992 33.7498C14.6992 33.7406 14.7018 33.7334 14.707 33.7281C14.7126 33.7226 14.7204 33.7197 14.7305 33.7197Z" fill="white"/>
<path d="M14.7734 33.7562V33.7207H14.7915V33.7267V33.7387V33.7478V33.758C14.7918 33.7601 14.7924 33.7614 14.7933 33.7622C14.794 33.7634 14.7951 33.7645 14.7963 33.7652C14.7975 33.7657 14.7988 33.7658 14.8005 33.7658C14.8041 33.7658 14.8068 33.7645 14.8089 33.7616C14.8113 33.7589 14.8125 33.7548 14.8125 33.7496V33.7207H14.8312V33.7784H14.8125V33.77C14.8097 33.7736 14.8067 33.7763 14.8035 33.7778C14.8007 33.779 14.7975 33.7796 14.7939 33.7796C14.787 33.7796 14.7819 33.7777 14.7782 33.7736C14.7749 33.7697 14.7734 33.7639 14.7734 33.7562V33.7562Z" fill="white"/>
<path d="M14.9073 33.7438V33.7787H14.8887V33.7516C14.8887 33.7468 14.8884 33.7436 14.8881 33.742C14.8881 33.74 14.8878 33.7384 14.8875 33.7372C14.8866 33.736 14.8857 33.7352 14.8845 33.7348C14.8833 33.734 14.8818 33.7336 14.8803 33.7336C14.8762 33.7336 14.8731 33.7352 14.8707 33.7384C14.8686 33.7412 14.8677 33.7453 14.8677 33.7504V33.7787H14.8496V33.7209H14.8677V33.7293C14.8704 33.7262 14.8734 33.7238 14.8767 33.7221C14.8798 33.7206 14.8833 33.7197 14.8869 33.7197C14.8937 33.7197 14.8986 33.7218 14.9019 33.7257C14.9055 33.7298 14.9073 33.7358 14.9073 33.7438L14.9073 33.7438Z" fill="white"/>
<path d="M14.9609 33.7012H14.994C15.0036 33.7012 15.011 33.7034 15.0163 33.7078C15.0214 33.7123 15.0241 33.7185 15.0241 33.7264C15.0241 33.7346 15.0214 33.7407 15.0163 33.7451C15.011 33.7496 15.0036 33.7517 14.994 33.7517H14.9808V33.7782H14.9609L14.9609 33.7012ZM14.9808 33.7156V33.7373H14.9916C14.9955 33.7373 14.9985 33.7365 15.0006 33.7349C15.0026 33.7329 15.0036 33.73 15.0036 33.7264C15.0036 33.7228 15.0026 33.7203 15.0006 33.7186C14.9985 33.7167 14.9955 33.7156 14.9916 33.7156L14.9808 33.7156Z" fill="white"/>
<path d="M15.0818 33.7366C15.0801 33.7358 15.0785 33.7354 15.077 33.7354C15.0753 33.7351 15.0736 33.7348 15.0721 33.7348C15.0673 33.7348 15.0634 33.7364 15.0607 33.7396C15.0583 33.7424 15.0571 33.7466 15.0571 33.7522V33.7787H15.0391V33.7209H15.0571V33.7306C15.0595 33.7269 15.0621 33.7244 15.0649 33.7227C15.0681 33.7208 15.0718 33.7197 15.0763 33.7197H15.0782C15.0789 33.7197 15.0801 33.72 15.0818 33.7203L15.0818 33.7366Z" fill="white"/>
<path d="M15.1192 33.733C15.1151 33.733 15.1119 33.7345 15.1095 33.7372C15.1074 33.74 15.1065 33.7442 15.1065 33.7498C15.1065 33.7555 15.1074 33.7599 15.1095 33.763C15.1119 33.7659 15.1151 33.7672 15.1192 33.7672C15.1231 33.7672 15.1261 33.7659 15.1282 33.763C15.1306 33.7599 15.1318 33.7555 15.1318 33.7498C15.1318 33.7442 15.1306 33.74 15.1282 33.7372C15.1261 33.7345 15.1231 33.733 15.1192 33.733ZM15.1192 33.7197C15.1291 33.7197 15.1369 33.7226 15.1426 33.7281C15.1482 33.7334 15.151 33.7406 15.151 33.7498C15.151 33.7594 15.1482 33.7669 15.1426 33.772C15.1369 33.7773 15.1291 33.7799 15.1192 33.7799C15.1091 33.7799 15.1013 33.7773 15.0957 33.772C15.0904 33.7669 15.0879 33.7594 15.0879 33.7498C15.0879 33.7406 15.0904 33.7334 15.0957 33.7281C15.1013 33.7226 15.1091 33.7197 15.1192 33.7197Z" fill="white"/>
<path d="M15.163 33.7215H15.1811V33.778C15.1811 33.786 15.1793 33.792 15.1756 33.796C15.172 33.8 15.1666 33.8021 15.1594 33.8021H15.1504V33.79H15.1534C15.157 33.79 15.1594 33.7891 15.1606 33.7876C15.1621 33.786 15.163 33.7828 15.163 33.778L15.163 33.7215ZM15.163 33.6992H15.1811V33.7143H15.163V33.6992Z" fill="white"/>
<path d="M15.2567 33.7498V33.7552H15.214C15.2143 33.7593 15.2158 33.7624 15.2182 33.7648C15.2209 33.7669 15.2248 33.7678 15.2296 33.7678C15.2335 33.7678 15.2376 33.7672 15.2416 33.766C15.2455 33.7648 15.2497 33.7633 15.2543 33.7612V33.7751C15.2497 33.7767 15.2454 33.7779 15.241 33.7787C15.2365 33.7794 15.2321 33.7799 15.2278 33.7799C15.2173 33.7799 15.2093 33.7773 15.2037 33.772C15.198 33.7669 15.1953 33.7594 15.1953 33.7498C15.1953 33.7406 15.198 33.7334 15.2037 33.7281C15.2093 33.7226 15.2171 33.7197 15.2272 33.7197C15.2359 33.7197 15.243 33.7226 15.2482 33.7281C15.2538 33.7334 15.2567 33.7406 15.2567 33.7498L15.2567 33.7498ZM15.238 33.7438C15.238 33.7402 15.237 33.7375 15.235 33.7354C15.2329 33.733 15.2302 33.7318 15.2266 33.7318C15.2233 33.7318 15.2206 33.7328 15.2182 33.7348C15.2158 33.7369 15.2143 33.7399 15.214 33.7438L15.238 33.7438Z" fill="white"/>
<path d="M15.3161 33.7227V33.7378C15.3137 33.7363 15.311 33.7351 15.3083 33.7342C15.3059 33.7334 15.3032 33.733 15.3005 33.733C15.2957 33.733 15.2916 33.7346 15.2885 33.7378C15.2856 33.7406 15.2843 33.7447 15.2843 33.7498C15.2843 33.7555 15.2856 33.7599 15.2885 33.763C15.2916 33.7659 15.2957 33.7672 15.3005 33.7672C15.3037 33.7672 15.3065 33.7669 15.3089 33.766C15.3116 33.7648 15.314 33.7635 15.3161 33.7618V33.7769C15.3133 33.7781 15.3103 33.7788 15.3071 33.7793C15.3043 33.7796 15.3014 33.7799 15.2987 33.7799C15.2882 33.7799 15.2801 33.7773 15.274 33.772C15.2683 33.7669 15.2656 33.7594 15.2656 33.7498C15.2656 33.7406 15.2683 33.7334 15.274 33.7281C15.2801 33.7226 15.2882 33.7197 15.2987 33.7197C15.3014 33.7197 15.3043 33.7202 15.3071 33.7209C15.3103 33.7214 15.3133 33.722 15.3161 33.7227H15.3161Z" fill="white"/>
<path d="M15.3538 33.7051V33.7213H15.3731V33.7345H15.3538V33.7592C15.3538 33.7616 15.3541 33.7634 15.355 33.7646C15.3562 33.7655 15.3583 33.7658 15.3617 33.7658H15.3713V33.7791H15.3556C15.3484 33.7791 15.3432 33.7777 15.34 33.7748C15.3371 33.7717 15.3358 33.7664 15.3358 33.7592V33.7345H15.3262V33.7213H15.3358V33.7051L15.3538 33.7051Z" fill="white"/>
</svg>
