<svg width="43" height="41" viewBox="0 0 43 41" fill="none" xmlns="http://www.w3.org/2000/svg">
<rect width="37.1892" height="37.1892" transform="matrix(1 0 0 -1 5.81055 40.6753)" fill="#68CEFF"/>
<rect opacity="0.2" width="37.1892" height="37.1892" transform="matrix(1 0 0 -1 0 37.189)" fill="#68CEFF"/>
<path d="M21.4723 22.7659C21.465 22.3024 21.5984 21.8478 21.8553 21.462C22.112 21.076 22.48 20.7774 22.9102 20.6052C23.1543 20.5143 23.3657 20.3524 23.517 20.1404C23.6684 19.9283 23.753 19.676 23.7601 19.4156V19.3208C23.7607 18.9083 23.5597 18.5215 23.2216 18.285C22.8835 18.0484 22.451 17.9923 22.0636 18.1343C20.4958 18.7134 19.3308 20.0515 18.9731 21.684C18.6154 23.3169 19.114 25.0194 20.2963 26.2011C21.4784 27.3825 23.1812 27.8804 24.8138 27.5218C26.4464 27.1632 27.7838 25.9978 28.3619 24.4295C28.5042 24.0414 28.4476 23.6085 28.2105 23.2702C27.9732 22.9321 27.5854 22.7315 27.1723 22.7331H27.0775C26.8169 22.7392 26.564 22.8231 26.3515 22.9738C26.1388 23.1247 25.9763 23.3356 25.8844 23.5796C25.7132 24.01 25.4152 24.3782 25.0299 24.6356C24.6448 24.893 24.1904 25.0273 23.7272 25.0209C23.1342 25.0054 22.5695 24.7626 22.15 24.3431C21.7306 23.9236 21.4877 23.3589 21.4722 22.766L21.4723 22.7659Z" fill="white"/>
<path d="M23.1292 32.5188C25.5889 32.6777 28.0183 31.9041 29.9333 30.3522C31.8485 28.8006 33.1088 26.5843 33.4636 24.1452C33.5089 23.7868 33.3972 23.4262 33.1576 23.1558C32.9178 22.8854 32.5733 22.7315 32.2119 22.7333H32.1171C31.8143 22.7342 31.5219 22.8439 31.2932 23.0425C31.0645 23.2413 30.915 23.5155 30.8719 23.8151C30.6035 25.5765 29.6912 27.1756 28.3109 28.3023C26.9309 29.4292 25.1816 30.0035 23.4022 29.9141C21.6228 29.8245 19.94 29.0777 18.68 27.818C17.4199 26.5584 16.6724 24.8759 16.5821 23.0967C16.492 21.3173 17.0656 19.5677 18.1919 18.1873C19.3181 16.8068 20.9168 15.8935 22.6781 15.6245C22.9777 15.5814 23.252 15.4319 23.4508 15.2032C23.6493 14.9747 23.759 14.6822 23.7599 14.3793V14.2844V14.2846C23.7617 13.9233 23.6078 13.5786 23.3375 13.339C23.0671 13.0991 22.7064 12.9877 22.348 13.0328C19.948 13.38 17.7621 14.6043 16.2122 16.469C14.6621 18.3336 13.858 20.7067 13.9551 23.1295C14.0523 25.5523 15.0437 27.8533 16.7382 29.588C18.4323 31.3226 20.7094 32.3679 23.129 32.5222L23.1292 32.5188Z" fill="white"/>
<path d="M28.6618 20.4459H32.8551C33.188 20.4525 33.5115 20.3356 33.7632 20.1176C34.0149 19.8999 34.177 19.5965 34.2181 19.2661C34.2541 18.8979 34.1326 18.5315 33.8834 18.258C33.6342 17.9846 33.2806 17.8294 32.9108 17.8312H30.5117L34.4894 13.8536C34.8197 13.5232 34.9488 13.0415 34.8279 12.5901C34.7069 12.1387 34.3544 11.7862 33.903 11.6651C33.4516 11.5443 32.9698 11.6733 32.6395 12.0037L28.6619 15.9813V13.5823C28.6637 13.2125 28.5084 12.8588 28.2351 12.6097C27.9615 12.3605 27.5951 12.239 27.227 12.275C26.8966 12.316 26.5932 12.4781 26.3754 12.7298C26.1575 12.9815 26.0405 13.305 26.0471 13.6379V17.8313C26.0471 18.5248 26.3225 19.1898 26.8129 19.6802C27.3033 20.1707 27.9684 20.446 28.6619 20.446L28.6618 20.4459Z" fill="white"/>
</svg>
