<svg width="43" height="41" viewBox="0 0 43 41" fill="none" xmlns="http://www.w3.org/2000/svg">
<rect width="37.1892" height="37.1892" transform="matrix(1 0 0 -1 5.81055 40.6753)" fill="#F37921"/>
<rect opacity="0.2" width="37.1892" height="37.1892" transform="matrix(1 0 0 -1 0 37.189)" fill="#F37921"/>
<path d="M33.3026 15.0071H30.8604V14.2355C30.8604 12.7345 29.5899 11.5206 28.0366 11.5206H20.7731C19.2197 11.5206 17.9493 12.7345 17.9493 14.2355V15.0071H15.507C13.9537 15.0071 12.6832 16.221 12.6832 17.722V29.9247C12.6832 31.4256 13.9537 32.6395 15.507 32.6395H33.3026C34.856 32.6395 36.1264 31.4256 36.1264 29.9247V17.722C36.1264 16.221 34.8559 15.0071 33.3026 15.0071ZM19.9651 14.2355C19.9651 13.8139 20.3237 13.4638 20.7731 13.4638H28.0366C28.4859 13.4638 28.8445 13.8139 28.8445 14.2355V15.0071H19.9651V14.2355ZM15.507 16.9503H33.3026C33.7519 16.9503 34.1106 17.3004 34.1106 17.722C34.1106 19.7345 32.6456 21.4297 30.6788 21.8695V21.2086C30.6788 20.6682 30.2237 20.237 29.6709 20.237C29.1181 20.237 28.6629 20.6682 28.6629 21.2086V21.9802H20.1467V21.2086C20.1467 20.6682 19.6916 20.237 19.1388 20.237C18.586 20.237 18.1308 20.6682 18.1308 21.2086V21.8695C16.1641 21.43 14.6991 19.7347 14.6991 17.722C14.6991 17.3004 15.0577 16.9503 15.507 16.9503ZM34.1104 29.9245C34.1104 30.346 33.7517 30.6961 33.3024 30.6961H15.5068C15.0575 30.6961 14.6989 30.3461 14.6989 29.9245V22.2194C15.6259 23.0642 16.8128 23.6479 18.1306 23.8473V24.6948C18.1306 25.2353 18.5858 25.6665 19.1386 25.6665C19.6914 25.6665 20.1465 25.2353 20.1465 24.6948V23.9232H28.6627V24.6948C28.6627 25.2353 29.1179 25.6665 29.6707 25.6665C30.2235 25.6665 30.6786 25.2353 30.6786 24.6948V23.8473C31.9965 23.6479 33.1834 23.0643 34.1104 22.2194V29.9245Z" fill="white" stroke="white" stroke-width="0.2"/>
</svg>
