<svg width="43" height="41" viewBox="0 0 43 41" fill="none" xmlns="http://www.w3.org/2000/svg">
<rect opacity="0.2" width="37.49" height="37.49" transform="matrix(1 0 0 -1 0 37.4902)" fill="#76E270"/>
<rect width="37.49" height="37.49" transform="matrix(1 0 0 -1 5 40.6016)" fill="#76E270"/>
<g clip-path="url(#clip0_2039_898)">
<path d="M20.5006 31.528C19.7054 31.528 18.9101 31.528 18.1149 31.528C17.7657 31.528 17.5011 31.437 17.3272 31.2574C17.1721 31.0975 17.1003 30.8811 17.1142 30.6154C17.1406 30.1161 17.4847 29.8147 18.0367 29.8086C18.3505 29.8049 18.6631 29.8037 18.9769 29.8037C19.3273 29.8037 19.6776 29.8061 20.0268 29.811C20.0268 29.811 20.0469 29.811 20.0545 29.811C20.0545 29.8074 20.0557 29.8037 20.057 29.7987C20.1578 29.1383 20.2776 28.4938 20.4011 27.8383C19.3613 27.842 18.3253 27.8444 17.2906 27.8444C16.5168 27.8444 15.7442 27.8444 14.9704 27.842C13.5941 27.8395 12.5695 27.0979 12.1586 25.8077C12.0704 25.531 12.0628 25.2567 12.0628 24.9763C12.0565 21.3395 12.054 17.7826 12.0603 14.2171C12.0628 12.8655 12.8303 11.8422 14.1108 11.4806C14.3856 11.4031 14.6843 11.3662 15.0498 11.3662C16.6441 11.3662 21.7383 11.3662 21.7383 11.3662H28.6524C29.8711 11.3662 31.0898 11.3662 32.3085 11.3662C33.6747 11.3662 34.7271 12.114 35.1228 13.3636C35.2274 13.6956 35.2413 14.0314 35.2413 14.286V14.9944C35.2425 18.3016 35.2438 21.6101 35.2413 24.9173C35.24 26.6625 34.0364 27.8358 32.2455 27.8371H29.7438C28.7922 27.8383 27.842 27.8371 26.8904 27.8321H26.8867C27.0202 28.4901 27.1412 29.153 27.2433 29.8049H27.271C27.5912 29.8037 27.91 29.8024 28.2289 29.8024C28.5049 29.8024 29.2586 29.8024 29.2586 29.8024C29.769 29.8024 29.9984 30.0706 30.1017 30.2944C30.2467 30.6092 30.2063 30.9339 29.9895 31.2094C29.7413 31.5243 29.3796 31.5243 29.1401 31.5243H20.4994L20.5006 31.528ZM23.5493 29.8049C24.1808 29.8049 24.8071 29.8049 25.4348 29.8086C25.3692 29.388 25.3024 28.9686 25.2344 28.5479L25.1209 27.8371C24.6345 27.8395 24.1555 27.8407 23.6779 27.8407C23.2002 27.8407 22.6986 27.8407 22.2084 27.8383C22.1113 28.3954 22.0105 28.9526 21.9084 29.5196L21.8567 29.8049H23.5506H23.5493ZM29.1956 26.1189C30.2391 26.1189 31.2826 26.1189 32.3249 26.1189C33.1101 26.1189 33.4529 25.793 33.4705 25.0304C33.4781 24.7303 33.4756 24.4228 33.4743 24.1264C33.4743 23.9899 33.4731 23.8522 33.4731 23.7157V21.0947C33.4731 18.8231 33.4731 16.5527 33.4731 14.2811C33.4731 13.4251 33.1353 13.0918 32.2695 13.0918H23.6401C20.764 13.0918 17.888 13.0918 15.0107 13.0918C14.1827 13.0918 13.8285 13.4226 13.8273 14.1974C13.8222 17.6006 13.8235 20.9828 13.8273 25.0132C13.8273 25.1952 13.8273 25.3563 13.8852 25.4953C14.0705 25.9492 14.3566 26.1176 14.9414 26.1176C16.2937 26.1176 17.646 26.1176 18.9971 26.1176H23.6325H29.1943L29.1956 26.1189Z" fill="white"/>
<path d="M16.72 24.1473C16.5574 24.1473 16.3948 24.092 16.2234 23.9764C16.0319 23.8485 15.9033 23.6578 15.8643 23.4426C15.8252 23.2286 15.8769 23.0085 16.0117 22.824C16.0848 22.7231 16.1718 22.6383 16.2474 22.5632C17.6199 21.2226 18.9936 19.8821 20.3674 18.5427C20.5879 18.3275 20.8312 18.1294 21.1236 18.1294C21.4159 18.1294 21.6579 18.3262 21.8797 18.5378L22.3763 19.0125C23.0115 19.6213 23.6467 20.2289 24.2806 20.8401C25.3948 19.7406 26.5316 18.6288 27.6318 17.5526L28.4258 16.7753C28.3994 16.7753 27.9242 16.7753 27.7175 16.7753C27.4302 16.7753 27.1466 16.7753 26.8618 16.7716C26.2972 16.7655 25.9392 16.4445 25.9279 15.9341C25.9228 15.6795 26.006 15.4532 26.1623 15.2945C26.3085 15.1469 26.5051 15.0682 26.7332 15.0658C27.3243 15.0584 27.9444 15.0547 28.5771 15.0547C29.2097 15.0547 29.9155 15.0584 30.6427 15.0658C31.0536 15.0707 31.3548 15.3425 31.4304 15.7766C31.4506 15.8935 31.4607 15.9968 31.4607 16.0915C31.4619 17.1984 31.4632 18.3041 31.4607 19.411C31.4607 19.5328 31.4481 19.6521 31.4241 19.764C31.3359 20.1858 31.0019 20.4576 30.5734 20.4576H30.5507C30.0882 20.4478 29.7466 20.1354 29.7214 19.6988C29.7 19.3212 29.6975 18.9387 29.6962 18.5685C29.6962 18.4295 29.6962 18.2918 29.6937 18.1528C29.6937 18.0962 29.6937 18.0384 29.6937 17.9819C29.5122 18.1713 29.3257 18.3656 29.1341 18.5525C28.0011 19.6508 26.8656 20.7467 25.73 21.8425L25.0154 22.5313C24.8163 22.7231 24.5718 22.9199 24.2706 22.9199C23.9693 22.9199 23.7211 22.7219 23.5207 22.5276C23.3379 22.3517 23.1539 22.1758 22.9712 21.9999C22.37 21.4231 21.7487 20.8278 21.1488 20.2301C21.1425 20.224 21.1374 20.219 21.1324 20.2154C21.1248 20.2227 21.1147 20.2313 21.1034 20.2424C19.9628 21.353 18.7958 22.4735 17.6678 23.5582L17.4296 23.787C17.1725 24.0342 16.9532 24.1437 16.7188 24.1437L16.72 24.1473Z" fill="white"/>
</g>
<defs>
<clipPath id="clip0_2039_898">
<rect width="23.186" height="20.1618" fill="white" transform="translate(12.0566 11.3662)"/>
</clipPath>
</defs>
</svg>
