<svg width="40" height="39" viewBox="0 0 40 39" fill="none" xmlns="http://www.w3.org/2000/svg">
<g clip-path="url(#clip0_2039_1643)">
<g clip-path="url(#clip1_2039_1643)">
<path d="M33.8822 22.2342C34.5937 21.552 34.8454 20.5535 34.5366 19.6241C34.2313 18.6947 33.4292 18.029 32.4426 17.8906L29.0431 17.4029C28.5263 17.3303 28.0766 17.0107 27.8484 16.5526L26.3248 13.5239C25.8852 12.6473 24.9959 12.1035 23.9992 12.1035C23.0025 12.1035 22.1132 12.6473 21.6735 13.5239L20.1533 16.5526C19.9218 17.0107 19.4754 17.3303 18.9586 17.4029L15.5558 17.8906C14.5725 18.029 13.7704 18.6947 13.4617 19.6241C13.153 20.5535 13.4047 21.552 14.1195 22.2342L17.0961 25.0849C17.1465 25.1343 17.17 25.2036 17.1599 25.2695L16.4552 29.2967C16.2874 30.259 16.6834 31.2147 17.4854 31.7882C17.9418 32.1111 18.472 32.2759 19.009 32.2759C19.4218 32.2759 19.8345 32.1804 20.2171 31.9826L23.2609 30.4106C23.4924 30.292 23.7441 30.2327 23.9992 30.2327C24.2542 30.2327 24.5059 30.292 24.7375 30.4106L27.7812 31.9826C28.6605 32.4374 29.7075 32.3616 30.5129 31.7882C31.315 31.2147 31.711 30.259 31.5432 29.2967L30.8418 25.2695C30.8284 25.2036 30.8519 25.1343 30.9022 25.0849L33.8789 22.2342H33.8822Z" fill="#FF9762"/>
</g>
<path d="M29.3941 38.9995C28.6135 38.9995 27.8414 38.8028 27.1513 38.4312L20.9835 35.1441C20.3668 34.8162 19.6335 34.8162 19.0167 35.1441L12.849 38.4312C11.2272 39.2967 9.26475 39.1525 7.78535 38.064C6.30594 36.9712 5.56408 35.1266 5.87463 33.2994L7.05211 26.3361C7.16857 25.641 6.94429 24.9329 6.44396 24.439L1.45367 19.5082C0.142474 18.2143 -0.327657 16.2779 0.237364 14.5119C0.802384 12.746 2.30767 11.4608 4.11918 11.1942L11.0159 10.1801C11.706 10.0795 12.2969 9.63802 12.6074 9.00857L15.6913 2.67467C16.5151 1.02672 18.18 -0.00488281 20.0045 -0.00488281C21.8289 -0.00488281 23.4895 1.0311 24.3176 2.67467L27.4015 9.00857C27.7077 9.64239 28.3029 10.0795 28.993 10.1801L35.8854 11.1942C37.6969 11.4608 39.2022 12.746 39.7672 14.5119C40.3323 16.2779 39.8578 18.21 38.5509 19.5082L33.5606 24.439C33.0646 24.9285 32.836 25.641 32.9525 26.3361L34.13 33.2994C34.3586 34.7113 33.9661 36.1582 33.056 37.251C32.1459 38.3482 30.8089 38.9864 29.3941 38.9995ZM20.0001 32.1716C20.7808 32.1716 21.5486 32.364 22.2387 32.7355L28.4064 36.0227C29.1181 36.3942 29.9764 36.3243 30.6234 35.8478C31.2704 35.3714 31.5982 34.5671 31.4731 33.7628C29.6486 22.8435 28.9024 25.2826 36.6661 17.5587C37.2354 16.986 37.4381 16.138 37.188 15.3643C36.9421 14.5906 36.2865 14.0267 35.4929 13.9043C24.6713 12.2826 26.7459 13.7601 21.8936 3.88987C21.5313 3.16425 20.7981 2.70964 20.0001 2.70964C19.2022 2.70964 18.469 3.16425 18.1067 3.88987C13.2371 13.8169 15.2988 12.2739 4.50737 13.9043C3.71806 14.0311 3.06247 14.595 2.8123 15.3643C2.56646 16.138 2.76486 16.986 3.33419 17.5587C11.1453 25.3088 10.3301 22.8872 8.52721 33.7628C8.39781 34.5627 8.72561 35.3714 9.37258 35.8478C10.0196 36.3243 10.8779 36.3942 11.5895 36.0227L17.7573 32.7355C18.4474 32.3684 19.2152 32.1716 19.9958 32.1716H20.0001Z" fill="#282828"/>
</g>
<defs>
<clipPath id="clip0_2039_1643">
<rect width="40" height="39" fill="white"/>
</clipPath>
<clipPath id="clip1_2039_1643">
<rect width="21.3333" height="20.1724" fill="white" transform="translate(13.334 12.1035)"/>
</clipPath>
</defs>
</svg>
