<svg width="35" height="42" viewBox="0 0 35 42" fill="none" xmlns="http://www.w3.org/2000/svg">
<g clip-path="url(#clip0_2039_1649)">
<g clip-path="url(#clip1_2039_1649)">
<rect x="17" y="24" width="10" height="7" fill="#FF9762"/>
<path d="M32.6629 17.0603C32.45 16.9015 32.1661 16.8309 31.9 16.9015C31.6694 16.9544 26.4355 18.1721 22.7452 12.3838C22.4613 11.978 21.8935 11.8721 21.4677 12.1721C21.379 12.225 21.3081 12.3133 21.2548 12.3838C17.5645 18.1721 12.3306 16.9544 12.1 16.9015C11.8339 16.8309 11.55 16.9015 11.3371 17.0603C11.1242 17.2191 11 17.4838 11 17.7485V26.7485C11 35.0427 19.8177 38.9956 22 38.9956C24.1823 38.9956 33 35.0427 33 26.7485V17.7485C33 17.4838 32.8758 17.2368 32.6629 17.0603ZM25.9742 25.478L23.1 28.6015C22.5677 29.2015 21.8048 29.5368 21.0065 29.5368H20.9177C20.0839 29.5015 19.3032 29.1133 18.7887 28.478L17.9903 27.4897C17.671 27.1191 17.7242 26.5544 18.1145 26.2544C18.4871 25.9368 19.0548 25.9897 19.3565 26.378L20.1726 27.3662C20.3677 27.6133 20.6516 27.7544 20.971 27.7721C21.2903 27.7721 21.5742 27.6485 21.7871 27.4191L24.6613 24.278C24.9984 23.925 25.5661 23.8897 25.921 24.225C26.2758 24.5427 26.3113 25.1074 25.9919 25.4603C25.9919 25.4603 25.9919 25.4603 25.9919 25.478H25.9742Z" fill="#FF9762"/>
</g>
<path d="M23.7379 19.0234C24.3024 19.545 24.3589 20.396 23.8226 20.9724L19.25 25.8587C18.4032 26.7646 17.1895 27.2862 15.9194 27.2862H15.7782C14.4516 27.2587 13.2379 26.6548 12.3911 25.6666L11.0927 24.1293C10.6129 23.5528 10.6976 22.6744 11.2903 22.2077C11.8831 21.7411 12.7863 21.8234 13.2661 22.3999L14.5645 23.9372C14.875 24.3215 15.3266 24.5411 15.8347 24.5411C16.3427 24.5685 16.8226 24.3764 17.1331 23.9921L21.7056 19.1058C22.2419 18.5568 23.1169 18.5019 23.7097 19.0234H23.7379ZM35 8.97637V22.9489C35 35.8783 20.9718 41.9999 17.5 41.9999C14.0282 41.9999 0 35.8783 0 22.9489V8.97637C0 8.5646 0.197581 8.15284 0.53629 7.90578C0.875 7.65872 1.32661 7.54891 1.75 7.65872C2.08871 7.74107 10.4435 9.63519 16.2863 0.631267C16.7661 -0.000105459 17.6694 -0.164811 18.3468 0.301855C18.4879 0.384208 18.6008 0.494012 18.6855 0.631267C24.5282 9.63519 32.8831 7.74107 33.25 7.65872C34.0121 7.46656 34.7742 7.93323 34.9718 8.67441C34.9718 8.78421 35 8.89401 35 9.00382V8.97637ZM32.1774 10.5411C26.4194 10.8979 20.8589 8.31754 17.5 3.73323C14.1411 8.31754 8.58065 10.8705 2.82258 10.5411V22.9489C2.82258 34.3411 15.496 39.2548 17.5 39.2548C19.504 39.2548 32.1774 34.3411 32.1774 22.9489V10.5411Z" fill="#282828"/>
</g>
<defs>
<clipPath id="clip0_2039_1649">
<rect width="35" height="42" fill="white"/>
</clipPath>
<clipPath id="clip1_2039_1649">
<rect width="22" height="27" fill="white" transform="translate(11 11)"/>
</clipPath>
</defs>
</svg>
