<svg width="44" height="41" viewBox="0 0 44 41" fill="none" xmlns="http://www.w3.org/2000/svg">
<rect opacity="0.2" width="37.4857" height="37.4857" transform="matrix(1 0 0 -1 0 37.4854)" fill="#05C5BC"/>
<rect width="37.4857" height="37.4857" transform="matrix(1 0 0 -1 6 41)" fill="#05C5BC"/>
<g clip-path="url(#clip0_2039_918)">
<path d="M19.4228 34C17.3857 34 16.0117 32.624 16.0059 30.576C15.9987 28.5881 16.0001 26.5651 16.0001 24.6108C16.0001 24.6108 16.0001 22.8717 16.0001 22.0183V19.5619C16.0001 17.5286 16.0001 15.4939 16.0001 13.4606C16.0045 11.8518 16.8126 10.6866 18.2766 10.1801C18.6219 10.0615 19.0021 10.0029 19.4402 10.0029H23.1139C24.1136 10.0044 25.1118 10.0029 26.1101 10C26.9052 10 27.5552 10.2694 28.1007 10.8242C29.9825 12.7418 31.6395 14.415 33.1673 15.9418C33.7259 16.501 33.9972 17.1934 33.9972 18.0615C33.9972 19.3175 33.9972 20.572 33.9987 21.828C34.0001 24.5376 34.003 27.6073 33.9929 30.5702C33.9856 32.6532 32.6348 33.9985 30.5528 34C28.6985 34 26.8428 34 24.9885 34C23.1342 34 21.2785 34 19.4243 34H19.4228ZM21.7283 12.0816C20.9521 12.0816 20.1773 12.0816 19.4011 12.086C19.1631 12.086 18.8874 12.105 18.6466 12.2236C18.1431 12.4725 18.0372 12.9248 18.0343 13.5294C18.0241 15.6051 18.0256 17.7014 18.027 19.7288C18.027 19.7288 18.027 21.3215 18.027 22.011V24.4264C18.027 26.4611 18.027 28.4959 18.027 30.5321C18.027 31.4792 18.4768 31.9608 19.359 31.9623C20.9884 31.9638 22.6192 31.9652 24.2485 31.9652H30.6311C30.9155 31.9652 31.1839 31.895 31.4248 31.7603C31.8615 31.5144 31.95 31.0972 31.95 30.5438C31.9471 27.0642 31.9442 23.3094 31.9543 19.4258C31.9543 19.4038 31.9543 19.3863 31.9543 19.3716C31.9442 19.3716 31.9311 19.3716 31.9166 19.3716C31.2042 19.3775 30.502 19.379 29.7983 19.379H28.298C27.9904 19.379 27.6814 19.379 27.3738 19.379C26.9095 19.379 26.4888 19.2867 26.1231 19.1052C25.1902 18.6412 24.7186 17.8331 24.723 16.7059C24.7259 15.9887 24.7259 15.2728 24.7244 14.5555C24.7244 13.7607 24.7244 12.9658 24.7273 12.1709C24.7273 12.1255 24.7259 12.0962 24.723 12.0787C24.7085 12.0772 24.6882 12.0758 24.6592 12.0758C23.7639 12.0816 22.876 12.0816 21.9866 12.0816H21.7254H21.7283ZM26.7441 13.3288C26.7441 14.4472 26.7456 15.5641 26.7499 16.6825C26.7514 17.2212 26.866 17.3383 27.3956 17.3383C28.2386 17.3383 29.0801 17.3398 29.9231 17.3398C30.4962 17.3398 31.0678 17.3398 31.6409 17.3398C30.9851 16.6752 30.3293 16.0121 29.6721 15.3489L29.4602 15.1352C28.5563 14.2232 27.6509 13.3098 26.7456 12.3993V13.3288H26.7441Z" fill="white"/>
<path d="M24.9672 27.2957H20.9061C20.5332 27.2957 20.2038 27.2225 19.8977 27.0732C19.1592 26.7116 19.0576 26.0148 19.046 25.5229C19.0242 24.6783 19.0242 23.8146 19.0431 22.8836C19.0663 21.7769 19.7091 21.1401 20.8045 21.1357C22.2235 21.1299 23.6425 21.127 25.0615 21.127C26.4805 21.127 27.8313 21.1299 29.2169 21.1357C30.3123 21.1401 30.9217 21.7593 30.9304 22.8792C30.9333 23.1969 30.9304 23.5145 30.9261 23.8322C30.9203 24.3577 30.9145 24.9023 30.9377 25.4336C30.9623 25.9943 30.8187 26.4437 30.5111 26.7687C30.189 27.1098 29.7 27.2913 29.0979 27.2927C28.5495 27.2957 28.001 27.2957 27.4526 27.2957H24.9643H24.9672ZM24.9947 25.5068C26.3339 25.5068 27.6731 25.5098 29.0123 25.5141C29.1385 25.5141 29.1705 25.4922 29.1763 25.4849C29.1864 25.4746 29.2038 25.4366 29.2009 25.3033C29.1821 24.4572 29.1821 23.759 29.2024 23.1032C29.2067 22.9626 29.1835 22.9173 29.1705 22.9026C29.1545 22.885 29.1066 22.8646 28.976 22.8646H28.9615C28.3449 22.8704 27.7268 22.8733 27.1102 22.8733C26.7605 22.8733 25.3618 22.8704 25.0121 22.8704C24.6625 22.8704 23.2435 22.8719 22.8895 22.8719C22.2685 22.8719 21.6475 22.8704 21.0265 22.8646C20.9133 22.8646 20.8466 22.8792 20.819 22.9085C20.79 22.9377 20.7769 23.008 20.7798 23.1163C20.7958 23.7809 20.7958 24.488 20.7798 25.2785C20.7769 25.4058 20.7973 25.4541 20.8147 25.4717C20.8321 25.4893 20.8785 25.5112 21.0018 25.5112C22.3352 25.5068 23.6643 25.5039 24.9947 25.5039V25.5068Z" fill="white"/>
</g>
<defs>
<clipPath id="clip0_2039_918">
<rect width="18" height="24" fill="white" transform="translate(16 10)"/>
</clipPath>
</defs>
</svg>
