<svg xmlns="http://www.w3.org/2000/svg" width="147" height="27" viewBox="0 0 147 27" fill="none">
<path fill-rule="evenodd" clip-rule="evenodd" d="M13.204 0.43335C20.509 0.43335 26.4079 6.27093 26.4079 13.5C26.4079 20.7291 20.509 26.5667 13.204 26.5667C5.89892 26.5667 0 20.7291 0 13.5C0 6.27093 5.93321 0.43335 13.204 0.43335Z" fill="#F26F21"/>
<path fill-rule="evenodd" clip-rule="evenodd" d="M11.4205 14.0429L11.9693 12.7872H10.5631L11.4205 14.0429ZM11.2148 11.4635L11.9693 12.7872L12.518 11.4635H11.2148ZM11.2148 11.4635L12.0036 9.86836H10.2888L11.2148 11.4635ZM6.89346 9.9023L8.57396 13.1605L10.2888 9.9023H6.89346ZM8.57396 13.1605L6.79057 16.5544H10.3231L9.46566 14.9253L8.57396 13.1605ZM9.46566 11.4635L10.3231 13.2962L10.5631 12.7872L11.2148 11.4635H9.46566ZM10.2888 13.2962L9.49996 14.9253H11.0433L10.2888 13.2962ZM11.4205 14.0429L11.0433 14.9253H12.0379L11.4205 14.0429ZM10.3574 16.5544H11.7978L11.0433 14.9253L10.3574 16.5544ZM11.935 19.575L10.3574 16.5205L9.05411 19.575H11.935ZM13.2039 16.5544L12.9639 16.1811L12.0722 14.8914H14.4043L13.2039 16.5544ZM8.81403 7.39079L11.2148 4.3023H6.99635L8.81403 7.39079ZM11.592 7.39079H8.81403L10.2888 9.86836L11.592 7.39079ZM6.89346 9.9023L8.81403 7.42473H5.59021L6.89346 9.9023ZM6.89346 9.9023H1.88624L4.32126 13.1944L6.89346 9.9023ZM6.79057 16.5544L5.21295 19.609H9.05411L6.79057 16.5544ZM1.74905 16.5544H6.82487L4.32126 13.1944L1.74905 16.5544ZM7.95663 22.0526H10.8375L9.01981 19.575L7.95663 22.0526ZM14.9873 14.0429L14.4386 12.7872H15.8447L14.9873 14.0429ZM15.2274 11.4635L14.4729 12.7872L13.9241 11.4635H15.2274ZM15.2274 11.4635L14.4386 9.86836H16.1534L15.2274 11.4635ZM19.5144 9.9023L17.8339 13.1605L16.1191 9.9023H19.5144ZM17.8339 13.1605L19.6173 16.5544H16.0848L16.9422 14.9253L17.8339 13.1605ZM16.9765 11.4635L16.1191 13.2962L15.879 12.7872L15.2274 11.4635H16.9765ZM16.1191 13.2962L16.9079 14.9253H15.3646L16.1191 13.2962ZM14.9873 14.0429L15.3646 14.9253H14.37L14.9873 14.0429ZM16.0848 16.5544H14.6101L15.3646 14.9253L16.0848 16.5544ZM14.5072 19.575L16.0848 16.5205L17.388 19.575H14.5072ZM13.2039 11.4635H13.8898L13.2039 9.86836L12.518 11.4635H13.2039ZM13.2039 14.9253L13.3754 14.6199L14.4386 12.7872H11.935L13.2039 14.9253ZM13.2039 19.575L14.6101 16.5544H11.7978L12.8953 18.8963L13.2039 19.575ZM17.5938 7.39079L15.1931 4.3023H19.4115L17.5938 7.39079ZM14.8501 7.39079H17.6281L16.1534 9.86836L14.8501 7.39079ZM19.5144 9.9023L17.5938 7.42473H20.8176L19.5144 9.9023ZM19.5144 9.9023H24.5216L22.0866 13.1944L19.5144 9.9023ZM19.6173 16.5544L21.1949 19.609H17.388L19.6173 16.5544ZM24.6931 16.5544H19.6173L22.0866 13.1944L24.6931 16.5544ZM18.4512 22.0526H15.5704L17.388 19.575L18.4512 22.0526ZM13.2039 4.3023H15.1931L13.2039 1.7229L11.2148 4.3023H13.2039ZM13.2039 7.39079H14.8501L13.2382 4.3023L11.6263 7.39079H13.2039ZM13.2039 9.9023H14.4386L13.6841 8.40897L13.2039 7.42473L11.9693 9.9023H13.2039ZM13.2039 22.0526L13.5469 21.4078L14.5072 19.575H11.935L13.2039 22.0526ZM13.2039 25.2429L15.5704 22.0526H10.8718L13.2039 25.2429Z" fill="white"/>
<path fill-rule="evenodd" clip-rule="evenodd" d="M63.9621 4.87939H61.0813C60.1896 4.87939 59.4693 5.59212 59.4693 6.47455V22.1206H67.8376C68.695 22.1206 69.4152 21.4079 69.4152 20.5594V17.6746H63.9621V4.87939ZM34.982 4.87939H32.1354C31.2437 4.87939 30.4892 5.62606 30.4892 6.50849V22.1206H33.3358C34.2275 22.1206 34.982 21.374 34.982 20.4915V4.87939ZM47.3629 4.87939H56.9657V7.76425C56.9657 8.61273 56.2455 9.32546 55.3881 9.32546H50.2437V11.5315H55.834V14.4164C55.834 15.2649 55.1138 15.9776 54.2564 15.9776H50.2437V20.5594C50.2437 21.4418 49.5235 22.1546 48.6318 22.1546H45.7509V6.47455C45.7509 5.59212 46.4712 4.87939 47.3629 4.87939ZM42.63 4.87939H39.7834C38.8917 4.87939 38.1372 5.62606 38.1372 6.50849V22.1206H40.9838C41.8755 22.1206 42.63 21.374 42.63 20.4915V4.87939Z" fill="white"/>
<path d="M83.3051 19.8806L83.5452 21.951C82.5506 22.2225 81.3846 22.3582 80.0813 22.3582C79.3611 22.3582 78.7095 22.2903 78.1264 22.1885C77.5434 22.0867 77.0976 21.8831 76.686 21.6455C76.2745 21.4079 75.9315 21.1025 75.6571 20.7631C75.3828 20.4237 75.177 19.9825 75.0055 19.4734C74.834 18.9643 74.7311 18.3873 74.6625 17.7764C74.5939 17.1655 74.5596 16.4528 74.5596 15.6722C74.5596 15.0612 74.5939 14.5182 74.6282 14.0431C74.6625 13.5679 74.7311 13.0928 74.7997 12.6515C74.9026 12.2103 75.0055 11.837 75.1427 11.4976C75.2799 11.1582 75.4513 10.8528 75.6571 10.5812C75.8629 10.3097 76.103 10.0721 76.3773 9.86851C76.6517 9.66488 76.9604 9.49518 77.3376 9.35942C77.7149 9.22366 78.0921 9.12185 78.538 9.05397C78.9838 8.98609 79.4983 8.95215 80.047 8.95215C81.3503 8.95215 82.5163 9.08791 83.5109 9.35942L83.2708 11.4297C82.3448 11.294 81.4189 11.1922 80.5272 11.1922C80.2185 11.1922 79.9098 11.2261 79.6698 11.2261C79.3954 11.26 79.1896 11.3279 78.9838 11.3958C78.7781 11.4637 78.6066 11.5655 78.4351 11.6334C78.2636 11.7352 78.1264 11.837 78.0235 12.0067C77.9207 12.1764 77.8178 12.3122 77.7149 12.4479C77.6463 12.5837 77.5777 12.7534 77.5091 12.957C77.4748 13.1606 77.4062 13.3643 77.3719 13.534C77.3376 13.7037 77.3033 13.9073 77.3033 14.1788C77.3033 14.4503 77.269 14.6879 77.269 14.8576V16.6903C77.269 16.9279 77.3033 17.2673 77.3376 17.6406C77.3719 18.014 77.4405 18.2855 77.5091 18.4891C77.5777 18.6928 77.7149 18.8964 77.8521 19.134C78.0235 19.3716 78.195 19.5413 78.4351 19.677C78.6752 19.7788 78.9495 19.8806 79.2925 19.9825C79.6355 20.0503 80.047 20.1182 80.4929 20.1182C81.4874 20.0843 82.3791 20.0164 83.3051 19.8806Z" fill="white"/>
<path d="M87.8665 22.1885H85.0885L89.0325 10.7509C89.2383 10.1061 89.547 9.66488 89.8899 9.35943C90.2329 9.05397 90.6787 8.91821 91.1932 8.91821C92.2221 8.91821 92.9423 9.52912 93.3538 10.7509L97.2636 22.1885H94.417L93.3881 18.9303H88.8611L87.8665 22.1885ZM89.4784 16.894H92.7708L91.0903 11.5994L89.4784 16.894Z" fill="white"/>
<path d="M101.688 17.2673V22.1885H99.0127V9.29155C100.35 9.05397 101.791 8.91821 103.334 8.91821C103.78 8.91821 104.191 8.91821 104.569 8.95215C104.946 8.98609 105.289 9.02003 105.7 9.12185C106.078 9.18973 106.421 9.29155 106.695 9.4273C106.969 9.56306 107.244 9.73276 107.518 9.9364C107.793 10.14 107.998 10.4115 108.17 10.6831C108.341 10.9546 108.478 11.3279 108.547 11.7352C108.65 12.1425 108.684 12.5837 108.684 13.0928C108.684 13.6019 108.65 14.0431 108.547 14.4164C108.444 14.8237 108.341 15.1631 108.17 15.4346C108.033 15.74 107.827 15.9776 107.587 16.2152C107.347 16.4188 107.072 16.6225 106.798 16.7582C106.524 16.894 106.181 17.0297 105.838 17.0976C105.495 17.1655 105.117 17.2334 104.74 17.2673C104.363 17.3013 103.951 17.3013 103.506 17.3013C102.922 17.3352 102.339 17.3352 101.688 17.2673ZM101.688 11.1243V15.1631C102.099 15.197 102.614 15.2309 103.334 15.2309C103.78 15.2309 104.157 15.197 104.466 15.1291C104.774 15.0613 105.049 14.9594 105.289 14.7897C105.529 14.62 105.7 14.4164 105.803 14.1109C105.906 13.8055 105.975 13.4661 105.975 13.0588C105.975 12.3122 105.769 11.7691 105.392 11.4297C105.015 11.0903 104.329 10.9546 103.368 10.9546C102.82 11.0225 102.271 11.0564 101.688 11.1243Z" fill="white"/>
<path d="M110.742 22.1883V9.05371H113.451V22.1883H110.742Z" fill="white"/>
<path d="M124.563 9.05371V11.1919H121.305V22.1883H118.596V11.2258H115.338V9.08765H124.563V9.05371Z" fill="white"/>
<path d="M127.067 22.1885H124.289L128.233 10.7509C128.439 10.1061 128.747 9.66488 129.09 9.35943C129.433 9.05397 129.879 8.91821 130.393 8.91821C131.422 8.91821 132.143 9.52912 132.554 10.7509L136.43 22.1885H133.583L132.554 18.9303H128.027L127.067 22.1885ZM128.679 16.894H131.971L130.325 11.5655L128.679 16.894Z" fill="white"/>
<path d="M146.17 20.0501V22.1543C144.729 22.2222 143.598 22.2562 142.774 22.2562H141.746C141.471 22.2562 141.162 22.2222 140.82 22.1883C140.477 22.1543 140.168 22.0865 139.928 21.9846C139.688 21.9168 139.448 21.781 139.208 21.6113C138.968 21.4416 138.762 21.2719 138.625 21.0343C138.487 20.7968 138.385 20.5252 138.282 20.1858C138.179 19.8465 138.144 19.4731 138.144 19.0319V9.05371H140.854V18.2852C140.854 18.6586 140.888 18.964 140.922 19.2016C140.957 19.4052 141.06 19.6089 141.197 19.7446C141.334 19.8804 141.54 19.9822 141.746 20.0161C141.951 20.0501 142.294 20.084 142.706 20.084H146.17V20.0501Z" fill="white"/>
</svg>