<svg width="255" height="293" viewBox="0 0 255 293" fill="none" xmlns="http://www.w3.org/2000/svg">
<g opacity="0.6" clip-path="url(#clip0_2039_1660)">
<path d="M127.494 219.292L169.992 194.719V243.854L127.494 219.292Z" fill="#6110FF"/>
<path d="M127.494 219.292V170.157L169.992 194.719L127.494 219.292Z" fill="#0F7FFF"/>
<path d="M42.498 170.135V121L84.9854 145.573V145.584L42.498 170.135Z" fill="#008C93"/>
<path d="M84.9863 96.438V47.2812L127.485 71.8542L84.9863 96.438Z" fill="#473000"/>
<path d="M84.9863 243.854V194.719L127.485 219.292L84.9863 243.854Z" fill="#0F7FFF"/>
<path d="M0 292.99V243.854L42.4982 268.427L0 292.99Z" fill="#008C93"/>
<path d="M42.498 268.438V268.427L84.9854 243.854V293L42.498 268.438Z" fill="#730FFF"/>
<path d="M84.9863 194.719L127.485 170.157H127.495V219.292H127.485L84.9863 194.719Z" fill="#00C7D1"/>
<path d="M0 194.719V145.573L42.4982 170.135V170.157L0 194.719Z" fill="#288652"/>
<path d="M169.992 243.854V194.719L212.49 219.292L169.992 243.854Z" fill="#730FFF"/>
<path d="M84.9863 194.719V145.573H85.0079L127.495 121V170.157H127.485L84.9863 194.719Z" fill="#730FFF"/>
<path d="M127.494 170.157V121L169.992 145.573V194.719L127.494 170.157Z" fill="#6110FF"/>
<path d="M42.498 71.8541V22.719L84.9854 47.2812L42.498 71.8541Z" fill="#FFB507"/>
<path d="M212.502 170.135V121L254.989 145.573H255V194.708L212.502 170.135Z" fill="#730FFF"/>
<path d="M42.498 121L84.9854 96.4383L127.484 71.8545H127.494V71.8653L169.993 96.4383V145.573L127.494 121L85.007 145.573H84.9854L42.498 121Z" fill="#00C7D1"/>
<path d="M169.992 96.4382L212.501 71.8652V121H212.49L169.992 96.4382Z" fill="#6110FF"/>
<path d="M169.992 96.4379V47.3027L212.501 71.8649L169.992 96.4379Z" fill="#2B0FFF"/>
<path d="M212.502 71.8648V-26.4163L255 -1.8541V47.3027L212.502 71.8648Z" fill="#730FFF"/>
<path d="M84.9863 47.2806V-1.85449L127.485 22.7185H127.495L169.994 -1.85449V47.2806L127.495 71.8536H127.485L84.9863 47.2806Z" fill="#F48406"/>
</g>
<defs>
<clipPath id="clip0_2039_1660">
<rect width="255" height="344" fill="white" transform="translate(0 -51)"/>
</clipPath>
</defs>
</svg>
