<svg width="226" height="240" viewBox="0 0 226 240" fill="none" xmlns="http://www.w3.org/2000/svg">
<g opacity="0.6" clip-path="url(#clip0_2039_1681)">
<path d="M112.996 239.648L150.661 217.861V261.426L112.996 239.648Z" fill="#6110FF"/>
<path d="M112.996 239.649V196.084L150.661 217.861L112.996 239.649Z" fill="#0F7FFF"/>
<path d="M37.666 196.065V152.5L75.3215 174.287V174.297L37.666 196.065Z" fill="#008C93"/>
<path d="M75.3203 130.722V87.1387L112.985 108.926L75.3203 130.722Z" fill="#473000"/>
<path d="M75.3203 261.426V217.861L112.985 239.648L75.3203 261.426Z" fill="#0F7FFF"/>
<path d="M75.3203 217.861L112.985 196.084H112.995V239.649H112.985L75.3203 217.861Z" fill="#00C7D1"/>
<path d="M0 217.861V174.287L37.6651 196.065V196.084L0 217.861Z" fill="#288652"/>
<path d="M150.66 261.426V217.861L188.325 239.648L150.66 261.426Z" fill="#730FFF"/>
<path d="M75.3203 217.861V174.287H75.3395L112.995 152.5V196.084H112.985L75.3203 217.861Z" fill="#730FFF"/>
<path d="M112.996 196.084V152.5L150.661 174.287V217.861L112.996 196.084Z" fill="#6110FF"/>
<path d="M37.666 108.926V65.3613L75.3215 87.1388L37.666 108.926Z" fill="#FFB507"/>
<path d="M188.334 196.065V152.5L225.989 174.287H225.999V217.852L188.334 196.065Z" fill="#730FFF"/>
<path d="M37.666 152.5L75.3215 130.722L112.987 108.926H112.996V108.935L150.661 130.722V174.287L112.996 152.5L75.3407 174.287H75.3215L37.666 152.5Z" fill="#00C7D1"/>
<path d="M150.66 130.722L188.335 108.935V152.5H188.325L150.66 130.722Z" fill="#6110FF"/>
<path d="M150.66 130.723V87.1582L188.335 108.936L150.66 130.723Z" fill="#2B0FFF"/>
<path d="M188.334 108.936V21.7969L225.999 43.5744V87.1581L188.334 108.936Z" fill="#730FFF"/>
<path d="M75.3203 87.1388V43.5742L112.985 65.3613H112.995L150.66 43.5742V87.1388L112.995 108.926H112.985L75.3203 87.1388Z" fill="#F48406"/>
<path d="M37.666 21.7967V21.7871L75.3215 0V43.5742L37.666 21.7967Z" fill="#FFCD5B"/>
</g>
<defs>
<clipPath id="clip0_2039_1681">
<rect width="226" height="305" fill="white"/>
</clipPath>
</defs>
</svg>
