<svg width="149" height="34" viewBox="0 0 149 34" fill="none" xmlns="http://www.w3.org/2000/svg">
<path d="M133.381 29.6995L129.087 23.6074L125.361 29.7548L119.758 29.7934L126.443 19.8571L119.547 10.086L125.45 10.0453L129.702 16.098L133.437 9.99027L139.031 9.95171L132.337 19.8165L139.275 29.6589L133.381 29.6995ZM74.1882 30.1076L74.017 5.27195L84.7551 5.19792C85.9819 5.17668 87.2052 5.329 88.3849 5.64992C89.3444 5.913 90.2419 6.34946 91.0284 6.93555C91.7444 7.47477 92.3199 8.16466 92.7098 8.95129C93.0937 9.75334 93.2903 10.6255 93.286 11.5073C93.339 12.487 93.1195 13.4629 92.6497 14.3359C92.1798 15.209 91.4764 15.9483 90.6107 16.4788C90.0687 16.825 89.4783 17.0967 88.857 17.2859C89.5757 17.4045 90.2646 17.6506 90.888 18.0113C91.5019 18.3695 92.0443 18.8288 92.4898 19.3677C93.414 20.4781 93.9223 21.8513 93.9341 23.2693C93.9484 24.202 93.7558 25.1272 93.3692 25.9843C92.9968 26.8091 92.4315 27.5418 91.7164 28.1264C89.9106 29.454 87.6702 30.1286 85.3931 30.0303L74.1882 30.1076ZM79.3542 26.0173L84.6149 25.981C87.1743 25.9634 88.6334 24.7608 88.6191 22.6858C88.6048 20.6109 87.0115 19.2783 84.427 19.2961L79.3081 19.3314L79.3542 26.0173ZM79.2816 15.4836L84.0587 15.4507C86.5598 15.4334 87.9278 14.3269 87.9141 12.3314C87.9003 10.336 86.4752 9.20893 84.0158 9.22588L79.2387 9.25882L79.2816 15.4836ZM35.1435 10.6679L40.2957 10.6324L40.4316 30.3403L35.2877 30.3757L35.1435 10.6679ZM13.3211 29.5254C11.7315 28.8995 10.2842 27.9861 9.05877 26.8358C7.83506 25.6821 6.85486 24.3151 6.17128 22.809C5.47008 21.2469 5.10287 19.5669 5.09115 17.8674C5.07943 16.1678 5.42345 14.4829 6.10305 12.9113C7.43691 9.85267 9.96389 7.40667 13.1512 6.08907C15.5908 5.08606 18.2883 4.80015 20.8984 5.26799C23.5084 5.73582 25.912 6.93608 27.8014 8.71503C28.9925 9.83589 29.9544 11.1584 30.638 12.615L25.2523 12.6521C24.342 11.5502 23.1524 10.6876 21.7955 10.1454C20.4386 9.6032 18.9592 9.39931 17.4964 9.55292C16.0336 9.70653 14.6357 10.2126 13.4342 11.0234C12.2326 11.8343 11.2671 12.9233 10.6285 14.1878C9.98981 15.4524 9.69906 16.8509 9.78359 18.2518C9.86812 19.6526 10.3251 21.0096 11.1116 22.1951C11.8981 23.3806 12.9882 24.3555 14.2792 25.028C15.5702 25.7005 17.0197 26.0486 18.4912 26.0394C20.3569 26.0211 22.168 25.4349 23.6605 24.3663C25.1529 23.2977 26.2486 21.8025 26.7877 20.0989L17.2418 20.1647L17.2149 16.2613L31.6713 16.1617C31.7347 16.6654 31.7688 17.1721 31.7735 17.6795C31.7853 19.3509 31.4515 21.0084 30.7912 22.5572C30.131 24.106 29.1571 25.5157 27.9254 26.7058C26.0615 28.509 23.6761 29.7413 21.0744 30.245C18.4728 30.7487 15.7732 30.5009 13.3211 29.5334L13.3211 29.5254ZM55.3896 29.2354C53.4936 28.486 51.8715 27.2204 50.7259 25.5966C49.5804 23.9728 48.9622 22.0628 48.9486 20.1052C48.9379 17.8086 49.7592 15.5784 51.2735 13.7915C52.7877 12.0046 54.9022 10.7707 57.2595 10.2983C59.6167 9.8259 62.0722 10.1439 64.2109 11.1987C66.3496 12.2535 68.0404 13.9802 68.9974 16.0872C69.5452 17.2906 69.8385 18.5854 69.8603 19.8974C69.8822 21.2094 69.6322 22.5127 69.1248 23.7328C68.6173 24.9528 67.8623 26.0654 66.9031 27.0069C65.944 27.9483 64.7994 28.7001 63.5352 29.219C62.2531 29.753 60.8708 30.033 59.4722 30.0421C58.0767 30.0477 56.6944 29.7869 55.4066 29.2751L55.3896 29.2354ZM53.2341 20.1154C53.2421 21.2773 53.6113 22.4107 54.2949 23.3722C54.9786 24.3337 55.946 25.08 57.0748 25.5169C58.2037 25.9539 59.4433 26.0617 60.6368 25.8267C61.8304 25.5918 62.9243 25.0247 63.7803 24.1971C64.6363 23.3695 65.2158 22.3187 65.4457 21.1774C65.6756 20.0361 65.5454 18.8557 65.0717 17.7854C64.598 16.7151 63.802 15.803 62.7844 15.1644C61.7667 14.5258 60.5732 14.1895 59.3546 14.1979C57.7213 14.2113 56.1598 14.8417 55.0124 15.951C53.8651 17.0603 53.2256 18.5579 53.2341 20.1154ZM41.267 14.8632L41.2586 13.6389C41.2524 12.7428 41.6198 11.8809 42.2799 11.2426C42.94 10.6044 43.8388 10.2422 44.7785 10.2358L48.3218 10.2113L48.3242 10.5691C48.3298 11.7007 47.8649 12.7886 47.0313 13.5945C46.1977 14.4005 45.0634 14.8588 43.8767 14.8691L41.267 14.8632Z" fill="#2A2663"/>
<path d="M100.278 27.245L99.817 26.8348C99.6492 26.6769 99.4897 26.519 99.3385 26.3531C98.7602 25.7269 98.268 25.033 97.8736 24.2881C97.7806 24.1139 97.696 23.9316 97.6114 23.7493C97.5267 23.5671 97.4928 23.4798 97.4418 23.345L97.4416 23.3053C97.0414 22.2747 96.8199 21.1887 96.7858 20.0899L96.7844 19.8912C96.78 18.5657 97.0545 17.2526 97.5915 16.0297C98.0611 14.9529 98.726 13.9633 99.5557 13.1064L99.804 12.8502L99.9614 12.6981C100.874 11.8548 101.94 11.1767 103.107 10.6968C104.382 10.1679 105.755 9.88806 107.145 9.8739L107.362 9.87241C108.56 9.88614 109.747 10.0986 110.868 10.5002L110.918 10.4998L111.219 10.617L111.495 10.7264C113.323 11.5062 114.876 12.7716 115.97 14.3713C117.063 15.971 117.65 17.8373 117.66 19.7473L117.662 19.954C117.626 22.5255 116.548 24.9847 114.654 26.8163C112.759 28.6479 110.195 29.7096 107.499 29.7791L107.283 29.7806C104.698 29.7945 102.201 28.8906 100.278 27.245ZM100.994 19.7827C101.002 20.9443 101.371 22.0774 102.054 23.0387C102.738 24 103.704 24.7463 104.833 25.1835C105.961 25.6206 107.2 25.7289 108.394 25.4946C109.587 25.2603 110.681 24.694 111.537 23.8672C112.394 23.0404 112.974 21.9903 113.205 20.8496C113.435 19.7088 113.307 18.5286 112.834 17.4582C112.362 16.3877 111.567 15.475 110.55 14.8355C109.534 14.196 108.341 13.8583 107.123 13.8651C105.488 13.8764 103.924 14.5059 102.775 15.6154C101.626 16.725 100.985 18.2238 100.994 19.7827Z" fill="#F47224"/>
<path d="M103.161 28.9514L103.086 28.9519C101.668 28.3805 100.4 27.5179 99.3725 26.4257C98.3447 25.3334 97.5822 24.0383 97.1394 22.6326C96.9083 21.8561 96.7713 21.0568 96.7311 20.2504L96.7287 19.9085C96.7284 18.5834 97.0027 17.2711 97.5358 16.047C98.0054 14.9702 98.6703 13.9806 99.5 13.1237L99.7483 12.8676L99.9057 12.7154C100.819 11.8722 101.885 11.1941 103.052 10.7141C104.327 10.1852 105.7 9.90539 107.09 9.89123C107.09 9.89123 107.103 11.7992 107.118 13.9775C105.685 13.9898 104.302 14.4777 103.205 15.3574C102.108 16.237 101.367 17.4534 101.109 18.7973C100.851 20.1412 101.092 21.5285 101.79 22.7208C102.489 23.913 103.602 24.8355 104.937 25.3297C104.05 27.2677 103.22 29.0384 103.162 29.0627L103.161 28.9514Z" fill="#F79C65"/>
<path d="M97.1896 16.7762L97.1892 16.7126C97.2791 16.4496 97.3773 16.1866 97.4921 15.9155C98.0799 14.565 98.9717 13.3539 100.104 12.3681C101.237 11.3822 102.583 10.6456 104.047 10.2105C104.945 9.95158 105.874 9.80619 106.812 9.77806L107.037 9.77651C107.037 9.77651 107.05 11.6842 107.065 13.8622C105.712 13.8748 104.402 14.3103 103.333 15.1017C102.265 15.8931 101.498 16.9968 101.151 18.2433C99.0619 17.4866 97.1648 16.8081 97.1896 16.7762Z" fill="#FBC6A7"/>
<path d="M140.798 14.5418L140.753 7.95218L133.843 7.99982L137.573 5.02492L143.817 4.98188L143.858 10.9356L140.798 14.5418Z" fill="#1EB209"/>
</svg>
