<svg width="16" height="16" viewBox="0 0 16 16" fill="none" xmlns="http://www.w3.org/2000/svg">
<g clip-path="url(#clip0_2355_781)">
<path d="M0.364957 0.364774C0.48065 0.249069 0.618001 0.157286 0.769167 0.0946667C0.920333 0.0320471 1.08235 -0.000183177 1.24598 -0.000183177C1.4096 -0.000183177 1.57162 0.0320471 1.72278 0.0946667C1.87395 0.157286 2.0113 0.249069 2.127 0.364774L7.99972 6.2375L13.8732 0.364774C13.9889 0.248882 14.1263 0.156913 14.2775 0.0941179C14.4287 0.0313231 14.5909 -0.00106728 14.7546 -0.001205C14.9184 -0.00134273 15.0806 0.0307753 15.2319 0.0933156C15.3833 0.155856 15.5208 0.247593 15.6367 0.36329C15.7526 0.478988 15.8446 0.616379 15.9074 0.767619C15.9702 0.918859 16.0025 1.08099 16.0027 1.24475C16.0028 1.4085 15.9707 1.57069 15.9082 1.72203C15.8456 1.87338 15.7539 2.01092 15.6382 2.12681L9.76176 7.99954L15.6382 13.873C15.8722 14.1071 16.0037 14.4245 16.0037 14.7555C16.0037 15.0865 15.8722 15.404 15.6382 15.638C15.4041 15.8721 15.0867 16.0035 14.7557 16.0035C14.4247 16.0035 14.1072 15.8721 13.8732 15.638L7.99972 9.76158L2.127 15.638C2.0113 15.7537 1.87395 15.8455 1.72278 15.9081C1.57161 15.9707 1.4096 16.0029 1.24598 16.0029C1.08236 16.0029 0.920338 15.9707 0.769172 15.9081C0.618007 15.8455 0.480654 15.7537 0.364957 15.638C0.24926 15.5223 0.157484 15.385 0.0948691 15.2338C0.0322543 15.0826 2.71582e-05 14.9206 2.71582e-05 14.757C2.71582e-05 14.5934 0.0322543 14.4313 0.0948691 14.2802C0.157484 14.129 0.24926 13.9917 0.364957 13.876L6.23842 8.0025L0.364957 2.12978C0.249252 2.01409 0.157469 1.87674 0.0948499 1.72557C0.0322303 1.5744 0 1.41238 0 1.24876C0 1.08514 0.0322303 0.923117 0.0948499 0.771951C0.157469 0.620785 0.249252 0.483433 0.364957 0.36774V0.364774Z" fill="#919191"/>
</g>
<defs>
<clipPath id="clip0_2355_781">
<rect width="16" height="16" fill="white"/>
</clipPath>
</defs>
</svg>
