<svg width="12" height="15" viewBox="0 0 12 15" fill="none" xmlns="http://www.w3.org/2000/svg">
<path d="M11.4 2.4H9.54C9.40074 1.72285 9.03229 1.11441 8.49675 0.677231C7.96121 0.240054 7.29132 0.000872715 6.6 0L5.4 0C4.70868 0.000872715 4.03879 0.240054 3.50325 0.677231C2.96771 1.11441 2.59926 1.72285 2.46 2.4H0.6C0.44087 2.4 0.288258 2.46321 0.175736 2.57574C0.0632141 2.68826 0 2.84087 0 3C0 3.15913 0.0632141 3.31174 0.175736 3.42426C0.288258 3.53679 0.44087 3.6 0.6 3.6H1.2V11.4C1.20095 12.1954 1.51733 12.9579 2.07973 13.5203C2.64213 14.0827 3.40464 14.399 4.2 14.4H7.8C8.59536 14.399 9.35787 14.0827 9.92027 13.5203C10.4827 12.9579 10.799 12.1954 10.8 11.4V3.6H11.4C11.5591 3.6 11.7117 3.53679 11.8243 3.42426C11.9368 3.31174 12 3.15913 12 3C12 2.84087 11.9368 2.68826 11.8243 2.57574C11.7117 2.46321 11.5591 2.4 11.4 2.4ZM5.4 1.2H6.6C6.97216 1.20045 7.33508 1.31603 7.63897 1.53087C7.94286 1.74571 8.17285 2.04929 8.2974 2.4H3.7026C3.82715 2.04929 4.05714 1.74571 4.36103 1.53087C4.66492 1.31603 5.02784 1.20045 5.4 1.2ZM9.6 11.4C9.6 11.8774 9.41036 12.3352 9.07279 12.6728C8.73523 13.0104 8.27739 13.2 7.8 13.2H4.2C3.72261 13.2 3.26477 13.0104 2.92721 12.6728C2.58964 12.3352 2.4 11.8774 2.4 11.4V3.6H9.6V11.4Z" fill="#5438A0"/>
<path d="M4.79922 10.7999C4.95835 10.7999 5.11096 10.7367 5.22348 10.6241C5.336 10.5116 5.39922 10.359 5.39922 10.1999V6.59988C5.39922 6.44075 5.336 6.28814 5.22348 6.17561C5.11096 6.06309 4.95835 5.99988 4.79922 5.99988C4.64009 5.99988 4.48748 6.06309 4.37495 6.17561C4.26243 6.28814 4.19922 6.44075 4.19922 6.59988V10.1999C4.19922 10.359 4.26243 10.5116 4.37495 10.6241C4.48748 10.7367 4.64009 10.7999 4.79922 10.7999Z" fill="#5438A0"/>
<path d="M7.19961 10.7999C7.35874 10.7999 7.51135 10.7367 7.62387 10.6241C7.7364 10.5116 7.79961 10.359 7.79961 10.1999V6.59988C7.79961 6.44075 7.7364 6.28814 7.62387 6.17561C7.51135 6.06309 7.35874 5.99988 7.19961 5.99988C7.04048 5.99988 6.88787 6.06309 6.77535 6.17561C6.66282 6.28814 6.59961 6.44075 6.59961 6.59988V10.1999C6.59961 10.359 6.66282 10.5116 6.77535 10.6241C6.88787 10.7367 7.04048 10.7999 7.19961 10.7999Z" fill="#5438A0"/>
</svg>