<svg width="5" height="19" viewBox="0 0 5 19" fill="none" xmlns="http://www.w3.org/2000/svg">
<path d="M0.75 2.125C0.75 0.951395 1.7014 0 2.875 0C4.04861 0 5 0.951395 5 2.125C5 3.29861 4.04861 4.25 2.875 4.25C1.7014 4.25 0.75 3.29861 0.75 2.125Z" fill="#5438A0"/>
<path d="M0.75 9.5C0.75 8.3264 1.7014 7.375 2.875 7.375C4.04861 7.375 5 8.3264 5 9.5C5 10.6736 4.04861 11.625 2.875 11.625C1.7014 11.625 0.75 10.6736 0.75 9.5Z" fill="#5438A0"/>
<path d="M0.75 16.875C0.75 15.7014 1.7014 14.75 2.875 14.75C4.04861 14.75 5 15.7014 5 16.875C5 18.0486 4.04861 19 2.875 19C1.7014 19 0.75 18.0486 0.75 16.875Z" fill="#5438A0"/>
</svg>
