<svg width="17" height="16" viewBox="0 0 17 16" fill="none" xmlns="http://www.w3.org/2000/svg">
<path d="M0.9 14.5047H0.899986L0.900014 14.5063C0.90265 14.6656 0.970636 14.8165 1.08774 14.9272C1.20469 15.0378 1.36143 15.0998 1.52435 15.1014L1.52435 15.1014H1.52534H15.4775C15.641 15.1014 15.7988 15.0397 15.9159 14.9284C16.0331 14.8169 16.1 14.6646 16.1 14.5047L16.1 14.5036C16.0982 14.3426 16.0297 14.19 15.9111 14.0784C15.7926 13.9669 15.6337 13.9052 15.4691 13.9052H1.52534C1.36107 13.9052 1.20259 13.9672 1.08497 14.0791C0.967187 14.191 0.9 14.344 0.9 14.5047Z" fill="#5438A0" stroke="#5438A0" stroke-width="0.2"/>
<path d="M1.09809 9.19703C1.03223 9.26083 0.981699 9.33699 0.949294 9.42015L1.32296 12.4393C1.38724 12.4639 1.45604 12.4762 1.52534 12.4753V12.5753H1.52593H3.99554H3.99558C4.15883 12.5752 4.31652 12.5147 4.43502 12.4053L4.43503 12.4053L4.4361 12.4043L12.9728 4.28331L12.9728 4.28332L12.9739 4.28224C13.0905 4.16783 13.1567 4.01371 13.1567 3.85223C13.1567 3.69075 13.0905 3.53664 12.9739 3.42222L12.9732 3.42152L10.5309 1.07316L10.531 1.07315L10.5294 1.0717C10.4093 0.961081 10.2496 0.9 10.0844 0.9C9.91915 0.9 9.75949 0.961081 9.63941 1.0717L9.6394 1.07168L9.63785 1.07316L7.93378 2.71177L7.9333 2.71223L1.09884 9.19631L1.09884 9.19631L1.09809 9.19703ZM9.25414 3.12164L10.0761 2.33795L11.655 3.83895L10.8305 4.62273L9.25414 3.12164ZM2.1484 11.3472L2.15605 9.87513L8.35473 3.97696L9.93355 5.4779L3.74051 11.3472H2.1484Z" fill="#5438A0" stroke="#5438A0" stroke-width="0.2"/>
</svg>