<svg width="14" height="14" viewBox="0 0 14 14" fill="none" xmlns="http://www.w3.org/2000/svg">
<path d="M7 0C5.14347 0 3.36293 0.7376 2.05013 2.05013C0.7376 3.36293 0 5.14347 0 7C0 8.85653 0.7376 10.6371 2.05013 11.9499C3.36293 13.2627 5.14347 14 7 14C8.85653 14 10.6371 13.2624 11.9499 11.9499C13.2627 10.6371 14 8.85653 14 7C14 5.7712 13.6765 4.56427 13.0621 3.5C12.4477 2.43573 11.564 1.55227 10.5 0.937867C9.436 0.323467 8.2288 0 7.00027 0H7Z" fill="#1F921B"/>
<path d="M3.89258 7.60459L5.80711 9.33298L10.1148 5.44409" stroke="white" stroke-width="1.6" stroke-linecap="round" stroke-linejoin="round"/>
</svg>
