<svg width="18" height="14" viewBox="0 0 18 14" fill="none" xmlns="http://www.w3.org/2000/svg">
<path d="M7.56886 11.9311L7.56875 11.931L3.43249 7.79983H16.5001C16.7122 7.79983 16.9157 7.71557 17.0657 7.56558C17.2157 7.41559 17.3 7.21214 17.3 7C17.3 6.78786 17.2157 6.58441 17.0657 6.43442C16.9157 6.28442 16.7122 6.20017 16.5001 6.20017H3.43249L7.56875 2.06902L7.56886 2.0689C7.71926 1.91853 7.80377 1.71456 7.80377 1.50187C7.80377 1.28919 7.71926 1.08522 7.56886 0.934847C7.41846 0.784472 7.21449 0.7 7.00181 0.7C6.78914 0.7 6.58516 0.784471 6.43476 0.934847L0.936628 6.4321C0.936465 6.43227 0.936302 6.43243 0.93614 6.43259C0.861394 6.50684 0.802051 6.59513 0.761525 6.69239C0.720911 6.78986 0.7 6.89441 0.7 7C0.7 7.10559 0.720911 7.21014 0.761525 7.30761C0.802052 7.40487 0.861395 7.49316 0.936141 7.56741C0.936303 7.56757 0.936466 7.56773 0.936628 7.56789L6.43476 13.0652C6.58516 13.2155 6.78914 13.3 7.00181 13.3C7.10712 13.3 7.2114 13.2793 7.30869 13.239C7.40599 13.1987 7.49439 13.1396 7.56886 13.0652C7.71926 12.9148 7.80377 12.7108 7.80377 12.4981C7.80377 12.2854 7.71926 12.0815 7.56886 11.9311Z" fill="#282828" stroke="#282828" stroke-width="0.6"/>
</svg>
