<svg width="12" height="11" viewBox="0 0 12 11" fill="none" xmlns="http://www.w3.org/2000/svg">
<g clip-path="url(#clip0_3871_8794)">
<path d="M2.07192 3.53272C2.48116 3.53272 2.83193 3.52878 3.18271 3.53509C3.31485 3.53745 3.44939 3.55243 3.57673 3.58316C3.80817 3.6399 3.95393 3.82589 3.97795 4.06862C4.00118 4.29952 3.90187 4.50837 3.68484 4.60136C3.54229 4.66283 3.37972 4.7046 3.22515 4.70617C2.41148 4.71642 1.59701 4.71405 0.783346 4.71011C0.23396 4.70854 0.00331429 4.47921 0.00171258 3.94174C-0.000689985 3.14026 -0.000689985 2.33957 0.00251343 1.5381C0.00251343 1.43407 0.0169288 1.32768 0.0417553 1.22681C0.113031 0.941522 0.313245 0.79494 0.607959 0.799668C0.895466 0.803608 1.10929 0.943887 1.14373 1.22917C1.18938 1.61139 1.17817 2.0007 1.19258 2.38607C1.19499 2.46173 1.20059 2.53738 1.2078 2.67057C1.2991 2.59176 1.35195 2.54999 1.4 2.50271C1.82686 2.08739 2.2409 1.65867 2.68137 1.25754C3.69205 0.337066 4.89573 -0.064066 6.27 0.00764915C6.93551 0.0423246 7.57459 0.173146 8.19125 0.423755C8.78388 0.664907 9.30444 1.01875 9.77694 1.43565C10.3544 1.94553 10.8004 2.55708 11.1128 3.25847C11.2161 3.49096 11.2465 3.73053 11.0583 3.94174C10.8837 4.13797 10.6106 4.21914 10.3896 4.08911C10.2342 3.99769 10.0909 3.84086 10.01 3.6801C9.59515 2.85655 9.00331 2.19457 8.19445 1.73985C6.68084 0.889509 4.75398 0.906059 3.41816 2.18353C3.00732 2.57679 2.60289 2.97792 2.19605 3.3759C2.16482 3.40663 2.14079 3.44525 2.07272 3.53194L2.07192 3.53272Z" fill="#5438A0"/>
<path d="M10.7553 8.3678C10.6993 8.41981 10.6432 8.47103 10.588 8.52305C9.99213 9.08652 9.45956 9.71935 8.76442 10.1733C7.83703 10.7801 6.82155 11.0654 5.69795 10.9874C4.74734 10.9212 3.8656 10.6619 3.05593 10.1741C2.25588 9.69256 1.6224 9.04475 1.15951 8.2417C1.04178 8.03759 0.928063 7.8256 0.849579 7.60494C0.743866 7.30862 0.882414 7.0588 1.18914 6.91852C1.45102 6.79873 1.72331 6.87123 1.88749 7.125C2.10532 7.46151 2.2791 7.83033 2.52577 8.14398C3.18007 8.9754 4.02897 9.51997 5.0917 9.72881C5.98145 9.90376 6.85038 9.86908 7.66084 9.44825C8.02764 9.25832 8.3664 8.99983 8.67953 8.73031C9.07035 8.39301 9.42192 8.01237 9.78871 7.64907C9.83196 7.60572 9.8656 7.55292 9.93767 7.46072C9.52603 7.46072 9.16885 7.46229 8.81167 7.45993C8.71877 7.45993 8.62347 7.45835 8.53458 7.43786C8.1854 7.35669 8.00201 7.12105 8.03404 6.81055C8.06608 6.50399 8.30473 6.29988 8.65951 6.29515C9.15364 6.28884 9.64696 6.29357 10.1411 6.29357C10.5279 6.29357 10.9155 6.29121 11.3023 6.29357C11.7676 6.29672 11.9959 6.51502 11.9983 6.96817C12.0015 7.84215 12.0055 8.71534 11.9967 9.58932C11.9919 10.0905 11.5874 10.3467 11.135 10.1433C10.8715 10.0251 10.8258 9.77688 10.8154 9.531C10.8018 9.21656 10.8122 8.90054 10.8122 8.5853C10.8122 8.52147 10.8122 8.45685 10.8122 8.39301C10.7938 8.38434 10.7754 8.37568 10.7577 8.36701L10.7553 8.3678Z" fill="#5438A0"/>
</g>
<defs>
<clipPath id="clip0_3871_8794">
<rect width="12" height="11" fill="white"/>
</clipPath>
</defs>
</svg>
