<svg width="16" height="15" viewBox="0 0 16 15" fill="none" xmlns="http://www.w3.org/2000/svg">
<g clip-path="url(#clip0_2298_7858)">
<path d="M7 3.40799V10.5338C7.00086 10.7028 7.07055 10.8647 7.19435 10.9855C7.31946 11.1037 7.48824 11.1703 7.66431 11.1709H8.35336C8.52944 11.1703 8.69822 11.1037 8.82333 10.9855C8.94069 10.8621 9.00393 10.7004 9 10.5338V3.40799L11.1201 5.43047C11.2469 5.55092 11.4183 5.61876 11.5972 5.61923C11.6858 5.61841 11.7733 5.6007 11.8546 5.56712C11.936 5.53354 12.0094 5.48479 12.0707 5.42372L12.5442 4.95519C12.6676 4.83704 12.7369 4.67704 12.7369 4.51024C12.7369 4.34344 12.6676 4.18345 12.5442 4.0653L8.4735 0.185523C8.34725 0.0669483 8.17718 0.000488281 8 0.000488281C7.82283 0.000488281 7.65276 0.0669483 7.52651 0.185523L3.4629 4.06193C3.33948 4.18007 3.27017 4.34007 3.27017 4.50687C3.27017 4.67367 3.33948 4.83367 3.4629 4.95181L3.9364 5.42035C3.99767 5.48142 4.07112 5.53017 4.15244 5.56375C4.23376 5.59732 4.32129 5.61504 4.4099 5.61586C4.58878 5.61539 4.76022 5.54755 4.88693 5.42709L7 3.40799Z" fill="#ACACAC"/>
<path d="M14.0071 10.8707V13.0954H1.99294V10.8707C1.99294 10.7018 1.92258 10.5397 1.79733 10.4202C1.67209 10.3008 1.50222 10.2337 1.3251 10.2337H0.667854C0.49073 10.2337 0.320861 10.3008 0.195616 10.4202C0.0703707 10.5397 9.44914e-06 10.7018 9.44914e-06 10.8707V14.3662C-0.000459007 14.45 0.0164953 14.5331 0.0498917 14.6106C0.0832881 14.6881 0.132464 14.7585 0.194572 14.8177C0.256681 14.877 0.330489 14.9239 0.411727 14.9557C0.492965 14.9876 0.58002 15.0038 0.667854 15.0033H15.3322C15.42 15.0038 15.5071 14.9876 15.5883 14.9557C15.6695 14.9239 15.7433 14.877 15.8054 14.8177C15.8676 14.7585 15.9167 14.6881 15.9501 14.6106C15.9835 14.5331 16.0005 14.45 16 14.3662V10.8707C16.0005 10.7869 15.9835 10.7039 15.9501 10.6264C15.9167 10.5489 15.8676 10.4785 15.8054 10.4193C15.7433 10.36 15.6695 10.3131 15.5883 10.2812C15.5071 10.2494 15.42 10.2332 15.3322 10.2337H14.6679C14.492 10.2354 14.3239 10.3033 14.2002 10.4226C14.0765 10.5419 14.0071 10.7029 14.0071 10.8707Z" fill="#ACACAC"/>
</g>
<defs>
<clipPath id="clip0_2298_7858">
<rect width="16" height="15" fill="white"/>
</clipPath>
</defs>
</svg>
