<svg width="15" height="10" viewBox="0 0 15 10" fill="none" xmlns="http://www.w3.org/2000/svg">
<path d="M7.49902 0.951172C8.82155 0.933941 10.1253 1.27875 11.2686 1.9502C12.4112 2.62164 13.3522 3.59391 13.9893 4.7627L14.0156 4.81934C14.0612 4.93544 14.0612 5.06456 14.0156 5.18066L13.9893 5.2373C13.3516 6.40603 12.4111 7.37833 11.2686 8.0498C10.1254 8.72115 8.82286 9.06594 7.5 9.04883L7.49902 9.0498V9.04883C6.17651 9.06575 4.87436 8.72097 3.73145 8.0498C2.66013 7.4203 1.7663 6.52648 1.13379 5.4541L1.01074 5.2373C0.929928 5.08945 0.929928 4.91055 1.01074 4.7627L1.13379 4.5459C1.76675 3.47354 2.66019 2.57975 3.73145 1.9502C4.87431 1.27902 6.17651 0.934244 7.49902 0.951172ZM12.998 5C10.6508 0.932854 4.34739 0.933709 2.00098 5C4.34794 9.06742 10.652 9.06607 12.998 5ZM7.49609 2.34473C8.19133 2.34079 8.8587 2.61909 9.34766 3.11719C9.53709 3.30451 9.54443 3.6103 9.3623 3.80566C9.17998 4.00056 8.87582 4.01357 8.67871 3.83398L8.67578 3.83105C8.37376 3.50566 7.95214 3.32082 7.51074 3.32129C7.06928 3.32182 6.64714 3.50748 6.34668 3.83398L6.3457 3.83594C5.65194 4.51565 5.73594 5.41452 6.2041 6.01855C6.67216 6.62229 7.51778 6.92397 8.34766 6.41211H8.34961C9.00948 6.03153 9.31304 5.2339 9.07715 4.50488V4.50391C9.00124 4.24701 9.14323 3.97588 9.39746 3.89453C9.65209 3.81387 9.92474 3.95354 10.0088 4.20898H10.0078C10.2993 5.03811 10.0913 5.90682 9.59961 6.5625C9.10797 7.21776 8.32981 7.66447 7.47461 7.64844V7.64941C6.86986 7.64153 6.28926 7.4222 5.8291 7.03516L5.63965 6.85938C5.15525 6.36252 4.88533 5.69261 4.88867 4.99609C4.89156 4.30056 5.16639 3.63344 5.6543 3.14062C6.13655 2.63644 6.80101 2.3493 7.49609 2.34473Z" fill="#5438A0" stroke="#5438A0" stroke-width="0.1"/>
</svg>
