<svg width="30" height="30" viewBox="0 0 30 30" fill="none" xmlns="
http://www.w3.org/2000/svg">
<path fill-rule="evenodd" clip-rule="evenodd" d="M14.5597 0.882813C16.4759 0.882801 18.3733 1.2604 20.143 1.99395C21.9127 2.72751 23.52 3.80259 24.8727 5.15755C26.2253 6.51251 27.2967 8.1207 28.0255 9.8899C28.7542 11.6591 29.126 13.5545 29.1195 15.4674C29.1195 19.3223 27.5855 23.0193 24.855 25.7452C22.1245 28.471 18.4212 30.0024 14.5597 30.0024C12.6477 30.0024 10.7544 29.6264 8.98798 28.8959C7.22151 28.1655 5.61646 27.0949 4.26446 25.7452C1.53399 23.0193 2.12739e-05 19.3223 2.12739e-05 15.4674C-0.00324991 13.5554 0.370754 11.6615 1.10068 9.89375C1.8306 8.12603 2.90215 6.51914 4.25415 5.16483C5.60614 3.81053 7.21211 2.73533 8.98034 2.00062C10.7486 1.2659 12.6445 0.886073 14.5597 0.882813Z" fill="#F37021"/>
<path fill-rule="evenodd" clip-rule="evenodd" d="M12.6103 15.9809L13.1684 14.6652H11.6182L12.6103 15.9809ZM12.3623 13.2898L13.2304 14.6652L13.8505 13.2898H12.3623ZM12.3623 13.2898L13.2304 11.6153H11.3702L12.3623 13.2898ZM7.64973 11.5555L9.50995 15.0241L11.3702 11.5555H7.64973ZM9.50995 15.0839L7.52572 18.7319H11.4322L10.5021 16.9976L9.50995 15.0839ZM10.4401 13.2898L11.3702 15.2633L11.6182 14.725L12.3003 13.3496H10.4401V13.2898ZM11.3702 15.2035L10.5021 16.9378H12.1763L11.3702 15.2035ZM12.6103 15.9809L12.1763 16.9378H13.2924L12.6103 15.9809ZM11.4322 18.7319H13.0444L12.3003 16.9976L11.4942 18.7319H11.4322ZM13.1684 21.9612L11.4322 18.7319L10.006 21.9612H13.1684ZM14.5945 18.7319L14.3465 18.373L13.2924 16.9378H15.8967L14.5945 18.7319ZM9.75798 8.92414L12.4243 5.57516H7.77375L9.75798 8.92414ZM12.7963 8.92414H9.81999L11.4322 11.6153L12.8583 8.92414H12.7963ZM7.64973 11.5555L9.75798 8.86434H6.22357L7.64973 11.5555ZM7.64973 11.5555H2.13109L4.85941 15.0839L7.64973 11.5555ZM7.52572 18.7319L5.78952 21.9612H10.006L7.52572 18.7319ZM1.94507 18.7319H7.52572L4.7974 15.1437L1.94507 18.7319ZM8.82787 24.5926H11.9902L10.006 21.9612L8.76586 24.5926H8.82787ZM16.5168 15.9809L15.9587 14.6652H17.5089L16.5168 15.9809ZM16.7648 13.2898L15.8967 14.6652L15.2766 13.2898H16.7648ZM16.7648 13.2898L15.8967 11.6153H17.7569L16.7648 13.2898ZM21.5394 11.5555L19.7411 15.0241L17.8809 11.5555H21.5394ZM19.7411 15.0839L21.7254 18.7319H17.7693L18.6994 16.9976L19.6915 15.0839H19.7411ZM18.749 13.2898L17.8189 15.2633L17.5709 14.725L16.8888 13.3496H18.749V13.2898ZM17.8189 15.2035L18.687 16.9378H16.9508L17.8189 15.2035ZM16.5788 15.9809L17.0128 16.9378H15.8967L16.5788 15.9809ZM17.8189 18.7319H16.1447L16.9508 16.9976L17.8189 18.7319ZM16.0827 21.9612L17.8189 18.7319L19.2451 21.9612H16.0827ZM14.6565 13.2898H15.4006L14.6565 11.6153L13.9125 13.2898H14.6565ZM14.6565 16.9378L14.7806 16.6866L15.9587 14.7131H13.2304L14.5945 16.9856L14.6565 16.9378ZM14.6565 21.9612L16.2067 18.7319H13.1684L14.3465 21.2436L14.6565 21.9612ZM19.4931 8.92414L16.8268 5.57516H21.4773L19.4931 8.92414ZM16.4548 8.92414H19.4931L17.8809 11.6153L16.4672 8.92414H16.4548ZM21.6014 11.5555L19.4931 8.86434H22.9655L21.6014 11.5555ZM21.6014 11.5555H27.058L24.3917 15.0839L21.6014 11.5555ZM21.6014 18.7319L23.3376 21.9612H19.1211L21.6014 18.7319ZM27.182 18.7319H21.6014L24.3297 15.1437L27.182 18.7319ZM20.3612 24.5926H17.2609L19.2451 21.9612L20.3612 24.5926ZM14.5945 5.57516H16.8268L14.6565 2.82422L12.4863 5.57516H14.5945ZM14.5945 8.92414H16.3928L14.5945 5.57516L12.7963 8.92414H14.5945ZM14.5945 11.5555H16.0207L15.2146 9.9408L14.6565 8.86434L13.2924 11.5555H14.5945ZM14.5945 24.5926L14.9666 23.9347L16.0207 21.9612H13.1684L14.5945 24.5926ZM14.5945 28.0612L17.2609 24.6524H12.1763L14.5945 28.0612Z" fill="white"/>
</svg>