<svg width="25" height="34" viewBox="0 0 25 34" fill="none" xmlns="http://www.w3.org/2000/svg">
<path d="M12.5 23.6994C19.3983 23.6994 25 18.3984 25 11.8437C24.9874 5.30102 19.3983 0 12.5 0C5.58912 0 0 5.30102 0 11.8557C0 18.3984 5.58912 23.6994 12.5 23.7113V23.6994ZM5.99194 19.7475C7.75428 19.3058 9.31521 18.3148 10.423 16.9298C11.0398 17.1567 11.6944 17.2761 12.3489 17.2761H12.5504C13.2553 17.2761 13.9476 17.1448 14.577 16.8821C15.0428 17.7178 16.2387 18.8043 19.0584 19.7475C17.1954 21.1205 14.9043 21.8727 12.5504 21.8727C10.1712 21.9324 7.8424 21.1802 5.99194 19.7475ZM14.8414 14.5659C14.2372 15.2106 13.356 15.5568 12.4496 15.5091H12.3993C11.493 15.5688 10.6118 15.2225 10.0076 14.5659C8.49698 12.9421 8.81168 9.77824 8.81168 9.73048V9.68273C8.96274 6.37556 11.5181 6.07708 12.2986 6.07708H12.4496C13.0287 6.07708 15.8862 6.12483 16.0373 9.63497V9.68273C16.2513 11.39 15.8233 13.1212 14.8414 14.5659ZM12.5 1.8267C18.3661 1.8267 23.1118 6.33974 23.1244 11.9034C23.0992 14.2913 22.2054 16.5956 20.569 18.4223C16.9184 17.3835 16.2513 16.2016 16.138 15.9031L16.2387 15.8076C18.2654 13.6824 17.9632 10.029 17.9003 9.63497C17.6989 5.3846 14.363 4.29813 12.4371 4.40558C10.4607 4.35782 7.17523 5.39654 6.97382 9.63497C6.92346 10.029 6.60876 13.6346 8.63545 15.8076C8.73615 15.9031 8.7865 16.0105 8.8998 16.0583C8.69839 16.4523 7.80463 17.491 4.53172 18.4342C2.90785 16.6075 2.00151 14.3032 1.97633 11.9154C1.90081 6.42331 6.52064 1.92222 12.3112 1.83864C12.3741 1.83864 12.4371 1.83864 12.4874 1.83864L12.5 1.8267Z" fill="#515151"/>
<path d="M21.4501 27.0544H3.58759C3.07147 27.0544 2.65607 27.4484 2.65607 27.9379C2.65607 28.4275 3.07147 28.8215 3.58759 28.8215H21.4501C21.9662 28.8215 22.3816 28.4275 22.3816 27.9379C22.3816 27.4484 21.9662 27.0544 21.4501 27.0544Z" fill="#515151"/>
<path d="M18.278 31.7463H6.65918C6.14307 31.7463 5.72766 32.1403 5.72766 32.6298C5.72766 33.1194 6.14307 33.5133 6.65918 33.5133H18.2654C18.7815 33.5133 19.1969 33.1194 19.1969 32.6298C19.1969 32.1403 18.7815 31.7463 18.2654 31.7463H18.278Z" fill="#515151"/>
</svg>
