<svg width="77" height="31" viewBox="0 0 77 31" fill="none" xmlns="http://www.w3.org/2000/svg">
<path fill-rule="evenodd" clip-rule="evenodd" d="M15.3763 0.125C17.3999 0.124988 19.4037 0.523762 21.2727 1.29845C23.1416 2.07315 24.839 3.20852 26.2675 4.63947C27.696 6.07042 28.8276 7.76879 29.5972 9.63721C30.3668 11.5056 30.7594 13.5073 30.7525 15.5275C30.7525 19.5986 29.1325 23.503 26.2489 26.3817C23.3653 29.2604 19.4543 30.8776 15.3763 30.8776C13.357 30.8776 11.3576 30.4806 9.49203 29.7091C7.6265 28.9377 5.93144 27.8071 4.50362 26.3817C1.62002 23.503 2.2467e-05 19.5986 2.2467e-05 15.5275C-0.00343217 13.5083 0.391546 11.5081 1.16241 9.64128C1.93327 7.77443 3.06491 6.07742 4.49273 4.64716C5.92054 3.2169 7.61657 2.0814 9.48397 1.30549C11.3514 0.529577 13.3536 0.128443 15.3763 0.125Z" fill="#F37021"/>
<path fill-rule="evenodd" clip-rule="evenodd" d="M13.3176 16.0684L13.9069 14.6789H12.2698L13.3176 16.0684ZM13.0556 13.2263L13.9724 14.6789L14.6273 13.2263H13.0556ZM13.0556 13.2263L13.9724 11.4579H12.0079L13.0556 13.2263ZM8.07879 11.3947L10.0433 15.0579L12.0079 11.3947H8.07879ZM10.0433 15.121L7.94782 18.9736H12.0734L11.0911 17.142L10.0433 15.121ZM11.0256 13.2263L12.0079 15.3105L12.2698 14.7421L12.9901 13.2895H11.0256V13.2263ZM12.0079 15.2473L11.0911 17.0789H12.8592L12.0079 15.2473ZM13.3176 16.0684L12.8592 17.0789H14.0379L13.3176 16.0684ZM12.0734 18.9736H13.776L12.9901 17.142L12.1388 18.9736H12.0734ZM13.9069 22.3841L12.0734 18.9736L10.5672 22.3841H13.9069ZM15.4131 18.9736L15.1511 18.5946L14.0379 17.0789H16.7882L15.4131 18.9736ZM10.3053 8.61584L13.1211 5.07905H8.20976L10.3053 8.61584ZM13.514 8.61584H10.3708L12.0734 11.4579L13.5795 8.61584H13.514ZM8.07879 11.3947L10.3053 8.55268H6.57264L8.07879 11.3947ZM8.07879 11.3947H2.25065L5.13198 15.121L8.07879 11.3947ZM7.94782 18.9736L6.11425 22.3841H10.5672L7.94782 18.9736ZM2.0542 18.9736H7.94782L5.06649 15.1842L2.0542 18.9736ZM9.323 25.163H12.6627L10.5672 22.3841L9.25751 25.163H9.323ZM17.4431 16.0684L16.8537 14.6789H18.4908L17.4431 16.0684ZM17.705 13.2263L16.7882 14.6789L16.1334 13.2263H17.705ZM17.705 13.2263L16.7882 11.4579H18.7528L17.705 13.2263ZM22.7473 11.3947L20.8483 15.0579L18.8838 11.3947H22.7473ZM20.8483 15.121L22.9438 18.9736H18.7659L19.7482 17.142L20.7959 15.121H20.8483ZM19.8005 13.2263L18.8183 15.3105L18.5563 14.7421L17.836 13.2895H19.8005V13.2263ZM18.8183 15.2473L19.7351 17.0789H17.9015L18.8183 15.2473ZM17.5086 16.0684L17.967 17.0789H16.7882L17.5086 16.0684ZM18.8183 18.9736H17.0502L17.9015 17.142L18.8183 18.9736ZM16.9847 22.3841L18.8183 18.9736L20.3244 22.3841H16.9847ZM15.4786 13.2263H16.2644L15.4786 11.4579L14.6927 13.2263H15.4786ZM15.4786 17.0789L15.6095 16.8136L16.8537 14.7294H13.9724L15.4131 17.1294L15.4786 17.0789ZM15.4786 22.3841L17.1157 18.9736H13.9069L15.1511 21.6262L15.4786 22.3841ZM20.5864 8.61584L17.7705 5.07905H22.6819L20.5864 8.61584ZM17.3776 8.61584H20.5864L18.8838 11.4579L17.3907 8.61584H17.3776ZM22.8128 11.3947L20.5864 8.55268H24.2535L22.8128 11.3947ZM22.8128 11.3947H28.5755L25.7596 15.121L22.8128 11.3947ZM22.8128 18.9736L24.6464 22.3841H20.1934L22.8128 18.9736ZM28.7065 18.9736H22.8128L25.6942 15.1842L28.7065 18.9736ZM21.5031 25.163H18.2289L20.3244 22.3841L21.5031 25.163ZM15.4131 5.07905H17.7705L15.4786 2.17383L13.1866 5.07905H15.4131ZM15.4131 8.61584H17.3121L15.4131 5.07905L13.514 8.61584H15.4131ZM15.4131 11.3947H16.9192L16.0679 9.68951L15.4786 8.55268L14.0379 11.3947H15.4131ZM15.4131 25.163L15.806 24.4682L16.9192 22.3841H13.9069L15.4131 25.163ZM15.4131 28.8261L18.2289 25.2261H12.8592L15.4131 28.8261Z" fill="white"/>
<path fill-rule="evenodd" clip-rule="evenodd" d="M45.342 3.67969H42.8104C42.4184 3.67967 42.0422 3.8265 41.7638 4.08821C41.4853 4.34992 41.3271 4.70534 41.3236 5.07713V18.5434H43.8686C44.2583 18.5401 44.631 18.3918 44.9066 18.1305C45.1822 17.8691 45.3385 17.5156 45.342 17.146V3.67969ZM49.6284 3.67969H58.2681V6.14427C58.2777 6.32186 58.2479 6.49937 58.1806 6.66534C58.1134 6.83132 58.0101 6.98205 57.8775 7.10778C57.7449 7.23351 57.586 7.33145 57.411 7.39526C57.236 7.45907 57.0489 7.48733 56.8616 7.4782H52.2538V9.38381H57.2769V11.8611C57.2865 12.0387 57.2567 12.2162 57.1894 12.3822C57.1221 12.5481 57.0189 12.6989 56.8863 12.8246C56.7537 12.9503 56.5948 13.0483 56.4198 13.1121C56.2448 13.1759 56.0576 13.2042 55.8704 13.195H52.2538V17.1333C52.2503 17.3118 52.2098 17.4879 52.1345 17.6516C52.0592 17.8152 51.9507 17.9632 51.8151 18.0871C51.6795 18.211 51.5196 18.3083 51.3443 18.3735C51.1691 18.4388 50.982 18.4706 50.7937 18.4672H48.1148V5.01361C48.1322 4.64515 48.3025 4.29815 48.5885 4.04827C48.8746 3.79839 49.2532 3.66591 49.6418 3.67969H49.6284ZM38.5106 3.67969H35.9656C35.5759 3.683 35.2032 3.8313 34.9276 4.09265C34.652 4.35401 34.4957 4.70753 34.4922 5.07713V18.5434H37.0372C37.4269 18.5401 37.7997 18.3918 38.0752 18.1305C38.3508 17.8691 38.5072 17.5156 38.5106 17.146V3.67969ZM64.5637 3.67969H61.9651C61.5964 3.67824 61.2406 3.80791 60.9678 4.0431C60.6951 4.27828 60.5251 4.60191 60.4916 4.95009V18.4164H67.9928C68.1785 18.4323 68.3658 18.4113 68.5424 18.3546C68.7191 18.2979 68.8814 18.2069 69.0189 18.0873C69.1563 17.9677 69.2659 17.8222 69.3406 17.6601C69.4153 17.498 69.4536 17.3229 69.4528 17.146V14.6687H64.5101L64.5771 3.67969H64.5637Z" fill="#242056"/>
<path fill-rule="evenodd" clip-rule="evenodd" d="M40.731 20.959H42.9412C43.0102 20.9647 43.0749 20.9933 43.1239 21.0398C43.1729 21.0862 43.203 21.1476 43.2091 21.2131V21.7848C43.2058 21.8511 43.1765 21.914 43.127 21.961C43.0774 22.008 43.0112 22.0357 42.9412 22.0388H40.9989C40.9158 22.0353 40.8345 22.0624 40.772 22.1145C40.7096 22.1666 40.6709 22.2397 40.664 22.3183V23.3728H42.9412C43.0102 23.3785 43.0749 23.4071 43.1239 23.4536C43.1729 23.5 43.203 23.5614 43.2091 23.6268V24.1985C43.2058 24.2649 43.1765 24.3278 43.127 24.3747C43.0774 24.4217 43.0112 24.4495 42.9412 24.4526H40.664V25.4689C40.6604 25.5083 40.6652 25.548 40.6782 25.5856C40.6912 25.6232 40.7121 25.6579 40.7396 25.6876C40.7672 25.7173 40.8008 25.7414 40.8385 25.7584C40.8761 25.7754 40.917 25.785 40.9587 25.7865H42.9412C43.0102 25.7923 43.0749 25.8209 43.1239 25.8673C43.1729 25.9138 43.203 25.9752 43.2091 26.0406V26.6123C43.2058 26.6787 43.1765 26.7415 43.127 26.7885C43.0774 26.8355 43.0112 26.8633 42.9412 26.8664H40.664C40.5057 26.8664 40.349 26.8368 40.2027 26.7793C40.0564 26.7219 39.9235 26.6377 39.8116 26.5315C39.6996 26.4253 39.6108 26.2993 39.5503 26.1606C39.4897 26.0218 39.4585 25.8732 39.4585 25.723V22.0388C39.505 21.7465 39.6575 21.4788 39.8898 21.2817C40.1221 21.0846 40.4196 20.9705 40.731 20.959Z" fill="#242056"/>
<path fill-rule="evenodd" clip-rule="evenodd" d="M69.1286 20.9593H71.3388C71.4088 20.9624 71.475 20.9902 71.5246 21.0371C71.5741 21.0841 71.6034 21.147 71.6067 21.2134V21.7851C71.6067 21.8524 71.5784 21.9171 71.5282 21.9647C71.4779 22.0124 71.4098 22.0391 71.3388 22.0391H69.4501C69.367 22.0356 69.2857 22.0627 69.2232 22.1148C69.1608 22.167 69.1221 22.24 69.1152 22.3186V23.3731H71.3923C71.4623 23.3762 71.5286 23.4039 71.5781 23.4509C71.6277 23.4979 71.657 23.5608 71.6602 23.6271V24.1988C71.6602 24.2662 71.632 24.3309 71.5818 24.3785C71.5315 24.4262 71.4634 24.4529 71.3923 24.4529H69.1152V25.4692C69.1134 25.5093 69.12 25.5493 69.1345 25.5869C69.149 25.6246 69.1712 25.6591 69.1998 25.6886C69.2284 25.7181 69.2629 25.742 69.3012 25.7588C69.3396 25.7757 69.3811 25.7852 69.4233 25.7868H71.3923C71.4623 25.7899 71.5286 25.8177 71.5781 25.8647C71.6277 25.9117 71.657 25.9745 71.6602 26.0409V26.6126C71.6602 26.68 71.632 26.7446 71.5818 26.7923C71.5315 26.8399 71.4634 26.8667 71.3923 26.8667H69.1152C68.9569 26.8667 68.8001 26.8371 68.6539 26.7797C68.5076 26.7222 68.3747 26.638 68.2628 26.5318C68.1508 26.4256 68.062 26.2996 68.0014 26.1609C67.9408 26.0222 67.9097 25.8735 67.9097 25.7233V22.0391C67.9236 21.7437 68.059 21.4652 68.2869 21.2634C68.5147 21.0615 68.8169 20.9524 69.1286 20.9593Z" fill="#242056"/>
<path fill-rule="evenodd" clip-rule="evenodd" d="M58.8848 21.2131V26.6123C58.888 26.6787 58.9173 26.7415 58.9668 26.7885C59.0164 26.8355 59.0827 26.8633 59.1527 26.8664H59.7554C59.8265 26.8664 59.8946 26.8396 59.9449 26.792C59.9951 26.7443 60.0233 26.6797 60.0233 26.6123V21.2131C60.0201 21.1467 59.9908 21.0838 59.9412 21.0368C59.8917 20.9898 59.8254 20.9621 59.7554 20.959H59.1527C59.0845 20.967 59.0212 20.9963 58.9727 21.0424C58.9241 21.0884 58.8932 21.1485 58.8848 21.2131Z" fill="#242056"/>
<path fill-rule="evenodd" clip-rule="evenodd" d="M53.9268 21.2112V26.6104C53.93 26.6768 53.9593 26.7396 54.0088 26.7866C54.0584 26.8336 54.1247 26.8614 54.1947 26.8645H54.7974C54.8674 26.8614 54.9337 26.8336 54.9832 26.7866C55.0328 26.7396 55.0621 26.6768 55.0653 26.6104V24.5142H55.6681L57.0076 26.6739C57.0505 26.7368 57.1104 26.7877 57.1811 26.8212C57.2517 26.8547 57.3306 26.8697 57.4094 26.8645H58.0792C58.3471 26.8645 58.3471 26.6739 58.2801 26.4833L56.9406 24.3236C57.2752 24.1845 57.5571 23.9519 57.7486 23.6567C57.9401 23.3616 58.032 23.0181 58.0122 22.6721C58.0019 22.2035 57.8011 21.7567 57.4516 21.4253C57.1021 21.0938 56.631 20.9033 56.1369 20.8936H54.1947C54.1272 20.9233 54.0679 20.9675 54.0214 21.0226C53.975 21.0777 53.9426 21.1422 53.9268 21.2112ZM55.0653 23.4344V22.0369H56.1369C56.3323 22.0369 56.5197 22.1105 56.6578 22.2416C56.796 22.3726 56.8736 22.5503 56.8736 22.7356C56.8736 22.921 56.796 23.0987 56.6578 23.2297C56.5197 23.3608 56.3323 23.4344 56.1369 23.4344H55.0653Z" fill="#242056"/>
<path fill-rule="evenodd" clip-rule="evenodd" d="M48.6377 21.2141V24.7077C48.6412 25.2627 48.8752 25.7939 49.2889 26.1863C49.7026 26.5787 50.2628 26.8006 50.8478 26.8039C51.4329 26.8006 51.9931 26.5787 52.4068 26.1863C52.8205 25.7939 53.0545 25.2627 53.058 24.7077V21.1506C53.052 21.0851 53.0218 21.0238 52.9728 20.9773C52.9238 20.9309 52.8591 20.9023 52.7901 20.8965H52.1873C52.1183 20.9023 52.0536 20.9309 52.0046 20.9773C51.9556 21.0238 51.9255 21.0851 51.9194 21.1506V24.6442C51.9127 24.8949 51.8046 25.1335 51.6177 25.3108C51.4307 25.4881 51.1791 25.5906 50.9148 25.597C50.6505 25.5906 50.3989 25.4881 50.212 25.3108C50.025 25.1335 49.917 24.8949 49.9102 24.6442V21.0871C49.9042 21.0216 49.874 20.9603 49.825 20.9138C49.776 20.8673 49.7113 20.8387 49.6423 20.833H49.0395C48.7716 20.96 48.6377 21.0871 48.6377 21.2141Z" fill="#242056"/>
<path fill-rule="evenodd" clip-rule="evenodd" d="M64.9127 20.959H61.0281C60.96 20.967 60.8967 20.9963 60.8482 21.0424C60.7996 21.0884 60.7687 21.1485 60.7603 21.2131V21.7848C60.7635 21.8511 60.7928 21.914 60.8423 21.961C60.8919 22.008 60.9581 22.0357 61.0281 22.0388H62.3676V26.6123C62.3709 26.6787 62.4002 26.7415 62.4497 26.7885C62.4993 26.8355 62.5655 26.8633 62.6355 26.8664H63.2383C63.3094 26.8664 63.3775 26.8396 63.4277 26.792C63.478 26.7443 63.5062 26.6797 63.5062 26.6123V22.0388H64.8457C64.9167 22.0388 64.9849 22.0121 65.0351 21.9644C65.0854 21.9168 65.1136 21.8521 65.1136 21.7848V21.2131C65.1136 21.086 65.0466 20.959 64.9127 20.959Z" fill="#242056"/>
<path fill-rule="evenodd" clip-rule="evenodd" d="M65.9209 21.2131V26.6123C65.9242 26.6787 65.9534 26.7415 66.003 26.7885C66.0525 26.8355 66.1188 26.8633 66.1888 26.8664H66.7782C66.8492 26.8664 66.9174 26.8396 66.9676 26.792C67.0178 26.7443 67.0461 26.6797 67.0461 26.6123V21.2131C67.0428 21.1467 67.0135 21.0838 66.964 21.0368C66.9144 20.9898 66.8482 20.9621 66.7782 20.959H66.1754C66.1097 20.9695 66.0494 21 66.0035 21.0458C65.9576 21.0916 65.9287 21.1503 65.9209 21.2131Z" fill="#242056"/>
<path fill-rule="evenodd" clip-rule="evenodd" d="M47.4911 20.9594H46.2186C46.0156 20.9555 45.813 20.9768 45.6159 21.023L45.0131 21.2135C44.8077 21.3299 44.6261 21.4805 44.4773 21.6582C44.302 21.8586 44.1864 22.0998 44.1424 22.3569C44.0315 22.6848 43.9861 23.0295 44.0085 23.3732V24.5166C44.0192 24.8586 44.0641 25.1989 44.1424 25.5329C44.2097 25.7827 44.3231 26.0193 44.4773 26.2316C44.6225 26.4125 44.8048 26.5638 45.0131 26.6763C45.198 26.7917 45.4016 26.8775 45.6159 26.9304C45.8149 26.9677 46.0196 26.9677 46.2186 26.9304H47.4911C47.5611 26.9273 47.6274 26.8995 47.677 26.8525C47.7265 26.8055 47.7558 26.7427 47.759 26.6763V26.1046C47.753 26.0391 47.7228 25.9778 47.6738 25.9313C47.6249 25.8848 47.5602 25.8562 47.4911 25.8505H46.2856C46.0966 25.8718 45.906 25.8266 45.7498 25.7235C45.6038 25.6276 45.488 25.4959 45.4149 25.3424C45.3089 25.0793 45.2633 24.7977 45.281 24.5166V23.3732C45.2486 23.1626 45.2486 22.9486 45.281 22.738C45.314 22.5471 45.4224 22.3753 45.584 22.2573C45.7457 22.1394 45.9486 22.0841 46.1517 22.1028H47.3572C47.4272 22.0997 47.4935 22.072 47.543 22.025C47.5926 21.978 47.6218 21.9151 47.6251 21.8487V21.3914C47.826 21.0865 47.6921 20.9594 47.4911 20.9594Z" fill="#242056"/>
<path fill-rule="evenodd" clip-rule="evenodd" d="M38.1927 20.959H36.6523C36.2491 20.9226 35.8437 20.9996 35.4864 21.1804C35.1291 21.3611 34.8358 21.6376 34.643 21.9753C34.4777 22.3164 34.4341 22.6993 34.5186 23.0661C34.6032 23.4328 34.8115 23.7634 35.1119 24.0079C35.3099 24.156 35.5378 24.2641 35.7816 24.3255L36.5183 24.5161C36.6602 24.5313 36.7971 24.5745 36.9202 24.6431C37.0178 24.6673 37.1091 24.7106 37.1881 24.7702C37.2508 24.8292 37.3007 24.8995 37.3347 24.9769C37.3687 25.0543 37.3862 25.1373 37.3862 25.2212C37.3862 25.305 37.3687 25.3881 37.3347 25.4655C37.3007 25.5429 37.2508 25.6131 37.1881 25.6722C36.9832 25.777 36.7499 25.8213 36.5183 25.7992H34.777C34.6989 25.8116 34.6285 25.8509 34.579 25.9095C34.5296 25.9681 34.5047 26.0419 34.5091 26.1168V26.6885C34.5091 26.8155 34.643 27.0061 34.777 27.0061H36.5183C36.7862 27.0061 37.0541 27.0061 37.322 27.0061C37.5949 26.9703 37.8508 26.8599 38.0587 26.6885C38.2846 26.5599 38.4517 26.3561 38.5275 26.1168C38.6601 25.8597 38.729 25.5773 38.729 25.2911C38.729 25.0048 38.6601 24.7224 38.5275 24.4653C38.4049 24.2705 38.246 24.0983 38.0587 23.9571C37.8543 23.8188 37.6283 23.7117 37.389 23.6395C36.9321 23.5479 36.4841 23.4204 36.0495 23.2584C35.9316 23.1424 35.8658 22.9876 35.8658 22.8265C35.8658 22.6654 35.9316 22.5105 36.0495 22.3945C36.208 22.2964 36.3967 22.2516 36.5853 22.2675H38.0587C38.1381 22.2579 38.2105 22.2194 38.2605 22.1602C38.3105 22.1009 38.3342 22.0255 38.3266 21.9499V21.3909C38.4606 21.086 38.3266 20.959 38.1927 20.959Z" fill="#242056"/>
<path fill-rule="evenodd" clip-rule="evenodd" d="M75.9721 20.959H74.4317C74.0285 20.9226 73.6231 20.9996 73.2658 21.1804C72.9085 21.3611 72.6152 21.6376 72.4224 21.9753C72.2549 22.316 72.21 22.6995 72.2947 23.0668C72.3794 23.434 72.589 23.7647 72.8912 24.0079C73.0893 24.156 73.3172 24.2641 73.561 24.3255L74.2977 24.5161C74.4386 24.5351 74.5748 24.5781 74.6996 24.6431C74.7972 24.6673 74.8885 24.7106 74.9675 24.7702C75.091 24.8911 75.1601 25.0528 75.1601 25.2212C75.1601 25.3895 75.091 25.5513 74.9675 25.6722C74.762 25.7756 74.5292 25.8197 74.2977 25.7992H72.5564C72.5163 25.8023 72.4774 25.8131 72.4419 25.831C72.4065 25.8489 72.3753 25.8734 72.3502 25.9032C72.3251 25.9329 72.3067 25.9672 72.2961 26.004C72.2854 26.0407 72.2829 26.0791 72.2885 26.1168V26.6885C72.2885 26.8155 72.4224 27.0061 72.5564 27.0061H74.2977C74.5656 27.0061 74.8335 27.0061 75.1014 27.0061C75.3743 26.9703 75.6302 26.8599 75.8381 26.6885C76.0607 26.5564 76.2267 26.3539 76.3069 26.1168C76.5172 25.7639 76.5856 25.3507 76.4994 24.9536C76.4132 24.5566 76.1783 24.2026 75.8381 23.9571C75.6337 23.8188 75.4077 23.7117 75.1684 23.6395C74.6888 23.5513 74.2182 23.4238 73.7619 23.2584C73.7003 23.2027 73.6513 23.1356 73.6178 23.0614C73.5843 22.9871 73.567 22.9072 73.567 22.8265C73.567 22.7457 73.5843 22.6658 73.6178 22.5916C73.6513 22.5173 73.7003 22.4503 73.7619 22.3945C73.9191 22.2935 74.1089 22.2485 74.2977 22.2675H75.8381C75.9175 22.2579 75.9899 22.2194 76.0399 22.1602C76.0899 22.1009 76.1136 22.0255 76.106 21.9499V21.3909C76.3069 21.086 76.1462 20.959 75.9721 20.959Z" fill="#242056"/>
</svg>
