<svg width="142" height="128" viewBox="0 0 142 128" fill="none" xmlns="http://www.w3.org/2000/svg">
<rect x="0.5" y="0.5" width="141" height="127" rx="20.5" fill="white" stroke="#DFE2F0"/>
<g clip-path="url(#clip0_2039_1735)">
<path d="M87.5263 68.0464H87.2812V67.9072H87.9414V68.0464H87.6977V68.7405H87.5263V68.0464ZM88.8432 68.0825H88.8393L88.5964 68.7405H88.4852L88.2438 68.0825H88.2409V68.7405H88.0792V67.9075H88.3169L88.5409 68.4973L88.7641 67.9075H89.001V68.7405H88.8432V68.0825Z" fill="#E76F00"/>
<path d="M65.571 51.0102C65.571 51.0102 63.8647 52.0161 66.7853 52.3568C70.3236 52.766 72.1316 52.7074 76.0309 51.9591C76.0309 51.9591 77.0559 52.6108 78.4876 53.1753C69.747 56.9734 58.7056 52.9553 65.571 51.0102ZM64.503 46.0537C64.503 46.0537 62.5892 47.4901 65.5118 47.7966C69.2915 48.1919 72.2762 48.2243 77.441 47.216C77.441 47.216 78.1556 47.9503 79.2788 48.3519C68.7105 51.4852 56.9397 48.599 64.5027 46.054" fill="#5382A1"/>
<path d="M73.5086 37.646C75.6622 40.1601 72.9429 42.4224 72.9429 42.4224C72.9429 42.4224 78.4114 39.56 75.9 35.9757C73.5544 32.633 71.7554 30.9722 81.4935 25.2461C81.4935 25.2461 66.208 29.1166 73.5086 37.6457" fill="#E76F00"/>
<path d="M85.0689 54.6755C85.0689 54.6755 86.3317 55.7306 83.6783 56.5464C78.633 58.0961 62.6794 58.5639 58.2476 56.6082C56.6544 55.9054 59.6421 54.9303 60.5817 54.7257C61.5619 54.5102 62.1218 54.5503 62.1218 54.5503C60.3502 53.2848 50.67 57.0349 57.2049 58.109C75.0262 61.0393 89.6913 56.7896 85.0687 54.6755M66.3932 40.9179C66.3932 40.9179 58.2781 42.8721 63.5195 43.5818C65.7325 43.8823 70.1442 43.8141 74.2533 43.4651C77.6117 43.1778 80.984 42.5674 80.984 42.5674C80.984 42.5674 79.7999 43.0815 78.9432 43.6745C70.7025 45.872 54.783 44.8497 59.3661 42.602C63.2419 40.7025 66.3934 40.9179 66.3934 40.9179M80.9507 49.168C89.3278 44.7544 85.4546 40.5129 82.751 41.0846C82.0885 41.2245 81.7929 41.3454 81.7929 41.3454C81.7929 41.3454 82.039 40.9546 82.5085 40.7857C87.8567 38.8793 91.97 46.4083 80.782 49.3906C80.782 49.3906 80.9119 49.2731 80.9505 49.168" fill="#5382A1"/>
<path d="M75.8994 16C75.8994 16 80.5387 20.7054 71.4991 27.941C64.2504 33.745 69.8463 37.0544 71.496 40.8356C67.265 36.9649 64.1598 33.5575 66.2429 30.3865C69.3007 25.7313 77.7713 23.4743 75.8994 16Z" fill="#E76F00"/>
<path d="M67.2148 61.1274C75.2557 61.6494 87.6034 60.8378 87.8958 56.9805C87.8958 56.9805 87.3339 58.4427 81.2505 59.6042C74.3875 60.9135 65.9229 60.7609 60.9023 59.9216C60.9023 59.9216 61.9302 60.7839 67.2148 61.1274Z" fill="#5382A1"/>
<path d="M65.8974 75.8682C65.1388 76.5352 64.3378 76.9099 63.6187 76.9099C62.5924 76.9099 62.038 76.2859 62.038 75.2853C62.038 74.2027 62.6323 73.4114 65.0154 73.4114H65.8971V75.8682M67.9904 78.2625V70.8508C67.9904 68.9574 66.9253 67.708 64.3573 67.708C62.8581 67.708 61.5451 68.0832 60.4776 68.5619L60.7857 69.8739C61.626 69.5612 62.7138 69.27 63.7815 69.27C65.2607 69.27 65.8971 69.8739 65.8971 71.1225V72.0593H65.1589C61.5648 72.0593 59.9435 73.4737 59.9435 75.5968C59.9435 77.4292 61.012 78.4708 63.0237 78.4708C64.3169 78.4708 65.282 77.9296 66.1844 77.1372L66.3482 78.2622H67.9904V78.2625ZM74.9755 78.2625H72.3651L69.2234 67.896H71.5034L73.4529 74.2653L73.8862 76.1809C74.8724 73.4114 75.5701 70.6015 75.919 67.896H78.1367C77.5424 71.3094 76.4732 75.0563 74.976 78.2625M84.9904 75.8682C84.2305 76.5352 83.4279 76.9099 82.7089 76.9099C81.6844 76.9099 81.1286 76.2859 81.1286 75.2853C81.1286 74.2027 81.724 73.4114 84.107 73.4114H84.9904V75.8682ZM87.0831 78.2625V70.8508C87.0831 68.9574 86.0154 67.708 83.4503 67.708C81.9503 67.708 80.6365 68.0832 79.5695 68.5619L79.8773 69.8739C80.718 69.5612 81.8078 69.27 82.8747 69.27C84.3529 69.27 84.9904 69.8739 84.9904 71.1225V72.0593H84.2508C80.6557 72.0593 79.0349 73.4737 79.0349 75.5968C79.0349 77.4292 80.1026 78.4708 82.1138 78.4708C83.4078 78.4708 84.3727 77.9296 85.2766 77.1372L85.4409 78.2622H87.0831V78.2625ZM57.6487 80.0228C57.0521 80.906 56.0883 81.6049 55.0333 82.0002L54 80.7671C54.8031 80.3494 55.4919 79.6746 55.8117 79.0462C56.0885 78.4872 56.2031 77.7669 56.2031 76.0441V64.209H58.4268V75.882C58.4268 78.1851 58.2451 79.1153 57.6487 80.0228Z" fill="#E76F00"/>
</g>
<path d="M57.1094 107.782C56.8587 107.782 56.64 107.766 56.4531 107.734C56.2617 107.707 56.0977 107.668 55.9609 107.618V106.244C56.1068 106.281 56.264 106.312 56.4326 106.34C56.6012 106.367 56.7812 106.381 56.9727 106.381C57.2233 106.381 57.4512 106.333 57.6562 106.237C57.8613 106.142 58.0231 105.968 58.1416 105.718C58.2646 105.467 58.3262 105.114 58.3262 104.658V95.0059H59.9668V104.604C59.9668 105.346 59.8483 105.95 59.6113 106.415C59.3743 106.884 59.0417 107.229 58.6133 107.447C58.1849 107.671 57.6836 107.782 57.1094 107.782ZM65.3535 97.2891C66.3105 97.2891 67.0329 97.501 67.5205 97.9248C68.0127 98.3486 68.2588 99.0094 68.2588 99.9072V105H67.1172L66.8096 103.927H66.7549C66.5407 104.2 66.3197 104.426 66.0918 104.604C65.8639 104.781 65.5996 104.913 65.2988 105C65.0026 105.091 64.6403 105.137 64.2119 105.137C63.7607 105.137 63.3574 105.055 63.002 104.891C62.6465 104.722 62.3662 104.467 62.1611 104.125C61.9561 103.783 61.8535 103.35 61.8535 102.826C61.8535 102.047 62.1429 101.461 62.7217 101.069C63.305 100.677 64.1846 100.461 65.3604 100.42L66.6729 100.372V99.9756C66.6729 99.4515 66.5498 99.0778 66.3037 98.8545C66.0622 98.6312 65.7204 98.5195 65.2783 98.5195C64.9001 98.5195 64.5332 98.5742 64.1777 98.6836C63.8223 98.793 63.4759 98.9274 63.1387 99.0869L62.6191 97.9521C62.9883 97.7562 63.4076 97.5967 63.877 97.4736C64.3509 97.3506 64.8431 97.2891 65.3535 97.2891ZM66.666 101.384L65.6885 101.418C64.8864 101.445 64.3236 101.582 64 101.828C63.6764 102.074 63.5146 102.411 63.5146 102.84C63.5146 103.214 63.6263 103.487 63.8496 103.66C64.0729 103.829 64.3669 103.913 64.7314 103.913C65.2874 103.913 65.7477 103.756 66.1123 103.441C66.4814 103.122 66.666 102.655 66.666 102.04V101.384ZM72.2373 105L69.3594 97.4326H71.0615L72.6201 101.876C72.7204 102.159 72.8115 102.464 72.8936 102.792C72.9756 103.12 73.0326 103.396 73.0645 103.619H73.1191C73.151 103.387 73.2126 103.109 73.3037 102.785C73.3949 102.457 73.4883 102.154 73.584 101.876L75.1426 97.4326H76.8379L73.96 105H72.2373ZM80.9531 97.2891C81.9102 97.2891 82.6325 97.501 83.1201 97.9248C83.6123 98.3486 83.8584 99.0094 83.8584 99.9072V105H82.7168L82.4092 103.927H82.3545C82.1403 104.2 81.9193 104.426 81.6914 104.604C81.4635 104.781 81.1992 104.913 80.8984 105C80.6022 105.091 80.2399 105.137 79.8115 105.137C79.3604 105.137 78.957 105.055 78.6016 104.891C78.2461 104.722 77.9658 104.467 77.7607 104.125C77.5557 103.783 77.4531 103.35 77.4531 102.826C77.4531 102.047 77.7425 101.461 78.3213 101.069C78.9046 100.677 79.7842 100.461 80.96 100.42L82.2725 100.372V99.9756C82.2725 99.4515 82.1494 99.0778 81.9033 98.8545C81.6618 98.6312 81.32 98.5195 80.8779 98.5195C80.4997 98.5195 80.1328 98.5742 79.7773 98.6836C79.4219 98.793 79.0755 98.9274 78.7383 99.0869L78.2188 97.9521C78.5879 97.7562 79.0072 97.5967 79.4766 97.4736C79.9505 97.3506 80.4427 97.2891 80.9531 97.2891ZM82.2656 101.384L81.2881 101.418C80.486 101.445 79.9232 101.582 79.5996 101.828C79.276 102.074 79.1143 102.411 79.1143 102.84C79.1143 103.214 79.2259 103.487 79.4492 103.66C79.6725 103.829 79.9665 103.913 80.3311 103.913C80.887 103.913 81.3473 103.756 81.7119 103.441C82.0811 103.122 82.2656 102.655 82.2656 102.04V101.384Z" fill="#363636"/>
<defs>
<clipPath id="clip0_2039_1735">
<rect width="35" height="66" fill="white" transform="translate(54 16)"/>
</clipPath>
</defs>
</svg>
