<svg width="142" height="128" viewBox="0 0 142 128" fill="none" xmlns="http://www.w3.org/2000/svg">
<rect x="0.5" y="0.5" width="141" height="127" rx="20.5" fill="white" stroke="#DFE2F0"/>
<g clip-path="url(#clip0_2039_1728)">
<path d="M70.7026 23.9997C68.6404 24.0091 66.6722 24.1853 64.9397 24.4924C59.8364 25.3958 58.9095 27.2856 58.9095 30.7708V35.3742H70.9691V36.9081H54.3828C50.8777 36.9081 47.8084 39.0177 46.849 43.0316C45.7419 47.6324 45.6924 50.5026 46.849 55.3061C47.7067 58.882 49.7535 61.4297 53.2586 61.4297H57.4051V55.9118C57.4051 51.9252 60.8495 48.4092 64.9389 48.4092H76.9849C80.3378 48.4092 83.0151 45.6443 83.0151 42.272V30.7708C83.0151 27.4977 80.2575 25.0391 76.9849 24.4924C74.9133 24.1477 72.7639 23.9903 70.7026 23.9997ZM64.1803 27.7013C65.4267 27.7013 66.4433 28.7373 66.4433 30.0094C66.4433 31.2815 65.4258 32.3039 64.1803 32.3039C62.9348 32.3039 61.9174 31.2781 61.9174 30.0094C61.9174 28.7408 62.9305 27.7013 64.1803 27.7013Z" fill="url(#paint0_linear_2039_1728)"/>
<path d="M84.5201 36.9082V42.2712C84.5201 46.4289 80.9997 49.9287 76.9864 49.9287H64.9404C61.6404 49.9287 58.9102 52.7569 58.9102 56.0659V67.5662C58.9102 70.8393 61.7523 72.765 64.9404 73.7034C68.7581 74.8275 72.4186 75.0312 76.9864 73.7034C80.0224 72.8231 83.0166 71.0514 83.0166 67.5662V62.9637H70.9706V61.4298H89.0468C92.5519 61.4298 93.858 58.9814 95.0771 55.3063C96.3363 51.5233 96.2833 47.8849 95.0771 43.0318C94.2109 39.538 92.5561 36.9082 89.0468 36.9082H84.521H84.5201ZM77.7449 66.0323C78.9947 66.0323 80.0079 67.058 80.0079 68.3267C80.0079 69.5954 78.9947 70.6348 77.7449 70.6348C76.4952 70.6348 75.482 69.5988 75.482 68.3267C75.482 67.0546 76.4994 66.0323 77.7449 66.0323Z" fill="url(#paint1_linear_2039_1728)"/>
</g>
<path d="M51.2236 95.0059C52.5133 95.0059 53.4544 95.2702 54.0469 95.7988C54.6393 96.3275 54.9355 97.068 54.9355 98.0205C54.9355 98.4535 54.8672 98.8659 54.7305 99.2578C54.5983 99.6452 54.3796 99.9893 54.0742 100.29C53.7689 100.586 53.3656 100.821 52.8643 100.994C52.3675 101.167 51.7546 101.254 51.0254 101.254H49.959V105H48.3184V95.0059H51.2236ZM51.1143 96.3662H49.959V99.8867H50.8545C51.3695 99.8867 51.807 99.8275 52.167 99.709C52.527 99.5859 52.8005 99.3923 52.9873 99.1279C53.1742 98.8636 53.2676 98.515 53.2676 98.082C53.2676 97.5033 53.0921 97.0726 52.7412 96.79C52.3949 96.5075 51.8525 96.3662 51.1143 96.3662ZM55.626 97.4326H57.376L58.9277 101.753C58.9961 101.949 59.0576 102.143 59.1123 102.334C59.1715 102.521 59.2217 102.705 59.2627 102.888C59.3083 103.07 59.3447 103.252 59.3721 103.435H59.4131C59.4587 103.198 59.5225 102.933 59.6045 102.642C59.6911 102.345 59.7868 102.049 59.8916 101.753L61.3818 97.4326H63.1113L59.8643 106.039C59.6774 106.531 59.4473 106.951 59.1738 107.297C58.9049 107.648 58.5859 107.912 58.2168 108.09C57.8477 108.272 57.4261 108.363 56.9521 108.363C56.7243 108.363 56.526 108.35 56.3574 108.322C56.1888 108.299 56.0452 108.274 55.9268 108.247V106.962C56.0225 106.985 56.1432 107.005 56.2891 107.023C56.4349 107.042 56.5853 107.051 56.7402 107.051C57.0273 107.051 57.2757 106.994 57.4854 106.88C57.695 106.766 57.8727 106.604 58.0186 106.395C58.1644 106.189 58.2852 105.955 58.3809 105.69L58.6475 104.979L55.626 97.4326ZM67.0762 103.838C67.2858 103.838 67.4932 103.82 67.6982 103.783C67.9033 103.742 68.0902 103.694 68.2588 103.64V104.856C68.0811 104.934 67.8509 105 67.5684 105.055C67.2858 105.109 66.9919 105.137 66.6865 105.137C66.2581 105.137 65.873 105.066 65.5312 104.925C65.1895 104.779 64.9183 104.531 64.7178 104.18C64.5173 103.829 64.417 103.343 64.417 102.724V98.6562H63.3848V97.9385L64.4922 97.3711L65.0186 95.751H66.0303V97.4326H68.1973V98.6562H66.0303V102.703C66.0303 103.086 66.126 103.371 66.3174 103.558C66.5088 103.744 66.7617 103.838 67.0762 103.838ZM71.4033 94.3633V97.0361C71.4033 97.3141 71.3942 97.5853 71.376 97.8496C71.3623 98.1139 71.3464 98.319 71.3281 98.4648H71.417C71.5765 98.2005 71.7725 97.984 72.0049 97.8154C72.2373 97.6423 72.4971 97.5124 72.7842 97.4258C73.0758 97.3392 73.3857 97.2959 73.7139 97.2959C74.2926 97.2959 74.7848 97.3939 75.1904 97.5898C75.596 97.7812 75.9059 98.0798 76.1201 98.4854C76.3389 98.891 76.4482 99.4173 76.4482 100.064V105H74.8418V100.365C74.8418 99.7773 74.721 99.3376 74.4795 99.0459C74.238 98.7497 73.8643 98.6016 73.3584 98.6016C72.8708 98.6016 72.4834 98.7041 72.1963 98.9092C71.9137 99.1097 71.7109 99.4082 71.5879 99.8047C71.4648 100.197 71.4033 100.675 71.4033 101.24V105H69.7969V94.3633H71.4033ZM85.3965 101.199C85.3965 101.828 85.3145 102.386 85.1504 102.874C84.9863 103.362 84.7471 103.774 84.4326 104.111C84.1182 104.444 83.7399 104.699 83.2979 104.877C82.8558 105.05 82.3568 105.137 81.8008 105.137C81.2812 105.137 80.805 105.05 80.3721 104.877C79.9391 104.699 79.5632 104.444 79.2441 104.111C78.9297 103.774 78.6859 103.362 78.5127 102.874C78.3395 102.386 78.2529 101.828 78.2529 101.199C78.2529 100.365 78.3965 99.6589 78.6836 99.0801C78.9753 98.4967 79.39 98.0524 79.9277 97.7471C80.4655 97.4417 81.1058 97.2891 81.8486 97.2891C82.5459 97.2891 83.1611 97.4417 83.6943 97.7471C84.2275 98.0524 84.6445 98.4967 84.9453 99.0801C85.2461 99.6634 85.3965 100.37 85.3965 101.199ZM79.9072 101.199C79.9072 101.751 79.9733 102.222 80.1055 102.614C80.2422 103.006 80.4518 103.307 80.7344 103.517C81.0169 103.722 81.3815 103.824 81.8281 103.824C82.2747 103.824 82.6393 103.722 82.9219 103.517C83.2044 103.307 83.4118 103.006 83.5439 102.614C83.6761 102.222 83.7422 101.751 83.7422 101.199C83.7422 100.648 83.6761 100.181 83.5439 99.7979C83.4118 99.4105 83.2044 99.1165 82.9219 98.916C82.6393 98.7109 82.2725 98.6084 81.8213 98.6084C81.1559 98.6084 80.6706 98.8317 80.3652 99.2783C80.0599 99.7249 79.9072 100.365 79.9072 101.199ZM91.1865 97.2891C92.0387 97.2891 92.7018 97.5101 93.1758 97.9521C93.6543 98.3896 93.8936 99.0938 93.8936 100.064V105H92.2871V100.365C92.2871 99.7773 92.1663 99.3376 91.9248 99.0459C91.6833 98.7497 91.3096 98.6016 90.8037 98.6016C90.07 98.6016 89.5596 98.8271 89.2725 99.2783C88.9899 99.7295 88.8486 100.383 88.8486 101.24V105H87.2422V97.4326H88.4932L88.7188 98.458H88.8076C88.9717 98.1937 89.1745 97.9772 89.416 97.8086C89.6621 97.6354 89.9355 97.5055 90.2363 97.4189C90.5417 97.3324 90.8584 97.2891 91.1865 97.2891Z" fill="#363636"/>
<defs>
<linearGradient id="paint0_linear_2039_1728" x1="45.015" y1="25.4271" x2="72.8515" y2="49.1007" gradientUnits="userSpaceOnUse">
<stop stop-color="#5A9FD4"/>
<stop offset="1" stop-color="#306998"/>
</linearGradient>
<linearGradient id="paint1_linear_2039_1728" x1="83.2306" y1="63.9364" x2="73.235" y2="49.956" gradientUnits="userSpaceOnUse">
<stop stop-color="#FFD43B"/>
<stop offset="1" stop-color="#FFE873"/>
</linearGradient>
<clipPath id="clip0_2039_1728">
<rect width="50" height="50.625" fill="white" transform="translate(46 24)"/>
</clipPath>
</defs>
</svg>
