<svg width="50" height="50" viewBox="0 0 50 50" fill="none" xmlns="http://www.w3.org/2000/svg">
<g clip-path="url(#clip0_2039_1005)">
<path fill-rule="evenodd" clip-rule="evenodd" d="M10.7826 39.5273C17.9005 48.2715 30.6834 49.6515 39.3339 42.6098C47.9845 35.568 49.227 22.771 42.1091 14.0269C41.4267 13.1886 40.6923 12.418 39.9144 11.716L8.96511 36.9094C9.49465 37.8135 10.1002 38.689 10.7826 39.5273Z" fill="#FF9761"/>
<path fill-rule="evenodd" clip-rule="evenodd" d="M35.9727 9.8075C35.6058 10.104 35.0831 10.1012 34.7035 9.82109C28.2345 5.04786 19.1242 5.0295 12.5791 10.3186C6.03404 15.6077 4.13971 24.5188 7.44873 31.8456C7.64292 32.2756 7.53598 32.7872 7.16904 33.0837L6.51135 33.6152C6.02552 34.0078 5.30093 33.8636 5.03475 33.2985C1.0234 24.7829 3.17194 14.3206 10.8193 8.14079C18.4666 1.961 29.1468 2.0564 36.6307 7.76584C37.1273 8.14471 37.1162 8.88342 36.6304 9.27602L35.9727 9.8075ZM40.153 11.1773L40.2891 11.3458C40.2666 11.3176 40.244 11.2894 40.2213 11.2613C40.1986 11.2332 40.1758 11.2052 40.153 11.1773Z" fill="#282828"/>
<path fill-rule="evenodd" clip-rule="evenodd" d="M41.0607 16.2098C40.6876 16.4986 40.57 17.0078 40.7551 17.4417C43.91 24.8362 41.8295 33.7058 35.175 38.8567C28.5205 44.0076 19.4126 43.7984 13.045 38.8907C12.6713 38.6027 12.1489 38.5889 11.7758 38.8777L11.1071 39.3952C10.6132 39.7776 10.5866 40.5159 11.0751 40.9051C18.4379 46.7701 29.1138 47.0892 36.8889 41.0709C44.664 35.0526 47.0312 24.6375 43.199 16.0397C42.9447 15.4692 42.2233 15.3099 41.7293 15.6922L41.0607 16.2098ZM7.48346 37.2375L7.63448 37.4326C7.60914 37.4002 7.58388 37.3678 7.55869 37.3352C7.5335 37.3027 7.50843 37.2701 7.48346 37.2375Z" fill="#282828"/>
<rect x="7.64209" y="36.0234" width="41.1876" height="3.04104" rx="1" transform="rotate(-39.1114 7.64209 36.0234)" fill="#282828"/>
</g>
<defs>
<clipPath id="clip0_2039_1005">
<rect width="50" height="50" fill="white"/>
</clipPath>
</defs>
</svg>
