<svg width="50" height="50" viewBox="0 0 50 50" fill="none" xmlns="http://www.w3.org/2000/svg">
<g clip-path="url(#clip0_2039_803)">
<path d="M5.39379 30.315C5.38558 30.0411 5.37736 29.7671 5.36914 29.4889C5.49241 28.9157 5.49241 28.3383 5.36914 27.7651C5.37736 27.4911 5.38558 27.2171 5.39379 26.9431C5.57869 26.7493 5.56637 26.4964 5.59513 26.2561C6.1375 22.2014 7.63725 18.5724 10.3203 15.5209C14.3429 10.9519 19.3763 8.7307 25.3958 8.80236C29.5664 8.85293 33.7369 8.815 37.9074 8.80236C38.1909 8.80236 38.6018 8.96252 38.7251 8.5874C38.8278 8.27128 38.5196 8.02682 38.3019 7.80343C37.7184 7.21335 37.1473 6.60641 36.5515 6.02897C34.4395 3.98898 34.8627 4.54112 36.4529 2.74981C36.9336 2.2103 37.2746 2.21452 37.7759 2.74138C39.7564 4.81931 41.778 6.8593 43.7749 8.92037C44.798 9.9783 44.8144 10.8508 43.7913 11.9045C42.1026 13.641 40.3851 15.348 38.6881 17.0804C36.9747 18.8295 36.9911 18.8211 35.4174 16.9708C35.0312 16.5156 35.0682 16.2079 35.4585 15.8201C36.3625 14.9139 37.2582 13.9993 38.1375 13.072C38.3594 12.8402 38.8031 12.6505 38.6306 12.2459C38.4621 11.8624 38.0225 12.0183 37.6979 12.0183C33.4575 12.0099 29.2212 12.0057 24.9809 12.0183C24.4097 12.0183 23.818 11.9424 23.2757 12.2248C23.1442 12.229 23.0127 12.2375 22.8812 12.2417C22.4744 12.09 22.0677 12.1953 21.6732 12.2881C16.8411 13.4092 13.1021 16.1067 10.6614 20.545C9.43694 22.7746 8.5864 25.1645 8.73021 27.803C8.73021 28.3509 8.73021 28.8989 8.73021 29.4468C8.5864 29.8219 8.64392 30.2139 8.69734 30.589C9.49857 36.3086 12.3419 40.6035 17.2808 43.4022C19.5982 44.7173 22.1416 45.1514 24.7466 45.379C25.9752 45.4844 26.419 46.0576 26.3491 47.1029C26.2834 48.0512 25.7328 48.4601 24.5248 48.4727C22.6306 48.4896 20.7939 48.1903 18.9942 47.5834C13.3938 45.6909 9.44105 41.9523 7.01269 36.4603C6.14161 34.4962 5.91151 32.3719 5.39379 30.315Z" fill="#282828"/>
<path d="M20.4075 28.1909C20.4075 25.8769 20.4116 23.5629 20.4075 21.249C20.4075 20.3765 20.4856 19.5672 21.3731 19.1205C22.1825 18.7116 22.766 19.1036 23.4152 19.5757C26.6859 21.9444 29.9935 24.2626 33.2683 26.6229C34.5462 27.5418 34.538 28.8695 33.256 29.8009C30.4784 31.8157 27.6761 33.8009 24.8903 35.8029C24.3315 36.2033 23.822 36.6754 23.2467 37.0421C21.7182 38.0157 20.4363 37.2992 20.4157 35.4447C20.387 33.0253 20.4075 30.606 20.4075 28.1909Z" fill="#FF9761"/>
<path d="M23.2764 12.2254C23.8188 11.9473 24.4146 12.0231 24.9816 12.0189C29.222 12.0063 33.4583 12.0063 37.6986 12.0189C38.0232 12.0189 38.4629 11.8587 38.6313 12.2465C38.8039 12.6511 38.3602 12.8408 38.1383 13.0726C37.259 14.0041 36.3632 14.9187 35.4593 15.8207C35.0689 16.2085 35.0361 16.5204 35.4182 16.9714C36.9919 18.8217 36.9714 18.8301 38.6889 17.081C40.3858 15.3529 42.1034 13.6458 43.7921 11.9051C44.8152 10.8514 44.7988 9.97891 43.7757 8.92098C41.7746 6.8599 39.7531 4.82412 37.7767 2.74198C37.2754 2.21512 36.9303 2.20669 36.4536 2.75041C34.8676 4.54173 34.4444 3.98958 36.5522 6.02958C37.148 6.60701 37.7192 7.20974 38.3026 7.80404C38.5204 8.02742 38.8286 8.27189 38.7259 8.588C38.6026 8.96312 38.1917 8.80296 37.9082 8.80296C33.7377 8.81139 29.5671 8.84932 25.3966 8.80296C19.3771 8.73131 14.3437 10.9483 10.3211 15.5215C7.63802 18.5688 6.13828 22.1978 5.5959 26.2567C5.56303 26.497 5.57947 26.7541 5.39457 26.9438C4.86863 25.6245 5.47264 24.398 5.79313 23.2009C6.82857 19.3443 8.84192 16.0778 11.7839 13.4309C14.1753 11.2771 16.9282 9.88618 20.0058 9.03899C23.1203 8.17916 26.2718 8.27189 29.4357 8.26767C31.901 8.26767 34.3622 8.26767 36.8275 8.26346C37.0864 8.26346 37.4357 8.38147 37.5795 8.09486C37.7685 7.72395 37.3864 7.54271 37.1891 7.33618C36.4249 6.53114 35.6606 5.7261 34.8594 4.96321C34.428 4.55016 34.4896 4.27619 34.8594 3.85049C36.292 2.22636 37.763 2.18843 39.2723 3.73669C40.8707 5.37627 42.4526 7.0285 44.0674 8.64701C45.0741 9.65858 45.5137 10.8472 44.0797 12.217C41.9267 14.2696 39.8846 16.4487 37.8219 18.6025C37.3329 19.1125 36.9631 19.201 36.4824 18.632C36.0797 18.1558 35.6442 17.7048 35.1758 17.2917C34.506 16.7058 34.4649 16.1916 35.1511 15.5678C36.1619 14.6448 37.1234 13.6585 38.1301 12.6764C37.6616 12.2592 37.3083 12.3898 36.9878 12.3898C32.7433 12.3814 28.5029 12.3898 24.2585 12.3814C23.9298 12.3814 23.5723 12.5036 23.2764 12.2296V12.2254Z" fill="white"/>
<path d="M5.39411 30.3155C5.90772 32.3682 6.14193 34.4967 7.01301 36.4608C9.44136 41.9528 13.3941 45.6914 18.9945 47.5838C20.7942 48.1908 22.635 48.49 24.5251 48.4732C25.7372 48.4648 26.2878 48.0559 26.3494 47.1034C26.4193 46.0581 25.9755 45.4891 24.747 45.3795C22.1419 45.1519 19.5985 44.7177 17.2811 43.4027C12.3422 40.604 9.503 36.3091 8.69765 30.5895C8.64424 30.2144 8.58671 29.8224 8.73052 29.4473C9.2277 29.7887 9.17428 30.3619 9.2277 30.8466C9.70844 35.2806 11.7958 38.779 15.1691 41.4807C17.9385 43.6977 21.1065 44.8737 24.6525 44.8905C25.8112 44.8948 26.8425 45.8558 26.8877 46.9095C26.9247 47.8283 25.7742 48.9579 24.6935 48.9916C23.0911 49.038 21.5626 48.6081 20.0094 48.2624C17.3592 47.6766 15.0294 46.4585 12.901 44.8189C9.57695 42.2605 7.26776 38.9391 6.0392 34.8423C5.63242 33.4809 5.19277 32.1321 5.24208 30.6864C5.24619 30.56 5.34069 30.4378 5.39 30.3155H5.39411Z" fill="white"/>
<path d="M31.6784 43.7948C32.7098 43.8243 33.4329 44.6462 33.3795 45.7336C33.3343 46.6862 32.5824 47.3395 31.5593 47.3142C30.6553 47.2931 29.8705 46.4544 29.887 45.5355C29.9034 44.5155 30.68 43.7653 31.6826 43.7948H31.6784Z" fill="#282828"/>
<path d="M42.9133 35.5458C42.9338 36.5363 42.1572 37.4383 41.2615 37.4594C40.3576 37.4805 39.5193 36.6881 39.4947 35.7861C39.47 34.7535 40.2836 33.8852 41.2738 33.8936C42.1737 33.8978 42.8886 34.6228 42.9092 35.5458H42.9133Z" fill="#282828"/>
<path d="M42.6037 30.3704C41.671 30.3662 40.9478 29.6791 40.9396 28.7856C40.9273 27.6644 41.6299 26.9184 42.6941 26.9268C43.635 26.931 44.4034 27.7108 44.387 28.6423C44.3664 29.6538 43.6268 30.3746 42.6037 30.3704Z" fill="#282828"/>
<path d="M39.0864 41.6958C39.0864 42.6273 38.3098 43.3944 37.3812 43.3818C36.469 43.3691 35.676 42.5093 35.6719 41.5357C35.6719 40.6421 36.3868 39.9593 37.3319 39.9551C38.3098 39.9509 39.0864 40.7222 39.0864 41.7001V41.6958Z" fill="#282828"/>
<path d="M8.73466 27.8077C8.59084 25.1692 9.43727 22.7794 10.6658 20.5497C13.1065 16.1072 16.8456 13.4139 21.6776 12.2928C22.0721 12.2001 22.4748 12.0947 22.8857 12.2464C22.709 12.6679 22.3351 12.7354 21.957 12.7691C19.2082 13.022 16.8949 14.3412 14.8364 16.0862C12.5436 18.025 10.8138 20.4233 9.85227 23.3653C9.4496 24.596 9.28525 25.8605 9.09624 27.1249C9.05515 27.3905 9.08802 27.7108 8.73466 27.8077Z" fill="white"/>
<path d="M5.36939 27.7656C5.49266 28.3388 5.49266 28.9163 5.36939 29.4895C4.87221 28.9163 4.87632 28.3388 5.36939 27.7656Z" fill="white"/>
</g>
<defs>
<clipPath id="clip0_2039_803">
<rect width="40" height="47" fill="white" transform="translate(5 2)"/>
</clipPath>
</defs>
</svg>
