<svg width="50" height="50" viewBox="0 0 50 50" fill="none" xmlns="http://www.w3.org/2000/svg">
<g clip-path="url(#clip0_2039_820)">
<circle cx="25.5" cy="27.5" r="10.5" fill="#FF9761"/>
<path d="M17.938 8.438C15.8844 9.07801 13.8383 9.73336 11.781 10.3465C11.1889 10.5228 11.3425 10.9751 11.3425 11.3506C11.3313 14.6044 11.3313 17.8619 11.335 21.1156C11.3388 24.4345 11.2826 27.7572 11.38 31.0723C11.4662 34.0117 12.849 36.3188 15.2436 37.9016C18.0055 39.7297 20.8423 41.4351 23.6304 43.2249C24.2262 43.6081 24.7022 43.6541 25.3205 43.2479C27.6664 41.7034 30.0423 40.2049 32.4069 38.6911C34.1045 37.7177 35.6447 36.5756 36.5478 34.7322C37.08 33.6477 37.5259 32.5439 37.5259 31.3022C37.5896 30.9228 37.6196 30.5472 37.6196 30.164C37.6158 25.5459 37.6196 20.924 37.6196 16.306C37.6196 16.1143 37.6271 15.9227 37.6121 15.7311C37.5821 15.2942 37.3947 15.0834 37.0462 15.4552C35.581 17.0111 33.9808 18.4291 32.6317 20.1115C31.3689 21.6867 29.8811 23.0548 28.4384 24.4613C27.5764 25.201 26.8382 26.071 26.025 26.8604C24.9645 27.8875 24.0538 27.9067 23.0083 26.8604C20.9097 24.7679 18.8561 22.6333 16.8625 20.4335C16.469 20.0004 16.454 19.667 16.8625 19.2109C18.4027 17.4902 18.3502 17.5208 20.089 19.1075C21.3482 20.2572 22.5099 21.495 23.7241 22.6869C24.4698 23.4228 24.5747 23.4304 25.313 22.6716C29.4352 18.4559 33.696 14.3821 37.762 10.1089C38.0655 9.78701 38.3691 9.48042 38.8225 9.36544C39.7332 9.1355 40.6026 9.6912 40.7674 10.6378C40.8274 10.9866 40.8012 11.3391 40.8012 11.6879C40.8012 17.9731 40.8574 24.2544 40.7862 30.5396C40.7337 35.0886 38.7101 38.5455 34.884 40.9101C32.0621 42.6538 29.2703 44.4397 26.4597 46.2027C25.2156 46.9845 23.9901 47.0956 22.7647 46.3406C19.6281 44.4053 16.4653 42.5082 13.4111 40.4425C10.0646 38.1776 8.43075 34.8587 8.22838 30.804C8.15343 29.2787 8.19466 27.7496 8.23963 26.2204C8.25087 20.9968 8.26211 15.7732 8.27335 10.5497C8.2771 8.31153 8.26211 8.2732 10.327 7.57954C13.3586 6.55628 16.4128 5.59434 19.4557 4.60558C20.6474 4.26066 21.8316 3.88509 22.9933 3.44819C24.14 3.01513 25.2043 3.17226 26.336 3.544C28.9293 4.39863 31.5487 5.16895 34.1644 5.95459C34.854 6.16154 35.0601 6.44897 34.854 7.18097C34.1157 9.81767 34.4605 9.33095 32.1183 8.66411C29.6975 7.97811 27.3029 7.1848 24.8895 6.46814C24.5785 6.37616 24.2899 6.42981 23.9826 6.52562C21.9665 7.14264 19.9616 7.79798 17.9493 8.42267L17.938 8.438Z" fill="#282828"/>
</g>
<defs>
<clipPath id="clip0_2039_820">
<rect width="33" height="44" fill="white" transform="translate(8 3)"/>
</clipPath>
</defs>
</svg>
