<svg width="50" height="50" viewBox="0 0 50 50" fill="none" xmlns="http://www.w3.org/2000/svg">
<g clip-path="url(#clip0_2039_1073)">
<path d="M3.43897 32.5733C3.46829 32.3776 3.49761 32.1854 3.52693 31.9897C3.72116 31.8011 3.86775 31.5909 3.79446 31.3008C3.8311 31.1703 3.86409 31.0398 3.90073 30.9057C4.04733 30.8477 4.10596 30.7462 4.05099 30.5939C4.30753 30.1987 4.56406 29.8036 4.81693 29.4084C5.09546 29.2815 5.29336 29.0894 5.31168 28.7667C5.57921 28.5129 5.84307 28.2628 6.10694 28.009C6.3195 28.0307 6.4441 27.9365 6.46975 27.7226C6.62368 27.6827 6.77027 27.6211 6.8399 27.4652C7.13675 27.3963 7.45558 27.3564 7.59485 27.0229C7.70845 26.9794 7.82206 26.9359 7.93201 26.8924C8.23252 26.9504 8.44874 26.8162 8.62099 26.5878C8.75659 26.5625 8.89218 26.5335 9.02778 26.5081C9.42358 26.577 9.76074 26.432 10.0832 26.2289C10.8345 26.2289 11.5895 26.2217 12.3408 26.2217C12.6669 26.4138 13.0077 26.5516 13.3999 26.4972C13.5355 26.5226 13.6711 26.548 13.8067 26.577C14.1402 26.925 14.5873 27.0084 15.0307 27.1026C15.9286 27.6827 16.7385 28.3679 17.4715 29.1401C17.4971 29.4664 17.7023 29.6622 17.9625 29.8253L18.0102 29.8724C18.0798 30.1661 18.1165 30.4815 18.4573 30.6193C18.5159 30.7897 18.5709 30.9564 18.6295 31.1268C18.5416 31.4277 18.7102 31.6271 18.9117 31.8156C18.9337 31.9498 18.9557 32.0875 18.9777 32.2217C18.9777 32.3667 18.9447 32.5262 18.9887 32.6603C19.9122 35.5752 17.9076 39.8531 14.415 41.296C13.0151 41.8761 11.5785 41.8833 10.1199 41.8869C9.92565 41.8616 9.72776 41.8362 9.53352 41.8108C9.04977 41.5063 8.51104 41.3576 7.94667 41.2924C7.84405 41.238 7.7451 41.1836 7.64249 41.1292C7.52888 40.9987 7.41161 40.8827 7.21371 40.9262C7.16607 40.8863 7.11476 40.8501 7.06712 40.8102C6.97916 40.6507 6.86555 40.5383 6.66032 40.5709C5.72947 39.7443 4.8206 38.8996 4.19758 37.8048C4.00701 37.2029 3.86409 36.583 3.50127 36.0428C3.47928 35.9087 3.46096 35.7709 3.43897 35.6368C3.43897 34.6181 3.43531 33.5993 3.43164 32.5806L3.43897 32.5733ZM7.19538 36.6773C7.16607 36.844 7.26135 36.9564 7.3603 37.0761C8.68695 38.6603 10.7869 39.3818 12.5863 38.7872C14.6752 38.0984 15.9506 36.6845 16.1815 34.473C16.3354 33.0011 15.5694 30.8839 14.0852 30.2023C12.3994 28.5999 9.22934 28.8863 7.58019 30.7534C5.92736 32.6277 6.00433 35.5534 7.19905 36.6773H7.19538Z" fill="#282828"/>
<path d="M28.9203 11.423C28.858 12.0828 28.8397 12.7499 28.7187 13.3989C28.5685 14.1928 28.8836 14.4357 29.6423 14.385C30.8113 14.3052 31.9694 14.4031 33.0065 15.0085C35.1211 16.2448 35.8211 18.9493 34.5238 21.0738C32.4128 24.5215 30.2689 27.9511 28.0884 31.359C26.4392 33.933 23.1849 33.8641 21.697 31.2611C21.1179 30.2496 21.4478 29.1366 21.4588 28.0635C21.4588 27.585 21.5394 27.0992 21.6567 26.6315C21.8069 26.0224 21.5431 25.9064 21.0007 25.9028C20.0918 25.8955 19.1903 25.9789 18.2851 25.678C15.4815 24.7463 14.2611 21.701 15.8077 19.1813C17.7757 15.9656 19.8316 12.8007 21.8289 9.60309C22.4263 8.64599 23.0566 7.78678 24.1487 7.2756C26.2706 6.27862 29.0815 8.22182 28.9313 10.5239C28.913 10.8248 28.902 11.1257 28.8873 11.4267C28.8983 11.4267 28.9093 11.4267 28.924 11.4267L28.9203 11.423ZM25.4607 7.49675C24.2184 7.42061 23.2985 7.92454 22.6388 8.96502C20.6379 12.1227 18.5966 15.2587 16.6286 18.4345C15.8113 19.7578 14.9794 21.0847 15.7197 22.8067C16.2804 24.1119 17.5814 25.5149 19.1793 25.388C19.8463 25.3372 20.5206 25.388 21.1912 25.3844C21.7556 25.3844 22.0268 25.6236 21.9975 26.2109C21.9535 27.1137 21.9975 28.0164 21.7776 28.9082C21.4294 30.3439 22.2284 32.0369 23.4561 32.5517C25.0356 33.2152 26.5968 32.8091 27.557 31.4605C27.9418 30.9203 28.2899 30.3511 28.6418 29.7892C30.3972 27.0194 32.0977 24.2134 33.9117 21.4798C35.6342 18.8877 34.7546 15.9439 32.0207 14.9723C31.0532 14.6279 30.093 14.8019 29.1292 14.7729C28.4952 14.7548 28.2606 14.5481 28.2753 13.9209C28.2936 13.0726 28.3962 12.2424 28.5868 11.4158C28.9972 9.60309 27.5387 7.20672 25.4534 7.4895L25.4607 7.49675Z" fill="white"/>
<path d="M10.1289 41.8801C11.5875 41.8728 13.0241 41.8656 14.424 41.2892C17.9166 39.8463 19.9212 35.5683 18.9977 32.6535C18.9537 32.5194 18.9904 32.3599 18.9867 32.2148C19.6757 32.813 19.6317 33.7339 19.8846 34.4843C21.1709 38.2837 18.8914 41.8765 15.2266 42.7864C13.5188 43.2106 11.6681 43.062 10.1289 41.8801Z" fill="#FF9761"/>
<path d="M47.1782 33.6572C47.9845 34.5599 48.0431 35.7128 47.9772 36.7823C47.717 40.9841 44.3453 43.4385 40.0869 42.8294C39.5371 42.7497 38.8811 42.6264 38.5 42.079C38.511 42.0065 38.522 41.9303 38.533 41.8578C39.3136 41.9195 40.0905 41.847 40.8638 41.7418C41.0837 41.8325 41.2303 41.7563 41.3109 41.5424C44.2427 40.8355 46.5882 38.0367 46.8447 34.9406C47.3835 34.6216 46.9473 34.056 47.1782 33.6572Z" fill="#FF9761"/>
<path d="M38.5335 41.8582C38.5225 41.9307 38.5115 42.0068 38.5005 42.0793C36.1111 41.7712 34.0881 40.8213 32.5892 38.8854C29.1883 34.4914 31.2882 28.0745 36.6645 26.4612C41.3884 25.0437 45.973 27.9839 46.8746 32.3452C46.9662 32.7875 47.0798 33.2225 47.1788 33.6612C46.9479 34.06 47.384 34.6255 46.8453 34.9446C46.8196 34.6183 46.7793 34.2884 46.7756 33.9621C46.7097 28.9591 41.9784 25.718 37.599 26.5301C34.7404 27.0594 31.7536 29.724 31.3615 33.0268C30.962 36.3984 32.5819 39.4582 35.675 40.9917C36.5875 41.4449 37.5917 41.5391 38.5335 41.8691V41.8582Z" fill="white"/>
<path d="M3.44024 32.5732C3.44024 33.592 3.44391 34.6107 3.44757 35.6294C2.85388 34.7992 2.85021 33.3962 3.44024 32.5732Z" fill="#FF9761"/>
<path d="M3.50881 36.0352C3.86796 36.5717 4.01455 37.1917 4.20512 37.7971C3.64441 37.3367 3.40253 36.753 3.50881 36.0352Z" fill="#FF9761"/>
<path d="M7.95508 41.2852C8.51946 41.3504 9.05818 41.4991 9.54193 41.8036C8.88227 42.0175 8.40951 41.6767 7.95508 41.2852Z" fill="#FF9761"/>
<path d="M15.0385 27.0988C14.5951 27.0046 14.1443 26.9212 13.8145 26.5731C14.3385 26.4861 14.7563 26.6384 15.0385 27.0988Z" fill="#FF9761"/>
<path d="M10.0945 26.2249C9.77202 26.428 9.43486 26.573 9.03906 26.5041C9.30293 26.0835 9.63642 25.9168 10.0945 26.2249Z" fill="#FF9761"/>
<path d="M13.4087 26.4942C13.0166 26.5522 12.6758 26.4108 12.3496 26.2187C12.804 25.925 13.1412 26.0773 13.4087 26.4942Z" fill="#FF9761"/>
<path d="M5.31564 28.7666C5.29732 29.0929 5.09942 29.2814 4.8209 29.4083C4.79891 29.053 4.91618 28.8029 5.31564 28.7666Z" fill="#FF9761"/>
<path d="M7.6026 27.023C7.46334 27.3602 7.1445 27.3964 6.84766 27.4653C6.93928 27.0484 7.23612 26.9795 7.6026 27.023Z" fill="#FF9761"/>
<path d="M18.4686 30.6121C18.1278 30.4743 18.0911 30.1589 18.0215 29.8652C18.4429 29.9559 18.5126 30.2495 18.4686 30.6121Z" fill="#FF9761"/>
<path d="M8.62843 26.5843C8.45619 26.8127 8.23997 26.9432 7.93945 26.8888C8.06772 26.5626 8.25096 26.3595 8.62843 26.5843Z" fill="#FF9761"/>
<path d="M18.9236 31.8089C18.7257 31.6204 18.5571 31.421 18.6414 31.1201C18.9529 31.2615 19.1325 31.4573 18.9236 31.8089Z" fill="#FF9761"/>
<path d="M3.7986 31.3008C3.8719 31.5944 3.72531 31.8011 3.53107 31.9896C3.30385 31.6379 3.48709 31.4458 3.7986 31.3008Z" fill="#FF9761"/>
<path d="M17.9735 29.818C17.7133 29.6585 17.5081 29.4591 17.4824 29.1328C17.9075 29.1799 18.0102 29.4482 17.9735 29.818Z" fill="#FF9761"/>
<path d="M6.47805 27.7227C6.4524 27.9366 6.32779 28.0272 6.11523 28.0091C6.11523 27.7625 6.23251 27.661 6.47805 27.7227Z" fill="#FF9761"/>
<path d="M4.05638 30.5976C4.11136 30.7499 4.05272 30.8514 3.90613 30.9094C3.86948 30.8478 3.78885 30.7789 3.79985 30.7282C3.8255 30.6085 3.92812 30.565 4.05272 30.6013L4.05638 30.5976Z" fill="#FF9761"/>
<path d="M6.66797 40.5635C6.8732 40.5272 6.98681 40.6396 7.07476 40.8027C6.83288 40.9042 6.6753 40.8571 6.66797 40.5635Z" fill="#FF9761"/>
<path d="M7.22266 40.9195C7.42056 40.876 7.53783 40.992 7.65144 41.1225C7.41323 41.2494 7.24465 41.2385 7.22266 40.9195Z" fill="#FF9761"/>
<path d="M14.0827 30.199C15.5669 30.8806 16.3329 33.0014 16.179 34.4697C15.9481 36.6812 14.6727 38.0915 12.5838 38.7839C10.7844 39.3785 8.68446 38.657 7.35781 37.0727C7.25886 36.9531 7.16357 36.8407 7.19289 36.6739C7.34681 35.9162 7.37246 35.1078 7.67298 34.4153C8.68446 32.0697 10.7624 30.0323 14.079 30.199H14.0827Z" fill="#FF9761"/>
<path d="M14.0829 30.1987C10.7662 30.0319 8.6883 32.0694 7.67681 34.415C7.3763 35.1111 7.35065 35.9196 7.19672 36.6736C6.002 35.5498 5.92504 32.6241 7.57786 30.7498C9.22702 28.8827 12.3934 28.5963 14.0829 30.1987Z" fill="#F8F8F9"/>
<path d="M25.4622 7.49652C27.5511 7.21374 29.0097 9.61012 28.5956 11.4228C28.4087 12.2494 28.306 13.0796 28.284 13.9279C28.2694 14.5551 28.5039 14.7618 29.1379 14.7799C30.1018 14.8089 31.062 14.6349 32.0295 14.9793C34.7634 15.9509 35.6393 18.8947 33.9205 21.4869C32.1064 24.2204 30.4023 27.0228 28.6505 29.7962C28.295 30.3582 27.9469 30.9237 27.5657 31.4675C26.6092 32.8162 25.0444 33.2258 23.4648 32.5588C22.2371 32.044 21.4382 30.3509 21.7864 28.9153C22.0026 28.0234 21.9586 27.1207 22.0063 26.218C22.0356 25.627 21.768 25.3878 21.2 25.3914C20.5293 25.3914 19.855 25.3443 19.188 25.395C17.5902 25.5183 16.2892 24.1189 15.7285 22.8137C14.9882 21.0881 15.8201 19.7612 16.6373 18.4415C18.6053 15.2621 20.6466 12.1298 22.6476 8.97205C23.3073 7.93157 24.2271 7.42764 25.4695 7.50377L25.4622 7.49652ZM21.9183 23.082C22.435 23.082 22.9554 23.082 23.4722 23.082C24.7732 23.082 24.9161 23.3104 24.7549 24.5757C24.5423 26.2107 24.4287 27.8603 24.2784 29.5026C24.2491 29.8216 24.3407 30.1044 24.6596 30.2603C25.0187 30.4379 25.2166 30.1696 25.4438 29.9739C25.869 29.6077 26.0595 29.0856 26.349 28.6325C28.2364 25.6597 30.1201 22.6832 31.9928 19.6995C32.6415 18.6663 32.1944 17.6222 31.0107 17.3467C30.0175 17.1146 29.006 17.2488 28.0055 17.2379C25.2569 17.2053 25.6637 17.4772 25.6344 14.8669C25.6197 13.5038 26.1475 12.2059 26.0265 10.8319C25.9862 10.3859 25.8396 10.0343 25.4475 9.90015C25.0517 9.76238 24.8648 10.1612 24.6999 10.4222C22.589 13.7539 20.5 17.0965 18.3964 20.4355C17.5755 21.737 18.2425 23.0023 19.8184 23.0784C20.5184 23.111 21.2183 23.0856 21.922 23.0856L21.9183 23.082Z" fill="#282828"/>
<path d="M38.5345 41.8579C37.5927 41.5317 36.5922 41.4338 35.676 40.9806C32.5829 39.4471 30.9631 36.3872 31.3625 33.0156C31.7547 29.7129 34.7415 27.0483 37.6 26.519C41.9794 25.7069 46.7107 28.948 46.7767 33.951C46.7803 34.2809 46.8243 34.6072 46.8463 34.9335C46.5898 38.0259 44.2406 40.8247 41.3125 41.5353C41.0779 41.4156 40.9386 41.499 40.8653 41.7347C40.0921 41.8398 39.3188 41.9123 38.5345 41.8507V41.8579ZM41.8182 30.1879C41.7229 30.0791 41.6423 29.9413 41.525 29.8688C39.2418 28.4694 36.1304 29.2416 34.7745 31.5437C33.7776 33.2368 33.7886 35.4845 35.02 36.7317C34.9834 36.9383 35.119 37.0652 35.2326 37.203C36.6508 38.9685 39.3848 39.4724 41.4151 38.3413C43.5553 37.1486 44.5375 34.5746 43.6506 32.3776C43.2804 31.4676 42.8773 30.5468 41.8182 30.1842V30.1879Z" fill="#282828"/>
<path d="M40.8652 41.7419C40.9385 41.5063 41.0778 41.4229 41.3123 41.5425C41.2317 41.7564 41.0851 41.8326 40.8652 41.7419Z" fill="white"/>
<path d="M21.9175 23.0787C21.2176 23.0787 20.5139 23.1041 19.8139 23.0715C18.2381 22.999 17.5711 21.7337 18.392 20.4286C20.4956 17.0932 22.5845 13.747 24.6955 10.4153C24.8604 10.1579 25.0436 9.75545 25.4431 9.89321C25.8352 10.031 25.9855 10.379 26.0221 10.8249C26.143 12.199 25.6116 13.4932 25.63 14.86C25.6593 17.4703 25.2525 17.1983 28.0011 17.231C29.0016 17.2419 30.0131 17.1077 31.0062 17.3397C32.1863 17.6153 32.6371 18.6594 31.9884 19.6926C30.1157 22.6763 28.2356 25.6527 26.3446 28.6255C26.0551 29.0787 25.8645 29.6008 25.4394 29.9669C25.2122 30.1663 25.0143 30.431 24.6551 30.2533C24.34 30.0974 24.2447 29.8147 24.274 29.4956C24.4243 27.8533 24.5379 26.2038 24.7504 24.5687C24.9153 23.3035 24.7687 23.0751 23.4677 23.0751C22.951 23.0751 22.4306 23.0751 21.9139 23.0751L21.9175 23.0787ZM21.7819 22.6255C22.4233 22.6292 23.0646 22.6219 23.7023 22.6328C24.7761 22.6545 25.2268 23.0823 25.1572 24.1301C25.0473 25.7542 24.8714 27.3712 24.7394 28.9953C24.7174 29.2709 24.5122 29.666 24.886 29.8038C25.3111 29.9561 25.4174 29.5065 25.5823 29.2419C27.587 26.0769 29.5916 22.9119 31.5816 19.7361C32.3439 18.5216 31.8198 17.5935 30.3759 17.5718C29.0639 17.5536 27.7519 17.5536 26.4399 17.5718C25.7472 17.5826 25.3111 17.2527 25.1865 16.6255C25.1059 16.2231 25.1865 15.7845 25.2305 15.3675C25.3734 13.8956 25.531 12.4274 25.6776 10.9591C25.6996 10.7488 25.7253 10.5059 25.4724 10.4153C25.2305 10.3283 25.0619 10.5095 24.9483 10.6835C24.5965 11.2129 24.2703 11.753 23.9295 12.2896C22.1741 15.0739 20.4003 17.8509 18.6669 20.6497C18.0182 21.6938 18.5313 22.5784 19.7736 22.6183C20.4443 22.64 21.1149 22.6219 21.7856 22.6219L21.7819 22.6255Z" fill="white"/>
<path d="M41.818 30.1882C42.8808 30.5507 43.2839 31.4715 43.6504 32.3815C44.5409 34.5749 43.5551 37.1525 41.4148 38.3453C39.3845 39.4764 36.6469 38.9724 35.2323 37.2069C35.1187 37.0655 34.9831 36.9386 35.0198 36.7356C35.1554 33.0159 37.9956 30.0178 41.818 30.1918V30.1882Z" fill="#FF9761"/>
<path d="M41.8179 30.1885C37.9992 30.0144 35.159 33.0126 35.0197 36.7323C33.7883 35.4851 33.7773 33.2374 34.7742 31.5443C36.1301 29.2422 39.2416 28.47 41.5247 29.8694C41.642 29.9419 41.7226 30.0797 41.8179 30.1885Z" fill="#F8F8F9"/>
<path d="M21.7827 22.6256C21.1121 22.6256 20.4414 22.6438 19.7708 22.622C18.5321 22.5785 18.0153 21.6975 18.664 20.6534C20.3975 17.8546 22.1712 15.0812 23.9267 12.2933C24.2638 11.7568 24.5936 11.213 24.9455 10.6873C25.0591 10.5133 25.2277 10.332 25.4695 10.419C25.7224 10.5096 25.6931 10.7525 25.6748 10.9628C25.5282 12.4311 25.3706 13.903 25.2277 15.3713C25.1873 15.7918 25.1031 16.2305 25.1837 16.6293C25.3119 17.2565 25.7481 17.5827 26.437 17.5755C27.749 17.5574 29.061 17.5574 30.373 17.5755C31.817 17.5972 32.341 18.5217 31.5787 19.7398C29.5924 22.9157 27.5841 26.0806 25.5795 29.2456C25.4146 29.5066 25.3083 29.9598 24.8832 29.8075C24.5094 29.6734 24.7146 29.2782 24.7366 28.9991C24.8685 27.3785 25.0444 25.758 25.1544 24.1338C25.224 23.0861 24.7732 22.6546 23.6994 22.6365C23.0581 22.6256 22.4168 22.6365 21.7791 22.6365L21.7827 22.6256Z" fill="#F8F8F9"/>
</g>
<defs>
<clipPath id="clip0_2039_1073">
<rect width="45" height="36" fill="white" transform="translate(3 7)"/>
</clipPath>
</defs>
</svg>
