<svg width="50" height="50" viewBox="0 0 50 50" fill="none" xmlns="http://www.w3.org/2000/svg">
<g clip-path="url(#clip0_2039_864)">
<path d="M30.0134 34.999C25.5357 34.999 21.0581 35.0013 16.5805 34.999C15.3976 34.999 14.4137 34.2969 14.098 33.2484C13.8211 32.3362 14.1598 31.5926 14.7524 30.9321C15.5875 30.0037 16.3105 28.9921 16.8962 27.8882C18.07 25.6735 18.5802 23.3086 18.5527 20.796C18.5321 18.9277 18.7632 17.0847 19.5503 15.3527C20.7652 12.6807 22.6643 10.7107 25.3207 9.47978C25.9316 9.19803 26.5676 9.00635 27.2083 8.84007C27.643 8.72691 27.7437 8.49828 27.7391 8.10337C27.7345 7.70153 27.7368 7.29276 27.7894 6.89553C27.961 5.60225 28.8167 5.04337 29.9447 5.0018C30.9125 4.96716 31.8712 5.42905 32.1504 6.61378C32.267 7.11031 32.2876 7.60222 32.2716 8.10106C32.2602 8.49366 32.3586 8.71536 32.7956 8.83084C34.841 9.36662 36.6371 10.3504 38.1198 11.9024C40.0989 13.9786 41.204 16.4242 41.371 19.3087C41.4465 20.5928 41.4031 21.886 41.5747 23.1655C41.9293 25.8028 42.9749 28.1307 44.6635 30.1676C44.9083 30.4609 45.1394 30.7681 45.3773 31.066C45.9836 31.8304 46.2147 32.6757 45.764 33.5833C45.295 34.5232 44.485 34.9851 43.4485 34.9897C40.8379 35.0013 38.2273 34.9944 35.6167 34.9944C33.7497 34.9944 31.8827 34.9944 30.0156 34.9944L30.0134 34.999Z" fill="#FF9761"/>
<path d="M15.4506 40.0622C13.1036 40.0622 10.7567 40.0622 8.40969 40.0532C5.99087 40.0472 4.14083 38.3993 4.00912 36.1371C3.93128 34.8067 4.38032 33.6592 5.34725 32.7273C7.58346 30.567 8.99044 27.9573 9.65502 24.7423C9.93043 23.415 9.93043 22.0547 9.93043 20.7423C9.93043 20.2899 9.93043 19.8375 9.9424 19.388C10.0172 16.2779 10.6249 13.83 11.8583 11.6876C13.6305 8.60749 16.2349 6.36929 19.5997 5.03596C20.6924 4.6015 21.809 4.39476 22.8597 4.21798C23.3207 4.14007 23.4794 3.95131 23.4644 3.48989C23.4495 3.04345 23.4644 2.6839 23.5003 2.3603C23.5902 1.58127 24.1889 1.02397 24.9522 1H24.9941C25.7066 1 26.3592 1.54831 26.5029 2.27341C26.5329 2.41723 26.5418 2.55805 26.5508 2.72884C26.5897 3.43895 26.6077 3.79551 26.7813 3.99625C26.9579 4.2 27.3321 4.26592 28.0087 4.38876C34.6155 5.58727 39.7555 11.5258 39.9651 18.2015C39.983 18.7828 39.989 19.373 39.992 19.9453C40.001 21.2277 40.01 22.5281 40.1716 23.8015C40.5997 27.1753 42.0666 30.1296 44.662 32.8412C45.7666 33.9948 46.1917 35.2712 45.9223 36.6315C45.5122 38.7049 43.7939 40.0502 41.5457 40.0562C39.3454 40.0622 37.1451 40.0622 34.9448 40.0622H24.7786H15.4536H15.4506ZM40.8901 36.9341C41.0009 36.9341 41.1116 36.9401 41.2254 36.9431C41.3511 36.9491 41.4589 36.9521 41.5636 36.9521C41.9887 36.9521 42.4647 36.9041 42.7401 36.3169C43.0934 35.5708 42.6264 35.0854 42.1743 34.615C42.1204 34.5581 42.0666 34.5011 42.0127 34.4472C40.1896 32.4846 38.8275 30.2674 37.9654 27.8584C37.214 25.767 36.8817 23.4929 36.8787 20.4846C36.8787 20.2869 36.8787 20.0891 36.8817 19.8914C36.8907 18.8517 36.8996 17.779 36.6542 16.7723C35.5196 12.1101 32.9002 9.14082 28.6463 7.69663C27.5327 7.3191 26.3323 7.12435 25.081 7.12435C24.2607 7.12435 23.3896 7.20524 22.4885 7.37004C20.4708 7.73258 18.6477 8.65543 17.0641 10.1146C14.9896 12.0232 13.7203 14.3963 13.2922 17.1618C13.0557 18.6959 13.0378 20.206 13.0527 21.4764C13.1036 25.7221 11.8284 29.5693 9.25388 32.9101C8.90363 33.3655 8.52045 33.806 8.14625 34.2315C7.89479 34.5191 7.65231 34.7978 7.41881 35.0794C7.08652 35.4809 7.02665 35.9034 7.23919 36.3348C7.43078 36.7243 7.77205 36.9221 8.28695 36.9341C8.51147 36.9401 8.73299 36.9401 8.95751 36.9401H32.514C35.3041 36.9401 38.0911 36.9401 40.8811 36.9341H40.8871H40.8901Z" fill="#282828"/>
<path d="M24.9971 48.9999C22.4975 48.9969 20.4289 47.6126 19.468 45.2995C19.1956 44.6433 19.2195 43.9991 19.5308 43.5287C19.7913 43.1392 20.2343 42.9145 20.7492 42.9145C20.8181 42.9145 20.8869 42.9175 20.9588 42.9264C21.6144 42.9954 21.9377 43.4358 22.1413 43.8103C22.5574 44.5684 22.9346 45.1736 23.674 45.5212C24.1559 45.7459 24.6319 45.8598 25.0959 45.8598C26.1257 45.8598 27.0118 45.2905 27.5866 44.2538C27.6315 44.1759 27.6734 44.092 27.7123 44.0111C27.8889 43.6665 28.0715 43.31 28.4427 43.1092C28.7062 42.9684 28.9696 42.8965 29.2301 42.8965C29.5923 42.8965 29.9336 43.0313 30.2479 43.298C30.7658 43.7384 30.8735 44.3437 30.5772 45.1497C29.727 47.4838 27.5387 48.9939 25.0001 48.9939H24.9911L24.9971 48.9999Z" fill="#282828"/>
</g>
<defs>
<clipPath id="clip0_2039_864">
<rect width="42" height="48" fill="white" transform="translate(4 1)"/>
</clipPath>
</defs>
</svg>
