<svg width="50" height="50" viewBox="0 0 50 50" fill="none" xmlns="http://www.w3.org/2000/svg">
<g clip-path="url(#clip0_2039_982)">
<path d="M28.4975 4.88852C29.0506 3.80579 30.0598 4.08859 30.8793 4.24615C34.2785 4.90872 37.4717 6.13688 40.2855 8.20133C44.1327 11.0253 46.4701 14.8593 47.5843 19.4649C47.7337 20.079 48.0203 20.6527 48.0001 21.3193C47.9678 22.5313 47.3421 23.2867 46.1592 23.5695C44.7302 23.9129 43.293 24.1917 41.8397 24.3816C41.6015 24.3937 41.3714 24.4179 41.2301 24.6482C37.5 25.1734 33.8263 25.9895 30.1285 26.6965C29.3453 26.846 28.5541 26.9753 27.7668 27.1328C25.9906 27.4884 24.6866 26.0622 25.0379 24.0907C25.6878 20.4103 26.1844 16.7136 26.6526 13.0089C26.8787 11.2233 27.238 9.45777 27.5327 7.68017C27.7305 7.80137 27.9122 7.96297 28.1221 8.03569C28.8609 8.28213 29.6077 8.46797 30.2657 7.82157C30.843 7.25596 30.8955 6.56512 30.6129 5.88236C30.2294 4.94508 29.3372 4.94104 28.4975 4.89256V4.88852ZM44.0681 20.0628C44.0762 18.9801 43.4464 18.2973 42.4493 18.3014C41.4844 18.3014 40.7578 19.0609 40.7699 20.0507C40.782 20.9718 41.549 21.8243 42.3564 21.8121C43.3293 21.796 44.06 21.0486 44.0681 20.0628ZM39.1026 11.3485C39.1188 10.3951 38.4486 9.70017 37.4878 9.67189C36.523 9.64361 35.8408 10.2981 35.8165 11.2758C35.7923 12.209 36.5836 13.0534 37.4798 13.0453C38.3598 13.0372 39.0905 12.2737 39.1067 11.3485H39.1026Z" fill="#FF9761"/>
<path d="M3.1974 25.7714C3.1974 25.2341 3.1974 24.6928 3.1974 24.1554C3.24988 24.0019 3.33869 23.8484 3.3508 23.6908C3.54054 21.3355 4.01286 19.0448 4.97366 16.8794C7.69457 10.7426 12.2806 6.76721 18.7599 4.95728C20.2172 4.54924 21.7351 4.55732 23.1804 4.15332C23.3136 4.15332 23.4508 4.1614 23.584 4.1614C24.0483 4.87244 23.7253 5.66833 23.8222 6.41977C23.9151 7.11061 23.6325 7.36513 22.926 7.37725C20.9237 7.41361 18.994 7.90649 17.1653 8.67006C6.13227 13.2716 2.83811 27.4723 10.694 36.4977C11.5701 37.5037 12.4541 38.5137 13.7137 39.0752C13.9478 39.5964 14.4201 39.762 14.9248 39.8792C14.9369 40.1377 15.167 40.1822 15.3325 40.2711C19.3533 42.4809 23.6123 43.1395 28.0812 42.0608C29.4982 41.7174 30.9434 41.3538 32.1384 40.4125C34.173 39.2853 35.9775 37.8713 37.4429 36.0492C37.673 36.025 37.7699 35.8432 37.8951 35.6856C39.9014 33.0758 41.0278 30.1145 41.492 26.8744C41.7504 25.0725 41.7746 25.0766 43.6033 25.1048C43.7043 25.1048 43.8052 25.1129 43.9061 25.1048C44.4955 25.0604 44.6691 25.3674 44.6247 25.9088C44.4471 28.05 44.0837 30.1468 43.3288 32.1749C42.4568 34.5221 41.0964 36.5704 39.6471 38.5743L39.6148 38.6066C39.4049 38.651 39.2798 38.7722 39.2475 38.9904C39.2475 38.9904 39.2232 39.0187 39.2232 39.0227C38.7267 39.661 37.891 39.9519 37.5277 40.7195C37.455 40.7841 37.3783 40.8488 37.3057 40.9094C36.9908 40.8609 36.8212 41.1235 36.6194 41.273C34.2335 43.0708 31.6216 44.3798 28.6908 45.0464C24.6538 45.9634 20.6976 45.7332 16.81 44.3192C14.4565 43.4627 12.3896 42.0971 10.3832 40.6306L10.3428 40.5902C9.75342 39.859 9.0954 39.2005 8.36874 38.6147L8.32837 38.5743C8.20726 38.3803 8.1023 38.1702 7.95697 37.9884C6.02327 35.5442 4.66685 32.8293 3.91194 29.7872C3.58091 28.454 3.60513 27.0723 3.19336 25.7593L3.1974 25.7714Z" fill="#282828"/>
<path d="M13.7142 39.0757C12.4547 38.5142 11.5706 37.5042 10.6946 36.4982C2.83864 27.4728 6.1328 13.2722 17.1699 8.66655C18.9986 7.90299 20.9283 7.41011 22.9306 7.37375C23.6371 7.36163 23.9197 7.10711 23.8268 6.41627C23.7259 5.66482 24.0529 4.86894 23.5886 4.1579C23.8672 3.91954 24.0852 4.03266 24.2466 4.29526C24.3112 4.4003 24.3072 4.55382 24.3193 4.6831C24.6261 7.43031 24.3112 7.68079 21.5701 7.95551C17.3636 8.37163 13.9161 10.3593 11.1023 13.4823C9.51174 15.2437 8.32083 17.2516 7.6184 19.514C6.88771 21.8612 6.64146 24.257 6.89175 26.7416C7.12589 29.0808 7.80007 31.23 8.89812 33.2662C9.89525 35.1085 11.1588 36.7325 12.818 38.0415C13.1692 38.3162 13.6052 38.5667 13.7183 39.0717L13.7142 39.0757Z" fill="white"/>
<path d="M23.1808 4.15315C21.7316 4.56119 20.2177 4.55311 18.7604 4.95711C12.281 6.76704 7.69505 10.7424 4.9701 16.8752C4.0093 19.0366 3.53698 21.3313 3.34724 23.6866C3.33513 23.8442 3.24632 23.9977 3.19384 24.1512C2.72151 22.6605 3.20595 21.2141 3.57331 19.8244C4.69559 15.5904 6.85536 11.9544 10.198 9.06581C12.5233 7.05792 15.1392 5.60755 18.1064 4.77935C19.5233 4.38747 20.9282 3.97539 22.4178 4.00771C22.6802 4.01579 22.9588 3.93095 23.1849 4.14911L23.1808 4.15315Z" fill="white"/>
<path d="M39.6524 38.5826C41.1016 36.5788 42.4621 34.5305 43.3341 32.1832C44.089 30.1511 44.4523 28.0584 44.6299 25.9172C44.6743 25.3799 44.4967 25.0728 43.9114 25.1132C43.8104 25.1213 43.7095 25.1132 43.6086 25.1132C41.7798 25.0849 41.7556 25.0809 41.4973 26.8827C41.029 30.1228 39.9027 33.0882 37.9003 35.694C37.7792 35.8516 37.6783 36.0334 37.4482 36.0576C37.2625 35.892 37.4038 35.7506 37.5007 35.6294C40.0601 32.4176 41.1178 28.6927 41.2308 24.6486C41.3721 24.4183 41.6062 24.39 41.8404 24.3779C42.4863 24.8062 43.213 24.5961 43.8952 24.588C44.6784 24.5799 44.9489 24.8506 44.9569 25.6384C44.9933 28.3614 44.2868 30.9106 43.2251 33.3791C42.4742 35.1284 41.5215 36.7727 40.27 38.2231C40.1085 38.4089 40.0197 38.7402 39.6524 38.5826Z" fill="white"/>
<path d="M10.383 40.6387C12.3893 42.1052 14.4563 43.4707 16.8098 44.3272C20.6974 45.7412 24.6536 45.9675 28.6906 45.0544C31.6255 44.3878 34.2333 43.0788 36.6192 41.281C36.821 41.1275 36.9866 40.869 37.3055 40.9174C36.5062 42.1981 35.1497 42.7718 33.9265 43.4667C30.0147 45.6847 25.7315 46.3553 21.3474 45.8382C17.3467 45.3695 13.7014 43.798 10.5929 41.1356C10.4355 41.0023 10.2699 40.8811 10.383 40.6387Z" fill="white"/>
<path d="M28.4972 4.88881C29.3369 4.93729 30.229 4.94537 30.6125 5.87861C30.8951 6.56137 30.8426 7.25221 30.2654 7.81782C29.6073 8.46422 28.8605 8.28242 28.1217 8.03194C27.9078 7.95922 27.7261 7.79762 27.5323 7.67642C27.0681 6.03213 27.2134 5.61601 28.5012 4.88477L28.4972 4.88881Z" fill="#282828"/>
<path d="M32.1394 40.421C30.9444 41.3583 29.4992 41.7259 28.0822 42.0693C23.6133 43.148 19.3584 42.4895 15.3335 40.2796C15.168 40.1867 14.9379 40.1463 14.9258 39.8877C16.1893 40.3806 17.4327 40.9341 18.7205 41.3502C20.8682 42.0491 23.0724 42.2228 25.3411 42.0774C27.5776 41.9319 29.6486 41.3381 31.6549 40.4008C31.7841 40.3402 31.9739 40.4129 32.1353 40.421H32.1394Z" fill="white"/>
<path d="M3.19807 25.7715C3.6058 27.0804 3.58158 28.4621 3.91665 29.7994C4.67156 32.8415 6.02798 35.5564 7.96168 38.0006C8.10297 38.1784 8.20794 38.3885 8.33308 38.5864C8.15142 38.6672 8.0182 38.5945 7.90113 38.4531C5.0147 34.9544 3.29495 30.9912 3.05677 26.434C3.04466 26.2078 3.00429 25.9614 3.19807 25.7715Z" fill="white"/>
<path d="M8.36523 38.623C9.09592 39.2088 9.75395 39.8714 10.3393 40.5986C9.33814 40.2835 8.67608 39.625 8.36523 38.623Z" fill="white"/>
<path d="M37.5273 40.7242C37.8907 39.9565 38.7304 39.6657 39.2229 39.0273C39.1825 40.1222 38.2863 40.3525 37.5273 40.7242Z" fill="white"/>
<path d="M14.9259 39.8831C14.4213 39.7659 13.953 39.6003 13.7148 39.0791C14.276 39.1074 14.7322 39.2973 14.9259 39.8831Z" fill="white"/>
<path d="M39.252 38.999C39.2842 38.7849 39.4094 38.6597 39.6193 38.6152C39.7122 38.9506 39.583 39.0677 39.252 38.999Z" fill="white"/>
<path d="M44.0679 20.0632C44.0638 21.049 43.3291 21.7964 42.3562 21.8125C41.5488 21.8247 40.7818 20.9722 40.7697 20.0511C40.7576 19.0613 41.4842 18.3058 42.4491 18.3018C43.4462 18.3018 44.076 18.9805 44.0679 20.0632Z" fill="#282828"/>
<path d="M39.1032 11.3494C39.087 12.2745 38.3604 13.034 37.4763 13.0462C36.5841 13.0542 35.7888 12.2099 35.813 11.2766C35.8413 10.299 36.5235 9.64448 37.4843 9.67276C38.4451 9.70104 39.1112 10.3959 39.0991 11.3494H39.1032Z" fill="#282828"/>
<path d="M17.96 24.576C17.96 21.632 18.464 19.448 19.472 18.024C20.48 16.584 21.928 15.864 23.816 15.864C25.832 15.864 27.312 16.576 28.256 18C29.2 19.408 29.672 21.6 29.672 24.576C29.672 27.536 29.16 29.736 28.136 31.176C27.128 32.616 25.68 33.336 23.792 33.336C21.792 33.336 20.32 32.584 19.376 31.08C18.432 29.56 17.96 27.392 17.96 24.576ZM21.08 24.576C21.08 26.528 21.288 28.04 21.704 29.112C22.136 30.168 22.84 30.696 23.816 30.696C24.76 30.696 25.448 30.208 25.88 29.232C26.328 28.256 26.552 26.704 26.552 24.576C26.552 22.64 26.344 21.144 25.928 20.088C25.512 19.032 24.8 18.504 23.792 18.504C22.832 18.504 22.136 19 21.704 19.992C21.288 20.984 21.08 22.512 21.08 24.576Z" fill="#282828"/>
</g>
<defs>
<clipPath id="clip0_2039_982">
<rect width="45" height="42" fill="white" transform="translate(3 4)"/>
</clipPath>
</defs>
</svg>
