<svg width="170" height="40" viewBox="0 0 170 40" fill="none" xmlns="http://www.w3.org/2000/svg">
<rect width="170" height="40" rx="8" fill="#F7F7F7"/>
<path d="M110.48 29.9862L107.16 25.2763L104.279 30.0289L99.948 30.0588L105.116 22.3769L99.785 14.8228L104.348 14.7913L107.636 19.4707L110.523 14.7488L114.848 14.7189L109.673 22.3455L115.037 29.9548L110.48 29.9862ZM64.7172 30.3017L64.5849 11.101L72.8866 11.0437C73.8351 11.0273 74.7808 11.1451 75.6929 11.3932C76.4347 11.5966 77.1285 11.934 77.7366 12.3871C78.2902 12.804 78.7351 13.3373 79.0365 13.9455C79.3333 14.5656 79.4853 15.2398 79.482 15.9216C79.523 16.679 79.3533 17.4335 78.99 18.1084C78.6268 18.7834 78.083 19.3549 77.4136 19.7651C76.9946 20.0328 76.5382 20.2428 76.0579 20.3891C76.6135 20.4808 77.1461 20.671 77.6281 20.9499C78.1027 21.2268 78.522 21.5819 78.8664 21.9986C79.5809 22.857 79.9739 23.9187 79.983 25.0149C79.9941 25.736 79.8452 26.4513 79.5463 27.1139C79.2584 27.7516 78.8213 28.3181 78.2685 28.77C76.8724 29.7963 75.1404 30.3179 73.3799 30.2419L64.7172 30.3017ZM68.7112 27.1394L72.7782 27.1114C74.757 27.0977 75.885 26.168 75.874 24.5638C75.8629 22.9597 74.6311 21.9294 72.633 21.9432L68.6755 21.9705L68.7112 27.1394ZM68.655 18.9957L72.3482 18.9703C74.2819 18.9569 75.3395 18.1014 75.3289 16.5587C75.3183 15.016 74.2165 14.1447 72.3151 14.1578L68.6218 14.1833L68.655 18.9957ZM34.5313 15.2726L38.5146 15.2452L38.6197 30.4816L34.6428 30.509L34.5313 15.2726ZM17.6602 29.8516C16.4313 29.3677 15.3124 28.6616 14.365 27.7722C13.4189 26.8803 12.6611 25.8235 12.1326 24.6591C11.5905 23.4514 11.3066 22.1526 11.2976 20.8386C11.2885 19.5247 11.5545 18.2221 12.0799 17.0071C13.1111 14.6424 15.0647 12.7513 17.5288 11.7327C19.4149 10.9572 21.5005 10.7362 23.5183 11.0979C25.5361 11.4596 27.3944 12.3875 28.8551 13.7628C29.7759 14.6294 30.5196 15.6518 31.0481 16.7779L26.8844 16.8067C26.1806 15.9548 25.2609 15.2878 24.2119 14.8687C23.1629 14.4495 22.0191 14.2919 20.8882 14.4106C19.7573 14.5294 18.6765 14.9206 17.7476 15.5475C16.8187 16.1744 16.0723 17.0163 15.5785 17.9939C15.0848 18.9716 14.86 20.0528 14.9253 21.1358C14.9907 22.2188 15.344 23.2679 15.9521 24.1844C16.5601 25.1009 17.4029 25.8546 18.401 26.3746C19.3991 26.8945 20.5197 27.1636 21.6573 27.1565C23.0997 27.1424 24.4999 26.6892 25.6537 25.863C26.8075 25.0368 27.6546 23.8809 28.0714 22.5639L20.6914 22.6147L20.6706 19.597L31.847 19.5199C31.896 19.9094 31.9224 20.3011 31.926 20.6933C31.9351 21.9856 31.677 23.267 31.1666 24.4644C30.6561 25.6618 29.9033 26.7516 28.951 27.6717C27.5099 29.0658 25.6658 30.0185 23.6544 30.4079C21.6431 30.7973 19.556 30.6058 17.6602 29.8578L17.6602 29.8516ZM50.1839 29.6274C48.718 29.048 47.4639 28.0696 46.5783 26.8142C45.6927 25.5588 45.2147 24.0821 45.2042 22.5687C45.196 20.7932 45.8309 19.069 47.0016 17.6875C48.1723 16.3061 49.807 15.3521 51.6295 14.9869C53.4519 14.6217 55.3503 14.8676 57.0037 15.683C58.6572 16.4984 59.9643 17.8334 60.7042 19.4623C61.1277 20.3927 61.3544 21.3937 61.3713 22.408C61.3883 23.4224 61.195 24.43 60.8027 25.3732C60.4103 26.3164 59.8267 27.1766 59.0851 27.9045C58.3435 28.6323 57.4587 29.2135 56.4813 29.6147C55.4901 30.0275 54.4215 30.244 53.3402 30.251C52.2613 30.2554 51.1926 30.0538 50.197 29.658L50.1839 29.6274ZM48.5174 22.5766C48.5236 23.4749 48.809 24.3511 49.3375 25.0945C49.8661 25.8378 50.614 26.4148 51.4867 26.7526C52.3594 27.0904 53.3178 27.1737 54.2405 26.9921C55.1633 26.8105 56.009 26.372 56.6708 25.7322C57.3326 25.0924 57.7806 24.28 57.9583 23.3976C58.1361 22.5153 58.0354 21.6027 57.6692 20.7752C57.303 19.9478 56.6876 19.2426 55.9008 18.7489C55.1141 18.2552 54.1913 17.9952 53.2493 18.0017C51.9865 18.012 50.7793 18.4994 49.8923 19.357C49.0052 20.2146 48.5108 21.3724 48.5174 22.5766ZM39.2655 18.5161L39.259 17.5696C39.2542 16.8768 39.5383 16.2104 40.0486 15.717C40.559 15.2236 41.2538 14.9435 41.9803 14.9385L44.7196 14.9197L44.7215 15.1962C44.7259 16.0711 44.3664 16.9122 43.722 17.5353C43.0775 18.1583 42.2005 18.5126 41.2831 18.5206L39.2655 18.5161Z" fill="#2A2663"/>
<path d="M84.8876 28.0895L84.5309 27.7724C84.4011 27.6503 84.2778 27.5283 84.1609 27.4C83.7139 26.9159 83.3333 26.3794 83.0284 25.8036C82.9565 25.6688 82.8911 25.5279 82.8257 25.387C82.7602 25.2461 82.734 25.1786 82.6946 25.0744L82.6944 25.0437C82.385 24.2469 82.2138 23.4073 82.1874 22.5579L82.1863 22.4042C82.183 21.3795 82.3951 20.3643 82.8103 19.4189C83.1733 18.5864 83.6874 17.8213 84.3288 17.1588L84.5208 16.9608L84.6425 16.8432C85.3483 16.1912 86.1725 15.667 87.0747 15.2959C88.0604 14.887 89.122 14.6707 90.1966 14.6597L90.3641 14.6586C91.2904 14.6692 92.2076 14.8334 93.0747 15.1439L93.1134 15.1436L93.346 15.2342L93.5593 15.3188C94.9725 15.9217 96.1735 16.9 97.0187 18.1367C97.8639 19.3734 98.3177 20.8163 98.3257 22.293L98.3268 22.4528C98.2993 24.4408 97.4659 26.3421 96.0013 27.7581C94.5367 29.1741 92.5545 29.995 90.4702 30.0486L90.3027 30.0498C88.3045 30.0605 86.3742 29.3618 84.8876 28.0895ZM85.4408 22.3203C85.447 23.2184 85.7323 24.0944 86.2605 24.8376C86.7888 25.5808 87.5363 26.1578 88.4087 26.4958C89.281 26.8337 90.239 26.9174 91.1616 26.7363C92.0842 26.5552 92.9299 26.1173 93.592 25.4781C94.254 24.8389 94.7026 24.0271 94.881 23.1451C95.0595 22.2632 94.9598 21.3508 94.5945 20.5232C94.2293 19.6956 93.6149 18.9901 92.829 18.4956C92.0431 18.0012 91.1209 17.7401 90.1791 17.7454C88.9153 17.7541 87.7064 18.2408 86.818 19.0986C85.9295 19.9564 85.4342 21.1151 85.4408 22.3203Z" fill="#F47224"/>
<path d="M87.1162 29.4081L87.0582 29.4085C85.9622 28.9667 84.982 28.2998 84.1874 27.4554C83.3928 26.611 82.8033 25.6097 82.4609 24.523C82.2823 23.9226 82.1764 23.3046 82.1453 22.6812L82.1435 22.4169C82.1432 21.3924 82.3553 20.3779 82.7675 19.4316C83.1305 18.5991 83.6445 17.834 84.286 17.1715L84.478 16.9735L84.5996 16.8559C85.3055 16.2039 86.1296 15.6797 87.0319 15.3086C88.0176 14.8997 89.0791 14.6834 90.1537 14.6724C90.1537 14.6724 90.1639 16.1475 90.1755 17.8316C89.068 17.8411 87.9983 18.2183 87.1504 18.8984C86.3026 19.5784 85.7296 20.5188 85.5299 21.5578C85.3303 22.5968 85.5166 23.6694 86.0566 24.5911C86.5967 25.5128 87.4569 26.226 88.4892 26.6081C87.8034 28.1064 87.1618 29.4754 87.1168 29.4941L87.1162 29.4081Z" fill="#F79C65"/>
<path d="M82.4998 19.9948L82.4994 19.9456C82.5689 19.7424 82.6448 19.5391 82.7336 19.3295C83.188 18.2855 83.8773 17.3494 84.7529 16.5873C85.6285 15.8252 86.6689 15.2558 87.8005 14.9195C88.4945 14.7193 89.213 14.6069 89.9376 14.5852L90.1116 14.584C90.1116 14.584 90.1217 16.0587 90.1334 17.7423C89.088 17.752 88.0747 18.0886 87.2489 18.7004C86.4231 19.3122 85.8305 20.1653 85.5621 21.1289C83.947 20.544 82.4806 20.0195 82.4998 19.9948Z" fill="#FBC6A7"/>
<path d="M116.214 18.2673L116.179 13.1735L110.837 13.2103L113.721 10.9107L118.547 10.8774L118.579 15.4797L116.214 18.2673Z" fill="#1EB209"/>
</svg>
