<svg width="24" height="24" viewBox="0 0 24 24" fill="none" xmlns="http://www.w3.org/2000/svg">
<path d="M19.1 3.83673V3.83663C19.0999 3.73885 19.0703 3.6434 19.0152 3.56254C18.9601 3.48168 18.882 3.41912 18.791 3.38278L18.7909 3.38275L12.6417 0.933094L12.6399 0.932384L12.6399 0.932401C12.5817 0.910492 12.5199 0.899516 12.4577 0.900016M19.1 3.83673L12.4581 1.00002M19.1 3.83673V21.6104C19.1 21.7405 19.0479 21.8651 18.9554 21.9569C18.863 22.0486 18.7377 22.1 18.6073 22.1H4.39267C4.26225 22.1 4.13702 22.0486 4.04457 21.9569C3.95209 21.8651 3.9 21.7405 3.9 21.6104V12.3806C3.9 12.2505 3.95209 12.1259 4.04457 12.0341C4.13702 11.9424 4.26225 11.891 4.39267 11.891H7.76126M19.1 3.83673L7.76126 11.991V11.891M12.4577 0.900016C12.4575 0.900018 12.4574 0.900019 12.4572 0.90002L12.4581 1.00002M12.4577 0.900016H12.4581V1.00002M12.4577 0.900016H8.25393C8.12351 0.900016 7.99828 0.95142 7.90583 1.04316C7.81335 1.13493 7.76126 1.25956 7.76126 1.38967V9.74655V11.891M12.4581 1.00002H8.25393C8.14978 1.00002 8.04991 1.04107 7.97627 1.11414C7.90263 1.18722 7.86126 1.28633 7.86126 1.38967V9.74655V11.891H7.76126M12.7749 11.8988C12.9053 11.8988 13.0305 11.9502 13.123 12.0419C13.2154 12.1337 13.2675 12.2583 13.2675 12.3884V21.1207H18.1147V4.16952L12.363 1.87933H8.7466V3.83285H14.3063C14.4367 3.83285 14.5619 3.88425 14.6544 3.97599C14.7469 4.06776 14.799 4.19239 14.799 4.32251V6.10974C14.799 6.23985 14.7469 6.36448 14.6544 6.45625C14.5619 6.54799 14.4367 6.5994 14.3063 6.5994H8.7466V7.46966H14.3063C14.4367 7.46966 14.5619 7.52106 14.6544 7.61281C14.7469 7.70457 14.799 7.8292 14.799 7.95932V9.74655C14.799 9.87667 14.7469 10.0013 14.6544 10.0931C14.5619 10.1848 14.4367 10.2362 14.3063 10.2362H8.7466V11.8861L12.7749 11.8988ZM12.7749 11.8988V11.9988L12.7752 11.8988L12.7749 11.8988ZM13.8136 9.25689V8.44898H8.7466V9.25689H13.8136ZM13.8136 5.62008V4.81216H8.7466V5.62008H13.8136ZM12.277 21.1207V12.8651H4.88534V21.1207H12.277Z" fill="#83838B" stroke="#83838B" stroke-width="0.2"/>
</svg>
