<svg width="10" height="10" viewBox="0 0 10 10" fill="none" xmlns="http://www.w3.org/2000/svg">
<path d="M5 0C3.6739 0 2.4021 0.526857 1.46438 1.46438C0.526857 2.4021 0 3.6739 0 5C0 6.3261 0.526857 7.59791 1.46438 8.53562C2.4021 9.47333 3.6739 10 5 10C6.3261 10 7.59791 9.47314 8.53562 8.53562C9.47333 7.59791 10 6.3261 10 5C10 4.12229 9.76895 3.26019 9.3301 2.5C8.89124 1.73981 8.26 1.10876 7.5 0.669905C6.74 0.231048 5.87771 0 5.00019 0H5Z" fill="#1F921B"/>
<path d="M2.7793 5.43188L4.14682 6.66645L7.22374 3.88867" stroke="white" stroke-width="1.2" stroke-linecap="round" stroke-linejoin="round"/>
</svg>
