<svg width="16" height="13" viewBox="0 0 16 13" fill="none" xmlns="http://www.w3.org/2000/svg">
<path fill-rule="evenodd" clip-rule="evenodd" d="M13.027 0.182655C13.1699 0.05821 13.3537 -0.00681785 13.5417 0.000566509C13.7296 0.00795087 13.908 0.0872036 14.041 0.222487C14.174 0.357771 14.2519 0.539122 14.2592 0.7303C14.2665 0.921477 14.2025 1.1084 14.0802 1.25372L12.8626 2.49189C14.1065 3.30583 15.1329 4.42014 15.8504 5.73546C15.953 5.92648 16.0068 6.14067 16.0068 6.35835C16.0068 6.57603 15.953 6.79022 15.8504 6.98124C14.7797 8.94811 13.0321 10.4432 10.9434 11.1794C8.85463 11.9155 6.57206 11.8406 4.53426 10.9692L2.9881 12.534C2.84521 12.6585 2.6614 12.7235 2.47342 12.7161C2.28543 12.7087 2.10711 12.6295 1.97408 12.4942C1.84105 12.3589 1.76312 12.1776 1.75586 11.9864C1.7486 11.7952 1.81254 11.6083 1.93491 11.463L13.027 0.182655ZM5.94598 9.52596L7.04398 8.41691C7.34455 8.56379 7.67407 8.63913 8.00753 8.6372C8.60184 8.6372 9.1718 8.39711 9.59203 7.96974C10.0123 7.54237 10.2484 6.96274 10.2484 6.35835C10.2465 6.01965 10.1726 5.68536 10.0317 5.37844L11.1223 4.2618C11.4949 4.8342 11.708 5.4986 11.7389 6.18433C11.7698 6.87007 11.6174 7.55151 11.2979 8.15619C10.9784 8.76088 10.5037 9.26619 9.92432 9.6184C9.34494 9.97061 8.68253 10.1565 8.00753 10.1564C7.27394 10.1598 6.55607 9.94026 5.94598 9.52596Z" fill="#919191"/>
<path d="M4.27255 6.359C4.27322 6.62953 4.30075 6.8993 4.35472 7.1642L2.1139 9.44305C1.32612 8.74727 0.663846 7.91694 0.156916 6.98948C0.0542736 6.79847 0.000481606 6.58428 0.000481606 6.3666C0.000481606 6.14892 0.0542736 5.93473 0.156916 5.74371C1.10867 3.99419 2.59964 2.61143 4.40017 1.80844C6.2007 1.00546 8.21089 0.826782 10.1211 1.29995L8.79901 2.64447C8.53853 2.58959 8.27327 2.56159 8.00725 2.56091C7.01675 2.56091 6.06681 2.96107 5.36642 3.67335C4.66603 4.38563 4.27255 5.35169 4.27255 6.359Z" fill="#919191"/>
</svg>
