<svg width="351" height="382" viewBox="0 0 351 382" fill="none" xmlns="http://www.w3.org/2000/svg">
<path d="M177.227 381.8C81.2553 381.8 3.45468 373.834 3.45468 364.008C3.45468 354.182 81.2553 346.216 177.227 346.216C273.199 346.216 351 354.182 351 364.008C351 373.834 273.199 381.8 177.227 381.8Z" fill="#F7F7F7"/>
<path d="M239.325 361.666C239.115 361.667 238.908 361.621 238.718 361.533C238.528 361.444 238.361 361.314 238.228 361.153L129.605 228.084C129.412 227.796 129.334 227.447 129.388 227.106C129.442 226.765 129.622 226.456 129.895 226.239C130.168 226.023 130.512 225.914 130.862 225.935C131.211 225.955 131.541 226.104 131.785 226.351L240.408 359.421C240.64 359.706 240.747 360.07 240.708 360.434C240.668 360.797 240.485 361.131 240.197 361.361C239.95 361.557 239.642 361.664 239.325 361.666Z" fill="#585858"/>
<path d="M70.6382 363.573C70.3214 363.571 70.0146 363.462 69.7675 363.263C69.4803 363.03 69.297 362.692 69.2575 362.323C69.2181 361.955 69.3257 361.585 69.5569 361.296L178.028 226.381C178.136 226.218 178.277 226.079 178.441 225.974C178.606 225.868 178.791 225.798 178.984 225.768C179.177 225.739 179.374 225.749 179.563 225.8C179.752 225.851 179.928 225.941 180.08 226.063C180.232 226.186 180.357 226.339 180.447 226.513C180.536 226.687 180.589 226.878 180.601 227.073C180.612 227.268 180.583 227.464 180.515 227.647C180.447 227.831 180.341 227.998 180.205 228.138L71.7336 363.053C71.6014 363.216 71.4344 363.347 71.2449 363.437C71.0553 363.527 70.848 363.573 70.6382 363.573Z" fill="#474747"/>
<path d="M178.881 361.666C178.671 361.667 178.464 361.621 178.274 361.533C178.084 361.444 177.917 361.314 177.784 361.153L69.1614 228.084C68.968 227.796 68.8905 227.447 68.9441 227.106C68.9977 226.765 69.1785 226.456 69.4511 226.239C69.7237 226.023 70.0685 225.914 70.418 225.935C70.7676 225.955 71.0968 226.104 71.3412 226.351L179.964 359.421C180.196 359.706 180.303 360.07 180.264 360.434C180.224 360.797 180.041 361.131 179.753 361.361C179.506 361.557 179.199 361.664 178.881 361.666Z" fill="#474747"/>
<path d="M89.9194 230.808H39.5178C38.5753 230.804 37.6723 230.429 37.0045 229.763C36.3368 229.097 35.9581 228.195 35.9508 227.252C35.9508 226.304 36.3261 225.395 36.9947 224.723C37.6632 224.051 38.5704 223.672 39.5178 223.668H89.9194C90.8692 223.668 91.78 224.046 92.4516 224.718C93.1232 225.39 93.5005 226.302 93.5005 227.252C93.4931 228.198 93.1125 229.102 92.4417 229.768C91.771 230.434 90.8643 230.808 89.9194 230.808Z" fill="#585858"/>
<path d="M234.945 230.809H90.8884C89.9387 230.809 89.0278 230.431 88.3562 229.759C87.6846 229.087 87.3074 228.176 87.3074 227.225C87.3074 226.275 87.6846 225.363 88.3562 224.691C89.0278 224.019 89.9387 223.642 90.8884 223.642H234.945V230.809Z" fill="#474747"/>
<path d="M124.944 298.631C122.787 298.631 121.04 296.882 121.04 294.724C121.04 292.566 122.787 290.817 124.944 290.817C127.1 290.817 128.848 292.566 128.848 294.724C128.848 296.882 127.1 298.631 124.944 298.631Z" fill="#585858"/>
<path d="M188.603 294.709C188.605 295.486 188.378 296.246 187.948 296.893C187.519 297.54 186.907 298.044 186.19 298.343C185.474 298.642 184.685 298.72 183.923 298.569C183.162 298.419 182.463 298.045 181.914 297.496C181.365 296.947 180.992 296.247 180.841 295.485C180.69 294.723 180.769 293.933 181.067 293.216C181.366 292.499 181.87 291.887 182.516 291.457C183.163 291.027 183.922 290.799 184.698 290.802C185.734 290.802 186.727 291.214 187.459 291.947C188.191 292.679 188.603 293.673 188.603 294.709Z" fill="#F1C853"/>
<path d="M135.532 116.68H86.886C83.7914 116.68 81.2827 114.169 81.2827 111.072V75.4183C81.2827 72.3214 83.7914 69.8109 86.886 69.8109H135.532C138.627 69.8109 141.136 72.3214 141.136 75.4183V111.072C141.136 114.169 138.627 116.68 135.532 116.68Z" fill="#FAAA38"/>
<path d="M125.618 91.9167V94.7977C125.618 95.1704 125.47 95.5279 125.207 95.7914C124.943 96.055 124.586 96.2031 124.214 96.2031H122.458C122.195 97.3136 121.769 98.379 121.194 99.3651L122.332 100.489C122.466 100.62 122.572 100.777 122.645 100.949C122.717 101.122 122.754 101.307 122.754 101.494C122.754 101.681 122.717 101.867 122.645 102.039C122.572 102.212 122.466 102.368 122.332 102.499L120.296 104.537C120.165 104.671 120.009 104.777 119.836 104.85C119.664 104.922 119.479 104.96 119.292 104.96C119.104 104.96 118.919 104.922 118.747 104.85C118.574 104.777 118.418 104.671 118.287 104.537L117.178 103.427C116.179 104.034 115.088 104.475 113.948 104.734V106.237C113.948 106.61 113.8 106.968 113.537 107.231C113.273 107.495 112.916 107.643 112.544 107.643H109.665C109.292 107.643 108.935 107.495 108.672 107.231C108.408 106.968 108.26 106.61 108.26 106.237V104.635C107.151 104.33 106.095 103.856 105.129 103.23L103.991 104.382C103.86 104.516 103.704 104.623 103.532 104.695C103.359 104.768 103.174 104.805 102.987 104.805C102.8 104.805 102.615 104.768 102.442 104.695C102.27 104.623 102.114 104.516 101.983 104.382L99.9468 102.33C99.8151 102.2 99.7107 102.044 99.6394 101.873C99.5681 101.702 99.5314 101.518 99.5314 101.333C99.5314 101.147 99.5681 100.963 99.6394 100.792C99.7107 100.621 99.8151 100.465 99.9468 100.335L101.267 99.0138C100.758 98.0663 100.393 97.0478 100.186 95.9923H98.2475C97.8751 95.9923 97.5179 95.8442 97.2545 95.5806C96.9912 95.3171 96.8432 94.9597 96.8432 94.5869V91.7059C96.8432 91.3332 96.9912 90.9757 97.2545 90.7122C97.5179 90.4486 97.8751 90.3005 98.2475 90.3005H100.452C100.746 89.3469 101.161 88.4352 101.688 87.5882L100.115 86.0283C99.9816 85.8974 99.8753 85.7411 99.8027 85.5685C99.7302 85.396 99.6928 85.2107 99.6928 85.0235C99.6928 84.8362 99.7302 84.6509 99.8027 84.4783C99.8753 84.3058 99.9816 84.1495 100.115 84.0186L102.166 81.9808C102.296 81.8491 102.452 81.7445 102.623 81.6732C102.794 81.6019 102.977 81.5651 103.163 81.5651C103.348 81.5651 103.532 81.6019 103.703 81.6732C103.874 81.7445 104.029 81.8491 104.16 81.9808L105.859 83.6672C106.692 83.2115 107.579 82.8622 108.499 82.6273V80.2804C108.499 79.9076 108.647 79.5502 108.911 79.2866C109.174 79.023 109.531 78.875 109.904 78.875H112.768C113.141 78.875 113.498 79.023 113.761 79.2866C114.025 79.5502 114.173 79.9076 114.173 80.2804V82.5008C115.127 82.7397 116.043 83.1085 116.897 83.597L118.442 82.0511C118.573 81.9172 118.729 81.8109 118.901 81.7383C119.074 81.6656 119.259 81.6283 119.446 81.6283C119.633 81.6283 119.818 81.6656 119.991 81.7383C120.163 81.8109 120.319 81.9172 120.45 82.0511L122.486 84.0889C122.62 84.2198 122.726 84.376 122.799 84.5486C122.872 84.7212 122.909 84.9065 122.909 85.0937C122.909 85.2809 122.872 85.4662 122.799 85.6388C122.726 85.8113 122.62 85.9677 122.486 86.0985L121.082 87.5039C121.636 88.4051 122.062 89.3796 122.346 90.3989H124.228C124.421 90.4002 124.612 90.4414 124.788 90.5198C124.965 90.5982 125.123 90.7122 125.253 90.8546C125.384 90.9971 125.484 91.1649 125.546 91.3477C125.609 91.5304 125.634 91.7241 125.618 91.9167ZM118.47 95.0507C118.777 93.5149 118.581 91.9212 117.913 90.5053C117.244 89.0893 116.138 87.9264 114.757 87.1884C113.377 86.4504 111.796 86.1766 110.248 86.4075C108.7 86.6383 107.268 87.3617 106.163 88.4704C105.057 89.5792 104.338 91.0145 104.111 92.564C103.884 94.1136 104.162 95.695 104.903 97.0745C105.644 98.454 106.808 99.5582 108.225 100.224C109.641 100.889 111.235 101.081 112.768 100.771C114.176 100.485 115.468 99.7904 116.483 98.7728C117.497 97.7551 118.189 96.4602 118.47 95.0507Z" fill="white"/>
<path d="M215.776 90.7778H167.13C164.036 90.7778 161.527 88.2673 161.527 85.1704V49.5164C161.527 46.4196 164.036 43.909 167.13 43.909L215.776 43.909C218.871 43.909 221.38 46.4196 221.38 49.5164V85.1704C221.38 88.2673 218.871 90.7778 215.776 90.7778Z" fill="#F37021"/>
<path d="M181.342 75.2206C181.157 75.2211 180.974 75.1825 180.804 75.1074C180.635 75.0324 180.483 74.9225 180.359 74.7849L174.054 68.0251C173.79 67.7375 173.644 67.3614 173.644 66.9711C173.644 66.5809 173.79 66.2048 174.054 65.9171L180.457 59.0449C180.721 58.7831 181.076 58.6362 181.447 58.6362C181.818 58.6362 182.174 58.7831 182.438 59.0449C182.701 59.3326 182.847 59.7087 182.847 60.0989C182.847 60.4892 182.701 60.8652 182.438 61.1529L177.017 66.9711L182.339 72.6628C182.598 72.9557 182.741 73.3331 182.741 73.7239C182.741 74.1147 182.598 74.4921 182.339 74.7849C182.21 74.9203 182.056 75.0285 181.885 75.1033C181.713 75.1781 181.529 75.218 181.342 75.2206Z" fill="white"/>
<path d="M201.55 75.2206C201.365 75.2211 201.182 75.1825 201.013 75.1075C200.843 75.0324 200.692 74.9225 200.567 74.785C200.303 74.495 200.156 74.1165 200.156 73.7239C200.156 73.3313 200.303 72.9529 200.567 72.6629L205.89 67.0414L200.455 61.2232C200.197 60.9327 200.055 60.5577 200.055 60.1692C200.055 59.7808 200.197 59.4058 200.455 59.1152C200.718 58.8535 201.074 58.7065 201.445 58.7065C201.816 58.7065 202.172 58.8535 202.435 59.1152L208.853 65.9874C209.117 66.2751 209.263 66.6512 209.263 67.0414C209.263 67.4317 209.117 67.8078 208.853 68.0955L202.548 74.8552C202.276 75.1029 201.918 75.2341 201.55 75.2206Z" fill="white"/>
<path d="M188.322 77.0753C188.137 77.0785 187.955 77.0401 187.788 76.9628C187.438 76.7973 187.165 76.5043 187.024 76.1438C186.883 75.7833 186.885 75.3825 187.03 75.0234L193.293 58.6088C193.358 58.4363 193.457 58.2783 193.584 58.1439C193.71 58.0096 193.862 57.9014 194.03 57.8257C194.198 57.75 194.38 57.7083 194.564 57.7028C194.748 57.6973 194.932 57.7282 195.104 57.7937C195.458 57.9595 195.734 58.254 195.878 58.6171C196.022 58.9801 196.021 59.3844 195.877 59.7472L189.613 76.218C189.506 76.472 189.326 76.6887 189.096 76.8412C188.867 76.9936 188.597 77.0751 188.322 77.0753Z" fill="white"/>
<path d="M132.935 99.7876L258.904 99.7876V96.3585C258.904 96.0474 258.842 95.7394 258.721 95.4526C258.6 95.1658 258.424 94.9061 258.201 94.6887C257.979 94.4714 257.715 94.3007 257.426 94.1868C257.136 94.0729 256.827 94.0182 256.516 94.0257L135.224 94.0257C134.613 94.0367 134.031 94.2873 133.602 94.7237C133.174 95.16 132.934 95.747 132.935 96.3585V99.7876Z" fill="#E5E5E5"/>
<path d="M137.232 167.004L254.522 167.004C255.673 167.004 256.777 166.547 257.59 165.732C258.404 164.918 258.861 163.814 258.861 162.662V99.8L132.935 99.8V162.662C132.935 163.806 133.386 164.904 134.191 165.718C134.995 166.531 136.088 166.993 137.232 167.004Z" fill="#282828"/>
<path d="M152.75 96.9054C152.75 97.0805 152.698 97.2517 152.6 97.3973C152.503 97.5429 152.365 97.6564 152.203 97.7234C152.042 97.7904 151.864 97.8079 151.692 97.7738C151.521 97.7396 151.363 97.6553 151.239 97.5314C151.115 97.4076 151.031 97.2499 150.997 97.0781C150.963 96.9064 150.98 96.7284 151.047 96.5666C151.114 96.4048 151.228 96.2665 151.373 96.1692C151.519 96.0719 151.69 96.02 151.865 96.02C152.099 96.02 152.324 96.1133 152.49 96.2794C152.656 96.4454 152.75 96.6706 152.75 96.9054Z" fill="#4D2BC2"/>
<path d="M146.669 96.9055C146.672 97.0846 146.621 97.2604 146.523 97.4104C146.426 97.5605 146.285 97.6779 146.121 97.7478C145.956 97.8176 145.774 97.8365 145.598 97.8023C145.423 97.768 145.261 97.6821 145.135 97.5554C145.008 97.4288 144.922 97.2673 144.888 97.0915C144.854 96.9157 144.873 96.7338 144.942 96.5688C145.012 96.4039 145.13 96.2636 145.28 96.1659C145.43 96.0681 145.605 96.0174 145.784 96.0201C146.019 96.0201 146.244 96.1134 146.41 96.2795C146.576 96.4455 146.669 96.6707 146.669 96.9055Z" fill="#4D2BC2"/>
<path d="M140.574 96.9054C140.574 97.0805 140.522 97.2517 140.425 97.3973C140.328 97.5429 140.19 97.6564 140.028 97.7234C139.866 97.7904 139.688 97.8079 139.517 97.7738C139.345 97.7396 139.188 97.6553 139.064 97.5314C138.94 97.4076 138.856 97.2499 138.822 97.0781C138.788 96.9064 138.805 96.7284 138.872 96.5666C138.939 96.4048 139.052 96.2665 139.198 96.1692C139.343 96.0719 139.514 96.02 139.689 96.02C139.924 96.02 140.149 96.1133 140.315 96.2794C140.481 96.4454 140.574 96.6706 140.574 96.9054Z" fill="#4D2BC2"/>
<path d="M209.373 108.866H139.451C139.129 108.866 138.82 108.739 138.592 108.512C138.363 108.286 138.233 107.979 138.229 107.657C138.223 107.493 138.251 107.329 138.31 107.176C138.368 107.023 138.457 106.883 138.572 106.765C138.686 106.647 138.822 106.553 138.973 106.489C139.124 106.425 139.287 106.392 139.451 106.392H209.373C209.697 106.392 210.007 106.521 210.237 106.75C210.466 106.98 210.594 107.29 210.594 107.615C210.598 107.778 210.569 107.94 210.51 108.091C210.45 108.243 210.36 108.381 210.247 108.498C210.133 108.614 209.997 108.707 209.847 108.77C209.697 108.833 209.535 108.866 209.373 108.866Z" fill="#7AD3D5"/>
<path d="M190.607 116.624H139.131C138.892 116.624 138.663 116.495 138.495 116.266C138.326 116.036 138.231 115.725 138.231 115.401C138.231 115.241 138.255 115.083 138.3 114.935C138.345 114.788 138.412 114.654 138.495 114.541C138.579 114.429 138.678 114.34 138.787 114.28C138.896 114.221 139.013 114.191 139.131 114.192H190.607C190.725 114.191 190.842 114.221 190.951 114.28C191.06 114.34 191.159 114.429 191.243 114.541C191.326 114.654 191.393 114.788 191.438 114.935C191.484 115.083 191.507 115.241 191.507 115.401C191.507 115.725 191.412 116.036 191.243 116.266C191.075 116.495 190.846 116.624 190.607 116.624Z" fill="#7AD3D5"/>
<path d="M170.736 124.132H138.92C138.637 124.132 138.367 124.02 138.167 123.821C137.967 123.622 137.855 123.352 137.855 123.071C137.855 122.79 137.967 122.52 138.167 122.321C138.367 122.122 138.637 122.011 138.92 122.011H170.736C170.875 122.011 171.013 122.038 171.142 122.092C171.27 122.145 171.387 122.223 171.485 122.322C171.583 122.421 171.66 122.538 171.712 122.666C171.764 122.795 171.79 122.932 171.789 123.071C171.79 123.21 171.764 123.347 171.712 123.476C171.66 123.605 171.583 123.722 171.485 123.82C171.387 123.919 171.27 123.997 171.142 124.051C171.013 124.104 170.875 124.132 170.736 124.132Z" fill="#7AD3D5"/>
<path d="M209.372 139.882H139.451C139.126 139.882 138.816 139.754 138.587 139.524C138.357 139.295 138.229 138.984 138.229 138.66C138.232 138.338 138.363 138.031 138.592 137.804C138.82 137.578 139.129 137.451 139.451 137.451H209.372C209.694 137.451 210.003 137.578 210.231 137.804C210.46 138.031 210.591 138.338 210.594 138.66C210.594 138.984 210.466 139.295 210.236 139.524C210.007 139.754 209.696 139.882 209.372 139.882Z" fill="#F37021"/>
<path d="M164.571 147.461H138.72C138.49 147.461 138.27 147.349 138.108 147.15C137.946 146.951 137.855 146.682 137.855 146.4C137.855 146.119 137.946 145.849 138.108 145.65C138.27 145.452 138.49 145.34 138.72 145.34H164.571C164.684 145.34 164.796 145.367 164.9 145.421C165.005 145.474 165.099 145.553 165.179 145.651C165.258 145.75 165.321 145.867 165.364 145.995C165.406 146.124 165.427 146.262 165.426 146.4C165.427 146.539 165.406 146.677 165.364 146.805C165.321 146.934 165.258 147.051 165.179 147.149C165.099 147.248 165.005 147.326 164.9 147.38C164.796 147.433 164.684 147.461 164.571 147.461Z" fill="#F37021"/>
<path d="M164.571 154.884H138.72C138.49 154.884 138.27 154.772 138.108 154.573C137.946 154.375 137.855 154.105 137.855 153.824C137.855 153.542 137.946 153.273 138.108 153.074C138.27 152.875 138.49 152.763 138.72 152.763H164.571C164.684 152.763 164.796 152.791 164.9 152.844C165.005 152.898 165.099 152.976 165.179 153.074C165.258 153.173 165.321 153.29 165.364 153.419C165.406 153.547 165.427 153.685 165.426 153.824C165.427 153.962 165.406 154.1 165.364 154.229C165.321 154.357 165.258 154.474 165.179 154.573C165.099 154.671 165.005 154.75 164.9 154.803C164.796 154.857 164.684 154.884 164.571 154.884Z" fill="#7AD3D5"/>
<path d="M204.115 124.379H178.792C178.48 124.379 178.18 124.251 177.96 124.021C177.739 123.792 177.615 123.481 177.615 123.157C177.615 122.832 177.739 122.521 177.96 122.292C178.18 122.063 178.48 121.934 178.792 121.934H204.115C204.427 121.934 204.727 122.063 204.947 122.292C205.168 122.521 205.292 122.832 205.292 123.157C205.292 123.481 205.168 123.792 204.947 124.021C204.727 124.251 204.427 124.379 204.115 124.379Z" fill="white"/>
<path d="M244.102 106.969L225.508 125.562C225.279 125.791 224.969 125.92 224.645 125.92C224.321 125.92 224.01 125.791 223.781 125.562C223.56 125.331 223.436 125.024 223.436 124.704C223.436 124.385 223.56 124.078 223.781 123.847L242.375 105.24C242.604 105.011 242.914 104.882 243.238 104.882C243.562 104.882 243.873 105.011 244.102 105.24C244.324 105.473 244.448 105.783 244.448 106.105C244.448 106.426 244.324 106.736 244.102 106.969Z" fill="#F37021"/>
<path d="M132.892 160.203V182.379L153.255 161.987" fill="#282828"/>
<path d="M111.21 188.366H155.896L172.06 219.494H127.374L111.21 188.366Z" fill="#98BEBB"/>
<path d="M128.216 217.191L114.833 191.417C114.77 191.292 114.741 191.154 114.747 191.015C114.753 190.876 114.795 190.741 114.868 190.622C114.941 190.504 115.044 190.406 115.165 190.339C115.287 190.271 115.424 190.236 115.563 190.236H154.28C154.428 190.237 154.573 190.278 154.699 190.355C154.825 190.432 154.928 190.541 154.997 190.672L168.38 216.446C168.442 216.571 168.472 216.709 168.465 216.848C168.459 216.987 168.418 217.122 168.344 217.241C168.271 217.359 168.169 217.457 168.047 217.524C167.926 217.592 167.789 217.627 167.65 217.627H128.988C128.831 217.637 128.675 217.601 128.538 217.523C128.401 217.446 128.289 217.331 128.216 217.191Z" fill="white"/>
<path d="M163.563 223.656H127.373V219.496H163.563V223.656Z" fill="#C4E2E1"/>
<path d="M194.655 219.495H158.943C158.665 219.495 158.39 219.551 158.134 219.659C157.878 219.767 157.647 219.925 157.453 220.124C157.259 220.323 157.107 220.559 157.006 220.818C156.905 221.077 156.857 221.353 156.864 221.631C156.864 221.904 156.918 222.174 157.023 222.425C157.128 222.677 157.281 222.905 157.474 223.097C157.667 223.289 157.897 223.441 158.149 223.544C158.401 223.647 158.671 223.699 158.943 223.697H194.655C194.927 223.699 195.197 223.647 195.45 223.544C195.702 223.441 195.931 223.289 196.124 223.097C196.317 222.905 196.471 222.677 196.575 222.425C196.68 222.174 196.734 221.904 196.734 221.631C196.741 221.353 196.693 221.077 196.592 220.818C196.491 220.559 196.339 220.323 196.145 220.124C195.951 219.925 195.72 219.767 195.464 219.659C195.208 219.551 194.933 219.495 194.655 219.495Z" fill="#ACCBC8"/>
<path d="M127.373 219.495L111.209 188.366L110.395 188.971C110.13 189.164 109.942 189.445 109.862 189.763C109.783 190.081 109.817 190.418 109.959 190.713L127.373 223.641V219.495Z" fill="#C4E2E1"/>
<path d="M143.649 222.124H139.661V221.435H143.649V222.124Z" fill="#ACCBC8"/>
<path d="M148.649 222.124H144.661V221.435H148.649V222.124Z" fill="#ACCBC8"/>
<path d="M153.663 222.124H149.674V221.435H153.663V222.124Z" fill="#ACCBC8"/>
<path d="M208.839 280.418C208.839 280.418 171.75 309.298 165.894 316.634C163.675 319.445 159.813 324.279 155.811 329.282C149.225 337.475 142.259 346.02 141.431 346.217C140.097 346.554 128.974 338.08 128.637 336.253C128.441 335.114 138.566 317.716 147.329 303.733C152.665 295.23 157.496 287.979 159.196 286.419C163.675 282.203 191.243 267.643 191.243 267.643L208.839 280.418Z" fill="#3B3B71"/>
<g style="mix-blend-mode:overlay" opacity="0.15">
<path d="M138.046 340.047C138.046 340.047 172.677 290.718 190.007 282.427" stroke="black" stroke-width="0.82" stroke-miterlimit="10" stroke-linecap="round"/>
</g>
<path d="M247.472 153.752C247.079 154.652 246.644 155.579 246.068 156.563C243.358 161.749 245.352 166.935 242.262 168.256C242.065 168.346 241.858 168.412 241.644 168.452C237.656 169.338 228.472 164.026 228.065 161.426C227.657 158.826 230.873 154.216 228.065 153.668C225.256 153.12 223.711 157.884 223.711 157.884C221.38 158.123 220.551 154.216 216.689 154.216C216.154 154.222 215.621 154.293 215.103 154.427C213.481 154.898 211.985 155.724 210.721 156.844C210.305 157.184 209.915 157.555 209.555 157.954C208.53 157.239 207.697 156.281 207.131 155.165C206.565 154.049 206.283 152.811 206.311 151.56C206.578 144.842 209.12 139.938 215.032 138.912C215.692 131.435 221.843 127.444 230.059 127.191C237.263 126.966 238.344 133.445 238.485 135.061C238.393 132.311 237.673 129.619 236.378 127.191C239.987 127.036 243.161 129.608 242.333 137.998C243.161 135.497 246.068 133.923 248.301 135.75C246.237 135.75 244.242 139.235 244.242 139.235C245.91 140.402 247.304 141.917 248.329 143.676C249.832 145.995 249.312 149.508 247.472 153.752Z" fill="black"/>
<path d="M242.333 168.229L242.248 169.465L241.967 173.85C241.967 173.85 235.339 179.471 231.575 173.85L231.491 173.738C231.175 173.118 230.725 172.577 230.174 172.154C229.622 171.731 228.983 171.436 228.303 171.292C226.239 171.039 224.554 173.077 222.826 170.871C219.138 165.985 216.555 160.355 215.257 154.372C215.775 154.238 216.308 154.167 216.844 154.161C220.664 154.161 221.492 158.068 223.865 157.829C223.865 157.829 225.396 153.065 228.219 153.613C231.042 154.161 227.826 158.714 228.219 161.37C228.401 162.551 230.325 164.279 232.769 165.727C235.578 167.427 239.145 168.791 241.392 168.538L241.799 168.467C241.985 168.408 242.164 168.328 242.333 168.229Z" fill="#EBAB94"/>
<g style="mix-blend-mode:overlay" opacity="0.25">
<path d="M243.371 176.35C240.38 178.387 234.945 178.725 234.945 178.725L230.466 178.064C230.466 178.064 228.584 175.352 229.468 173.848C229.797 173.395 230.195 172.997 230.648 172.668C232.251 171.404 233.973 170.298 235.788 169.365C237.559 168.337 239.507 167.65 241.532 167.341C245.253 167.102 246.363 174.298 243.371 176.35Z" fill="black"/>
</g>
<path d="M242.487 249.065C235.816 250.358 221.702 246.423 214.948 243.443C213.563 242.969 212.305 242.186 211.268 241.153C209.976 238.862 211.268 237.105 214.484 229.91C214.849 229.095 215.228 228.209 215.65 227.253C217.826 222.11 217.841 211.162 217.826 201.718C217.826 193.623 217.826 186.653 219.048 185.416C221.857 182.732 235.732 173.934 235.732 173.934L238.54 188.367C238.54 188.367 240.099 195.703 241.756 205.231C244.776 222.756 248.076 247.997 242.487 249.065Z" fill="#71C2C4"/>
<path d="M247.135 255.501C247.135 256.161 240.493 271.663 234.918 273.883C229.342 276.103 195.779 273.658 195.779 273.658L179.179 284.522L182.648 317.196L185.064 340.005L185.148 340.736C180.064 344.053 167.271 344.952 165.894 342.141C164.49 339.26 144.197 277.902 152.16 267.264C160.123 256.625 211.268 241.124 211.268 241.124C212.721 242.018 214.248 242.785 215.833 243.415C221.777 245.631 227.946 247.191 234.229 248.067C236.35 248.39 238.204 248.629 239.608 248.797C241.406 249.022 242.487 249.092 242.487 249.092C242.487 249.092 247.135 254.826 247.135 255.501Z" fill="#3B3B71"/>
<path d="M187.198 362.168H144.085C143.999 361.752 144.02 361.321 144.145 360.916C144.27 360.511 144.496 360.143 144.801 359.849C146.557 357.741 150.952 355.633 155.179 353.792C159.406 351.951 163.044 350.573 164.336 349.576C167.383 347.158 165.979 342.464 165.894 342.169C166.358 343.139 168.127 343.673 170.459 343.828C175.023 344.165 181.777 343.027 185.148 340.82L185.064 340.089C186.356 342.549 186.959 354.705 187.17 359.877C187.198 361.254 187.198 362.168 187.198 362.168Z" fill="#1A2558"/>
<path d="M170.458 343.785C170.318 345.851 170.023 349.182 169.433 350.081C168.549 351.487 159.027 356.068 157.693 355.618C156.735 355.17 155.879 354.529 155.179 353.735C159.196 352.007 163.044 350.517 164.336 349.519C167.383 347.102 165.979 342.408 165.894 342.113C166.358 343.097 168.127 343.631 170.458 343.785Z" fill="#39497D"/>
<path d="M187.198 362.166H144.085C143.999 361.751 144.02 361.32 144.145 360.915C144.27 360.509 144.496 360.142 144.801 359.848H187.198C187.198 361.253 187.198 362.166 187.198 362.166Z" fill="#39497D"/>
<path d="M141.431 346.202C139.714 350.753 137.667 355.173 135.308 359.426C134.17 361.253 133.103 362.448 132.345 362.153C129.69 361.155 103.008 338.458 105.564 336.856C106.095 336.573 106.678 336.401 107.277 336.35C110.526 336.174 113.785 336.305 117.009 336.744C120.057 337.053 122.907 337.404 124.382 337.404C128.146 337.404 128.595 336.294 128.595 336.294C129.046 337.175 129.677 337.951 130.449 338.571C133.833 341.648 140.42 346.455 141.431 346.202Z" fill="#1A2558"/>
<path d="M130.491 338.515C128.627 339.767 126.458 340.487 124.217 340.599C121.975 340.71 119.746 340.209 117.767 339.148C117.434 338.842 117.188 338.454 117.055 338.021C116.921 337.589 116.906 337.129 117.009 336.688C120.057 336.998 122.907 337.349 124.382 337.349C128.145 337.349 128.595 336.239 128.595 336.239C129.058 337.124 129.704 337.9 130.491 338.515Z" fill="#39497D"/>
<path d="M135.238 359.427C134.1 361.254 133.033 362.448 132.275 362.153C129.62 361.155 102.938 338.459 105.494 336.856C106.025 336.573 106.608 336.401 107.207 336.351L135.238 359.427Z" fill="#39497D"/>
<path d="M214.962 220.803C212.883 223.698 209.148 228.139 206.072 227.689H205.679C199.823 226.649 165.305 217.992 163.676 217.669C162.046 217.346 150.391 217.219 151.036 216.011C151.682 214.802 158.353 210.909 160.123 211.008C161.892 211.106 168.858 213.13 175.837 212.905C182.817 212.68 201.115 212.905 201.115 212.905L202 211.373L203.306 209.11C202.913 215.828 211.072 221.351 214.962 220.803Z" fill="#EBAB94"/>
<g style="mix-blend-mode:overlay" opacity="0.15">
<path d="M214.962 246.014C214.962 246.014 213.375 254.446 219.568 257.257" stroke="black" stroke-width="0.82" stroke-miterlimit="10" stroke-linecap="round"/>
</g>
<g style="mix-blend-mode:overlay" opacity="0.15">
<path d="M211.718 252.83C211.718 252.83 170.711 270.341 168.745 275.766C166.779 281.19 179.179 340.047 179.179 340.047" stroke="black" stroke-width="0.82" stroke-miterlimit="10" stroke-linecap="round"/>
</g>
<g style="mix-blend-mode:overlay" opacity="0.15">
<path d="M247.135 255.501C247.135 256.161 240.493 271.662 234.918 273.883C229.342 276.103 195.779 273.658 195.779 273.658L179.179 284.521L182.648 317.196C182.648 317.196 175.626 279.828 175.626 277.382C175.626 275.288 221.97 261.923 234.229 247.996C239.018 248.755 242.487 249.022 242.487 249.022C242.487 249.022 247.135 254.826 247.135 255.501Z" fill="black"/>
</g>
<g style="mix-blend-mode:overlay" opacity="0.25">
<path d="M225.27 215.842C222.461 219.917 217.756 225.103 214.484 229.797C214.849 228.982 215.229 228.096 215.65 227.141C217.827 221.997 217.841 211.049 217.827 201.605L227.769 195.014C227.769 195.014 229.918 209.25 225.27 215.842Z" fill="black"/>
</g>
<path d="M216.788 219.538C216.352 219.931 215.917 220.325 215.481 220.69C215.312 220.742 215.138 220.78 214.962 220.802C211.058 221.351 202.913 215.827 203.278 209.054C203.489 208.066 203.854 207.117 204.359 206.243C207.687 199.511 217.728 184.53 219.568 185.162C219.568 185.162 226.014 186.16 227.769 195C229.328 203.362 223.486 213.312 216.788 219.538Z" fill="#579697"/>
<g style="mix-blend-mode:overlay" opacity="0.25">
<path d="M239.608 248.768C238.204 248.599 236.35 248.361 234.229 248.037C227.946 247.162 221.777 245.602 215.832 243.386C220.846 243.203 231.561 239.9 232.867 215.278C233.472 220.075 234.372 224.829 235.563 229.515C237.235 235.86 238.585 242.286 239.608 248.768Z" fill="black"/>
</g>
<g style="mix-blend-mode:overlay" opacity="0.25">
<path d="M236.968 167.736C236.532 168.248 236.124 168.783 235.746 169.338C233.931 170.272 232.209 171.378 230.606 172.641C230.03 171.893 229.192 171.391 228.261 171.236L232.685 165.614C234.035 166.469 235.47 167.18 236.968 167.736Z" fill="black"/>
</g>
<g style="mix-blend-mode:overlay" opacity="0.25">
<path d="M214.962 220.803C212.883 223.698 209.148 228.139 206.072 227.689H205.679C201.888 222.18 201.747 215.041 201.972 211.373L203.278 209.11C202.913 215.828 211.072 221.351 214.962 220.803Z" fill="black"/>
</g>
<g style="mix-blend-mode:overlay" opacity="0.25">
<path d="M247.472 153.753C247.079 154.652 246.644 155.58 246.068 156.564C245.017 158.818 244.425 161.259 244.326 163.745C243.875 163.406 243.407 163.092 242.922 162.804C240.644 164.117 238.595 165.792 236.855 167.764C232.797 166.359 228.317 163.197 228.036 161.356C227.643 158.7 230.845 154.147 228.036 153.598C225.227 153.05 223.683 157.815 223.683 157.815C221.352 158.053 220.523 154.147 216.661 154.147C216.125 154.153 215.593 154.223 215.074 154.357C213.453 154.829 211.956 155.654 210.693 156.775C210.693 156.775 215.004 150.717 221.759 151.94C221.759 151.94 220.762 150.057 216.226 150.282C225.747 147.176 231.828 148.399 234.763 151.828C237.291 154.624 242.908 158.096 247.472 153.753Z" fill="black"/>
</g>
<path d="M266.838 284.521H233.626C233.626 284.521 259.971 276.763 259.971 224.441C259.971 223.767 259.971 223.106 259.971 222.446C259.704 187.495 252.247 168.227 243.119 162.732C246.764 160.684 250.706 159.219 254.803 158.39C257.22 157.843 259.668 157.444 262.134 157.195C284.87 154.806 303.042 163.73 305.163 173.848C307.283 183.967 294.054 284.521 266.838 284.521Z" fill="#C4E2E1"/>
<path d="M259.971 224.442C259.971 276.722 233.625 284.479 233.625 284.479H179.179L181.44 282.863L195.778 273.63L224.553 271.662C226.098 265.24 230.311 265.029 236.729 264.354C240.464 263.975 240.83 257.651 239.692 249.317C238.667 242.667 237.289 236.076 235.563 229.572C234.372 224.886 233.472 220.132 232.867 215.335C232.203 210.246 231.856 205.121 231.828 199.989C231.755 190.837 232.65 181.703 234.496 172.739C234.636 172.078 234.777 171.446 234.903 170.842C235.437 169.74 236.123 168.718 236.94 167.806C238.679 165.834 240.728 164.158 243.006 162.845C243.491 163.134 243.96 163.448 244.411 163.787C252.963 170.308 259.718 189.35 259.971 222.559C259.971 223.149 259.971 223.81 259.971 224.442Z" fill="#98BEBB"/>
<path d="M249.466 362.167H210.257C209.961 362.17 209.672 362.079 209.431 361.908C209.189 361.736 209.008 361.493 208.913 361.212C208.818 360.932 208.814 360.629 208.902 360.346C208.989 360.063 209.164 359.815 209.401 359.637L219.231 351.964C221.38 350.278 223.117 348.125 224.311 345.669C225.506 343.212 226.127 340.516 226.126 337.784V284.521H233.654V337.77C233.655 340.503 234.278 343.2 235.475 345.657C236.672 348.113 238.412 350.265 240.563 351.95L250.393 359.623C250.643 359.802 250.827 360.057 250.917 360.351C251.008 360.644 251 360.959 250.895 361.247C250.79 361.535 250.593 361.781 250.335 361.948C250.077 362.114 249.772 362.191 249.466 362.167Z" fill="#C4E2E1"/>
<g style="mix-blend-mode:overlay" opacity="0.25">
<path d="M279.365 159.136C279.365 159.136 279.716 160.049 280.278 161.862" stroke="black" stroke-width="0.82" stroke-miterlimit="10" stroke-linecap="round"/>
<path d="M281.766 167.16C283.575 174.454 284.944 181.85 285.867 189.308C289.406 216.572 285.867 254.742 262.555 279.251" stroke="black" stroke-width="0.82" stroke-miterlimit="10" stroke-linecap="round" stroke-dasharray="3.92 3.92"/>
<path d="M260.617 281.136C259.929 281.811 259.213 282.457 258.511 283.104" stroke="black" stroke-width="0.82" stroke-miterlimit="10" stroke-linecap="round"/>
</g>
<g style="mix-blend-mode:overlay" opacity="0.15">
<path d="M233.625 284.521V299.052C231.203 300.306 228.686 301.368 226.098 302.228V284.521H233.625Z" fill="black"/>
</g>
<g style="mix-blend-mode:overlay" opacity="0.15">
<path d="M244.032 261.924C242.262 267.461 231.196 266.463 229.862 270.566C227.053 279.252 225.438 275.429 214.484 276.539C208.235 277.172 203.685 281.191 200.947 284.522H179.179L181.44 282.906L195.779 273.63L224.553 271.663C226.098 265.24 230.311 265.029 236.729 264.355C240.465 263.975 240.83 257.651 239.692 249.317C238.667 242.667 237.289 236.076 235.563 229.572C234.373 224.887 233.472 220.132 232.867 215.336C232.203 210.247 231.856 205.121 231.828 199.989C236.083 222.194 245.338 257.82 244.032 261.924Z" fill="black"/>
</g>
<g style="mix-blend-mode:overlay" opacity="0.15">
<path d="M259.971 224.442C259.971 223.768 259.971 223.107 259.971 222.446C259.704 187.495 252.247 168.228 243.119 162.733C246.764 160.685 250.706 159.219 254.803 158.39C253.824 159.653 253.11 161.1 252.705 162.646C252.299 164.192 252.21 165.803 252.444 167.384C253.848 173.596 268.832 197.515 263.074 235.854C258.861 263.497 260.266 277.888 264.633 284.592H233.626C233.626 284.592 259.971 276.764 259.971 224.442Z" fill="black"/>
</g>
<g style="mix-blend-mode:overlay" opacity="0.25">
<path d="M69.9497 195.998C69.9475 197.131 69.8298 198.261 69.5986 199.371H58.9116C54.1373 196.264 50.236 191.988 47.5786 186.947C50.3873 190.067 55.3165 193.862 60.2177 195.014C64.6273 196.026 67.8292 195.59 69.9497 195.998Z" fill="black"/>
</g>
<path d="M94.7647 153.542C93.571 157.87 88.1081 166.288 83.1227 175.297C77.6599 185.134 72.7728 195.646 74.6967 202.322C75.0907 203.551 75.322 204.827 75.3849 206.116C75.3849 209.025 73.1941 208.126 70.9752 206.482C69.346 205.193 67.8156 203.783 66.3971 202.265L66.5656 189.308C66.5656 189.308 59.2209 182.562 65.2455 167.792C65.6388 166.864 66.0741 165.895 66.5656 164.883C74.8652 148.103 87.3077 130.494 75.5253 125.533C91.7875 124.563 97.3206 144.463 94.7647 153.542Z" fill="#648E76"/>
<g style="mix-blend-mode:overlay" opacity="0.53">
<path d="M75.5111 125.56C78.5493 126.342 81.1637 128.277 82.7996 130.956C84.4073 133.606 85.3023 136.627 85.3976 139.726C85.1452 142.808 84.4009 145.831 83.1928 148.678C82.0693 151.559 80.7773 154.383 79.4572 157.194C76.789 162.816 73.9101 168.311 71.3542 174.059C70.043 176.897 68.9034 179.811 67.9417 182.786C67.4639 184.296 67.107 185.842 66.8744 187.409C66.5954 189.036 66.6963 190.705 67.1693 192.286C67.1929 192.358 67.2308 192.424 67.2807 192.481C67.3306 192.538 67.3914 192.585 67.4596 192.617C67.5278 192.65 67.602 192.669 67.6776 192.672C67.7532 192.676 67.8287 192.664 67.8996 192.637C68.0418 192.589 68.1596 192.487 68.2278 192.353C68.296 192.219 68.3092 192.064 68.2647 191.921C67.8368 190.51 67.7312 189.021 67.9557 187.564C68.156 186.05 68.4801 184.556 68.9247 183.095C69.8326 180.144 70.911 177.249 72.1547 174.424C74.6123 168.732 77.4069 163.181 79.9909 157.56C81.2829 154.749 82.5187 151.938 83.6 148.959C84.7812 146.055 85.4923 142.98 85.7065 139.852L85.6223 138.672L85.4257 137.519C85.293 136.749 85.11 135.989 84.878 135.242C84.4453 133.746 83.7871 132.324 82.926 131.026C81.2741 128.294 78.6079 126.329 75.5111 125.56Z" fill="black"/>
</g>
<path d="M87.2935 179.723C82.3221 192.849 87.2934 202.813 79.8224 204.233C76.4098 204.879 74.8932 202.349 74.2752 199.398C73.8342 196.907 73.7491 194.366 74.0225 191.851C75.0112 189.538 76.3362 187.383 77.9546 185.457C80.2861 182.494 83.5976 180.461 87.2935 179.723Z" fill="#579697"/>
<path d="M69.9502 195.999C69.9502 199.062 69.234 201.62 67.8156 203.025C67.6752 203.166 67.5347 203.278 67.4083 203.391C63.8834 206.201 61.6225 201.016 61.6225 201.016C55.6622 197.815 50.7774 192.927 47.5791 186.962C44.0121 179.738 43.2116 169.69 51.6095 156.775C52.8454 165.98 57.8729 172.234 62.8442 178.193L64.698 180.399C68.1111 184.882 69.9566 190.363 69.9502 195.999Z" fill="#AEC670"/>
<g style="mix-blend-mode:overlay" opacity="0.53">
<path d="M51.6092 156.76C50.721 160.713 50.4182 164.776 50.7105 168.818C50.9609 172.904 52.1633 176.874 54.2213 180.412C56.4453 183.807 58.939 187.017 61.6783 190.011C62.9639 191.515 64.0452 193.183 64.8943 194.972C65.6812 196.734 65.9958 198.672 65.8071 200.593C65.7993 200.669 65.8067 200.745 65.8286 200.818C65.8506 200.891 65.8868 200.959 65.9351 201.018C65.9834 201.076 66.0429 201.125 66.1101 201.161C66.1773 201.196 66.2509 201.218 66.3267 201.225C66.4766 201.238 66.6256 201.192 66.7431 201.098C66.8605 201.004 66.9377 200.869 66.9587 200.719C67.1171 198.598 66.7202 196.471 65.8071 194.55C64.8781 192.705 63.712 190.99 62.3384 189.448C59.5505 186.548 57.0004 183.427 54.7128 180.117C52.6206 176.709 51.3512 172.859 51.0054 168.874C50.6017 164.828 50.8053 160.745 51.6092 156.76Z" fill="black"/>
</g>
<path d="M87.3076 179.723C87.3076 179.723 76.1712 191.851 74.6686 202.321L87.3076 179.723Z" fill="#394E3F"/>
<path d="M84.2745 202.66L81.1007 222.236C81.02 222.632 80.8056 222.988 80.4935 223.244C80.1815 223.5 79.7908 223.64 79.3874 223.642H59.53C59.1252 223.646 58.7318 223.507 58.4186 223.25C58.1055 222.993 57.8924 222.634 57.8167 222.236L55.1906 206.342L54.6008 202.66C54.5533 202.408 54.5619 202.148 54.6261 201.9C54.6902 201.652 54.8083 201.421 54.972 201.223C55.1356 201.026 55.3408 200.867 55.5728 200.759C55.8048 200.65 56.0579 200.593 56.3141 200.594H82.5612C82.8174 200.593 83.0705 200.65 83.3025 200.759C83.5345 200.867 83.7397 201.026 83.9033 201.223C84.0669 201.421 84.1851 201.652 84.2492 201.9C84.3134 202.148 84.322 202.408 84.2745 202.66Z" fill="#474747"/>
<path d="M87.2935 206.65H51.6092L52.5502 201.31C52.6487 200.766 52.9346 200.274 53.3579 199.92C53.7813 199.566 54.3154 199.371 54.8673 199.37H84.0635C84.6121 199.372 85.1424 199.568 85.5611 199.923C85.9797 200.277 86.26 200.768 86.3526 201.31L87.2935 206.65Z" fill="#474747"/>
<g style="mix-blend-mode:overlay" opacity="0.25">
<path d="M74.0225 193.439C73.7484 195.939 73.8288 198.466 74.2612 200.944H69.5988C69.83 199.834 69.9476 198.704 69.9499 197.571C69.9675 191.938 68.1316 186.456 64.7257 181.971L62.872 179.751C63.0312 176.194 63.8304 172.694 65.2313 169.421C65.5122 174.129 66.6356 182.323 71.3542 183.18C74.9212 183.84 79.5696 180.299 83.1226 176.87C81.2407 180.229 79.4432 183.686 77.9546 187.031C76.3342 188.96 75.009 191.12 74.0225 193.439Z" fill="black"/>
</g>
<g style="mix-blend-mode:overlay" opacity="0.25">
<path d="M71.3823 223.641H59.5297C59.1248 223.645 58.7315 223.506 58.4183 223.249C58.1052 222.992 57.8921 222.633 57.8164 222.235L55.2746 206.65H65.5122C65.0783 209.78 65.1494 212.959 65.7228 216.066C66.6781 219.169 68.678 221.846 71.3823 223.641Z" fill="#585858"/>
</g>
<path d="M163.9 62.3887L115.254 62.3887C112.159 62.3887 109.65 59.8782 109.65 56.7813V21.1273C109.65 18.0304 112.159 15.5199 115.254 15.5199L163.9 15.5199C166.995 15.5199 169.503 18.0304 169.503 21.1273V56.7813C169.503 59.8782 166.995 62.3887 163.9 62.3887Z" fill="#4D2BC2"/>
<path d="M184.291 14.6069C184.617 14.5792 184.944 14.6246 185.25 14.7399C185.555 14.8551 185.831 15.0373 186.057 15.2731C186.284 15.5088 186.454 15.7922 186.557 16.1025C186.659 16.4127 186.691 16.742 186.65 17.0663C186.65 18.036 186.538 19.0338 186.44 20.0316C186.313 21.0528 186.242 22.0803 186.229 23.1093C186.157 23.6995 186.218 24.2984 186.408 24.8618C186.598 25.4251 186.913 25.9384 187.328 26.3635C187.744 26.7887 188.249 27.1148 188.808 27.3178C189.366 27.5208 189.963 27.5955 190.555 27.5362H191.004V25.7373H190.512C188.954 25.7373 188.434 24.6693 188.434 23.1093C188.452 22.2206 188.523 21.3337 188.645 20.4532C188.715 19.5819 188.827 18.7246 188.827 17.8533C188.827 15.1269 187.928 14.1993 186.44 13.7496V13.6372C187.928 13.2156 188.855 12.2318 188.827 9.58974C188.827 8.76058 188.715 7.93143 188.645 7.032C188.521 6.16109 188.451 5.28343 188.434 4.40396C188.434 2.84401 189.024 1.8181 190.484 1.8181H191.004V0.0192371H190.583C189.99 -0.0391687 189.392 0.0358241 188.833 0.238696C188.273 0.441568 187.766 0.767179 187.349 1.19167C186.931 1.61617 186.614 2.12877 186.42 2.6919C186.227 3.25504 186.161 3.85444 186.229 4.44614C186.242 5.46115 186.313 6.47459 186.44 7.4817C186.56 8.45655 186.63 9.4369 186.65 10.4189C186.693 10.7415 186.661 11.0694 186.558 11.378C186.456 11.6866 186.284 11.9679 186.057 12.2006C185.83 12.4333 185.553 12.6114 185.247 12.7215C184.941 12.8316 184.614 12.8708 184.291 12.8361V14.6069Z" fill="#363636"/>
<path d="M219.498 12.8796C219.175 12.912 218.85 12.871 218.546 12.7599C218.242 12.6488 217.967 12.4704 217.741 12.238C217.516 12.0055 217.346 11.7251 217.244 11.4176C217.142 11.1102 217.11 10.7836 217.152 10.4624C217.168 9.4806 217.234 8.50025 217.349 7.52516C217.476 6.51805 217.546 5.50461 217.56 4.48959C217.627 3.8979 217.562 3.29849 217.368 2.73536C217.175 2.17222 216.857 1.65962 216.44 1.23513C216.022 0.810636 215.515 0.485025 214.956 0.282153C214.396 0.0792811 213.798 0.00428836 213.206 0.0626942H212.799V1.86155H213.318C214.723 2.0302 215.355 2.88748 215.355 4.44743C215.355 5.38903 215.242 6.24629 215.172 7.07545C215.061 7.92385 214.995 8.77768 214.976 9.6332C214.976 12.3315 215.86 13.259 217.349 13.6806V13.7509C215.86 14.2006 214.933 15.1563 214.976 17.8546C214.992 18.7242 215.058 19.5922 215.172 20.4545C215.172 21.3118 215.355 22.1831 215.355 23.1106C215.355 24.6706 214.835 25.57 213.276 25.7386H212.799V27.5375H213.248C213.838 27.5945 214.434 27.5182 214.99 27.3142C215.547 27.1102 216.051 26.7837 216.465 26.3588C216.879 25.9339 217.192 25.4215 217.381 24.8593C217.571 24.2971 217.632 23.6995 217.56 23.1106C217.546 22.0816 217.476 21.0541 217.349 20.0329C217.251 19.0351 217.152 18.0373 217.152 17.0676C217.112 16.7446 217.143 16.4166 217.245 16.1075C217.347 15.7983 217.516 15.5157 217.741 15.2802C217.966 15.0448 218.24 14.8623 218.544 14.746C218.847 14.6298 219.173 14.5827 219.498 14.6082V12.8796Z" fill="#363636"/>
<path d="M207.659 17.1236V10.4762L201.901 7.14551L196.144 10.4762V17.1236L201.901 20.4543L207.659 17.1236Z" fill="#F37021"/>
<path d="M45.3599 26.9434H89.1752C89.9201 26.9434 90.6345 26.7199 91.1612 26.3222C91.688 25.9244 91.9839 25.385 91.9839 24.8225C91.9839 24.26 91.688 23.7206 91.1612 23.3228C90.6345 22.9251 89.9201 22.7017 89.1752 22.7017H45.3599C44.615 22.7017 43.9006 22.9251 43.3739 23.3228C42.8471 23.7206 42.5512 24.26 42.5512 24.8225C42.5512 25.385 42.8471 25.9244 43.3739 26.3222C43.9006 26.7199 44.615 26.9434 45.3599 26.9434Z" fill="#FAAA38"/>
<path d="M68.981 37.1768H90.0825C90.6592 37.1768 91.2122 36.9533 91.62 36.5556C92.0278 36.1578 92.2568 35.6184 92.2568 35.0559C92.2568 34.4934 92.0278 33.954 91.62 33.5562C91.2122 33.1585 90.6592 32.9351 90.0825 32.9351H68.981C68.4043 32.9351 67.8513 33.1585 67.4435 33.5562C67.0358 33.954 66.8067 34.4934 66.8067 35.0559C66.8067 35.6184 67.0358 36.1578 67.4435 36.5556C67.8513 36.9533 68.4043 37.1768 68.981 37.1768Z" fill="#CA7D10"/>
<path d="M68.981 47.7812H90.0825C90.6592 47.7812 91.2122 47.5578 91.62 47.1601C92.0278 46.7623 92.2568 46.2229 92.2568 45.6604C92.2568 45.0979 92.0278 44.5585 91.62 44.1607C91.2122 43.763 90.6592 43.5396 90.0825 43.5396H68.981C68.4043 43.5396 67.8513 43.763 67.4435 44.1607C67.0358 44.5585 66.8067 45.0979 66.8067 45.6604C66.8067 46.2229 67.0358 46.7623 67.4435 47.1601C67.8513 47.5578 68.4043 47.7812 68.981 47.7812Z" fill="#CA7D10"/>
<path d="M325.455 264.466C322.931 271.749 319.788 278.801 316.06 285.547C304.278 307.091 290.585 320.793 290.08 340.89C287.511 327.539 287.226 313.848 289.237 300.402C291.119 288.287 295.473 275.358 304.32 264.466C328.924 234.181 325.273 206.65 325.273 206.65C325.273 206.65 337.603 229.234 325.455 264.466Z" fill="#DCE5FF"/>
<g style="mix-blend-mode:overlay">
<path d="M297.495 317.196C297.214 314.839 297.214 312.456 297.495 310.099C297.761 307.729 298.193 305.381 298.787 303.072C300.013 298.412 301.726 293.895 303.899 289.595C304.938 287.416 306.188 285.379 307.409 283.257L311.328 277.115C313.839 272.866 315.981 268.408 317.731 263.792C321.186 254.668 323.69 245.212 325.202 235.573C326.009 230.769 326.53 225.921 326.761 221.055C326.86 218.624 326.874 216.179 326.761 213.747C326.696 212.532 326.56 211.321 326.354 210.122C326.19 208.916 325.834 207.744 325.301 206.65C325.81 207.753 326.142 208.929 326.284 210.136C326.462 211.337 326.569 212.548 326.607 213.762C326.705 216.179 326.607 218.61 326.494 221.041C326.164 225.881 325.574 230.699 324.725 235.474C323.083 245.045 320.462 254.421 316.903 263.455C315.11 267.957 312.945 272.3 310.429 276.441L306.455 282.554C305.219 284.662 303.955 286.77 302.888 288.962C300.648 293.332 298.887 297.93 297.635 302.679C297.004 305.056 296.567 307.482 296.329 309.93C296.028 312.404 296.028 314.905 296.329 317.379C296.359 317.523 296.442 317.651 296.563 317.736C296.684 317.821 296.832 317.856 296.978 317.834C297.124 317.813 297.256 317.736 297.347 317.62C297.438 317.504 297.481 317.357 297.467 317.21L297.495 317.196Z" fill="#46474D"/>
</g>
<g style="mix-blend-mode:overlay" opacity="0.25">
<path d="M316.06 285.548C304.278 307.092 290.585 320.794 290.08 340.891C287.511 327.54 287.226 313.849 289.237 300.402C296.877 297.283 307.62 292.195 316.06 285.548Z" fill="black"/>
</g>
<path d="M296.905 362.168C296.905 362.168 288.31 347.454 308.673 329.282C329.036 311.111 344.975 287.121 341.872 267.643C322.393 290.283 270.602 322.452 285.207 362.168H296.905Z" fill="#B9C5E9"/>
<g style="mix-blend-mode:overlay">
<path d="M341.872 267.629C337.555 276.018 331.858 283.619 325.02 290.115C321.705 293.459 317.998 296.397 314.445 299.432C310.836 302.465 307.543 305.855 304.615 309.551C301.652 313.27 299.016 317.239 296.736 321.412C294.51 325.587 292.659 329.951 291.203 334.454C289.776 338.989 288.932 343.688 288.689 348.437C288.389 353.23 289.156 358.031 290.936 362.491C291.001 362.625 291.116 362.728 291.256 362.78C291.395 362.831 291.55 362.826 291.686 362.766C291.822 362.706 291.93 362.595 291.986 362.458C292.043 362.32 292.044 362.166 291.99 362.027C290.223 357.71 289.445 353.052 289.715 348.395C289.901 343.728 290.685 339.104 292.046 334.637C293.439 330.168 295.225 325.832 297.382 321.679C299.592 317.542 302.153 313.602 305.036 309.902C307.914 306.196 311.166 302.795 314.74 299.755C318.293 296.692 321.958 293.698 325.23 290.311C332.015 283.743 337.641 276.074 341.872 267.629Z" fill="#99A5C6"/>
</g>
<path d="M316.102 99.0815H272.301C271.556 99.0815 270.842 98.8581 270.315 98.4604C269.788 98.0626 269.493 97.5232 269.493 96.9607C269.493 96.3982 269.788 95.8588 270.315 95.461C270.842 95.0633 271.556 94.8398 272.301 94.8398H316.102C316.847 94.8398 317.562 95.0633 318.088 95.461C318.615 95.8588 318.911 96.3982 318.911 96.9607C318.911 97.5232 318.615 98.0626 318.088 98.4604C317.562 98.8581 316.847 99.0815 316.102 99.0815Z" fill="#FAAA38"/>
<path d="M296.635 109.06H272.018C271.345 109.06 270.7 108.837 270.224 108.439C269.748 108.041 269.481 107.502 269.481 106.939C269.481 106.377 269.748 105.837 270.224 105.44C270.7 105.042 271.345 104.818 272.018 104.818H296.635C297.308 104.818 297.953 105.042 298.429 105.44C298.905 105.837 299.172 106.377 299.172 106.939C299.172 107.502 298.905 108.041 298.429 108.439C297.953 108.837 297.308 109.06 296.635 109.06Z" fill="#8D70F1"/>
<path d="M288.743 119.89H271.16C270.679 119.89 270.218 119.667 269.878 119.269C269.538 118.871 269.347 118.332 269.347 117.769C269.347 117.207 269.538 116.667 269.878 116.27C270.218 115.872 270.679 115.648 271.16 115.648H288.743C289.224 115.648 289.685 115.872 290.025 116.27C290.365 116.667 290.556 117.207 290.556 117.769C290.556 118.332 290.365 118.871 290.025 119.269C289.685 119.667 289.224 119.89 288.743 119.89Z" fill="#C1AFFE"/>
<path d="M233.948 47.8454C233.941 49.6356 234.286 51.4097 234.964 53.0664C235.642 54.7232 236.639 56.2301 237.898 57.5012C239.158 58.7722 240.656 59.7826 242.306 60.4744C243.955 61.1663 245.725 61.5262 247.514 61.5336H289.504C292.93 61.5108 296.224 60.2018 298.732 57.8656C301.24 55.5294 302.781 52.3362 303.049 48.9176C303.318 45.4991 302.294 42.1043 300.181 39.4048C298.068 36.7053 295.019 34.8978 291.639 34.3399C291.717 33.847 291.759 33.3492 291.765 32.8502C291.769 31.7158 291.549 30.5919 291.118 29.5427C290.687 28.4934 290.054 27.5395 289.254 26.7354C288.455 25.9314 287.505 25.2929 286.458 24.8567C285.412 24.4205 284.29 24.195 283.156 24.1932C281.096 24.1668 279.098 24.8968 277.539 26.245C274.871 20.1738 271.444 14.6367 261.839 14.6367C250.197 14.6367 244.678 23.7013 244.678 33.2578C244.678 33.6513 244.678 34.0447 244.678 34.4382C241.626 35.1071 238.896 36.8031 236.944 39.2431C234.991 41.6831 233.934 44.7194 233.948 47.8454Z" fill="#BBBBBB"/>
<path d="M279 34.8727C279.002 33.9523 278.733 33.0517 278.225 32.2842C277.718 31.5167 276.995 30.9165 276.147 30.5592C275.299 30.202 274.365 30.1036 273.462 30.2764C272.558 30.4492 271.726 30.8856 271.07 31.5305C270.414 32.1754 269.963 33.0002 269.774 33.9009C269.585 34.8017 269.667 35.7383 270.008 36.5928C270.35 37.4473 270.937 38.1815 271.695 38.7032C272.452 39.2249 273.347 39.5106 274.267 39.5245C274.884 39.5338 275.497 39.4204 276.069 39.191C276.642 38.9616 277.164 38.6206 277.604 38.1879C278.044 37.7552 278.394 37.2394 278.634 36.6703C278.873 36.1012 278.998 35.4902 279 34.8727ZM272.104 45.3989C272.526 44.7145 272.75 43.9263 272.75 43.1222C272.755 42.5233 272.632 41.9304 272.39 41.3827C272.148 40.8351 271.792 40.3453 271.346 39.9461C271.683 39.8779 272.027 39.8449 272.371 39.8477H276.317C277.898 39.8477 279.414 40.4751 280.533 41.5921C281.651 42.7092 282.282 44.2248 282.286 45.8064V50.7252L281.949 50.8236C279.634 51.5723 277.23 52.0071 274.801 52.1165V49.9101C274.801 48.9844 274.551 48.0758 274.076 47.2814C273.601 46.4869 272.919 45.8363 272.104 45.3989ZM261.473 39.5245C260.551 39.5245 259.649 39.2505 258.882 38.7372C258.115 38.2238 257.517 37.4943 257.165 36.6409C256.812 35.7876 256.721 34.8487 256.902 33.9432C257.083 33.0378 257.528 32.2065 258.182 31.5545C258.835 30.9025 259.667 30.4593 260.572 30.2808C261.478 30.1024 262.416 30.1968 263.267 30.5521C264.119 30.9074 264.846 31.5076 265.357 32.2767C265.867 33.0459 266.139 33.9493 266.136 34.8727C266.136 35.4848 266.015 36.0908 265.781 36.6561C265.546 37.2214 265.202 37.7349 264.769 38.167C264.336 38.5991 263.822 38.9415 263.257 39.1744C262.691 39.4074 262.085 39.5263 261.473 39.5245ZM259.507 39.8477H263.453C264.083 39.851 264.708 39.9506 265.307 40.1428C264.653 40.8383 264.246 41.7301 264.15 42.6803C264.053 43.6305 264.273 44.586 264.774 45.3989C263.961 45.8382 263.282 46.4896 262.81 47.2839C262.338 48.0783 262.089 48.9858 262.091 49.9101V52.1024H260.968C258.553 52.154 256.156 51.6742 253.946 50.6971L253.637 50.5425V45.694C253.67 44.1488 254.299 42.6764 255.394 41.5862C256.489 40.496 257.963 39.8728 259.507 39.8477ZM271.332 43.2768C271.324 43.8475 271.147 44.403 270.824 44.8735C270.501 45.344 270.046 45.7085 269.517 45.9212C268.988 46.1339 268.407 46.1852 267.849 46.0688C267.291 45.9524 266.779 45.6734 266.379 45.2669C265.978 44.8604 265.707 44.3445 265.599 43.7841C265.491 43.2237 265.55 42.6438 265.77 42.1172C265.991 41.5907 266.361 41.141 266.836 40.8247C267.311 40.5084 267.869 40.3396 268.439 40.3396C268.822 40.3395 269.202 40.4158 269.556 40.5639C269.91 40.712 270.23 40.9291 270.5 41.2024C270.769 41.4757 270.981 41.7998 271.124 42.1559C271.267 42.5121 271.337 42.8931 271.332 43.2768ZM267.217 46.3686H269.661C270.642 46.3686 271.582 46.7575 272.277 47.4503C272.972 48.143 273.364 49.0831 273.368 50.0647V53.1143H273.157C271.532 53.6346 269.837 53.9047 268.13 53.9154C266.628 53.9595 265.134 53.6816 263.748 53.1003L263.552 53.0019V49.9944C263.574 49.0275 263.972 48.1075 264.662 47.4302C265.352 46.7529 266.279 46.372 267.245 46.3686H267.217Z" fill="white"/>
<path d="M125.407 31.6968H132.429V40.8316C132.433 41.4678 132.687 42.077 133.136 42.5268C133.586 42.9767 134.194 43.2311 134.83 43.2348H145.714V46.2844C145.714 46.6571 145.566 47.0146 145.303 47.2782C145.039 47.5417 144.682 47.6898 144.31 47.6898H133.623L129.157 51.428C128.567 51.9059 128.258 51.7091 128.455 50.9783L129.325 47.7179H125.407C125.035 47.7179 124.677 47.5698 124.414 47.3063C124.151 47.0427 124.003 46.6852 124.003 46.3125V33.1021C124.003 32.7294 124.151 32.372 124.414 32.1084C124.677 31.8448 125.035 31.6968 125.407 31.6968Z" fill="white"/>
<path d="M154.336 41.661H152.23L153.115 44.9215C153.227 45.3852 153.115 45.6382 152.932 45.6382C152.734 45.6096 152.551 45.5156 152.412 45.3712L147.947 41.6329H135.308C134.935 41.6329 134.578 41.4849 134.315 41.2213C134.051 40.9577 133.903 40.6003 133.903 40.2276V27.0172C133.903 26.6445 134.051 26.287 134.315 26.0234C134.578 25.7599 134.935 25.6118 135.308 25.6118H154.336C154.709 25.6118 155.066 25.7599 155.329 26.0234C155.593 26.287 155.741 26.6445 155.741 27.0172V40.34C155.719 40.6979 155.562 41.0341 155.301 41.2797C155.04 41.5252 154.695 41.6617 154.336 41.661Z" fill="white"/>
<path opacity="0.05" d="M89.2596 11.4881C86.8708 11.4881 84.9342 9.55014 84.9342 7.15957C84.9342 4.769 86.8708 2.83105 89.2596 2.83105C91.6484 2.83105 93.585 4.769 93.585 7.15957C93.585 9.55014 91.6484 11.4881 89.2596 11.4881Z" fill="#633EE3"/>
<path fill-rule="evenodd" clip-rule="evenodd" d="M-6.10352e-05 7.14541C-0.00284004 8.00488 0.249267 8.84584 0.724393 9.56182C1.19952 10.2778 1.87627 10.8366 2.66894 11.1674C3.46162 11.4983 4.33459 11.5863 5.17727 11.4203C6.01996 11.2543 6.79447 10.8418 7.40275 10.2351C8.01103 9.62832 8.42572 8.85459 8.5943 8.01184C8.76288 7.16908 8.67774 6.2952 8.34972 5.50088C8.0217 4.70656 7.46554 4.02752 6.75163 3.54973C6.03771 3.07193 5.19818 2.8169 4.33934 2.81689C3.19088 2.81689 2.08927 3.27248 1.27588 4.08383C0.462483 4.89519 0.00365543 5.99613 -6.10352e-05 7.14541Z" fill="#633EE3"/>
<path opacity="0.8" d="M21.3177 11.4881C18.9289 11.4881 16.9923 9.55014 16.9923 7.15957C16.9923 4.769 18.9289 2.83105 21.3177 2.83105C23.7065 2.83105 25.6431 4.769 25.6431 7.15957C25.6431 9.55014 23.7065 11.4881 21.3177 11.4881Z" fill="#714DED"/>
<path opacity="0.6" d="M38.2962 11.4881C35.9074 11.4881 33.9709 9.55014 33.9709 7.15957C33.9709 4.769 35.9074 2.83105 38.2962 2.83105C40.6851 2.83105 42.6216 4.769 42.6216 7.15957C42.6216 9.55014 40.6851 11.4881 38.2962 11.4881Z" fill="#9779FE"/>
<path opacity="0.4" fill-rule="evenodd" clip-rule="evenodd" d="M50.9775 7.14541C50.9747 8.00488 51.2268 8.84584 51.7019 9.56182C52.1771 10.2778 52.8538 10.8366 53.6465 11.1674C54.4392 11.4983 55.3121 11.5863 56.1548 11.4203C56.9975 11.2543 57.772 10.8418 58.3803 10.2351C58.9886 9.62832 59.4033 8.85459 59.5718 8.01184C59.7404 7.16908 59.6553 6.2952 59.3273 5.50088C58.9993 4.70656 58.4431 4.02752 57.7292 3.54973C57.0152 3.07193 56.1757 2.8169 55.3169 2.81689C54.1684 2.81689 53.0668 3.27248 52.2534 4.08383C51.44 4.89519 50.9812 5.99613 50.9775 7.14541Z" fill="#9779FC"/>
<path opacity="0.2" d="M72.2669 11.4881C69.8781 11.4881 67.9416 9.55014 67.9416 7.15957C67.9416 4.769 69.8781 2.83105 72.2669 2.83105C74.6558 2.83105 76.5923 4.769 76.5923 7.15957C76.5923 9.55014 74.6558 11.4881 72.2669 11.4881Z" fill="#9D81FC"/>
</svg>
