<svg xmlns="http://www.w3.org/2000/svg" width="287" height="33" viewBox="0 0 287 33" fill="none">
<path d="M78.668 4.43652L78.668 28.5733" stroke="#D8D8D8" stroke-width="0.5" stroke-miterlimit="10"/>
<path d="M283.625 23.044C283.625 22.6133 283.528 22.215 283.335 21.8489C283.152 21.472 282.769 21.1329 282.188 20.8314C281.617 20.5192 280.756 20.25 279.604 20.0239C278.635 19.8193 277.757 19.577 276.971 19.2971C276.196 19.0172 275.534 18.678 274.985 18.2796C274.446 17.8812 274.032 17.4129 273.741 16.8745C273.45 16.3362 273.305 15.7063 273.305 14.9849C273.305 14.2958 273.456 13.6444 273.757 13.0307C274.07 12.417 274.506 11.8732 275.065 11.3995C275.636 10.9257 276.32 10.5543 277.117 10.2851C277.913 10.0159 278.802 9.88135 279.781 9.88135C281.181 9.88135 282.376 10.129 283.367 10.6243C284.357 11.1196 285.117 11.7817 285.644 12.6108C286.172 13.4291 286.435 14.3389 286.435 15.3402H283.448C283.448 14.8557 283.302 14.3873 283.012 13.9351C282.732 13.4721 282.317 13.0899 281.768 12.7884C281.23 12.487 280.567 12.3362 279.781 12.3362C278.952 12.3362 278.279 12.4654 277.763 12.7238C277.257 12.9715 276.885 13.2891 276.648 13.6767C276.422 14.0643 276.309 14.4735 276.309 14.9042C276.309 15.2272 276.363 15.5179 276.471 15.7763C276.589 16.0239 276.794 16.2554 277.084 16.4708C277.375 16.6753 277.784 16.8691 278.312 17.0522C278.839 17.2352 279.512 17.4183 280.331 17.6013C281.763 17.9243 282.942 18.3119 283.868 18.7641C284.793 19.2163 285.483 19.7709 285.935 20.4276C286.387 21.0844 286.613 21.8812 286.613 22.8179C286.613 23.5824 286.452 24.2822 286.129 24.9175C285.816 25.5527 285.359 26.1019 284.756 26.5648C284.164 27.0171 283.453 27.3724 282.624 27.6308C281.806 27.8784 280.885 28.0022 279.862 28.0022C278.323 28.0022 277.02 27.7277 275.954 27.1786C274.888 26.6294 274.08 25.9188 273.531 25.0467C272.982 24.1746 272.708 23.254 272.708 22.2849H275.712C275.755 23.1032 275.991 23.7546 276.422 24.2392C276.853 24.7129 277.38 25.0521 278.005 25.2566C278.629 25.4505 279.248 25.5474 279.862 25.5474C280.68 25.5474 281.364 25.4397 281.913 25.2243C282.473 25.009 282.898 24.7129 283.189 24.3361C283.48 23.9592 283.625 23.5285 283.625 23.044Z" fill="#F37021"/>
<path d="M268.234 4.16406V27.6792H265.117V4.16406H268.234Z" fill="#F37021"/>
<path d="M252.697 18.4573H246.415V15.9216H252.697C253.914 15.9216 254.899 15.7278 255.653 15.3402C256.406 14.9526 256.956 14.4143 257.3 13.7252C257.655 13.0361 257.833 12.2501 257.833 11.3672C257.833 10.5597 257.655 9.80059 257.3 9.08997C256.956 8.37935 256.406 7.8087 255.653 7.37802C254.899 6.93657 253.914 6.71585 252.697 6.71585H247.141V27.6792H244.024V4.16406H252.697C254.474 4.16406 255.976 4.47092 257.203 5.08464C258.431 5.69836 259.362 6.54896 259.997 7.63643C260.633 8.71313 260.95 9.94595 260.95 11.3349C260.95 12.8423 260.633 14.1289 259.997 15.1949C259.362 16.2608 258.431 17.0737 257.203 17.6336C255.976 18.1827 254.474 18.4573 252.697 18.4573Z" fill="#F37021"/>
<path d="M231.152 6.24748L223.368 27.6792H220.186L229.15 4.16406H231.201L231.152 6.24748ZM237.677 27.6792L229.876 6.24748L229.828 4.16406H231.879L240.875 27.6792H237.677ZM237.273 18.9741V21.5259H224.062V18.9741H237.273Z" fill="#F37021"/>
<path d="M210.189 2.87207V4.93934C210.189 5.58536 210.076 6.26906 209.85 6.99045C209.635 7.70108 209.317 8.39017 208.897 9.05772C208.477 9.71451 207.971 10.2905 207.379 10.7858L205.667 9.60684C206.173 8.89621 206.555 8.16944 206.814 7.42652C207.083 6.67283 207.217 5.85992 207.217 4.98779V2.87207H210.189Z" fill="#F37021"/>
<path d="M200.257 23.044C200.257 22.6133 200.16 22.215 199.966 21.8489C199.783 21.472 199.401 21.1329 198.819 20.8314C198.249 20.5192 197.387 20.25 196.235 20.0239C195.266 19.8193 194.389 19.577 193.603 19.2971C192.827 19.0172 192.165 18.678 191.616 18.2796C191.078 17.8812 190.663 17.4129 190.373 16.8745C190.082 16.3362 189.936 15.7063 189.936 14.9849C189.936 14.2958 190.087 13.6444 190.389 13.0307C190.701 12.417 191.137 11.8732 191.697 11.3995C192.267 10.9257 192.951 10.5543 193.748 10.2851C194.545 10.0159 195.433 9.88135 196.413 9.88135C197.813 9.88135 199.008 10.129 199.998 10.6243C200.989 11.1196 201.748 11.7817 202.275 12.6108C202.803 13.4291 203.067 14.3389 203.067 15.3402H200.079C200.079 14.8557 199.934 14.3873 199.643 13.9351C199.363 13.4721 198.948 13.0899 198.399 12.7884C197.861 12.487 197.199 12.3362 196.413 12.3362C195.584 12.3362 194.911 12.4654 194.394 12.7238C193.888 12.9715 193.516 13.2891 193.28 13.6767C193.053 14.0643 192.94 14.4735 192.94 14.9042C192.94 15.2272 192.994 15.5179 193.102 15.7763C193.22 16.0239 193.425 16.2554 193.716 16.4708C194.006 16.6753 194.416 16.8691 194.943 17.0522C195.471 17.2352 196.144 17.4183 196.962 17.6013C198.394 17.9243 199.573 18.3119 200.499 18.7641C201.425 19.2163 202.114 19.7709 202.566 20.4276C203.018 21.0844 203.244 21.8812 203.244 22.8179C203.244 23.5824 203.083 24.2822 202.76 24.9175C202.448 25.5527 201.99 26.1019 201.387 26.5648C200.795 27.0171 200.084 27.3724 199.255 27.6308C198.437 27.8784 197.516 28.0022 196.494 28.0022C194.954 28.0022 193.651 27.7277 192.585 27.1786C191.519 26.6294 190.712 25.9188 190.163 25.0467C189.613 24.1746 189.339 23.254 189.339 22.2849H192.343C192.386 23.1032 192.623 23.7546 193.053 24.2392C193.484 24.7129 194.012 25.0521 194.636 25.2566C195.261 25.4505 195.88 25.5474 196.494 25.5474C197.312 25.5474 197.996 25.4397 198.545 25.2243C199.105 25.009 199.53 24.7129 199.821 24.3361C200.111 23.9592 200.257 23.5285 200.257 23.044Z" fill="#F37021"/>
<path d="M186.577 10.2041V12.4975H177.129V10.2041H186.577ZM180.327 5.95654H183.315V23.3507C183.315 23.9428 183.406 24.3897 183.589 24.6911C183.772 24.9926 184.009 25.1918 184.3 25.2887C184.59 25.3856 184.903 25.4341 185.236 25.4341C185.484 25.4341 185.743 25.4125 186.012 25.3695C186.292 25.3156 186.502 25.2726 186.642 25.2403L186.658 27.679C186.421 27.7544 186.109 27.8244 185.721 27.889C185.344 27.9643 184.887 28.002 184.348 28.002C183.616 28.002 182.943 27.8567 182.329 27.5659C181.716 27.2752 181.226 26.7907 180.86 26.1124C180.504 25.4233 180.327 24.4973 180.327 23.3345V5.95654Z" fill="#F37021"/>
<path d="M168.973 28.0022C167.756 28.0022 166.653 27.7977 165.662 27.3885C164.682 26.9686 163.837 26.3818 163.127 25.6281C162.427 24.8744 161.888 23.9808 161.512 22.9471C161.135 21.9135 160.946 20.7829 160.946 19.5555V18.8772C160.946 17.4559 161.156 16.1908 161.576 15.0818C161.996 13.962 162.567 13.0145 163.288 12.2393C164.01 11.4641 164.828 10.8773 165.743 10.4789C166.658 10.0805 167.606 9.88135 168.585 9.88135C169.834 9.88135 170.911 10.0967 171.816 10.5274C172.731 10.958 173.479 11.561 174.061 12.3362C174.642 13.1007 175.073 14.0051 175.353 15.0495C175.632 16.0831 175.772 17.2137 175.772 18.4411V19.7816H162.723V17.3429H172.785V17.1168C172.742 16.3416 172.58 15.5879 172.3 14.8557C172.031 14.1236 171.6 13.5206 171.008 13.0468C170.416 12.5731 169.608 12.3362 168.585 12.3362C167.907 12.3362 167.283 12.4816 166.712 12.7723C166.141 13.0522 165.651 13.4721 165.242 14.032C164.833 14.5919 164.516 15.2756 164.289 16.0831C164.063 16.8907 163.95 17.822 163.95 18.8772V19.5555C163.95 20.3846 164.063 21.1652 164.289 21.8973C164.526 22.6187 164.865 23.254 165.307 23.8031C165.759 24.3522 166.303 24.7829 166.938 25.0951C167.584 25.4074 168.316 25.5635 169.135 25.5635C170.19 25.5635 171.083 25.3482 171.816 24.9175C172.548 24.4868 173.188 23.9108 173.738 23.1894L175.546 24.6268C175.17 25.1974 174.69 25.7412 174.109 26.258C173.528 26.7748 172.812 27.1947 171.961 27.5177C171.121 27.8407 170.125 28.0022 168.973 28.0022Z" fill="#F37021"/>
<path d="M148.284 2.87207V27.6793H145.28V2.87207H148.284ZM158.96 10.2044L151.337 18.3604L147.073 22.7857L146.831 19.604L149.883 15.954L155.31 10.2044H158.96ZM156.23 27.6793L149.996 19.3456L151.547 16.6808L159.751 27.6793H156.23Z" fill="#F37021"/>
<path d="M137.06 12.9499V27.6792H134.072V10.2044H136.979L137.06 12.9499ZM142.519 10.1075L142.502 12.8853C142.255 12.8315 142.018 12.7992 141.792 12.7884C141.576 12.7669 141.329 12.7561 141.049 12.7561C140.36 12.7561 139.751 12.8638 139.224 13.0792C138.696 13.2945 138.249 13.596 137.883 13.9836C137.517 14.3712 137.227 14.8342 137.011 15.3725C136.807 15.9001 136.672 16.4815 136.607 17.1168L135.768 17.6013C135.768 16.5461 135.87 15.5556 136.074 14.6296C136.29 13.7036 136.618 12.8853 137.06 12.1747C137.501 11.4533 138.061 10.8934 138.739 10.4951C139.428 10.0859 140.247 9.88135 141.194 9.88135C141.409 9.88135 141.657 9.90827 141.937 9.9621C142.217 10.0052 142.411 10.0536 142.519 10.1075Z" fill="#F37021"/>
<path d="M126.384 24.6914V15.6955C126.384 15.0064 126.244 14.4089 125.964 13.9028C125.695 13.386 125.286 12.9876 124.736 12.7077C124.187 12.4277 123.509 12.2878 122.702 12.2878C121.948 12.2878 121.286 12.417 120.715 12.6754C120.155 12.9338 119.714 13.273 119.391 13.6929C119.078 14.1128 118.922 14.565 118.922 15.0495H115.934C115.934 14.425 116.096 13.8059 116.419 13.1922C116.742 12.5785 117.205 12.024 117.808 11.5287C118.422 11.0227 119.154 10.6243 120.004 10.3336C120.866 10.0321 121.824 9.88135 122.879 9.88135C124.15 9.88135 125.269 10.0967 126.238 10.5274C127.218 10.958 127.983 11.6095 128.532 12.4816C129.092 13.3429 129.372 14.425 129.372 15.7278V23.8677C129.372 24.4491 129.42 25.0682 129.517 25.725C129.625 26.3818 129.781 26.9471 129.985 27.4208V27.6792H126.868C126.718 27.3347 126.599 26.8771 126.513 26.3064C126.427 25.725 126.384 25.1867 126.384 24.6914ZM126.901 17.0845L126.933 19.184H123.913C123.062 19.184 122.303 19.254 121.636 19.394C120.968 19.5232 120.408 19.7224 119.956 19.9916C119.504 20.2607 119.159 20.5999 118.922 21.0091C118.685 21.4074 118.567 21.8758 118.567 22.4142C118.567 22.9633 118.691 23.4639 118.938 23.9162C119.186 24.3684 119.558 24.7291 120.053 24.9982C120.559 25.2566 121.178 25.3858 121.91 25.3858C122.825 25.3858 123.633 25.192 124.333 24.8044C125.033 24.4168 125.587 23.9431 125.996 23.3832C126.416 22.8233 126.642 22.2796 126.675 21.752L127.95 23.1894C127.875 23.6416 127.67 24.1423 127.337 24.6914C127.003 25.2405 126.556 25.7681 125.996 26.2741C125.447 26.7694 124.79 27.1839 124.026 27.5177C123.272 27.8407 122.422 28.0022 121.474 28.0022C120.29 28.0022 119.251 27.7707 118.357 27.3078C117.474 26.8448 116.785 26.2257 116.29 25.4505C115.805 24.6645 115.563 23.7869 115.563 22.8179C115.563 21.8812 115.746 21.0575 116.112 20.3469C116.478 19.6255 117.006 19.0279 117.695 18.5542C118.384 18.0697 119.213 17.7036 120.182 17.4559C121.151 17.2083 122.233 17.0845 123.428 17.0845H126.901Z" fill="#F37021"/>
<path d="M88.64 4.16406H91.6601L99.3639 23.3347L107.052 4.16406H110.088L100.527 27.6792H98.1688L88.64 4.16406ZM87.6548 4.16406H90.3196L90.7557 18.5057V27.6792H87.6548V4.16406ZM108.392 4.16406H111.057V27.6792H107.956V18.5057L108.392 4.16406Z" fill="#F37021"/>
<path d="M38.4532 28.0684L38.562 29.0098C38.1225 29.1296 37.6079 29.1898 37.0182 29.1898C36.6902 29.1898 36.4026 29.1638 36.1552 29.1125C35.9079 29.0612 35.6931 28.9789 35.5114 28.8668C35.3298 28.7547 35.1791 28.6189 35.0587 28.4604C34.9389 28.302 34.8423 28.1043 34.7699 27.8674C34.6976 27.6306 34.6463 27.3744 34.6164 27.0983C34.5866 26.8223 34.5723 26.4998 34.5723 26.131C34.5723 25.8566 34.5805 25.6087 34.5966 25.3878C34.6126 25.1664 34.6402 24.9561 34.6788 24.7562C34.7175 24.5563 34.7677 24.3796 34.8296 24.2262C34.8914 24.0727 34.9681 23.9319 35.0603 23.8032C35.1526 23.6746 35.2602 23.5664 35.3833 23.478C35.5065 23.3897 35.6489 23.3146 35.809 23.2527C35.9697 23.1909 36.1497 23.1456 36.3501 23.1164C36.5505 23.0871 36.7731 23.0728 37.0182 23.0728C37.6029 23.0728 38.1175 23.1335 38.562 23.2555L38.4554 24.1947C38.0413 24.1262 37.6355 24.092 37.2385 24.092C37.0983 24.092 36.9696 24.0997 36.8531 24.1152C36.7366 24.1306 36.6328 24.1566 36.5428 24.1936C36.4523 24.2306 36.3717 24.2687 36.301 24.3079C36.2303 24.3471 36.1685 24.4023 36.1171 24.4724C36.0658 24.5425 36.0211 24.6077 35.9841 24.6668C35.9471 24.7258 35.9167 24.8059 35.8941 24.9058C35.8714 25.0063 35.8527 25.0935 35.8383 25.1681C35.8239 25.2426 35.814 25.3431 35.8079 25.469C35.8019 25.5949 35.798 25.7003 35.7963 25.7854C35.7947 25.8704 35.7936 25.9858 35.7936 26.1316C35.7936 26.3441 35.7952 26.5081 35.7985 26.6229C35.8019 26.7378 35.8129 26.8797 35.8317 27.0486C35.8504 27.2176 35.8775 27.3468 35.9139 27.4373C35.9504 27.5273 36.0028 27.6267 36.0724 27.7355C36.1414 27.8443 36.227 27.9254 36.3286 27.9784C36.4302 28.0314 36.5572 28.0773 36.7101 28.1148C36.8631 28.1523 37.0392 28.1717 37.2385 28.1717C37.6421 28.1717 38.0474 28.1374 38.4526 28.069L38.4532 28.0684Z" fill="#242056"/>
<path d="M40.4829 29.128H39.2461L41.003 23.9087C41.1013 23.6205 41.2293 23.409 41.3884 23.2748C41.5474 23.1407 41.7423 23.0728 41.9742 23.0728C42.4302 23.0728 42.7516 23.3516 42.9376 23.9087L44.6641 29.128H43.3915L42.9404 27.6438H40.9251L40.484 29.128H40.4829ZM41.2001 26.7102H42.6577L41.9228 24.2869L41.2006 26.7102H41.2001Z" fill="#242056"/>
<path d="M46.6325 26.8856V29.1289H45.436V23.2383C46.0257 23.1284 46.6662 23.0737 47.3574 23.0737C47.5601 23.0737 47.7428 23.0804 47.9052 23.0931C48.0675 23.1058 48.2331 23.13 48.4021 23.1648C48.571 23.2002 48.719 23.2471 48.8454 23.3062C48.9724 23.3653 49.0928 23.4437 49.2082 23.5403C49.323 23.6369 49.4174 23.7512 49.4909 23.8826C49.5643 24.014 49.6228 24.1714 49.6659 24.3558C49.709 24.5402 49.7305 24.7472 49.7305 24.9769C49.7305 25.2066 49.7112 25.4043 49.672 25.5854C49.6333 25.7665 49.5792 25.9238 49.5108 26.0574C49.4423 26.1911 49.3545 26.3081 49.2474 26.4075C49.1403 26.5069 49.0243 26.5886 48.9001 26.6532C48.7759 26.7178 48.6329 26.7691 48.4705 26.8089C48.3082 26.8481 48.1437 26.8757 47.9764 26.8912C47.8091 26.9066 47.6241 26.9143 47.4215 26.9143C47.1747 26.9143 46.9119 26.905 46.6331 26.8862L46.6325 26.8856ZM46.6325 24.0764V25.9233C46.8081 25.9454 47.0516 25.957 47.3624 25.957C47.5617 25.957 47.7301 25.9426 47.8682 25.9133C48.0056 25.8841 48.1271 25.8338 48.232 25.7615C48.3369 25.6892 48.4148 25.5887 48.465 25.4595C48.5158 25.3303 48.5412 25.1691 48.5412 24.9769C48.5412 24.6307 48.4562 24.385 48.2867 24.2409C48.1166 24.0968 47.8174 24.0251 47.3878 24.0251C47.1344 24.0251 46.8826 24.0422 46.6325 24.0764Z" fill="#242056"/>
<path d="M50.6582 29.1281V23.1348H51.8596V29.1281H50.6582Z" fill="#242056"/>
<path d="M56.802 23.1348V24.1176H55.3493V29.1287H54.1451V24.1176H52.7002V23.1348H56.8014H56.802Z" fill="#242056"/>
<path d="M57.9096 29.128H56.6729L58.4297 23.9087C58.528 23.6205 58.6561 23.409 58.8151 23.2748C58.9741 23.1407 59.169 23.0728 59.4009 23.0728C59.857 23.0728 60.1783 23.3516 60.3644 23.9087L62.0909 29.128H60.8182L60.3672 27.6438H58.3519L57.9107 29.128H57.9096ZM58.6268 26.7102H60.0845L59.3496 24.2869L58.6274 26.7102H58.6268Z" fill="#242056"/>
<path d="M66.4088 28.1558V29.1027C65.7717 29.1303 65.2681 29.1441 64.8982 29.1441C64.7154 29.1441 64.5647 29.1419 64.446 29.1375C64.3267 29.1331 64.1876 29.1204 64.0292 29.0989C63.8701 29.0773 63.7404 29.0481 63.6388 29.01C63.5372 28.9724 63.4317 28.9172 63.3219 28.8454C63.212 28.7737 63.1259 28.6864 63.0635 28.5843C63.0011 28.4821 62.9492 28.3552 62.9089 28.2022C62.8686 28.0498 62.8481 27.8754 62.8481 27.6799V23.1348H64.0496V27.3403C64.0496 27.517 64.059 27.6539 64.0772 27.7517C64.0954 27.8494 64.1363 27.9311 64.1987 27.9963C64.261 28.0614 64.3439 28.1045 64.4471 28.1249C64.5504 28.1453 64.6928 28.1558 64.8756 28.1558H66.4094H66.4088Z" fill="#242056"/>
<path fill-rule="evenodd" clip-rule="evenodd" d="M15.6882 0.86084C24.3539 0.86084 31.3836 7.88117 31.3836 16.5474C31.3836 25.2136 24.3539 32.2373 15.6882 32.2373C7.02254 32.2373 0 25.2125 0 16.5474C0 7.88227 7.03137 0.86084 15.6882 0.86084Z" fill="#F26F21"/>
<path fill-rule="evenodd" clip-rule="evenodd" d="M13.5732 17.1853L14.2131 15.6923H12.5319L13.5726 17.1853H13.5732ZM13.2966 14.1154L14.2136 15.6929L14.8773 14.1154H13.2966ZM13.2966 14.1154L14.2291 12.2194H12.2056L13.2966 14.1154ZM8.17887 12.2194L10.1919 16.1274L12.2056 12.2194H8.17887ZM10.1919 16.1274L8.07286 20.2099H12.2801L11.2785 18.2481L10.1914 16.1274H10.1919ZM11.2294 14.1154L12.2298 16.2991L12.5324 15.6923L13.2966 14.1149H11.2294V14.1154ZM12.2298 16.2991L11.2791 18.2476H13.1271L12.2304 16.2991H12.2298ZM13.5732 17.1853L13.1265 18.2476H14.3191L13.5732 17.1853ZM12.2856 20.2093H14.0226L13.1265 18.2476L12.2801 20.2093H12.2856ZM14.164 23.8644L12.2801 20.2093L10.7297 23.8644H14.1634H14.164ZM15.6889 20.2093L15.3847 19.782L14.3191 18.2476H17.0676L15.6889 20.2093ZM10.4691 9.23352L13.3269 5.50664H8.31469L10.4691 9.23352ZM13.7659 9.23352H10.4691L12.2056 12.2189L13.7659 9.23352ZM8.17887 12.2189L10.4691 9.23352H6.64947L8.17887 12.2189ZM8.17887 12.2189H2.24624L5.13498 16.1854L8.17887 12.2189ZM8.07286 20.2093L6.17629 23.8644H10.7303L8.07286 20.2093ZM2.05078 20.2093H8.07286L5.13498 16.1854L2.05078 20.2093ZM9.46257 26.8349H12.8963L10.7303 23.8644L9.46257 26.8349ZM17.8064 17.1853L17.172 15.6923H18.8537L17.8064 17.1853ZM18.078 14.1154L17.172 15.6929L16.4984 14.1154H18.078ZM18.078 14.1154L17.1477 12.2194H19.1756L18.078 14.1154ZM23.1962 12.2194L21.1882 16.1274L19.1756 12.2194H23.1962ZM21.1882 16.1274L23.3072 20.2099H19.0939L20.1016 18.2481L21.1887 16.1274H21.1882ZM20.1524 14.1154L19.153 16.2991L18.8537 15.6923L18.078 14.1149H20.1518L20.1524 14.1154ZM19.153 16.2991L20.1016 18.2476H18.2591L19.153 16.2991ZM17.8064 17.1853L18.2591 18.2476H17.0676L17.8064 17.1853ZM19.0906 20.2093H17.3652L18.2597 18.2476L19.0945 20.2093H19.0912H19.0906ZM17.2183 23.8644L19.0939 20.2093L20.6498 23.8644H17.2178H17.2183ZM15.6895 14.1149H16.4989L15.6895 12.2189L14.8779 14.1149H15.6895ZM15.6895 18.247L15.8943 17.8904L17.172 15.6923H14.2136L15.6889 18.2476L15.6895 18.247ZM15.6895 23.8644L17.3652 20.2093H14.0232L15.3118 23.029L15.6895 23.8644ZM20.9077 9.23297L18.0532 5.50609H23.0665L20.9077 9.23297ZM17.6208 9.23297H20.9077L19.1762 12.2183L17.6208 9.23297ZM23.1968 12.2183L20.9077 9.23297H24.7328L23.1968 12.2183ZM23.1968 12.2183H29.1355L26.2418 16.1848L23.1968 12.2183ZM23.3072 20.2088L25.1938 23.8639H20.6498L23.3072 20.2088ZM29.326 20.2088H23.3072L26.2412 16.1848L29.3254 20.2088H29.326ZM21.9236 26.8343H18.486L20.6498 23.8639L21.923 26.8343H21.9236ZM15.6895 5.50554H18.0532L15.6895 2.43018L13.3275 5.50554H15.6895ZM15.6895 9.23241H17.6208L15.6895 5.50554L13.7664 9.23241H15.6895ZM15.6895 12.2178H17.1482L16.2725 10.4101L15.6895 9.23241L14.2297 12.2178H15.6895ZM15.6895 26.8338L16.0809 26.0619L17.2183 23.8639H14.1645L15.6895 26.8343V26.8338ZM15.6895 30.6677L18.486 26.8338H12.8963L15.6889 30.6677H15.6895Z" fill="white"/>
<path fill-rule="evenodd" clip-rule="evenodd" d="M45.4348 4.59863H42.8729C42.0525 4.59863 41.3838 5.26892 41.3838 6.08497V20.2907H43.9446C44.7595 20.2907 45.4348 19.632 45.4348 18.8066V4.59863ZM49.7017 4.59863H58.3618V7.22677C58.3618 8.00307 57.718 8.64574 56.9384 8.64574H52.3V10.6533H57.3404V13.2748C57.3404 14.061 56.7082 14.6949 55.9225 14.6949H52.3V18.8458C52.3 19.6486 51.6501 20.2913 50.86 20.2913H48.2529V6.03914C48.2529 5.24904 48.9016 4.59863 49.7017 4.59863ZM38.5602 4.59863H36.0028C35.1878 4.59863 34.5137 5.26892 34.5137 6.08497V20.2907H37.0706C37.8855 20.2907 38.5597 19.632 38.5597 18.8066V4.59863H38.5602ZM64.639 4.59863H62.0418C61.2472 4.59863 60.5963 5.24904 60.5963 6.03914V20.2907H68.1257C68.9103 20.2907 69.5507 19.6569 69.5507 18.8717V16.2491H64.639V4.59863Z" fill="#242056"/>
</svg>