<svg width="68" height="31" viewBox="0 0 68 31" fill="none" xmlns="http://www.w3.org/2000/svg">
<path d="M60.7394 1.67563L31.0995 31.324C30.1743 32.2495 30.1743 33.75 31.0995 34.6755L60.7394 64.3239C61.6646 65.2494 63.1647 65.2493 64.0899 64.3239L93.7297 34.6755C94.6549 33.75 94.6549 32.2495 93.7297 31.324L64.0899 1.67564C63.1647 0.750163 61.6646 0.750158 60.7394 1.67563Z" fill="#FAAA38"/>
<path d="M31.3151 1.67563L1.67523 31.324C0.750028 32.2495 0.750027 33.75 1.67523 34.6755L31.3151 64.3239C32.2403 65.2494 33.7404 65.2493 34.6656 64.3239L64.3054 34.6755C65.2306 33.75 65.2306 32.2495 64.3054 31.324L34.6656 1.67564C33.7404 0.750163 32.2403 0.750161 31.3151 1.67563Z" fill="#4D2BC2"/>
</svg>
