<svg width="115" height="59" viewBox="0 0 115 59" fill="none" xmlns="http://www.w3.org/2000/svg">
<path d="M63.5533 55.9276L117.893 1.57215C119.589 -0.124554 119.589 -2.87545 117.893 -4.57215L63.5533 -58.9276C61.8571 -60.6243 59.107 -60.6243 57.4108 -58.9276L3.07107 -4.57214C1.37486 -2.87544 1.37486 -0.124555 3.07107 1.57214L57.4108 55.9276C59.107 57.6243 61.8571 57.6243 63.5533 55.9276Z" fill="#FAAA38"/>
<path d="M117.498 55.9271L171.838 1.57166C173.534 -0.125041 173.534 -2.87593 171.838 -4.57263L117.498 -58.928C115.802 -60.6247 113.052 -60.6247 111.356 -58.928L57.0159 -4.57263C55.3197 -2.87593 55.3197 -0.125043 57.0159 1.57165L111.356 55.9271C113.052 57.6238 115.802 57.6238 117.498 55.9271Z" fill="#4D2BC2"/>
</svg>
