<svg width="113" height="56" viewBox="0 0 113 56" fill="none" xmlns="http://www.w3.org/2000/svg">
<path d="M49.3558 3.07243L-4.98392 57.4279C-6.68013 59.1246 -6.68013 61.8754 -4.98392 63.5721L49.3558 117.928C51.052 119.624 53.8021 119.624 55.4984 117.928L109.838 63.5721C111.534 61.8754 111.534 59.1246 109.838 57.4279L55.4984 3.07244C53.8021 1.37574 51.0521 1.37574 49.3558 3.07243Z" fill="#FAAA38"/>
<path d="M-4.58899 3.07293L-58.9287 57.4283C-60.6249 59.125 -60.625 61.8759 -58.9287 63.5726L-4.58899 117.928C-2.89278 119.625 -0.142678 119.625 1.55353 117.928L55.8933 63.5726C57.5895 61.8759 57.5895 59.125 55.8933 57.4283L1.55353 3.07293C-0.142679 1.37623 -2.89278 1.37623 -4.58899 3.07293Z" fill="#4D2BC2"/>
</svg>
