<svg width="16" height="11" viewBox="0 0 16 11" fill="none" xmlns="http://www.w3.org/2000/svg">
<path d="M7.9998 7.61535C8.44304 7.61535 8.87631 7.48149 9.24485 7.23071C9.61338 6.97993 9.90062 6.62349 10.0702 6.20646C10.2398 5.78942 10.2842 5.33053 10.1978 4.88781C10.1113 4.44509 9.89785 4.03843 9.58444 3.71925C9.27103 3.40006 8.87172 3.1827 8.437 3.09464C8.00229 3.00657 7.5517 3.05177 7.1422 3.22451C6.73271 3.39725 6.38271 3.68978 6.13647 4.0651C5.89022 4.44042 5.75879 4.88167 5.75879 5.33307C5.75879 5.93836 5.9949 6.51887 6.41517 6.94688C6.83544 7.37489 7.40545 7.61535 7.9998 7.61535Z" fill="#F37921"/>
<path fill-rule="evenodd" clip-rule="evenodd" d="M0.156448 5.95716C0.0537969 5.76585 0 5.55134 0 5.33333C0 5.11533 0.0537969 4.90082 0.156448 4.70951C0.93165 3.28262 2.068 2.09324 3.44737 1.26502C4.82673 0.436812 6.39875 0 8 0C9.60125 0 11.1733 0.436812 12.5526 1.26502C13.932 2.09324 15.0684 3.28262 15.8436 4.70951C15.9462 4.90082 16 5.11533 16 5.33333C16 5.55134 15.9462 5.76585 15.8436 5.95716C15.0684 7.38405 13.932 8.57343 12.5526 9.40164C11.1733 10.2299 9.60125 10.6667 8 10.6667C6.39875 10.6667 4.82673 10.2299 3.44737 9.40164C2.068 8.57343 0.93165 7.38405 0.156448 5.95716ZM11.735 5.33333C11.735 6.08566 11.516 6.82108 11.1056 7.44661C10.6952 8.07215 10.1118 8.55969 9.42933 8.84759C8.74685 9.13549 7.99586 9.21082 7.27133 9.06405C6.54681 8.91728 5.88129 8.555 5.35894 8.02303C4.83659 7.49106 4.48086 6.81328 4.33674 6.07542C4.19263 5.33755 4.26659 4.57274 4.54929 3.87768C4.83198 3.18263 5.31071 2.58855 5.92493 2.17059C6.53915 1.75262 7.26128 1.52953 8 1.52953C8.99059 1.52953 9.94061 1.93029 10.6411 2.64364C11.3415 3.35699 11.735 4.3245 11.735 5.33333Z" fill="#F37921"/>
</svg>
