<svg width="80" height="80" viewBox="0 0 80 80" fill="none" xmlns="http://www.w3.org/2000/svg">
<path d="M40 0C29.3912 0 19.2168 4.21486 11.715 11.715C4.21486 19.2168 0 29.3912 0 40C0 50.6088 4.21486 60.7832 11.715 68.285C19.2168 75.7867 29.3912 80 40 80C50.6088 80 60.7832 75.7851 68.285 68.285C75.7867 60.7832 80 50.6088 80 40C80 32.9783 78.1516 26.0815 74.6408 20C71.1299 13.9185 66.08 8.8701 60 5.35924C53.92 1.84838 47.0217 0 40.0015 0H40Z" fill="#1F921B"/>
<path d="M22.3999 41.1455L33.3401 51.022L57.9555 28.7998" stroke="white" stroke-width="6" stroke-linecap="round" stroke-linejoin="round"/>
</svg>
