<svg width="24" height="24" viewBox="0 0 24 24" fill="none" xmlns="http://www.w3.org/2000/svg">
<path d="M11.9999 1.9H12C13.9976 1.9 15.9503 2.49235 17.6113 3.60216C19.2722 4.71196 20.5667 6.28936 21.3312 8.13489C22.0956 9.98043 22.2956 12.0112 21.9059 13.9704C21.5162 15.9296 20.5543 17.7293 19.1418 19.1418C17.7293 20.5543 15.9296 21.5162 13.9704 21.9059C12.0112 22.2956 9.98043 22.0956 8.1349 21.3312C6.28936 20.5667 4.71196 19.2722 3.60216 17.6113C2.49236 15.9503 1.9 13.9976 1.9 12V11.9999C1.90328 9.32223 2.96842 6.75519 4.86181 4.86181C6.75519 2.96842 9.32223 1.90328 11.9999 1.9ZM20.2406 16.5331C20.951 15.2477 21.3478 13.8128 21.3989 12.3454H18.0471C18.0237 13.7639 17.8078 15.1727 17.4056 16.5331H20.2406ZM11.6546 6.77607V2.61063C9.96402 2.80252 8.46044 4.39122 7.54806 6.77607H11.6546ZM11.6546 7.46687H7.30806C6.89091 8.82467 6.66726 10.2345 6.64367 11.6546H11.6546V7.46687ZM12.3454 6.77607H16.4519C15.5396 4.39122 14.036 2.80252 12.3454 2.61063V6.77607ZM12.3454 7.46687V11.6546H17.3563C17.3327 10.2345 17.1091 8.82467 16.6919 7.46687H12.3454ZM17.4056 7.46687C17.8078 8.82729 18.0237 10.236 18.0471 11.6546H21.3988C21.3475 10.1872 20.9508 8.75243 20.2406 7.46687H17.4056ZM16.692 16.5331C17.1094 15.1754 17.333 13.7656 17.3564 12.3454H12.3454V16.5331H16.692ZM12.3454 17.2239V21.3894C14.036 21.1975 15.5396 19.6088 16.4519 17.2239H12.3454ZM11.6546 17.2239H7.54806C8.46044 19.6088 9.96402 21.1975 11.6546 21.3894V17.2239ZM11.6546 16.5331V12.3454H6.64364C6.66695 13.7656 6.89061 15.1754 7.30804 16.5331H11.6546ZM6.59439 16.5331C6.19216 15.1727 5.97634 13.7639 5.95286 12.3454H2.60113C2.65219 13.8128 3.04896 15.2477 3.75939 16.5331H6.59439ZM5.95286 11.6546C5.97634 10.236 6.19216 8.82729 6.59439 7.46687H3.7594C3.04923 8.75243 2.65249 10.1872 2.60115 11.6546H5.95286ZM9.24801 3.00334C7.17892 3.6407 5.38786 4.97139 4.18016 6.77607H6.82055C7.40166 5.17846 8.24044 3.8636 9.24801 3.00334ZM17.1794 6.77607H19.8198C18.6121 4.97139 16.8211 3.6407 14.752 3.00334C15.7596 3.8636 16.5983 5.17846 17.1794 6.77607ZM14.752 20.9967C16.8211 20.3593 18.6121 19.0286 19.8198 17.2239H17.1794C16.5983 18.8215 15.7596 20.1364 14.752 20.9967ZM6.82055 17.2239H4.18016C5.38786 19.0286 7.17892 20.3593 9.24801 20.9967C8.24044 20.1364 7.40166 18.8215 6.82055 17.2239Z" fill="#83838B" stroke="#83838B" stroke-width="0.2"/>
</svg>
